<svg xmlns:xlink="http://www.w3.org/1999/xlink" xmlns="http://www.w3.org/2000/svg" contentScriptType="text/ecmascript" zoomAndPan="magnify" contentStyleType="text/css" id="Outline_Version" enable-background="new 0 0 24 24" version="1.1" xml:space="preserve" width="24px" preserveAspectRatio="xMidYMid meet" viewBox="0 0 24 24" height="24px" x="0px" y="0px">
    <g fill="#3e3832">
        <path d="M20.987,2.436c-0.003-0.022-0.007-0.042-0.013-0.064c-0.023-0.086-0.06-0.166-0.121-0.226l-2-2   C18.76,0.053,18.633,0,18.5,0h-13C5.367,0,5.24,0.053,5.146,0.146l-2,2c-0.061,0.061-0.098,0.14-0.121,0.226   C3.02,2.394,3.016,2.414,3.013,2.436C3.01,2.458,3,2.478,3,2.5v21C3,23.776,3.224,24,3.5,24h7h3h7c0.276,0,0.5-0.224,0.5-0.5v-21   C21,2.478,20.99,2.458,20.987,2.436z M5.707,1h12.586l1,1H4.707L5.707,1z M11,23v-3h2v3H11z M20,23h-6v-3.5   c0-0.276-0.224-0.5-0.5-0.5h-3c-0.276,0-0.5,0.224-0.5,0.5V23H4V3h16V23z" />
        <path d="M10.5,18h3c0.276,0,0.5-0.224,0.5-0.5v-3c0-0.276-0.224-0.5-0.5-0.5h-3c-0.276,0-0.5,0.224-0.5,0.5v3   C10,17.776,10.224,18,10.5,18z M11,15h2v2h-2V15z" />
        <path d="M15.5,18h3c0.276,0,0.5-0.224,0.5-0.5v-3c0-0.276-0.224-0.5-0.5-0.5h-3c-0.276,0-0.5,0.224-0.5,0.5v3   C15,17.776,15.224,18,15.5,18z M16,15h2v2h-2V15z" />
        <path d="M5.5,18h3C8.776,18,9,17.776,9,17.5v-3C9,14.224,8.776,14,8.5,14h-3C5.224,14,5,14.224,5,14.5v3C5,17.776,5.224,18,5.5,18z    M6,15h2v2H6V15z" />
        <path d="M10.5,13h3c0.276,0,0.5-0.224,0.5-0.5v-3C14,9.224,13.776,9,13.5,9h-3C10.224,9,10,9.224,10,9.5v3   C10,12.776,10.224,13,10.5,13z M11,10h2v2h-2V10z" />
        <path d="M15.5,13h3c0.276,0,0.5-0.224,0.5-0.5v-3C19,9.224,18.776,9,18.5,9h-3C15.224,9,15,9.224,15,9.5v3   C15,12.776,15.224,13,15.5,13z M16,10h2v2h-2V10z" />
        <path d="M5.5,13h3C8.776,13,9,12.776,9,12.5v-3C9,9.224,8.776,9,8.5,9h-3C5.224,9,5,9.224,5,9.5v3C5,12.776,5.224,13,5.5,13z M6,10   h2v2H6V10z" />
        <path d="M10.5,8h3C13.776,8,14,7.776,14,7.5v-3C14,4.224,13.776,4,13.5,4h-3C10.224,4,10,4.224,10,4.5v3C10,7.776,10.224,8,10.5,8z    M11,5h2v2h-2V5z" />
        <path d="M15.5,8h3C18.776,8,19,7.776,19,7.5v-3C19,4.224,18.776,4,18.5,4h-3C15.224,4,15,4.224,15,4.5v3C15,7.776,15.224,8,15.5,8z    M16,5h2v2h-2V5z" />
        <path d="M5.5,8h3C8.776,8,9,7.776,9,7.5v-3C9,4.224,8.776,4,8.5,4h-3C5.224,4,5,4.224,5,4.5v3C5,7.776,5.224,8,5.5,8z M6,5h2v2H6V5   z" />
    </g>
</svg>