<svg xmlns:xlink="http://www.w3.org/1999/xlink" xmlns="http://www.w3.org/2000/svg" contentScriptType="text/ecmascript" zoomAndPan="magnify" contentStyleType="text/css" id="Outline_Version" enable-background="new 0 0 24 24" version="1.1" xml:space="preserve" width="24px" preserveAspectRatio="xMidYMid meet" viewBox="0 0 24 24" height="24px" x="0px" y="0px">
    <path fill="#3e3832" d="M20.928,4.01c-0.039-0.069-0.09-0.131-0.158-0.174c-1.422-1.526-3.228-2.688-5.272-3.313  c-0.021-0.006-0.039-0.013-0.061-0.016C14.347,0.181,13.194,0,12,0C5.383,0,0,5.383,0,12s5.383,12,12,12s12-5.383,12-12  C24,8.93,22.831,6.134,20.928,4.01z M19.948,4.416c-0.158,0.618-0.693,2.291-2.021,3.056c-1.764-0.346-3.474,0.622-3.843,1.07  c-0.237,0.289-0.156,0.546-0.11,0.644c0.066,0.14,0.24,0.257,0.405,0.299c0.168,0.188,0.461,0.938,0.636,1.637  c0.022,0.088,0.067,0.168,0.132,0.232c0.484,0.484,1.177,0.399,1.629,0.267c0.064,0.534-0.695,1.382-1.441,2.158  C14.778,14.355,14.5,14.646,14.5,15c0,0.415,0.304,0.68,0.526,0.872c0.073,0.065,0.196,0.174,0.217,0.151  c0,0.001-0.016,0.042-0.097,0.123c-0.648,0.648-1.301,0.878-1.305,0.879c-0.204,0.068-0.342,0.26-0.342,0.475  c0,1.308-0.817,1.98-2.429,2c-0.337-0.25-1.051-1.633-1.071-2c0-0.132,0.101-0.332,0.197-0.526C10.339,16.689,10.5,16.368,10.5,16  c0-0.562-0.621-1.304-1.005-1.708c-0.032-0.618-0.209-1.071-0.538-1.383c-0.563-0.53-1.404-0.48-2.221-0.438  C6.495,12.485,6.248,12.5,6,12.5c-0.979,0-1-1.44-1-1.5c0-0.031,0.024-3.095,2.098-3.51C8.543,7.201,8.971,7.471,9,7.5  c0,0.133,0.053,0.26,0.146,0.354c0.896,0.896,2.251,0.578,3.339,0.325C12.881,8.087,13.255,8,13.5,8c0.249,0,0.46-0.183,0.495-0.43  c0.189-1.327,0.279-3.007-0.372-3.477c-0.242-0.175-0.552-0.188-0.847-0.041c-0.361,0.182-0.699,0.212-0.926,0.086  c-0.252-0.14-0.331-0.449-0.353-0.685c-0.061-0.644,1.948-1.52,3.837-1.934C17.112,2.087,18.689,3.098,19.948,4.416z M12,23  C5.935,23,1,18.065,1,12S5.935,1,12,1c0.425,0,0.842,0.03,1.255,0.077c-1.367,0.492-2.861,1.301-2.753,2.469  c0.063,0.672,0.369,1.192,0.862,1.467c0.479,0.265,1.087,0.267,1.698,0.009c0.087,0.356,0.084,1.172-0.009,2.018  c-0.249,0.039-0.517,0.102-0.795,0.166C11.42,7.398,10.479,7.619,9.95,7.23C9.895,7.069,9.786,6.895,9.604,6.746  c-0.514-0.421-1.4-0.497-2.702-0.236C4.033,7.084,4,10.841,4,11c0,0.864,0.418,2.5,2,2.5c0.267,0,0.534-0.015,0.793-0.03  c0.631-0.035,1.228-0.069,1.478,0.167C8.423,13.78,8.5,14.07,8.5,14.5c0,0.133,0.053,0.26,0.146,0.354  C9.07,15.278,9.478,15.829,9.5,16c0,0.132-0.101,0.332-0.197,0.526C9.161,16.811,9,17.132,9,17.5c0,0.508,1.025,3,2,3  c2.091,0,3.343-0.966,3.486-2.665c0.325-0.158,0.849-0.463,1.367-0.981c0.266-0.266,0.396-0.546,0.386-0.832  c-0.016-0.433-0.328-0.705-0.557-0.903c-0.04-0.034-0.091-0.079-0.129-0.104c0.117-0.144,0.333-0.367,0.501-0.543  c0.939-0.977,2.512-2.611,1.299-3.824c-0.152-0.151-0.384-0.189-0.577-0.094c-0.211,0.104-0.625,0.223-0.838,0.145  c-0.246-0.928-0.503-1.464-0.733-1.773c0.546-0.313,1.613-0.706,2.674-0.438c0.114,0.028,0.236,0.016,0.345-0.038  c1.418-0.709,2.147-2.157,2.493-3.13C22.143,7.172,23,9.485,23,12C23,18.065,18.065,23,12,23z" />
</svg>