<svg xmlns:xlink="http://www.w3.org/1999/xlink" xmlns="http://www.w3.org/2000/svg" contentScriptType="text/ecmascript" zoomAndPan="magnify" contentStyleType="text/css" id="Outline_Version" enable-background="new 0 0 24 24" version="1.1" xml:space="preserve" width="24px" preserveAspectRatio="xMidYMid meet" viewBox="0 0 24 24" height="24px" x="0px" y="0px">
    <path fill="#3e3832" d="M12.005,0c-0.175,0-0.35,0.004-0.52,0.012C4.938,0.274,0,5.321,0,11.75C0,18.505,5.369,24,11.968,24  C18.603,24,24,18.598,24,11.957C24,5.364,18.619,0,12.005,0z M1.012,11.979h5.545c0.054,1.646,0.359,3.32,0.914,5H2.265  C1.493,15.479,1.047,13.78,1.012,11.979z M6.552,10.979H1.037c0.127-1.845,0.698-3.545,1.624-5h4.864  C6.927,7.592,6.602,9.267,6.552,10.979z M8.555,5.979h6.9c0.653,1.609,0.994,3.285,1.048,5H7.506  C7.56,9.264,7.901,7.588,8.555,5.979z M7.509,11.979H16.5c-0.059,1.642-0.384,3.314-0.984,5H8.492  C7.893,15.293,7.567,13.62,7.509,11.979z M17.453,11.979h5.546c-0.004,1.801-0.447,3.498-1.218,5h-5.243  C17.093,15.299,17.398,13.626,17.453,11.979z M17.457,10.979c-0.049-1.712-0.374-3.387-0.973-5h4.723  c0.961,1.463,1.579,3.166,1.743,5H17.457z M20.475,4.979h-4.401c-0.6-1.333-1.39-2.616-2.378-3.835  C16.407,1.563,18.798,2.961,20.475,4.979z M12.276,1.014c1.136,1.258,2.038,2.585,2.718,3.965H9.016  c0.682-1.383,1.585-2.713,2.725-3.973C11.828,1.004,11.916,1,12.005,1C12.097,1,12.186,1.012,12.276,1.014z M10.332,1.123  C9.336,2.348,8.54,3.639,7.938,4.979h-4.56C5.048,2.933,7.486,1.525,10.332,1.123z M2.842,17.979h4.985  c0.64,1.643,1.523,3.284,2.642,4.903C7.294,22.434,4.546,20.598,2.842,17.979z M11.764,22.989c-1.227-1.665-2.18-3.341-2.878-5.011  h6.237c-0.698,1.669-1.65,3.344-2.876,5.008C12.153,22.988,12.062,23,11.968,23C11.898,23,11.832,22.99,11.764,22.989z   M13.545,22.874c1.116-1.617,1.997-3.256,2.637-4.896h5.021C19.506,20.578,16.746,22.412,13.545,22.874z" />
</svg>