<svg xmlns:xlink="http://www.w3.org/1999/xlink" xmlns="http://www.w3.org/2000/svg" contentScriptType="text/ecmascript" zoomAndPan="magnify" contentStyleType="text/css" id="Outine_Version" enable-background="new 0 0 24 24" version="1.1" xml:space="preserve" width="24px" preserveAspectRatio="xMidYMid meet" viewBox="0 0 24 24" height="24px" x="0px" y="0px">
    <g fill="#3e3832">
        <path d="M11.5,1C5.159,1,0,6.159,0,12.5C0,18.841,5.159,24,11.5,24S23,18.841,23,12.5C23,6.159,17.841,1,11.5,1z M11.5,23   C5.71,23,1,18.29,1,12.5C1,6.71,5.71,2,11.5,2S22,6.71,22,12.5C22,18.29,17.29,23,11.5,23z" />
        <path d="M14.5,19H12v-8.5c0-0.276-0.224-0.5-0.5-0.5h-2C9.224,10,9,10.224,9,10.5S9.224,11,9.5,11H11v8H8.5   C8.224,19,8,19.224,8,19.5S8.224,20,8.5,20h6c0.276,0,0.5-0.224,0.5-0.5S14.776,19,14.5,19z" />
        <circle r="1" cx="11" cy="6.5" />
    </g>
</svg>