<svg xmlns:xlink="http://www.w3.org/1999/xlink" xmlns="http://www.w3.org/2000/svg" contentScriptType="text/ecmascript" zoomAndPan="magnify" contentStyleType="text/css" id="Outline_Version" enable-background="new 0 0 24 24" version="1.1" xml:space="preserve" width="24px" preserveAspectRatio="xMidYMid meet" viewBox="0 0 24 24" height="24px" x="0px" y="0px">
    <path fill="#3e3832" d="M23.5,0h-23C0.224,0,0,0.224,0,0.5v16C0,16.776,0.224,17,0.5,17H7v3.5c0,0.202,0.122,0.385,0.309,0.462  C7.37,20.988,7.436,21,7.5,21c0.13,0,0.258-0.051,0.354-0.146L11.707,17H23.5c0.276,0,0.5-0.224,0.5-0.5v-16  C24,0.224,23.776,0,23.5,0z M23,16H11.5c-0.133,0-0.26,0.053-0.354,0.146L8,19.293V16.5C8,16.224,7.776,16,7.5,16H1V1h22V16z" />
</svg>