<?xml version="1.0" encoding="utf-8"?>
<!-- Generator: Adobe Illustrator 16.0.0, SVG Export Plug-In . SVG Version: 6.00 Build 0)  -->
<!DOCTYPE svg PUBLIC "-//W3C//DTD SVG 1.1//EN" "http://www.w3.org/Graphics/SVG/1.1/DTD/svg11.dtd">
<svg version="1.1" id="Filled_Version" xmlns="http://www.w3.org/2000/svg" xmlns:xlink="http://www.w3.org/1999/xlink" x="0px"
	 y="0px" width="24px" height="24px" viewBox="0 0 24 24" enable-background="new 0 0 24 24" xml:space="preserve">
<g>
	<g>
		<path d="M5.934,5.576c-0.256,0-0.512-0.096-0.707-0.293l-2-2c-0.391-0.391-0.391-1.023,0-1.414c0.391-0.389,1.023-0.389,1.414,0
			l2,2c0.391,0.391,0.391,1.023,0,1.414C6.445,5.48,6.189,5.576,5.934,5.576z"/>
	</g>
	<g>
		<path d="M9.002,4.5c-0.553,0-1-0.447-1-1V1c0-0.551,0.447-1,1-1s1,0.449,1,1v2.5C10.002,4.053,9.555,4.5,9.002,4.5z"/>
	</g>
	<g>
		<path d="M4.908,9h-2.5c-0.553,0-1-0.447-1-1c0-0.551,0.447-1,1-1h2.5c0.553,0,1,0.449,1,1C5.908,8.553,5.461,9,4.908,9z"/>
	</g>
	<g>
		<path d="M5.559,24.002c-1.152,0-2.305-0.438-3.182-1.316l-1.061-1.061c-1.756-1.754-1.756-4.609,0-6.361l3.402-3.404
			c0.391-0.391,1.023-0.391,1.414,0s0.391,1.023,0,1.414L2.73,16.676c-0.975,0.975-0.975,2.561,0,3.535l1.061,1.061
			c0.975,0.977,2.561,0.975,3.535,0l3.402-3.402c0.391-0.389,1.023-0.389,1.414,0c0.391,0.391,0.391,1.023,0,1.414L8.74,22.686
			C7.863,23.564,6.711,24.002,5.559,24.002z"/>
	</g>
	<g>
		<path d="M19.383,18h-4.475c-0.553,0-1-0.447-1-1c0-0.551,0.447-1,1-1h4.475c1.436,0,2.648-1.109,2.648-2.424v-2
			c0-1.35-1.25-2.576-2.623-2.576h-4.5c-0.553,0-1-0.447-1-1c0-0.551,0.447-1,1-1h4.5c2.506,0,4.623,2.096,4.623,4.576v2
			C24.031,16.016,21.947,18,19.383,18z"/>
	</g>
</g>
</svg>
