<?xml version="1.0" encoding="utf-8"?>
<!-- Generator: Adobe Illustrator 16.0.0, SVG Export Plug-In . SVG Version: 6.00 Build 0)  -->
<!DOCTYPE svg PUBLIC "-//W3C//DTD SVG 1.1//EN" "http://www.w3.org/Graphics/SVG/1.1/DTD/svg11.dtd">
<svg version="1.1" id="Filled_Version" xmlns="http://www.w3.org/2000/svg" xmlns:xlink="http://www.w3.org/1999/xlink" x="0px"
	 y="0px" width="24px" height="24px" viewBox="0 0 24 24" enable-background="new 0 0 24 24" xml:space="preserve">
<g>
	<path d="M18.722,13.57l3.81-4.114c1.53-1.652,0.842-4.672-0.772-6.167l-1.823-1.688c-0.753-0.699-1.875-1.188-3.002-1.312
		c-1.328-0.146-2.467,0.214-3.206,1.013L9.917,5.416C8.793,6.63,8.866,8.531,10.08,9.655l0.089,0.083
		c0.406,0.375,1.038,0.35,1.413-0.056c0.376-0.405,0.351-1.038-0.055-1.413l-0.089-0.082c-0.404-0.375-0.429-1.009-0.054-1.414
		l3.81-4.114c0.294-0.317,0.849-0.457,1.521-0.383c0.705,0.076,1.418,0.378,1.86,0.79L20.4,4.757c0.864,0.8,1.351,2.599,0.663,3.341
		l-3.81,4.114c-0.375,0.403-1.009,0.428-1.413,0.053l-0.089-0.082c-0.404-0.375-1.037-0.352-1.413,0.053
		c-0.375,0.405-0.352,1.038,0.054,1.414l0.089,0.083c0.577,0.534,1.309,0.798,2.038,0.798C17.326,14.531,18.131,14.207,18.722,13.57
		z"/>
	<path d="M9.517,10.264C8.93,9.719,8.166,9.438,7.363,9.466c-0.801,0.031-1.541,0.372-2.086,0.96l-3.81,4.113
		c-0.739,0.798-1.011,1.961-0.765,3.274c0.209,1.113,0.783,2.195,1.537,2.893l1.823,1.688c0.901,0.836,2.256,1.347,3.542,1.347
		c1.017,0,1.99-0.318,2.666-1.049l3.81-4.113c1.124-1.213,1.052-3.115-0.162-4.239l-0.09-0.082
		c-0.405-0.376-1.038-0.352-1.413,0.053c-0.375,0.407-0.351,1.039,0.055,1.414l0.089,0.082c0.405,0.375,0.429,1.009,0.055,1.413
		l-3.81,4.113c-0.687,0.742-2.518,0.395-3.383-0.406l-1.823-1.688c-0.442-0.41-0.799-1.098-0.93-1.795
		c-0.125-0.666-0.028-1.229,0.266-1.546l3.811-4.114c0.182-0.195,0.428-0.309,0.695-0.319c0.261-0.011,0.521,0.084,0.718,0.267
		l0.089,0.082c0.406,0.375,1.039,0.35,1.413-0.056c0.375-0.406,0.351-1.039-0.055-1.414L9.517,10.264z"/>
	<path d="M7.583,16.767c0.192,0.178,0.436,0.267,0.679,0.267c0.269,0,0.537-0.108,0.734-0.321l7.475-8.07
		c0.375-0.405,0.351-1.039-0.055-1.414c-0.404-0.375-1.037-0.351-1.413,0.055l-7.475,8.07C7.153,15.759,7.178,16.391,7.583,16.767z"
		/>
</g>
</svg>
