<svg width="169" height="169" viewBox="0 0 169 169" fill="none" xmlns="http://www.w3.org/2000/svg">
    <path d="M84.46 166.942C38.9236 166.942 2 130.02 2 84.477C2 38.9282 38.9239 2 84.46 2C130.013 2 166.941 38.9286 166.941 84.477C166.941 130.02 130.014 166.942 84.46 166.942Z" stroke="black" stroke-width="4"/>
    <path fill-rule="evenodd" clip-rule="evenodd" d="M156.511 78.6298H141.495C141.495 78.6298 140.46 78.6298 140.094 79.5438L131.784 104.983L123.481 79.5438C123.115 78.6298 122.074 78.6298 122.074 78.6298H93.2024C92.5774 78.6298 92.0534 79.1518 92.0534 79.7728V88.4118C92.0534 81.5588 84.7614 78.6298 80.4914 78.6298C70.9294 78.6298 64.5284 84.9278 62.5354 94.5028C62.4274 88.1508 61.8994 85.8748 60.1884 83.5438C59.4024 82.4018 58.2664 81.4418 57.0294 80.6478C54.4824 79.1558 52.1954 78.6298 47.2804 78.6298H41.5094C41.5094 78.6298 40.4664 78.6298 40.0984 79.5438L34.8474 92.5568V79.7728C34.8474 79.1518 34.3274 78.6298 33.7034 78.6298H20.3494C20.3494 78.6298 19.3184 78.6298 18.9434 79.5438L13.4844 93.0748C13.4844 93.0748 12.9394 94.4278 14.1854 94.4278H19.3184V120.212C19.3184 120.852 19.8224 121.359 20.4654 121.359H33.7034C34.3274 121.359 34.8474 120.852 34.8474 120.212V94.4278H40.0074C42.9684 94.4278 43.5954 94.5088 44.7474 95.0458C45.4414 95.3078 46.0664 95.8378 46.4074 96.4488C47.1054 97.7628 47.2804 99.3408 47.2804 103.994V120.212C47.2804 120.852 47.7944 121.359 48.4294 121.359H61.1174C61.1174 121.359 62.5514 121.359 63.1184 119.943L65.9304 112.993C69.6694 118.23 75.8234 121.359 83.4714 121.359H85.1424C85.1424 121.359 86.5854 121.359 87.1564 119.943L92.0534 107.815V120.212C92.0534 120.852 92.5774 121.359 93.2024 121.359H106.154C106.154 121.359 107.583 121.359 108.157 119.943C108.157 119.943 113.337 107.082 113.357 106.985H113.365C113.564 105.915 112.212 105.915 112.212 105.915H107.589V83.8468L122.134 119.943C122.702 121.359 124.134 121.359 124.134 121.359H139.435C139.435 121.359 140.875 121.359 141.443 119.943L157.568 80.0138C158.126 78.6298 156.511 78.6298 156.511 78.6298ZM92.0534 105.915H83.3534C79.8904 105.915 77.0734 103.111 77.0734 99.6438C77.0734 96.1828 79.8904 93.3608 83.3534 93.3608H85.7864C89.2404 93.3608 92.0534 96.1828 92.0534 99.6438V105.915Z" fill="black"/>
</svg>
