<?xml version="1.0" encoding="utf-8"?>
<!-- Generator: Adobe Illustrator 17.1.0, SVG Export Plug-In . SVG Version: 6.00 Build 0)  -->
<!DOCTYPE svg PUBLIC "-//W3C//DTD SVG 1.1//EN" "http://www.w3.org/Graphics/SVG/1.1/DTD/svg11.dtd">
<svg version="1.1" id="Filled_Version" xmlns="http://www.w3.org/2000/svg" xmlns:xlink="http://www.w3.org/1999/xlink" x="0px"
	 y="0px" width="24px" height="24px" viewBox="0 0 24 24" enable-background="new 0 0 24 24" xml:space="preserve">
<g>
	<path d="M23.866,14.227l-2.42-4.186c-0.041-0.069-0.086-0.134-0.141-0.19c-0.167-0.185-0.397-0.304-0.65-0.326
		c-0.326-0.024-0.643,0.104-0.854,0.354l-3.213,3.832c-0.355,0.423-0.3,1.054,0.123,1.408c0.422,0.356,1.055,0.3,1.408-0.123
		l1.456-1.735c-0.552,2.833-2.817,5.341-5.801,6.04c-2.529,0.595-5.143-0.146-6.995-1.976c-0.392-0.389-1.025-0.386-1.414,0.008
		c-0.389,0.393-0.385,1.025,0.008,1.414c1.81,1.79,4.198,2.756,6.667,2.756c0.727,0,1.461-0.084,2.19-0.255
		c3.605-0.845,6.377-3.801,7.213-7.212l0.689,1.192c0.186,0.321,0.522,0.5,0.866,0.5c0.17,0,0.343-0.043,0.5-0.135
		C23.979,15.317,24.142,14.706,23.866,14.227z"/>
	<path d="M7.415,9.892c-0.424-0.354-1.054-0.3-1.408,0.124L4.284,12.07c0.033-1.282,0.396-2.549,1.085-3.697
		c1.111-1.854,2.927-3.194,4.983-3.676c2.695-0.633,5.507,0.267,7.341,2.345c0.365,0.414,0.997,0.454,1.411,0.089
		c0.414-0.365,0.454-0.997,0.089-1.412c-2.322-2.632-5.885-3.771-9.298-2.969C7.316,3.354,5.041,5.029,3.653,7.345
		c-0.624,1.041-1.029,2.162-1.229,3.312L1.858,9.713c-0.285-0.473-0.9-0.626-1.373-0.342c-0.472,0.284-0.627,0.898-0.342,1.372
		l2.561,4.262c0.166,0.277,0.456,0.457,0.778,0.482c0.026,0.002,0.051,0.003,0.078,0.003c0.294,0,0.575-0.13,0.767-0.357
		l3.212-3.832C7.893,10.877,7.838,10.246,7.415,9.892z"/>
</g>
</svg>
