<svg xmlns:xlink="http://www.w3.org/1999/xlink" xmlns="http://www.w3.org/2000/svg" contentScriptType="text/ecmascript" zoomAndPan="magnify" contentStyleType="text/css" id="Outline_Version" enable-background="new 0 0 24 24" version="1.1" xml:space="preserve" width="24px" preserveAspectRatio="xMidYMid meet" viewBox="0 0 24 24" height="24px" x="0px" y="0px">
    <g fill="#3e3832">
        <g>
            <path d="M23.513,19h-23c-0.276,0-0.5-0.224-0.5-0.5v-14c0-0.276,0.224-0.5,0.5-0.5h23c0.276,0,0.5,0.224,0.5,0.5v14    C24.013,18.776,23.789,19,23.513,19z M1.013,18h22V5h-22V18z" />
        </g>
        <g>
            <path d="M12.013,15c-1.93,0-3.5-1.57-3.5-3.5s1.57-3.5,3.5-3.5s3.5,1.57,3.5,3.5S13.942,15,12.013,15z M12.013,9    c-1.379,0-2.5,1.122-2.5,2.5s1.121,2.5,2.5,2.5s2.5-1.122,2.5-2.5S13.392,9,12.013,9z" />
        </g>
        <g>
            <circle r="1" cx="5.013" cy="9" />
        </g>
        <g>
            <circle r="1" cx="19.013" cy="14" />
        </g>
        <g>
            <path d="M19.513,17h-15c-1.379,0-2.5-1.122-2.5-2.5v-6c0-1.378,1.121-2.5,2.5-2.5h15c1.379,0,2.5,1.122,2.5,2.5v6    C22.013,15.878,20.892,17,19.513,17z M4.513,7c-0.827,0-1.5,0.673-1.5,1.5v6c0,0.827,0.673,1.5,1.5,1.5h15    c0.827,0,1.5-0.673,1.5-1.5v-6c0-0.827-0.673-1.5-1.5-1.5H4.513z" />
        </g>
    </g>
</svg>