<svg xmlns="http://www.w3.org/2000/svg" width="24" height="24" viewBox="0 0 24 24">
  <g stroke="#000" stroke-linecap="round" stroke-linejoin="round" stroke-miterlimit="10" fill="none">
    <path d="M11.013 18.5c0 .83.672 1.5 1.5 1.5s1.5-.67 1.5-1.5c0-.828-.672-1.5-1.5-1.5s-1.5-.67-1.5-1.5c0-.828.672-1.5 1.5-1.5s1.5.672 1.5 1.5M12.513 20v1M12.513 13v1"/>
    <path d="M14.793 10.5h-5.561c-2.198 1.622-4.72 4.905-4.72 7.5 0 3.591 2 5.5 7.5 5.5s7.5-1.909 7.5-5.5c.001-2.595-2.52-5.878-4.719-7.5zM8.513 8.5h7"/>
    <path d="M16.513 1.5l-3.5 1.5-1-2.5-1 2.5-3.5-1.5s2 3 2 5h5c0-2 2-5 2-5z"/>
  </g>
</svg>
