<svg xmlns:xlink="http://www.w3.org/1999/xlink" xmlns="http://www.w3.org/2000/svg" contentScriptType="text/ecmascript" zoomAndPan="magnify" contentStyleType="text/css" id="Outline_Version" enable-background="new 0 0 24 24" version="1.1" xml:space="preserve" width="24px" preserveAspectRatio="xMidYMid meet" viewBox="0 0 24 24" height="24px" x="0px" y="0px">
    <g fill="#3e3832">
        <g>
            <path d="M20.5,24h-6c-0.276,0-0.5-0.224-0.5-0.5V17h-4v6.5c0,0.276-0.224,0.5-0.5,0.5h-6C3.224,24,3,23.777,3,23.5v-10    C3,13.224,3.224,13,3.5,13S4,13.224,4,13.5V23h5v-6.5C9,16.224,9.224,16,9.5,16h5c0.276,0,0.5,0.224,0.5,0.5V23h5v-9    c0-0.276,0.224-0.5,0.5-0.5S21,13.724,21,14v9.5C21,23.777,20.776,24,20.5,24z" />
        </g>
        <g>
            <path d="M23.5,13.5c-0.128,0-0.256-0.049-0.354-0.146L12,2.208L0.854,13.354c-0.195,0.195-0.512,0.195-0.707,0    s-0.195-0.512,0-0.707l11.5-11.5c0.195-0.195,0.512-0.195,0.707,0l11.5,11.5c0.195,0.195,0.195,0.512,0,0.707    C23.756,13.452,23.628,13.5,23.5,13.5z" />
        </g>
        <g>
            <path d="M19.5,6.5C19.224,6.5,19,6.277,19,6V3h-3c-0.276,0-0.5-0.224-0.5-0.5S15.724,2,16,2h3.5C19.776,2,20,2.224,20,2.5V6    C20,6.277,19.776,6.5,19.5,6.5z" />
        </g>
    </g>
</svg>