<?xml version="1.0" encoding="utf-8"?>
<!-- Generator: Adobe Illustrator 16.0.0, SVG Export Plug-In . SVG Version: 6.00 Build 0)  -->
<!DOCTYPE svg PUBLIC "-//W3C//DTD SVG 1.1//EN" "http://www.w3.org/Graphics/SVG/1.1/DTD/svg11.dtd">
<svg version="1.1" id="Filled_Version" xmlns="http://www.w3.org/2000/svg" xmlns:xlink="http://www.w3.org/1999/xlink" x="0px"
	 y="0px" width="24px" height="24px" viewBox="0 0 24 24" enable-background="new 0 0 24 24" xml:space="preserve">
<g>
	<path d="M17,10.026V5.5c0-0.133-0.053-0.26-0.146-0.354l-5-5C11.76,0.053,11.633,0,11.5,0h-11C0.225,0,0,0.224,0,0.5v21
		C0,21.776,0.225,22,0.5,22h11.014C10.568,20.744,10,19.189,10,17.5C10,13.533,13.098,10.284,17,10.026z M11.5,0.5l5,5h-5V0.5z"/>
	<path d="M17.5,11c-3.584,0-6.5,2.915-6.5,6.5c0,3.584,2.916,6.5,6.5,6.5s6.5-2.916,6.5-6.5C24,13.915,21.084,11,17.5,11z
		 M20.229,18H18v2.227c0,0.276-0.223,0.5-0.5,0.5c-0.275,0-0.5-0.224-0.5-0.5V18h-2.227c-0.277,0-0.5-0.224-0.5-0.5
		s0.223-0.5,0.5-0.5H17v-2.228c0-0.276,0.225-0.5,0.5-0.5c0.277,0,0.5,0.224,0.5,0.5V17h2.229c0.275,0,0.5,0.224,0.5,0.5
		S20.504,18,20.229,18z"/>
</g>
</svg>
