<svg xmlns:xlink="http://www.w3.org/1999/xlink" xmlns="http://www.w3.org/2000/svg" contentScriptType="text/ecmascript" zoomAndPan="magnify" contentStyleType="text/css" id="Outline_Version" enable-background="new 0 0 24 24" version="1.1" xml:space="preserve" width="24px" preserveAspectRatio="xMidYMid meet" viewBox="0 0 24 24" height="24px" x="0px" y="0px">
    <g fill="#3e3832">
        <g>
            <path d="M22,24H2c-1.103,0-2-0.897-2-2V11.5c0-0.165,0.081-0.318,0.217-0.412l4-2.75C4.444,8.182,4.756,8.24,4.912,8.467    c0.156,0.228,0.099,0.539-0.129,0.695L1,11.763V22c0,0.552,0.448,1,1,1h20c0.552,0,1-0.448,1-1V11.763l-3.783-2.601    c-0.228-0.156-0.285-0.468-0.129-0.695c0.157-0.227,0.468-0.285,0.695-0.129l4,2.75C23.919,11.182,24,11.335,24,11.5V22    C24,23.103,23.103,24,22,24z" />
        </g>
        <g>
            <path d="M20.5,21c-0.11,0-0.22-0.036-0.313-0.109L15.324,17H8.676l-4.863,3.891c-0.217,0.172-0.53,0.138-0.703-0.078    c-0.172-0.216-0.138-0.53,0.078-0.703l5-4C8.276,16.039,8.387,16,8.5,16h7c0.113,0,0.224,0.039,0.313,0.109l5,4    c0.216,0.173,0.25,0.487,0.078,0.703C20.792,20.936,20.646,21,20.5,21z" />
        </g>
        <g>
            <path d="M17.5,16c-0.161,0-0.319-0.078-0.416-0.223c-0.153-0.229-0.091-0.54,0.139-0.693l6-4c0.228-0.153,0.539-0.092,0.693,0.139    c0.153,0.229,0.091,0.54-0.139,0.693l-6,4C17.692,15.973,17.596,16,17.5,16z" />
        </g>
        <g>
            <path d="M6.5,16c-0.096,0-0.192-0.027-0.277-0.084l-6-4c-0.229-0.153-0.292-0.464-0.139-0.693c0.154-0.23,0.466-0.291,0.693-0.139    l6,4c0.229,0.153,0.292,0.464,0.139,0.693C6.819,15.922,6.661,16,6.5,16z" />
        </g>
        <g>
            <path d="M19.5,14.5c-0.276,0-0.5-0.224-0.5-0.5V1H5v13c0,0.276-0.224,0.5-0.5,0.5S4,14.276,4,14V0.5C4,0.224,4.224,0,4.5,0h15    C19.776,0,20,0.224,20,0.5V14C20,14.276,19.776,14.5,19.5,14.5z" />
        </g>
        <g>
            <path d="M9.5,4h-2C7.224,4,7,3.776,7,3.5S7.224,3,7.5,3h2C9.776,3,10,3.224,10,3.5S9.776,4,9.5,4z" />
        </g>
        <g>
            <path d="M16.5,7h-7C9.224,7,9,6.776,9,6.5S9.224,6,9.5,6h7C16.776,6,17,6.224,17,6.5S16.776,7,16.5,7z" />
        </g>
        <g>
            <path d="M16.5,10h-9C7.224,10,7,9.776,7,9.5S7.224,9,7.5,9h9C16.776,9,17,9.224,17,9.5S16.776,10,16.5,10z" />
        </g>
        <g>
            <path d="M16.5,13h-9C7.224,13,7,12.776,7,12.5S7.224,12,7.5,12h9c0.276,0,0.5,0.224,0.5,0.5S16.776,13,16.5,13z" />
        </g>
    </g>
</svg>