
<!-- Generator: Adobe Illustrator 16.0.0, SVG Export Plug-In . SVG Version:
6.00 Build 0) -->
<svg contentScriptType="text/ecmascript" zoomAndPan="magnify"
     xmlns:xlink="http://www.w3.org/1999/xlink" contentStyleType="text/css"
     id="Filled_Version" enable-background="new 0 0 24 24" version="1.1"
     xml:space="preserve" width="24px" preserveAspectRatio="xMidYMid meet"
     viewBox="0 0 24 24" height="24px" xmlns="http://www.w3.org/2000/svg"
     x="0px" y="0px">
    <g >
        <path
              d="M17.07,1.688c-1.599-0.228-2.473-0.605-3.244-0.939C12.938,0.363,12.098,0,10.5,0H5C3.896,0,3,0.898,3,2   c0,0.411,0.124,0.794,0.338,1.112C2.56,3.386,2,4.129,2,5c0,0.411,0.124,0.794,0.338,1.112C1.56,6.386,1,7.129,1,8   c0,0.411,0.124,0.794,0.338,1.112C0.56,9.386,0,10.129,0,11c0,1.103,0.896,2,2,2h6.299c-0.422,1.291-1.199,4.019-0.781,5.508   c0.638,2.271,1.963,2.448,2.354,2.448c0.928,0,1.628-0.763,1.628-1.773c0-3.158,2.949-8,5.5-8c0.275,0,0.5-0.224,0.5-0.5v-8.5   C17.5,1.934,17.316,1.724,17.07,1.688z"/>
        <path
              d="M23.5,0h-5C18.224,0,18,0.224,18,0.5v11c0,0.276,0.224,0.5,0.5,0.5h5c0.275,0,0.5-0.224,0.5-0.5v-11   C24,0.224,23.775,0,23.5,0z M20.5,2.683c-0.276,0-0.5-0.224-0.5-0.5c0-0.275,0.224-0.5,0.5-0.5c0.275,0,0.5,0.225,0.5,0.5   C21,2.459,20.775,2.683,20.5,2.683z"/></g></svg>