<?xml version="1.0" encoding="utf-8"?>
<!-- Generator: Adobe Illustrator 16.0.0, SVG Export Plug-In . SVG Version: 6.00 Build 0)  -->
<!DOCTYPE svg PUBLIC "-//W3C//DTD SVG 1.1//EN" "http://www.w3.org/Graphics/SVG/1.1/DTD/svg11.dtd">
<svg version="1.1" id="Filled_Icons" xmlns="http://www.w3.org/2000/svg" xmlns:xlink="http://www.w3.org/1999/xlink" x="0px"
	 y="0px" width="24px" height="24px" viewBox="0 0 24 24" enable-background="new 0 0 24 24" xml:space="preserve">
<path d="M23.878,17.46L12.376,4.173c-0.189-0.219-0.566-0.219-0.756,0L0.122,17.46c-0.087,0.101-0.13,0.231-0.121,0.364
	s0.072,0.256,0.173,0.343l2.582,2.213c0.091,0.078,0.206,0.12,0.325,0.12c0.013,0,0.026-0.001,0.04-0.002
	c0.132-0.01,0.255-0.073,0.342-0.175l8.535-10.051l8.54,10.051c0.086,0.102,0.209,0.165,0.341,0.175
	c0.134,0.007,0.264-0.031,0.365-0.118l2.582-2.213c0.101-0.087,0.164-0.21,0.173-0.343S23.966,17.561,23.878,17.46z"/>
</svg>
