
<!-- Generator: Adobe Illustrator 16.0.0, SVG Export Plug-In . SVG Version:
6.00 Build 0) -->
<svg contentScriptType="text/ecmascript" zoomAndPan="magnify"
     xmlns:xlink="http://www.w3.org/1999/xlink" contentStyleType="text/css"
     id="Filled_Version" enable-background="new 0 0 24 24" version="1.1"
     xml:space="preserve" width="24px" preserveAspectRatio="xMidYMid meet"
     viewBox="0 0 24 24" height="24px" xmlns="http://www.w3.org/2000/svg"
     x="0px" y="0px">
    <g >
        <path
              d="M6.93,22.312c1.598,0.229,2.472,0.607,3.243,0.94C11.063,23.637,11.902,24,13.5,24H19c1.103,0,2-0.897,2-2   c0-0.411-0.125-0.794-0.339-1.112C21.44,20.614,22,19.871,22,19c0-0.411-0.125-0.794-0.339-1.112C22.44,17.614,23,16.871,23,16   c0-0.411-0.125-0.794-0.339-1.112C23.44,14.614,24,13.871,24,13c0-1.102-0.897-2-2-2h-6.299c0.421-1.29,1.198-4.018,0.78-5.508   c-0.638-2.271-1.962-2.448-2.353-2.448c-0.929,0-1.628,0.763-1.628,1.774c0,3.158-2.95,8-5.5,8c-0.276,0-0.5,0.223-0.5,0.5v8.5   C6.5,22.066,6.683,22.277,6.93,22.312z"/>
        <path
              d="M0.5,24h5C5.775,24,6,23.776,6,23.5v-11C6,12.224,5.775,12,5.5,12h-5C0.224,12,0,12.224,0,12.5v11   C0,23.776,0.224,24,0.5,24z M3.5,21.318c0.275,0,0.5,0.223,0.5,0.5c0,0.275-0.225,0.5-0.5,0.5c-0.276,0-0.5-0.225-0.5-0.5   C3,21.541,3.224,21.318,3.5,21.318z"/></g></svg>