<svg version="1.0" xmlns="http://www.w3.org/2000/svg"
     width="225.000000pt" height="225.000000pt" viewBox="0 0 225.000000 225.000000"
     preserveAspectRatio="xMidYMid meet">
    <g transform="translate(0.000000,225.000000) scale(0.100000,-0.100000)"
       fill="#000000" stroke="none">
        <path d="M855 2134 c-208 -31 -382 -110 -443 -200 -30 -43 -33 -55 -29 -96 5
-55 39 -106 98 -145 21 -14 39 -30 39 -35 0 -5 -11 -24 -24 -41 -64 -86 -136
-294 -136 -395 0 -20 -9 -32 -30 -44 -37 -21 -70 -88 -70 -143 0 -81 57 -157
128 -171 24 -5 31 -14 44 -55 l16 -49 -146 0 c-165 0 -212 -9 -242 -47 -45
-58 -9 -155 64 -169 33 -6 33 -6 28 -50 -8 -77 35 -124 113 -124 32 0 35 -2
25 -19 -20 -39 -12 -81 24 -117 l34 -34 131 0 c163 0 217 17 282 88 24 27 49
55 54 65 9 14 17 14 85 -11 69 -24 88 -27 225 -27 137 0 156 3 225 27 68 25
76 25 85 11 6 -10 30 -38 54 -65 65 -71 119 -88 282 -88 l131 0 34 34 c36 36
44 78 24 117 -10 17 -7 19 25 19 78 0 121 47 113 124 -5 44 -5 44 28 50 73 14
109 111 64 169 -30 38 -77 47 -242 47 l-146 0 16 49 c13 41 20 50 44 55 71 14
127 89 128 170 0 55 -36 124 -76 148 -27 16 -34 26 -34 51 0 91 -65 278 -131
374 l-31 47 23 18 c74 56 98 80 113 111 72 153 -125 301 -466 351 -130 20
-406 20 -533 0z m565 -48 c212 -41 350 -111 396 -199 46 -87 -87 -198 -300
-252 -436 -110 -1021 -8 -1086 189 -39 119 181 237 520 280 78 9 387 -3 470
-18z m-776 -476 c1 0 -26 -29 -59 -63 -71 -76 -118 -150 -150 -244 -29 -82
-32 -55 -6 49 23 89 67 187 110 246 l31 42 36 -15 c20 -8 37 -15 38 -15z
m1082 -53 c42 -68 87 -191 103 -280 11 -62 4 -54 -24 27 -29 84 -84 173 -151
245 -52 57 -53 58 -31 69 41 21 60 10 103 -61z m-763 -301 c129 -87 331 -123
494 -90 16 3 24 14 29 42 11 60 17 66 47 42 46 -37 140 -73 201 -79 l60 -6 9
-45 c11 -58 2 -183 -19 -262 -46 -180 -184 -348 -354 -431 -208 -102 -402
-102 -610 0 -170 83 -308 251 -354 430 -21 81 -30 195 -19 262 l8 54 60 17
c33 9 71 22 85 30 15 8 25 9 27 3 2 -6 9 -18 16 -28 12 -16 22 -12 133 43 65
34 120 61 120 61 1 1 31 -19 67 -43z m-558 -221 c0 -137 -3 -142 -54 -99 -60
50 -60 148 0 198 51 43 54 38 54 -99z m1494 99 c60 -50 60 -148 0 -198 -51
-43 -54 -38 -54 99 0 137 3 142 54 99z m-1390 -484 c51 -89 154 -187 269 -256
8 -5 -28 -61 -55 -85 -57 -54 -89 -63 -225 -67 -125 -4 -127 -4 -152 22 -31
30 -32 45 -6 79 19 24 27 26 113 29 74 2 92 6 92 18 0 12 -26 16 -156 20 -136
4 -160 8 -178 24 -26 24 -27 60 -1 86 18 18 33 20 135 20 95 0 117 3 122 15 3
9 4 18 1 20 -2 2 -81 5 -175 7 -151 3 -173 5 -192 22 -26 24 -27 60 -1 86 19
19 33 20 198 20 l177 -1 34 -59z m1641 40 c26 -26 25 -62 -1 -86 -19 -17 -41
-19 -192 -22 -94 -2 -173 -5 -175 -7 -3 -2 -2 -11 1 -20 5 -12 27 -15 122 -15
102 0 117 -2 135 -20 26 -26 25 -62 -1 -86 -18 -16 -42 -20 -178 -24 -130 -4
-156 -8 -156 -20 0 -12 18 -16 92 -18 86 -3 94 -5 113 -29 26 -34 25 -49 -6
-79 -25 -26 -27 -26 -152 -22 -136 4 -168 13 -225 67 -27 24 -63 80 -55 85
115 69 218 167 269 256 l34 59 178 1 c164 0 178 -1 197 -20z"/>
        <path d="M930 2004 c-208 -26 -340 -88 -340 -159 0 -34 52 -79 123 -103 109
-39 229 -55 412 -55 249 0 437 40 505 106 78 76 -6 151 -220 197 -54 12 -412
22 -480 14z m349 -45 c247 -23 390 -90 308 -144 -22 -14 -28 -13 -91 19 -114
57 -187 71 -381 71 -186 0 -253 -13 -376 -76 l-57 -28 -26 20 c-33 26 -23 49
36 78 118 56 360 81 587 60z m54 -114 c70 -18 157 -54 157 -65 0 -32 -491 -50
-645 -23 -44 8 -84 18 -88 22 -17 17 143 70 253 85 65 8 264 -3 323 -19z"/>
        <path d="M722 1084 c-42 -29 -18 -104 35 -104 49 0 72 76 31 104 -12 9 -27 16
-33 16 -6 0 -21 -7 -33 -16z"/>
        <path d="M1462 1084 c-42 -29 -18 -104 35 -104 49 0 72 76 31 104 -12 9 -27
16 -33 16 -6 0 -21 -7 -33 -16z"/>
        <path d="M912 678 c8 -55 161 -117 251 -103 85 14 177 69 177 106 0 28 -27 24
-66 -10 -77 -68 -221 -68 -298 0 -41 36 -69 39 -64 7z"/>
    </g>
</svg>
