<svg version="1.0" xmlns="http://www.w3.org/2000/svg"
     width="400.000000pt" height="400.000000pt" viewBox="16 0 300.000000 290.000000"
     preserveAspectRatio="">
    <g transform="translate(0.00000,290.000000) scale(0.107000,-0.119400)"
       fill="#000000" stroke="none">
        <path d="M1385 2399 c-192 -26 -276 -83 -235 -160 52 -96 530 -126 720 -46 92
39 96 118 10 162 -79 40 -348 64 -495 44z m303 -79 c216 -27 200 -68 -35 -91
-160 -16 -415 12 -414 46 0 5 17 15 38 22 85 30 271 40 411 23z"/>
        <path d="M1479 2120 c-112 -19 -221 -102 -275 -207 -27 -53 -29 -67 -29 -163
0 -94 3 -111 27 -160 29 -58 71 -109 127 -152 l34 -26 -38 -91 c-21 -50 -41
-91 -44 -91 -3 0 -18 19 -33 43 -30 47 -147 166 -223 225 -217 171 -471 293
-578 279 -49 -7 -87 -44 -87 -85 0 -33 28 -95 64 -142 l27 -35 -74 -12 c-90
-14 -134 -35 -148 -71 -26 -67 40 -145 186 -219 43 -23 47 -27 30 -34 -11 -4
-55 -22 -98 -40 -146 -59 -198 -143 -128 -208 78 -72 340 -90 624 -41 112 19
257 59 310 86 19 11 27 11 27 3 0 -7 -70 -183 -156 -393 -133 -327 -155 -387
-150 -420 6 -49 32 -86 77 -109 31 -16 77 -17 579 -17 302 1 561 5 580 10 55
15 92 60 97 117 4 44 -9 81 -147 418 -84 204 -154 377 -157 386 -4 14 3 14 67
-2 108 -28 280 -42 410 -35 328 19 530 91 530 190 0 67 -59 107 -207 141 l-93
21 70 57 c111 91 148 157 124 222 -12 31 -60 45 -149 45 -48 0 -85 3 -83 8 34
66 52 116 56 154 4 40 1 50 -21 72 -57 57 -183 18 -350 -108 -168 -126 -352
-326 -420 -454 -30 -56 -37 -64 -43 -47 -4 11 -23 56 -41 100 l-34 80 23 14
c13 8 43 36 68 61 177 178 126 479 -101 595 -38 20 -157 49 -179 44 -3 -1 -26
-5 -51 -9z m135 -85 c146 -38 240 -172 223 -318 -30 -251 -333 -352 -509 -170
-158 163 -74 439 149 492 56 13 73 13 137 -4z m936 -262 c-1 -27 -34 -95 -79
-162 -45 -65 -49 -82 -26 -101 11 -9 25 -10 57 -2 133 33 228 36 228 6 0 -26
-73 -95 -164 -154 -135 -89 -136 -89 -136 -110 0 -27 30 -40 88 -40 113 0 312
-51 312 -80 0 -30 -131 -78 -275 -101 -123 -20 -412 -17 -514 4 -93 20 -155
47 -165 72 -19 51 16 136 100 247 64 83 244 261 322 318 136 100 252 147 252
103z m-2009 -87 c254 -77 679 -418 679 -545 0 -76 -225 -159 -520 -191 -198
-22 -436 5 -428 48 5 26 139 88 258 120 100 26 105 29 108 55 3 25 -2 30 -40
45 -87 33 -234 112 -267 143 -31 30 -32 34 -17 45 26 18 106 27 179 19 126
-14 138 15 47 112 -55 58 -100 127 -100 153 0 14 46 12 101 -4z m1052 -308
c28 5 53 9 54 9 13 -14 483 -1189 483 -1209 0 -59 9 -58 -592 -58 -535 0 -548
0 -568 20 -11 11 -20 28 -20 38 0 10 50 139 111 288 60 148 161 395 224 549
62 154 122 301 133 326 l20 46 51 -10 c35 -6 68 -6 104 1z"/>
    </g>
</svg>
