<svg width="678" height="678" viewBox="0 0 678 678" fill="none" xmlns="http://www.w3.org/2000/svg">
<path d="M27.5277 335.293C41.2019 301.491 69.6626 249.587 109.868 225.782C152.592 201.115 211.267 203.048 246.536 208.858C255.818 210.388 261.324 219.687 258.108 228.528C246.211 261.228 219.156 311.883 174.473 337.68C130.03 363.339 73.01 361.601 38.6809 355.632C29.1957 353.982 23.9173 344.218 27.5277 335.293Z" fill="white" stroke="black" stroke-width="14"/>
<path d="M644.81 335.293C631.136 301.491 602.675 249.587 562.47 225.782C519.746 201.115 461.07 203.048 425.802 208.858C416.52 210.388 411.013 219.687 414.23 228.528C426.126 261.228 453.182 311.883 497.865 337.68C542.308 363.339 599.328 361.601 633.657 355.632C643.142 353.982 648.42 344.218 644.81 335.293Z" fill="white" stroke="black" stroke-width="14"/>
<path d="M522 402.921C522 548.172 450.532 614 338.999 614C227.465 614 155 548.172 155 402.921C155 257.67 306.497 88 338.999 88C371.5 88 522 257.67 522 402.921Z" fill="#FCBA8E" stroke="black" stroke-width="14"/>
<path fill-rule="evenodd" clip-rule="evenodd" d="M352.379 60.8539C345.038 60.8539 338.288 63.3851 332.954 67.6225C326.271 56.4671 314.065 49 300.114 49C282.02 49 266.86 61.5618 262.879 78.4401C254.78 71.5071 244.26 67.3196 232.763 67.3196C212.88 67.3196 195.922 79.8423 189.345 97.4309C185.96 96.7647 182.462 96.4155 178.881 96.4155C149.123 96.4155 125 120.539 125 150.297C125 171.212 136.917 189.344 154.331 198.273C148.815 204.612 145.475 212.896 145.475 221.959C145.475 241.897 161.638 258.059 181.575 258.059C189.963 258.059 197.683 255.199 203.812 250.4C210.159 270.46 228.923 285 251.082 285C272.226 285 290.277 271.763 297.402 253.123C308.932 264.819 324.96 272.068 342.68 272.068C359.592 272.068 374.961 265.466 386.351 254.698C391.821 268.051 404.947 277.457 420.269 277.457C436.881 277.457 450.91 266.402 455.402 251.249C462.061 258.108 471.38 262.37 481.694 262.37C501.929 262.37 518.333 245.966 518.333 225.731C518.333 225.389 518.329 225.049 518.319 224.709C541.691 219.972 559.283 199.312 559.283 174.543C559.283 153.254 546.286 135 527.794 127.284C527.951 125.817 528.032 124.326 528.032 122.817C528.032 99.9038 509.457 81.3288 486.543 81.3288C478.384 81.3288 470.776 83.6839 464.359 87.7515C457.889 66.5656 438.185 51.1553 414.881 51.1553C398.679 51.1553 384.216 58.6047 374.732 70.2653C369.058 64.4585 361.139 60.8539 352.379 60.8539Z" fill="white"/>
<path d="M332.954 67.6225L326.95 71.2201L331.055 78.0719L337.309 73.1033L332.954 67.6225ZM262.879 78.4401L258.327 83.7579L267.055 91.2286L269.692 80.047L262.879 78.4401ZM189.345 97.4309L187.994 104.299L193.822 105.446L195.902 99.8825L189.345 97.4309ZM154.331 198.273L159.612 202.868L165.48 196.123L157.525 192.044L154.331 198.273ZM203.812 250.4L210.486 248.288L207.442 238.667L199.497 244.888L203.812 250.4ZM297.402 253.123L302.387 248.209L294.748 240.461L290.863 250.624L297.402 253.123ZM386.351 254.698L392.828 252.044L388.959 242.599L381.542 249.611L386.351 254.698ZM455.402 251.249L460.425 246.373L452.092 237.789L448.691 249.259L455.402 251.249ZM518.319 224.709L516.929 217.849L511.161 219.018L511.322 224.901L518.319 224.709ZM527.794 127.284L520.834 126.539L520.278 131.732L525.099 133.744L527.794 127.284ZM464.359 87.7515L457.665 89.7961L460.348 98.5826L468.107 93.6635L464.359 87.7515ZM374.732 70.2653L369.726 75.1576L375.211 80.7707L380.163 74.6823L374.732 70.2653ZM337.309 73.1033C341.449 69.8143 346.675 67.8539 352.379 67.8539V53.8539C343.4 53.8539 335.127 56.956 328.6 62.1416L337.309 73.1033ZM300.114 56C311.504 56 321.478 62.0876 326.95 71.2201L338.959 64.0249C331.064 50.8466 316.626 42 300.114 42V56ZM269.692 80.047C272.945 66.2574 285.34 56 300.114 56V42C278.7 42 260.775 56.8662 256.066 76.8331L269.692 80.047ZM232.763 74.3196C242.529 74.3196 251.448 77.8694 258.327 83.7579L267.431 73.1222C258.111 65.1447 245.991 60.3196 232.763 60.3196V74.3196ZM195.902 99.8825C201.489 84.94 215.894 74.3196 232.763 74.3196V60.3196C209.865 60.3196 190.354 74.7447 182.789 94.9794L195.902 99.8825ZM178.881 103.416C182.005 103.416 185.051 103.72 187.994 104.299L190.697 90.5627C186.869 89.8093 182.918 89.4155 178.881 89.4155V103.416ZM132 150.297C132 124.405 152.989 103.416 178.881 103.416V89.4155C145.257 89.4155 118 116.673 118 150.297H132ZM157.525 192.044C142.356 184.266 132 168.485 132 150.297H118C118 173.939 131.478 194.422 151.137 204.502L157.525 192.044ZM152.475 221.959C152.475 214.648 155.162 207.982 159.612 202.868L149.05 193.678C142.468 201.243 138.475 211.143 138.475 221.959H152.475ZM181.575 251.059C165.504 251.059 152.475 238.031 152.475 221.959H138.475C138.475 245.763 157.772 265.059 181.575 265.059V251.059ZM199.497 244.888C194.555 248.757 188.344 251.059 181.575 251.059V265.059C191.582 265.059 200.81 261.64 208.127 255.911L199.497 244.888ZM251.082 278C232.063 278 215.939 265.522 210.486 248.288L197.138 252.511C204.38 275.398 225.783 292 251.082 292V278ZM290.863 250.624C284.74 266.643 269.229 278 251.082 278V292C275.222 292 295.814 276.882 303.94 255.623L290.863 250.624ZM342.68 265.068C326.909 265.068 312.655 258.625 302.387 248.209L292.417 258.038C305.209 271.013 323.01 279.068 342.68 279.068V265.068ZM381.542 249.611C371.4 259.2 357.733 265.068 342.68 265.068V279.068C361.45 279.068 378.522 271.732 391.16 259.785L381.542 249.611ZM420.269 270.457C407.885 270.457 397.259 262.859 392.828 252.044L379.873 257.352C386.383 273.242 402.008 284.457 420.269 284.457V270.457ZM448.691 249.259C445.055 261.522 433.697 270.457 420.269 270.457V284.457C440.064 284.457 456.764 271.282 462.114 253.239L448.691 249.259ZM481.694 255.37C473.349 255.37 465.82 251.93 460.425 246.373L450.38 256.125C458.302 264.285 469.41 269.37 481.694 269.37V255.37ZM511.333 225.731C511.333 242.1 498.063 255.37 481.694 255.37V269.37C505.795 269.37 525.333 249.832 525.333 225.731H511.333ZM511.322 224.901C511.33 225.176 511.333 225.453 511.333 225.731H525.333C525.333 225.325 525.328 224.921 525.317 224.518L511.322 224.901ZM552.283 174.543C552.283 195.917 537.101 213.76 516.929 217.849L519.71 231.57C546.28 226.184 566.283 202.708 566.283 174.543H552.283ZM525.099 133.744C541.075 140.411 552.283 156.176 552.283 174.543H566.283C566.283 150.332 551.497 129.59 530.49 120.824L525.099 133.744ZM521.032 122.817C521.032 124.077 520.965 125.319 520.834 126.539L534.755 128.029C534.938 126.315 535.032 124.576 535.032 122.817H521.032ZM486.543 88.3288C505.591 88.3288 521.032 103.77 521.032 122.817H535.032C535.032 96.0378 513.323 74.3288 486.543 74.3288V88.3288ZM468.107 93.6635C473.436 90.2856 479.75 88.3288 486.543 88.3288V74.3288C477.018 74.3288 468.115 77.0823 460.611 81.8394L468.107 93.6635ZM414.881 58.1553C435.021 58.1553 452.068 71.4716 457.665 89.7961L471.054 85.7068C463.71 61.6595 441.349 44.1553 414.881 44.1553V58.1553ZM380.163 74.6823C388.375 64.5858 400.874 58.1553 414.881 58.1553V44.1553C396.483 44.1553 380.058 52.6236 369.302 65.8484L380.163 74.6823ZM352.379 67.8539C359.178 67.8539 365.314 70.643 369.726 75.1576L379.739 65.3731C372.802 58.2739 363.1 53.8539 352.379 53.8539V67.8539Z" fill="black"/>
<circle cx="276" cy="362" r="35" fill="black"/>
<ellipse cx="285.419" cy="349.306" rx="7.79533" ry="16.76" transform="rotate(-45.5145 285.419 349.306)" fill="white"/>
<circle cx="402" cy="362" r="35" fill="black"/>
<ellipse cx="411.419" cy="349.306" rx="7.79533" ry="16.76" transform="rotate(-45.5145 411.419 349.306)" fill="white"/>
<path d="M375.792 497.495C348.296 504.938 344.669 540.311 346.751 563.492C346.943 565.638 349.797 565.777 350.402 563.709C360.789 528.2 372.546 523.75 394.79 518.233C407.421 515.1 415.16 486.839 375.792 497.495Z" fill="black"/>
<path d="M302.065 497.495C329.561 504.938 333.189 540.311 331.107 563.492C330.914 565.638 328.06 565.777 327.455 563.709C317.069 528.2 305.311 523.75 283.067 518.233C270.436 515.1 262.697 486.839 302.065 497.495Z" fill="black"/>
<circle cx="272.5" cy="366.5" r="58" fill="white" stroke="black" stroke-width="7"/>
<circle cx="411.5" cy="366.5" r="58" fill="white" stroke="black" stroke-width="7"/>
<circle cx="411.074" cy="366.074" r="24.0738" fill="black"/>
<circle cx="421.774" cy="360.724" r="8.0246" fill="white"/>
<circle cx="272.074" cy="366.074" r="24.0738" fill="black"/>
<circle cx="282.773" cy="360.724" r="8.0246" fill="white"/>
<path d="M532.5 261.484C532.5 288.556 510.561 310.5 483.5 310.5C456.439 310.5 434.5 288.556 434.5 261.484C434.5 254.919 436.535 247.629 440.048 239.788C443.552 231.967 448.43 223.806 453.904 215.54C458.321 208.871 463.07 202.215 467.751 195.656C468.874 194.082 469.993 192.514 471.103 190.953C475.532 184.719 479.812 178.59 483.5 172.737C487.188 178.59 491.468 184.719 495.897 190.953C497.007 192.514 498.126 194.082 499.249 195.656C503.929 202.215 508.679 208.871 513.096 215.54C518.57 223.806 523.448 231.967 526.952 239.788C530.465 247.629 532.5 254.919 532.5 261.484Z" fill="#8AB6DC" stroke="#4E7A9F" stroke-width="7"/>
</svg>
