<svg width="678" height="678" viewBox="0 0 678 678" fill="none" xmlns="http://www.w3.org/2000/svg">
<path d="M27.5278 335.293C41.2019 301.491 69.6627 249.587 109.868 225.782C152.592 201.115 211.267 203.048 246.536 208.858C255.818 210.388 261.324 219.687 258.108 228.528C246.211 261.228 219.156 311.883 174.473 337.68C130.03 363.339 73.0101 361.601 38.6809 355.632C29.1957 353.982 23.9173 344.218 27.5278 335.293Z" fill="white"/>
<path fill-rule="evenodd" clip-rule="evenodd" d="M106.335 219.738L106.368 219.719C151.253 193.805 211.966 196.068 247.674 201.951C261.233 204.185 269.418 217.914 264.686 230.921C252.579 264.198 224.773 316.722 177.973 343.743C131.421 370.619 72.4161 368.603 37.4817 362.528C23.4937 360.096 15.7974 345.624 21.0387 332.668C28.023 315.403 38.7821 293.507 52.9775 272.827C67.1331 252.205 84.9878 232.378 106.302 219.758L106.335 219.738ZM113.401 231.824C94.5236 243.011 78.0567 261.029 64.5199 280.75C51.0151 300.424 40.7068 321.381 34.0169 337.918C32.0373 342.812 34.8978 347.869 39.8802 348.735C73.6041 354.599 128.639 356.06 170.973 331.618C213.538 307.043 239.843 258.257 251.53 226.135C253.23 221.46 250.404 216.59 245.398 215.765C210.578 210.028 153.963 208.425 113.401 231.824Z" fill="black"/>
<path d="M644.81 335.293C631.136 301.491 602.675 249.587 562.47 225.782C519.746 201.115 461.071 203.048 425.802 208.858C416.52 210.388 411.014 219.687 414.23 228.528C426.127 261.228 453.182 311.883 497.865 337.68C542.308 363.339 599.328 361.601 633.657 355.632C643.142 353.982 648.421 344.218 644.81 335.293Z" fill="white"/>
<path fill-rule="evenodd" clip-rule="evenodd" d="M566.003 219.738L565.97 219.719C521.085 193.805 460.372 196.068 424.664 201.951C411.105 204.185 402.92 217.914 407.652 230.921C419.759 264.198 447.565 316.722 494.365 343.743C540.917 370.619 599.922 368.603 634.856 362.528C648.844 360.096 656.541 345.624 651.299 332.668C644.315 315.403 633.556 293.507 619.36 272.827C605.205 252.205 587.35 232.378 566.036 219.758L566.003 219.738ZM558.937 231.824C577.814 243.011 594.281 261.029 607.818 280.75C621.323 300.424 631.631 321.381 638.321 337.918C640.301 342.812 637.44 347.869 632.458 348.735C598.734 354.599 543.699 356.06 501.365 331.618C458.8 307.043 432.495 258.257 420.808 226.135C419.108 221.46 421.934 216.59 426.94 215.765C461.76 210.028 518.375 208.425 558.937 231.824Z" fill="black"/>
<path d="M522 402.921C522 548.172 450.532 614 338.999 614C227.465 614 155 548.172 155 402.921C155 257.67 306.497 88 338.999 88C371.5 88 522 257.67 522 402.921Z" fill="#FCBA8E"/>
<path fill-rule="evenodd" clip-rule="evenodd" d="M240.567 194.976C198.925 255.123 162 332.414 162 402.921C162 474.464 179.845 525.279 210.31 558.173C240.701 590.987 284.613 607 338.999 607C393.381 607 437.032 590.989 467.17 558.193C497.393 525.306 515 474.488 515 402.921C515 332.401 478.313 255.104 436.921 194.96C416.301 164.998 394.732 139.613 376.422 121.797C367.256 112.878 359.03 105.977 352.252 101.359C348.861 99.049 345.958 97.3958 343.577 96.3419C341.107 95.2489 339.643 95 338.999 95C338.353 95 336.883 95.2498 334.403 96.3446C332.013 97.3999 329.097 99.0547 325.692 101.366C318.885 105.986 310.62 112.889 301.406 121.81C283.004 139.627 261.31 165.014 240.567 194.976ZM328.749 83.5373C332.059 82.0757 335.582 81 338.999 81C342.417 81 345.937 82.0766 349.243 83.5399C352.638 85.0424 356.3 87.1763 360.135 89.7893C367.808 95.0174 376.673 102.507 386.186 111.764C405.236 130.3 427.386 156.41 448.454 187.023C490.437 248.026 529 328.189 529 402.921C529 476.605 510.874 531.326 477.479 567.666C444 604.097 396.15 621 338.999 621C281.85 621 233.763 604.099 200.038 567.686C166.388 531.353 148 476.628 148 402.921C148 328.176 186.824 248.007 229.056 187.007C250.25 156.394 272.524 130.286 291.668 111.751C301.228 102.496 310.131 95.0083 317.83 89.7824C321.678 87.1705 325.349 85.0383 328.749 83.5373Z" fill="black"/>
<path fill-rule="evenodd" clip-rule="evenodd" d="M352.379 60.8539C345.038 60.8539 338.288 63.3851 332.954 67.6225C326.271 56.4671 314.065 49 300.114 49C282.02 49 266.86 61.5618 262.879 78.4401C254.78 71.5071 244.26 67.3196 232.763 67.3196C212.88 67.3196 195.922 79.8423 189.345 97.4309C185.96 96.7647 182.462 96.4155 178.881 96.4155C149.123 96.4155 125 120.539 125 150.297C125 171.212 136.917 189.344 154.331 198.273C148.815 204.612 145.475 212.896 145.475 221.959C145.475 241.897 161.638 258.059 181.575 258.059C189.963 258.059 197.683 255.199 203.812 250.4C210.159 270.46 228.923 285 251.082 285C272.226 285 290.277 271.763 297.402 253.123C308.932 264.819 324.96 272.068 342.68 272.068C359.592 272.068 374.961 265.466 386.351 254.698C391.821 268.051 404.947 277.457 420.269 277.457C436.881 277.457 450.91 266.402 455.402 251.249C462.061 258.108 471.38 262.37 481.694 262.37C501.929 262.37 518.333 245.966 518.333 225.731C518.333 225.389 518.329 225.049 518.319 224.709C541.691 219.972 559.283 199.312 559.283 174.543C559.283 153.254 546.286 135 527.794 127.284C527.951 125.817 528.032 124.326 528.032 122.817C528.032 99.9038 509.457 81.3288 486.543 81.3288C478.384 81.3288 470.776 83.6839 464.359 87.7515C457.889 66.5656 438.185 51.1553 414.881 51.1553C398.679 51.1553 384.216 58.6047 374.732 70.2653C369.058 64.4585 361.139 60.8539 352.379 60.8539Z" fill="white"/>
<path fill-rule="evenodd" clip-rule="evenodd" d="M300.114 56C285.34 56 272.945 66.2574 269.692 80.047L267.055 91.2286L258.327 83.7579C251.448 77.8694 242.529 74.3196 232.763 74.3196C215.894 74.3196 201.489 84.94 195.902 99.8825L193.822 105.446L187.994 104.299C185.051 103.72 182.005 103.416 178.881 103.416C152.989 103.416 132 124.405 132 150.297C132 168.485 142.356 184.266 157.525 192.044L165.48 196.123L159.612 202.868C155.162 207.982 152.475 214.648 152.475 221.959C152.475 238.031 165.504 251.059 181.575 251.059C188.344 251.059 194.555 248.757 199.497 244.888L207.442 238.667L210.486 248.288C215.939 265.522 232.063 278 251.082 278C269.229 278 284.74 266.643 290.863 250.624L294.748 240.461L302.387 248.209C312.655 258.625 326.909 265.068 342.68 265.068C357.733 265.068 371.4 259.2 381.542 249.611L388.959 242.599L392.828 252.044C397.259 262.859 407.885 270.457 420.269 270.457C433.697 270.457 445.055 261.522 448.691 249.259L452.092 237.789L460.425 246.373C465.82 251.93 473.349 255.37 481.694 255.37C498.063 255.37 511.333 242.1 511.333 225.731C511.333 225.453 511.33 225.176 511.322 224.901L511.161 219.018L516.929 217.849C537.101 213.76 552.283 195.917 552.283 174.543C552.283 156.176 541.075 140.411 525.099 133.744L520.278 131.732L520.834 126.539C520.965 125.319 521.032 124.077 521.032 122.817C521.032 103.77 505.591 88.3288 486.543 88.3288C479.75 88.3288 473.436 90.2856 468.107 93.6635L460.348 98.5826L457.665 89.7961C452.068 71.4716 435.021 58.1553 414.881 58.1553C400.874 58.1553 388.375 64.5858 380.163 74.6823L375.211 80.7707L369.726 75.1576C365.314 70.643 359.178 67.8539 352.379 67.8539C346.675 67.8539 341.449 69.8143 337.309 73.1033L331.055 78.0719L326.95 71.2201C321.478 62.0876 311.504 56 300.114 56ZM259.415 67.4472C266.76 52.3822 282.219 42 300.114 42C314.028 42 326.469 48.2819 334.764 58.1441C340.038 55.4039 346.032 53.8539 352.379 53.8539C360.446 53.8539 367.936 56.3564 374.105 60.6199C384.662 50.4333 399.04 44.1553 414.881 44.1553C438.417 44.1553 458.706 57.9965 468.076 77.9716C473.772 75.6237 480.012 74.3288 486.543 74.3288C513.323 74.3288 535.032 96.0378 535.032 122.817C535.032 122.863 535.032 122.909 535.032 122.955C553.597 132.667 566.283 152.117 566.283 174.543C566.283 200.766 548.943 222.925 525.107 230.203C522.868 252.203 504.286 269.37 481.694 269.37C473.028 269.37 464.947 266.839 458.157 262.483C450.636 275.608 436.492 284.457 420.269 284.457C405.325 284.457 392.146 276.946 384.284 265.508C372.619 274.032 358.233 279.068 342.68 279.068C326.488 279.068 311.562 273.61 299.655 264.442C289.778 280.942 271.728 292 251.082 292C228.918 292 209.743 279.257 200.463 260.71C194.757 263.495 188.344 265.059 181.575 265.059C157.772 265.059 138.475 245.763 138.475 221.959C138.475 214.102 140.582 206.727 144.259 200.38C128.402 189.398 118 171.067 118 150.297C118 116.673 145.257 89.4155 178.881 89.4155C180.973 89.4155 183.042 89.5213 185.083 89.728C193.849 72.2946 211.9 60.3196 232.763 60.3196C242.466 60.3196 251.572 62.9155 259.415 67.4472Z" fill="black"/>
<path d="M311 362C311 381.33 295.33 397 276 397C256.67 397 241 381.33 241 362C241 342.67 256.67 327 276 327C295.33 327 311 342.67 311 362Z" fill="black"/>
<path d="M290.882 343.744C297.486 350.23 300.393 357.978 297.376 361.05C294.36 364.121 286.561 361.353 279.957 354.867C273.353 348.381 270.446 340.633 273.462 337.561C276.479 334.49 284.278 337.258 290.882 343.744Z" fill="white"/>
<path d="M437 362C437 381.33 421.33 397 402 397C382.67 397 367 381.33 367 362C367 342.67 382.67 327 402 327C421.33 327 437 342.67 437 362Z" fill="black"/>
<path d="M416.882 343.744C423.486 350.23 426.393 357.978 423.376 361.05C420.36 364.121 412.561 361.353 405.957 354.867C399.353 348.381 396.446 340.633 399.462 337.561C402.479 334.49 410.278 337.258 416.882 343.744Z" fill="white"/>
<path d="M375.792 497.495C348.296 504.938 344.669 540.311 346.751 563.492C346.943 565.638 349.797 565.777 350.402 563.709C360.789 528.2 372.546 523.75 394.79 518.233C407.421 515.1 415.16 486.839 375.792 497.495Z" fill="black"/>
<path d="M302.065 497.495C329.561 504.938 333.189 540.311 331.107 563.492C330.914 565.638 328.06 565.777 327.455 563.709C317.069 528.2 305.311 523.75 283.067 518.233C270.437 515.1 262.697 486.839 302.065 497.495Z" fill="black"/>
</svg>
