<svg width="1033" height="796" viewBox="0 0 1033 796" fill="none" xmlns="http://www.w3.org/2000/svg">
<path d="M44.8926 422.328L250.126 652.685" stroke="black" stroke-width="55" stroke-linecap="round"/>
<ellipse cx="57" cy="55.5" rx="57" ry="55.5" transform="matrix(-0.948098 0.31798 0.31798 0.948098 96.0801 325)" fill="black"/>
<path d="M871.996 618.5C1031.6 618.5 1033.5 736.833 1014.5 796H255.497C253.83 790.667 255.097 773 273.496 745C170.497 667 227.163 558.833 273.496 530.5C348.496 465.333 511.296 335.5 562.496 337.5C626.496 340 684.496 399 697.996 449C737.996 444 889.996 476.5 871.996 618.5Z" fill="white"/>
<path d="M536.043 335.974C545.857 332.372 555.015 330.203 562.769 330.506C596.806 331.835 628.782 348.131 653.811 370.185C677.069 390.678 694.927 416.667 703.083 441.59C714.128 441.166 729.393 442.68 746.177 446.589C766.356 451.287 789.286 459.571 810.433 472.675C831.596 485.787 851.14 503.836 864.192 528.09C876.346 550.675 882.669 578.278 879.772 611.594C956.487 613.475 997.622 643.291 1016.51 681.992C1035.64 721.184 1031.31 765.444 1021.5 796H1008C1017.19 767.39 1020.9 722.899 1003.93 688.134C987.349 654.163 949.867 625.5 871.997 625.5H864.053L865.051 617.62C869.383 583.448 863.462 556.276 851.864 534.723C840.228 513.102 822.647 496.713 803.059 484.576C783.456 472.429 762.011 464.651 743.003 460.224C723.869 455.769 707.755 454.835 698.865 455.946L692.825 456.701L691.238 450.825C684.915 427.406 667.929 401.284 644.556 380.689C621.211 360.118 592.186 345.665 562.223 344.495C557.177 344.298 550.048 345.747 540.867 349.117C531.808 352.442 521.285 357.432 509.642 363.792C486.361 376.508 459.126 394.405 430.991 414.509C374.747 454.697 315.475 503.298 278.088 535.784L277.646 536.168L277.148 536.472C255.785 549.536 231.146 581.876 224.391 620.336C217.76 658.093 228.322 702.01 277.722 739.42L282.942 743.373L279.346 748.844C270.468 762.355 265.892 773.119 263.712 780.891C261.447 788.961 261.938 795.233 262.177 796H248.815C247.388 791.432 247.68 786.205 250.232 777.109C252.53 768.919 256.819 758.696 264.19 746.609C214.876 706.811 203.311 659.434 210.602 617.915C217.963 576.001 244.504 540.299 269.326 524.851C306.961 492.172 366.356 443.486 422.851 403.117C451.191 382.867 478.944 364.607 502.931 351.506C514.922 344.956 526.106 339.621 536.043 335.974Z" fill="black"/>
<path d="M847.479 245L726.147 528.661" stroke="black" stroke-width="55" stroke-linecap="round"/>
<path d="M86.525 295.293C100.199 261.491 128.66 209.587 168.865 185.782C211.589 161.115 270.264 163.048 305.533 168.859C314.815 170.388 320.322 179.688 317.105 188.528C305.209 221.228 278.153 271.883 233.47 297.681C189.027 323.34 132.007 321.601 97.6782 315.632C88.193 313.983 82.9146 304.218 86.525 295.293Z" fill="white" stroke="black" stroke-width="14"/>
<path d="M703.807 295.293C690.133 261.491 661.672 209.587 621.467 185.782C578.743 161.115 520.068 163.048 484.799 168.859C475.517 170.388 470.01 179.688 473.227 188.528C485.124 221.228 512.179 271.883 556.862 297.681C601.305 323.34 658.325 321.601 692.654 315.632C702.139 313.983 707.417 304.218 703.807 295.293Z" fill="white" stroke="black" stroke-width="14"/>
<path d="M580.997 362.921C580.997 508.172 509.529 574 397.996 574C286.462 574 213.997 508.172 213.997 362.921C213.997 217.67 365.494 48 397.996 48C430.497 48 580.997 217.67 580.997 362.921Z" fill="#FCBA8E" stroke="black" stroke-width="14"/>
<path d="M359.111 9C373.062 9.00004 385.267 16.4689 391.95 27.625C397.284 23.3867 404.034 20.8535 411.376 20.8535C420.137 20.8535 428.055 24.4606 433.729 30.2686C443.214 18.607 457.675 11.1554 473.878 11.1553C497.182 11.1553 516.886 26.567 523.355 47.7539C529.772 43.6857 537.38 41.3292 545.54 41.3291C568.454 41.3291 587.029 59.9039 587.029 82.8174C587.029 84.3263 586.945 85.816 586.788 87.2832C605.282 94.9991 618.28 113.253 618.28 134.543C618.28 159.312 600.687 179.972 577.315 184.709C577.325 185.048 577.33 185.389 577.33 185.73C577.33 205.966 560.927 222.37 540.691 222.37C530.375 222.37 521.056 218.105 514.397 211.244C509.906 226.4 495.879 237.457 479.267 237.457C463.943 237.457 450.819 228.048 445.35 214.694C433.959 225.464 418.59 232.068 401.678 232.068C383.955 232.068 367.927 224.816 356.396 213.119C349.273 231.76 331.224 245 310.079 245C287.919 245 269.156 230.459 262.81 210.397C256.68 215.197 248.961 218.06 240.572 218.06C220.635 218.059 204.472 201.897 204.472 181.959C204.472 172.895 207.813 164.612 213.329 158.272C195.915 149.344 183.997 131.212 183.997 110.297C183.997 80.5392 208.12 56.4153 237.878 56.415C241.459 56.415 244.958 56.7652 248.344 57.4316C254.92 39.843 271.877 27.3193 291.76 27.3193C303.258 27.3194 313.776 31.5096 321.876 38.4434C325.856 21.5635 341.016 9 359.111 9Z" fill="white"/>
<path d="M359.111 9L359.111 2H359.111V9ZM391.95 27.625L385.945 31.2224L390.051 38.0752L396.305 33.1055L391.95 27.625ZM411.376 20.8535V13.8535H411.376L411.376 20.8535ZM433.729 30.2686L428.723 35.1604L434.208 40.7747L439.16 34.6853L433.729 30.2686ZM473.878 11.1553V4.15527H473.878L473.878 11.1553ZM523.355 47.7539L516.661 49.7983L519.344 58.5857L527.104 53.6658L523.355 47.7539ZM545.54 41.3291V34.3291H545.54L545.54 41.3291ZM587.029 82.8174L594.029 82.8174V82.8174H587.029ZM586.788 87.2832L579.828 86.5382L579.272 91.7321L584.093 93.7435L586.788 87.2832ZM618.28 134.543H625.28V134.543L618.28 134.543ZM577.315 184.709L575.925 177.848L570.157 179.018L570.318 184.901L577.315 184.709ZM577.33 185.73H584.33V185.73L577.33 185.73ZM540.691 222.37V229.37H540.691L540.691 222.37ZM514.397 211.244L519.421 206.369L511.086 197.781L507.686 209.255L514.397 211.244ZM479.267 237.457V244.457H479.267L479.267 237.457ZM445.35 214.694L451.827 212.041L447.958 202.594L440.54 209.608L445.35 214.694ZM401.678 232.068V239.068H401.678L401.678 232.068ZM356.396 213.119L361.382 208.205L353.742 200.455L349.858 210.62L356.396 213.119ZM310.079 245L310.079 252H310.079V245ZM262.81 210.397L269.484 208.286L266.44 198.664L258.494 204.886L262.81 210.397ZM240.572 218.06L240.572 225.06H240.572V218.06ZM204.472 181.959H197.472V181.959L204.472 181.959ZM213.329 158.272L218.61 162.868L224.479 156.123L216.523 152.044L213.329 158.272ZM183.997 110.297H176.997V110.297L183.997 110.297ZM237.878 56.415V49.415H237.878L237.878 56.415ZM248.344 57.4316L246.992 64.2998L252.82 65.4471L254.9 59.8832L248.344 57.4316ZM291.76 27.3193L291.76 20.3193H291.76V27.3193ZM321.876 38.4434L317.324 43.7611L326.052 51.2332L328.689 40.0497L321.876 38.4434ZM359.111 9L359.111 16C370.5 16 380.473 22.0886 385.945 31.2224L391.95 27.625L397.955 24.0276C390.06 10.8493 375.624 2.00005 359.111 2L359.111 9ZM391.95 27.625L396.305 33.1055C400.446 29.8151 405.673 27.8535 411.376 27.8535L411.376 20.8535L411.376 13.8535C402.395 13.8535 394.122 16.9584 387.595 22.1445L391.95 27.625ZM411.376 20.8535V27.8535C418.175 27.8535 424.31 30.644 428.723 35.1604L433.729 30.2686L438.736 25.3767C431.8 18.2772 422.1 13.8535 411.376 13.8535V20.8535ZM433.729 30.2686L439.16 34.6853C447.373 24.5874 459.871 18.1554 473.878 18.1553L473.878 11.1553L473.878 4.15527C455.479 4.15542 439.055 12.6266 428.299 25.8518L433.729 30.2686ZM473.878 11.1553V18.1553C494.018 18.1553 511.065 31.4726 516.661 49.7983L523.355 47.7539L530.05 45.7095C522.707 21.6614 500.347 4.15527 473.878 4.15527V11.1553ZM523.355 47.7539L527.104 53.6658C532.433 50.2869 538.747 48.3292 545.54 48.3291L545.54 41.3291L545.54 34.3291C536.014 34.3292 527.111 37.0845 519.607 41.8421L523.355 47.7539ZM545.54 41.3291V48.3291C564.588 48.3291 580.029 63.7701 580.029 82.8174H587.029H594.029C594.029 56.0377 572.319 34.3291 545.54 34.3291V41.3291ZM587.029 82.8174L580.029 82.8174C580.029 84.0657 579.96 85.3065 579.828 86.5382L586.788 87.2832L593.748 88.0282C593.931 86.3255 594.029 84.5868 594.029 82.8174L587.029 82.8174ZM586.788 87.2832L584.093 93.7435C600.071 100.41 611.28 116.175 611.28 134.543L618.28 134.543L625.28 134.543C625.28 110.33 610.492 89.5882 589.483 80.8229L586.788 87.2832ZM618.28 134.543H611.28C611.28 155.917 596.098 173.76 575.925 177.848L577.315 184.709L578.706 191.569C605.277 186.184 625.28 162.708 625.28 134.543H618.28ZM577.315 184.709L570.318 184.901C570.326 185.186 570.33 185.462 570.33 185.73L577.33 185.73L584.33 185.73C584.33 185.316 584.324 184.911 584.313 184.517L577.315 184.709ZM577.33 185.73H570.33C570.33 202.1 557.06 215.37 540.691 215.37L540.691 222.37L540.691 229.37C564.793 229.37 584.33 209.831 584.33 185.73H577.33ZM540.691 222.37V215.37C532.346 215.37 524.816 211.929 519.421 206.369L514.397 211.244L509.374 216.119C517.296 224.282 528.405 229.37 540.691 229.37V222.37ZM514.397 211.244L507.686 209.255C504.051 221.521 492.694 230.457 479.267 230.457L479.267 237.457L479.267 244.457C499.064 244.457 515.761 231.278 521.109 213.233L514.397 211.244ZM479.267 237.457V230.457C466.883 230.457 456.258 222.858 451.827 212.041L445.35 214.694L438.872 217.347C445.381 233.239 461.003 244.457 479.267 244.457V237.457ZM445.35 214.694L440.54 209.608C430.398 219.198 416.731 225.068 401.678 225.068L401.678 232.068L401.678 239.068C420.45 239.068 437.521 231.73 450.159 219.781L445.35 214.694ZM401.678 232.068V225.068C385.905 225.068 371.651 218.623 361.382 208.205L356.396 213.119L351.411 218.033C364.203 231.01 382.005 239.068 401.678 239.068V232.068ZM356.396 213.119L349.858 210.62C343.735 226.641 328.226 238 310.079 238V245V252C334.221 252 354.81 236.879 362.935 215.618L356.396 213.119ZM310.079 245L310.079 238C291.059 238 274.936 225.521 269.484 208.286L262.81 210.397L256.136 212.509C263.376 235.396 284.779 252 310.079 252L310.079 245ZM262.81 210.397L258.494 204.886C253.552 208.756 247.34 211.06 240.572 211.06V218.06V225.06C250.581 225.06 259.809 221.638 267.125 215.909L262.81 210.397ZM240.572 218.06L240.572 211.06C224.501 211.06 211.472 198.031 211.472 181.959L204.472 181.959L197.472 181.959C197.472 205.763 216.769 225.059 240.572 225.06L240.572 218.06ZM204.472 181.959H211.472C211.472 174.648 214.159 167.982 218.61 162.868L213.329 158.272L208.048 153.677C201.466 161.242 197.472 171.143 197.472 181.959H204.472ZM213.329 158.272L216.523 152.044C201.353 144.266 190.997 128.485 190.997 110.297L183.997 110.297L176.997 110.297C176.997 133.94 190.476 154.421 210.135 164.501L213.329 158.272ZM183.997 110.297H190.997C190.997 84.4051 211.986 63.4152 237.878 63.415L237.878 56.415L237.878 49.415C204.254 49.4153 176.997 76.6733 176.997 110.297H183.997ZM237.878 56.415V63.415C241.001 63.415 244.048 63.7204 246.992 64.2998L248.344 57.4316L249.696 50.5634C245.868 49.8101 241.916 49.415 237.878 49.415V56.415ZM248.344 57.4316L254.9 59.8832C260.488 44.9402 274.892 34.3193 291.76 34.3193V27.3193V20.3193C268.862 20.3193 249.353 34.7458 241.787 54.9801L248.344 57.4316ZM291.76 27.3193L291.76 34.3193C301.525 34.3194 310.443 37.8711 317.324 43.7611L321.876 38.4434L326.428 33.1257C317.109 25.1482 304.991 20.3194 291.76 20.3193L291.76 27.3193ZM321.876 38.4434L328.689 40.0497C331.941 26.2587 344.336 16 359.111 16V9V2C337.696 2 319.771 16.8683 315.063 36.837L321.876 38.4434Z" fill="black"/>
<circle cx="334.997" cy="322" r="35" fill="black"/>
<ellipse cx="344.417" cy="309.306" rx="7.79533" ry="16.76" transform="rotate(-45.5145 344.417 309.306)" fill="white"/>
<circle cx="460.997" cy="322" r="35" fill="black"/>
<ellipse cx="470.417" cy="309.306" rx="7.79533" ry="16.76" transform="rotate(-45.5145 470.417 309.306)" fill="white"/>
<path d="M434.789 457.495C407.293 464.938 403.666 500.311 405.748 523.492C405.94 525.638 408.794 525.777 409.399 523.709C419.786 488.2 431.543 483.75 453.787 478.233C466.418 475.101 474.157 446.839 434.789 457.495Z" fill="black"/>
<path d="M361.062 457.495C388.558 464.938 392.186 500.311 390.104 523.492C389.911 525.638 387.057 525.777 386.452 523.709C376.066 488.2 364.308 483.75 342.064 478.233C329.434 475.101 321.694 446.839 361.062 457.495Z" fill="black"/>
<path d="M296.17 266.238C241.939 259.731 199.459 268.95 184.997 274.373V309.623C184.997 309.623 201.345 315.519 206.689 347.584C209.401 363.854 225.67 404.527 282.612 404.527C339.555 404.527 347.689 390.969 361.247 363.854C374.805 336.738 369.382 304.2 393.786 304.2C418.189 304.2 418.189 328.604 426.324 347.584C434.459 366.565 437.17 404.527 510.382 404.527C583.593 404.527 586.305 361.142 589.016 339.45C591.186 322.096 602.574 312.334 607.997 309.623V274.373C604.382 271.661 581.424 266.238 518.516 266.238C439.882 266.238 418.189 282.507 393.786 279.796C369.382 277.084 363.959 274.373 296.17 266.238Z" fill="black"/>
<path d="M358.693 343.864C369.539 311.326 377.674 278.787 290.905 276.076C206.689 269.094 220.405 292.345 217.693 333.018C214.981 373.691 247.52 392.672 290.905 392.672C334.289 392.672 347.847 376.403 358.693 343.864Z" fill="url(#paint0_linear_2412_68)"/>
<path d="M435.597 343.864C424.751 311.326 416.616 278.787 503.385 276.076C587.601 269.094 573.885 292.345 576.597 333.018C579.309 373.691 546.77 392.672 503.385 392.672C460.001 392.672 446.443 376.403 435.597 343.864Z" fill="url(#paint1_linear_2412_68)"/>
<ellipse cx="825" cy="224.5" rx="57" ry="55.5" fill="black"/>
<defs>
<linearGradient id="paint0_linear_2412_68" x1="291.395" y1="274.846" x2="291.395" y2="392.672" gradientUnits="userSpaceOnUse">
<stop stop-color="#7D7D7D"/>
<stop offset="1" stop-color="#272626" stop-opacity="0"/>
</linearGradient>
<linearGradient id="paint1_linear_2412_68" x1="502.896" y1="274.846" x2="502.896" y2="392.672" gradientUnits="userSpaceOnUse">
<stop stop-color="#7D7D7D"/>
<stop offset="1" stop-color="#272626" stop-opacity="0"/>
</linearGradient>
</defs>
</svg>
