<svg width="24" height="24" viewBox="0 0 24 24" fill="none" xmlns="http://www.w3.org/2000/svg">
<g clip-path="url(#clip0_603_1508)">
<path d="M17.5303 12.5303C17.8232 12.2374 17.8232 11.7626 17.5303 11.4697L12.7574 6.6967C12.4645 6.40381 11.9896 6.40381 11.6967 6.6967C11.4038 6.98959 11.4038 7.46447 11.6967 7.75736L15.9393 12L11.6967 16.2426C11.4038 16.5355 11.4038 17.0104 11.6967 17.3033C11.9896 17.5962 12.4645 17.5962 12.7574 17.3033L17.5303 12.5303ZM-1 12.75H17V11.25H-1V12.75Z" fill="black"/>
<path fill-rule="evenodd" clip-rule="evenodd" d="M9.50001 22.5L22.5 22.5L22.5 1.5L9.50001 1.5L9.50001 6L8.00001 6L8.00001 1.5L8.00001 -7.57664e-07L9.50001 -6.86633e-07L22.5 -7.10301e-08L24 0L24 1.5L24 22.5L24 24L22.5 24L9.5 24L8 24L8.00001 22.5L8.00001 18L9.50001 18L9.50001 22.5Z" fill="black"/>
</g>
<defs>
<clipPath id="clip0_603_1508">
<rect width="24" height="24" fill="white"/>
</clipPath>
</defs>
</svg>
