<svg width="88" height="100" viewBox="0 0 88 100" fill="none" xmlns="http://www.w3.org/2000/svg">
<path d="M15.5 98H2V34C4.32141 16.0002 18 1 50.5 2.00004" stroke="black" stroke-width="3"/>
<path d="M86 98H14V34V33.5C15.9898 15.5002 31.4698 2 50 2C68.5302 2 83.7905 16.0002 85.7803 34L85.7215 33.5L86 98Z" stroke="black" stroke-width="3"/>
<path d="M29.8687 59.0001V40.8182H37.3793C38.7406 40.8182 39.9154 41.0639 40.9038 41.5551C41.8981 42.0404 42.6646 42.7388 43.2032 43.6503C43.7418 44.5558 44.0111 45.63 44.0111 46.8729C44.0111 48.1336 43.7358 49.2048 43.1854 50.0867C42.635 50.9627 41.8537 51.6314 40.8417 52.0931C39.8296 52.5488 38.6311 52.7767 37.2461 52.7767H32.4965V49.3143H36.4294C37.0923 49.3143 37.6456 49.2285 38.0895 49.0569C38.5393 48.8793 38.8797 48.613 39.1105 48.2579C39.3413 47.8968 39.4567 47.4352 39.4567 46.8729C39.4567 46.3107 39.3413 45.8461 39.1105 45.4791C38.8797 45.1062 38.5393 44.8281 38.0895 44.6446C37.6397 44.4552 37.0863 44.3605 36.4294 44.3605H34.2632V59.0001H29.8687ZM40.1048 50.6904L44.6325 59.0001H39.8385L35.3995 50.6904H40.1048Z" fill="black"/>
<path d="M53.3159 40.8182V59.0001H48.9214V40.8182H53.3159Z" fill="black"/>
<path d="M58.5747 59.0001V40.8182H66.0854C67.4466 40.8182 68.6215 41.0846 69.6099 41.6172C70.6042 42.144 71.3706 42.8809 71.9092 43.8278C72.4478 44.7689 72.7171 45.8638 72.7171 47.1126C72.7171 48.3674 72.4419 49.4653 71.8915 50.4063C71.347 51.3414 70.5687 52.0665 69.5566 52.5814C68.5445 53.0963 67.3431 53.3537 65.9522 53.3537H61.318V49.8914H65.1354C65.7983 49.8914 66.3517 49.776 66.7956 49.5452C67.2454 49.3143 67.5857 48.9918 67.8165 48.5775C68.0474 48.1573 68.1628 47.669 68.1628 47.1126C68.1628 46.5504 68.0474 46.065 67.8165 45.6567C67.5857 45.2424 67.2454 44.9228 66.7956 44.6979C66.3458 44.4729 65.7924 44.3605 65.1354 44.3605H62.9692V59.0001H58.5747Z" fill="black"/>
</svg>
