<svg version="1.1" xmlns="http://www.w3.org/2000/svg" viewBox="0 0 1728 1296" role="img">
	<g fill="white">
		<circle class="circle" cx="603.23" cy="843.82" r="250.5"/>
		<path class="path" d="M336.17,843.82c0-22.29,2.75-43.93,7.89-64.62l-183.94-59.76c-29.2,93.03-29.2,180.12,0,273.15l190.5-61.9
			C341.26,903.45,336.17,874.23,336.17,843.82z"/>
		<path class="path" d="M419.47,650.04L236.12,397.68c-95.84,70.85-158.33,156.86-196.09,269.9l307.26,99.83
			C360.8,722.06,386.03,681.77,419.47,650.04z"/>
		<path class="path" d="M548.01,582.49l-1.45-408.32c-139.37,1.48-257.34,40.28-370.39,121.8L429.02,641.4
			C462.49,612.58,503.18,591.91,548.01,582.49z"/>
		<path class="path" d="M603.23,576.76c37.75,0,73.66,7.85,106.22,21.98L988,215.34c-131.06-94-267.64-138.37-428.92-139.36v504.43
			C573.45,578.02,588.19,576.76,603.23,576.76z"/>
		<path class="path" d="M856.89,760.09l569.12-184.92c-65.36-197.96-174.33-347.93-342.4-471.27L720.42,603.79
			C784.55,635.16,834.25,691.47,856.89,760.09z"/>
		<path class="path" d="M1634.26,519.65L860.28,771.14c6.52,23.11,10.02,47.49,10.02,72.69c0,27.78-4.25,54.57-12.12,79.76
			l776.08,252.16C1705.88,952.1,1705.88,743.29,1634.26,519.65z"/>
	</g>
</svg>
