<svg version="1.1" id="Capa_1" xmlns="http://www.w3.org/2000/svg" x="0px" y="0px"
     viewBox="0 0 428.838 428.838" style="enable-background:new 0 0 428.838 428.838;" xml:space="preserve">
<g>
	<g>
		<path d="M375.117,420.893l-35.995-49.386v-27.525c0-2.761-2.239-5-5-5h-26.367c-2.333-23.282-20.935-41.838-44.238-44.102V169.743
			h70.547c2.761,0,5-2.239,5-5V76.544c0-2.761-2.239-5-5-5h-70.547V5c0-2.761-2.239-5-5-5H170.32c-2.761,0-5,2.239-5,5v66.544
			H94.773c-2.761,0-5,2.239-5,5v88.199c0,2.761,2.239,5,5,5h70.547v125.154c-23.088,2.359-41.489,20.876-43.803,44.085H94.716
			c-2.761,0-5,2.239-5,5v27.525l-35.995,49.386c-1.108,1.521-1.269,3.534-0.416,5.211c0.852,1.677,2.575,2.733,4.456,2.733h313.315
			c1.881,0,3.604-1.056,4.457-2.733C376.386,424.428,376.226,422.414,375.117,420.893z M170.32,304.643c2.761,0,5-2.239,5-5v-134.9
			c0-2.761-2.239-5-5-5H99.773V81.544h70.547c2.761,0,5-2.239,5-5V10h78.198v66.544c0,2.761,2.239,5,5,5h70.547v78.199h-70.547
			c-2.761,0-5,2.239-5,5v134.899c0,2.761,2.239,5,5,5c0.068,0,0.132-0.017,0.199-0.02v0.021c19.987,0,36.524,15.005,38.967,34.339
			H286.07c-0.928-5.385-3.417-10.042-7.448-13.884c-9.621-9.169-25.708-11.031-33.985-11.354V151.901h70.635c2.761,0,5-2.239,5-5
			v-52.59c0-2.761-2.239-5-5-5h-70.635v-65.81c0-2.761-2.239-5-5-5h-50.436c-2.761,0-5,2.239-5,5v65.81h-70.635
			c-2.761,0-5,2.239-5,5v52.59c0,2.761,2.239,5,5,5h70.635v161.844c-8.278,0.323-24.365,2.186-33.985,11.354
			c-4.031,3.842-6.52,8.498-7.448,13.884h-11.182C134.016,319.648,150.453,304.643,170.32,304.643z M189.202,141.901h-70.635v-42.59
			h70.635c2.761,0,5-2.239,5-5v-65.81h40.436v65.81c0,2.761,2.239,5,5,5h70.635v42.59h-70.635c-2.761,0-5,2.239-5,5v171.82
			c0,1.366,0.561,2.672,1.549,3.616c0.988,0.943,2.321,1.439,3.685,1.379c0.215-0.012,21.891-0.891,31.864,8.635
			c1.996,1.907,3.352,4.1,4.088,6.632H153.014c0.737-2.532,2.092-4.725,4.088-6.632c9.974-9.525,31.647-8.644,31.859-8.636
			c1.37,0.067,2.699-0.431,3.69-1.374c0.99-0.944,1.55-2.252,1.55-3.62v-171.82C194.202,144.14,191.963,141.901,189.202,141.901z
			 M99.716,348.982h229.407v19.191H99.716V348.982z M67.593,418.838l29.638-40.664h234.377l29.638,40.664H67.593z"/>
	</g>
</g>
</svg>
