<svg version="1.1" xmlns="http://www.w3.org/2000/svg" viewBox="0 0 24 24"> 
    <g fill="#258965"> 
        <circle className="circle" cx="12" cy="12" r="8"/>
        <path className="path" d="M11.696,0.996l-0.205,0.002c-3.08,0.054-5.979,1.299-8.162,3.506c-2.199,2.223-3.38,5.133-3.327,8.195
            C0.112,19.036,5.077,24,11.305,24l0.203-0.002c6.446-0.111,11.601-5.361,11.49-11.7C22.888,5.961,17.923,0.996,11.696,0.996z
			M11,6.996c0-0.276,0.224-0.5,0.5-0.5c0.275,0,0.5,0.224,0.5,0.5v7c0,0.276-0.225,0.5-0.5,0.5c-0.276,0-0.5-0.224-0.5-0.5V6.996z
			M11.518,18.496c-0.006,0-0.012,0-0.018,0c-0.545,0-0.991-0.436-1-0.982c-0.01-0.552,0.43-1.008,0.982-1.017
			c0.006,0,0.012-0.001,0.018-0.001c0.545,0,0.99,0.437,1,0.983C12.51,18.031,12.069,18.486,11.518,18.496z"/>
	</g>
</svg>