<svg xmlns:xlink="http://www.w3.org/1999/xlink" xmlns="http://www.w3.org/2000/svg" contentScriptType="text/ecmascript" zoomAndPan="magnify" contentStyleType="text/css" id="Outline_Version" enable-background="new 0 0 24 24" version="1.1" xml:space="preserve" width="24px" preserveAspectRatio="xMidYMid meet" viewBox="0 0 24 24" height="24px" x="0px" y="0px">
    <g fill="#3e3832">
        <path d="M11.5,6H16v5h1V5.5c0-0.066-0.014-0.132-0.039-0.192c-0.025-0.062-0.062-0.116-0.108-0.162l-4.999-4.998   c-0.046-0.046-0.101-0.083-0.162-0.108C11.632,0.014,11.567,0,11.5,0h-11C0.224,0,0,0.224,0,0.5v21C0,21.776,0.224,22,0.5,22h11v-1   H1V1h10v4.5C11,5.776,11.224,6,11.5,6z M12,1.707L15.293,5H12V1.707z" />
        <path d="M14.256,17.998c0.206,0,0.399-0.128,0.471-0.333C15.292,16.071,16.808,15,18.5,15c1.507,0,2.941,0.812,3.669,2H20.5   c-0.276,0-0.5,0.224-0.5,0.5s0.224,0.5,0.5,0.5H23c0.276,0,0.5-0.224,0.5-0.5V15c0-0.276-0.224-0.5-0.5-0.5s-0.5,0.224-0.5,0.5   v0.795C21.521,14.706,20.042,14,18.5,14c-2.115,0-4.01,1.339-4.715,3.331c-0.092,0.261,0.044,0.546,0.304,0.639   C14.144,17.989,14.201,17.998,14.256,17.998z" />
        <path d="M23.41,19.995c-0.262-0.094-0.546,0.045-0.638,0.305c-0.564,1.594-2.081,2.665-3.773,2.665c-1.507,0-2.941-0.812-3.669-2   h1.669c0.276,0,0.5-0.224,0.5-0.5s-0.224-0.5-0.5-0.5h-2.5c-0.276,0-0.5,0.224-0.5,0.5v2.5c0,0.276,0.224,0.5,0.5,0.5   s0.5-0.224,0.5-0.5V22.17c0.979,1.089,2.458,1.795,4,1.795c2.115,0,4.01-1.339,4.715-3.331   C23.807,20.373,23.67,20.088,23.41,19.995z" />
    </g>
</svg>