<svg version="1.1" xmlns="http://www.w3.org/2000/svg" viewBox="0 0 24 24">
    <g stroke="#000" stroke-linecap="round" stroke-linejoin="round" stroke-miterlimit="10" fill="none" />
    <g>
        <path d="M 20.961 6.308 c -0.025 -0.061 -0.062 -0.116 -0.108 -0.162 l -5.999 -5.999 c -0.046 -0.046 -0.101 -0.083 -0.162 -0.108 C 14.632 0.014 14.567 0 14.5 0 h -11 C 3.224 0 3 0.224 3 0.5 v 23 C 3 23.776 3.224 24 3.5 24 h 17 c 0.276 0 0.5 -0.224 0.5 -0.5 v -17 C 21 6.433 20.986 6.368 20.961 6.308 Z M 15 1.707 L 19.293 6 H 15 V 1.707 Z M 4 23 V 1 h 10 v 5.5 C 14 6.776 14.224 7 14.5 7 H 20 v 16 H 4 Z"></path><path d="M 17.5 8 h -11 C 6.224 8 6 8.224 6 8.5 v 12 C 6 20.776 6.224 21 6.5 21 h 11 c 0.276 0 0.5 -0.224 0.5 -0.5 v -12 C 18 8.224 17.776 8 17.5 8 Z M 10 14 H 7 v -2 h 3 V 14 Z M 11 12 h 6 v 2 h -6 V 12 Z M 7 15 h 3 v 2 H 7 V 15 Z M 11 15 h 6 v 2 h -6 V 15 Z M 17 11 h -6 V 9 h 6 V 11 Z M 10 9 v 2 H 7 V 9 H 10 Z M 7 18 h 3 v 2 H 7 V 18 Z M 11 20 v -2 h 6 v 2 H 11 Z" />
    </g>
</svg>