<svg xmlns:xlink="http://www.w3.org/1999/xlink" xmlns="http://www.w3.org/2000/svg" contentScriptType="text/ecmascript" zoomAndPan="magnify" contentStyleType="text/css" id="Outline_Version" enable-background="new 0 0 24 24" version="1.1" xml:space="preserve" width="24px" preserveAspectRatio="xMidYMid meet" viewBox="0 0 24 24" height="24px" x="0px" y="0px">
    <g fill="#3e3832">
        <path d="M13.338,15.604c-0.437-0.157-0.885-0.318-1.338-0.486v-1.923c0.339-0.336,0.913-1.15,0.991-2.837   c0.459-0.215,0.759-0.736,0.759-1.393c0-0.564-0.222-1.028-0.575-1.284c0.324-0.646,0.832-1.74,0.561-2.836   c-0.332-1.334-2.253-1.808-3.798-1.808c-1.368,0-3.032,0.372-3.625,1.383C5.604,4.379,5.205,4.681,5.01,4.934   c-0.597,0.769-0.254,2.095-0.07,2.808C4.97,7.857,4.994,7.947,5,7.964v2c0,1.89,1.162,2.931,2,3.337v1.817   c-0.404,0.15-0.818,0.299-1.229,0.448c-2.607,0.939-4.858,1.75-5.271,2.997C0.006,20.051,0,23.36,0,23.5C0,23.776,0.224,24,0.5,24   h18c0.276,0,0.5-0.224,0.5-0.5c0-0.14-0.006-3.449-0.499-4.938C18.086,17.312,15.99,16.558,13.338,15.604z M1.007,23   c0.021-0.971,0.104-3.104,0.441-4.123c0.261-0.786,2.7-1.665,4.661-2.371c0.527-0.19,1.057-0.381,1.568-0.575   C7.872,15.857,8,15.671,8,15.464v-2.5c0-0.217-0.143-0.41-0.35-0.477C7.583,12.465,6,11.931,6,9.964v-2   C6,7.849,5.969,7.73,5.908,7.492C5.798,7.064,5.504,5.928,5.8,5.546c0.039-0.049,0.248-0.188,0.727-0.092   c0.267,0.054,0.52-0.111,0.584-0.37c0.148-0.598,1.364-1.049,2.827-1.049s2.679,0.451,2.827,1.049   c0.199,0.802-0.281,1.748-0.539,2.256C12.08,7.626,12,7.784,12,7.964c0,0.276,0.224,0.5,0.5,0.5c0.173,0,0.25,0.292,0.25,0.5   s-0.077,0.5-0.25,0.5c-0.276,0-0.5,0.224-0.5,0.5c0,2.009-0.765,2.575-0.764,2.575C11.09,12.63,11,12.791,11,12.964v2.5   c0,0.208,0.129,0.395,0.323,0.468c0.568,0.214,1.132,0.417,1.676,0.613c2.109,0.759,4.291,1.544,4.553,2.333   c0.338,1.018,0.421,3.152,0.441,4.123H1.007z" />
        <path d="M23.501,18.562c-0.388-1.167-2.338-2.352-6.501-3.943v-0.924c0.339-0.337,0.913-1.15,0.991-2.837   c0.191-0.09,0.358-0.235,0.487-0.429c0.175-0.263,0.271-0.605,0.271-0.965c0-0.572-0.228-1.041-0.589-1.294   c0.321-0.694,0.85-1.899,0.574-3.01c-0.173-0.693-0.962-1.454-1.877-1.809c-0.895-0.346-1.786-0.269-2.511,0.215   C14.118,3.72,14.056,4.03,14.209,4.26c0.154,0.23,0.465,0.29,0.693,0.139c0.572-0.383,1.183-0.275,1.595-0.115   c0.705,0.273,1.197,0.834,1.268,1.117c0.202,0.815-0.287,1.867-0.55,2.432C17.071,8.14,17,8.294,17,8.464   c0,0.276,0.224,0.5,0.5,0.5c0.173,0,0.25,0.292,0.25,0.5c0,0.16-0.039,0.313-0.104,0.41c-0.056,0.083-0.103,0.09-0.146,0.09   c-0.276,0-0.5,0.224-0.5,0.5c0,2.009-0.765,2.575-0.764,2.575C16.09,13.13,16,13.291,16,13.464v1.5   c0,0.208,0.129,0.395,0.323,0.468c3.856,1.454,5.952,2.613,6.229,3.445c0.338,1.018,0.421,3.152,0.441,4.123H21   c-0.276,0-0.5,0.224-0.5,0.5S20.724,24,21,24h2.5c0.276,0,0.5-0.224,0.5-0.5C24,23.36,23.994,20.051,23.501,18.562z" />
    </g>
</svg>