<svg xmlns="http://www.w3.org/2000/svg" width="24" height="24" viewBox="0 0 24 24"><g stroke="#000" stroke-linejoin="round" stroke-miterlimit="10" fill="none"><circle stroke-linecap="round" cx="9.5" cy="9.5" r="9"/><path stroke-linecap="round" d="M15.863 15.864l7.637 7.636"/><path d="M13.998 15.093c-.804-.383-1.678-.765-2.498-1.093v-2s1-.35 1-2.5c.695 0 1-2 .032-2 0-.211.766-1.308.468-2.5-.5-2-5.5-2-6 0-2.105-.43-.5 2.212-.5 2.5-1 0-.695 2 0 2 0 2.15 1 2.5 1 2.5v2c-.821.328-1.695.71-2.5 1.094"/></g></svg>