<svg xmlns:xlink="http://www.w3.org/1999/xlink" xmlns="http://www.w3.org/2000/svg" contentScriptType="text/ecmascript" zoomAndPan="magnify" contentStyleType="text/css" id="Outline_Version" enable-background="new 0 0 24 24" version="1.1" xml:space="preserve" width="24px" preserveAspectRatio="xMidYMid meet" viewBox="0 0 24 24" height="24px" x="0px" y="0px">
    <g fill="#3e3832">
        <path d="M6,11h4.5c0.276,0,0.5-0.224,0.5-0.5V10c0-0.772-0.582-1.543-1.324-1.755L7.5,7.623V6.858C8.404,6.176,9,5.049,9,3.771   C9,1.692,7.43,0,5.5,0S2,1.692,2,3.771c0,1.277,0.596,2.404,1.5,3.087v0.765L1.323,8.245C0.581,8.458,0,9.229,0,10v0.5   C0,10.776,0.224,11,0.5,11H5H6z M5.5,1c1.123,0,2.064,0.831,2.379,1.963C7.726,3.01,7.529,3.034,7.312,3.002   C7.082,2.968,6.664,2.85,6.44,2.434C6.365,2.295,6.229,2.199,6.073,2.176c-0.157-0.023-0.314,0.03-0.427,0.141   c-0.732,0.73-1.822,0.786-2.492,0.527C3.5,1.773,4.416,1,5.5,1z M3.007,3.851C3.894,4.118,5.025,4.01,5.919,3.388   c0.324,0.319,0.756,0.531,1.247,0.604c0.121,0.018,0.242,0.027,0.361,0.027c0.158,0,0.309-0.021,0.455-0.05   C7.89,5.403,6.818,6.543,5.5,6.543C4.146,6.543,3.046,5.342,3.007,3.851z M1,10c0-0.326,0.285-0.704,0.599-0.793l2.539-0.726   C4.352,8.419,4.5,8.223,4.5,8V7.367c0.319,0.104,0.65,0.176,1,0.176s0.681-0.072,1-0.176V8c0,0.223,0.148,0.419,0.362,0.481   L9.4,9.207C9.714,9.296,10,9.674,10,10H6H5H1z" />
        <path d="M22.676,8.245L20.5,7.623V6.858c0.904-0.683,1.5-1.81,1.5-3.087C22,1.692,20.43,0,18.5,0S15,1.692,15,3.771   c0,1.277,0.596,2.404,1.5,3.087v0.765l-2.177,0.622C13.581,8.458,13,9.229,13,10v0.5c0,0.276,0.224,0.5,0.5,0.5H18h1h4.5   c0.276,0,0.5-0.224,0.5-0.5V10C24,9.228,23.418,8.457,22.676,8.245z M18.5,1c1.121,0,2.061,0.827,2.377,1.956   C20.724,3.006,20.523,3.033,20.303,3c-0.227-0.033-0.64-0.151-0.862-0.566c-0.075-0.139-0.211-0.235-0.367-0.258   c-0.157-0.023-0.314,0.03-0.427,0.141c-0.731,0.73-1.821,0.786-2.492,0.526C16.5,1.773,17.416,1,18.5,1z M16.007,3.851   c0.887,0.268,2.019,0.159,2.912-0.463c0.322,0.318,0.752,0.53,1.238,0.602c0.12,0.018,0.24,0.026,0.357,0.026   c0.163,0,0.318-0.022,0.468-0.054C20.893,5.4,19.82,6.543,18.5,6.543C17.146,6.543,16.046,5.342,16.007,3.851z M19,10h-1h-4   c0-0.326,0.285-0.704,0.599-0.793l2.539-0.726C17.352,8.419,17.5,8.223,17.5,8V7.367c0.319,0.104,0.65,0.176,1,0.176   s0.681-0.072,1-0.176V8c0,0.223,0.148,0.419,0.362,0.481L22.4,9.207C22.714,9.296,23,9.674,23,10H19z" />
        <path d="M16.176,21.245L14,20.623v-0.765c0.904-0.683,1.5-1.81,1.5-3.087C15.5,14.692,13.93,13,12,13s-3.5,1.692-3.5,3.771   c0,1.277,0.596,2.404,1.5,3.087v0.765l-2.177,0.622C7.081,21.458,6.5,22.229,6.5,23v0.5C6.5,23.776,6.724,24,7,24h4.5h1H17   c0.276,0,0.5-0.224,0.5-0.5V23C17.5,22.228,16.918,21.457,16.176,21.245z M12,14c1.115,0,2.051,0.818,2.372,1.938   c-0.157,0.053-0.362,0.082-0.593,0.047c-0.22-0.032-0.622-0.147-0.839-0.551c-0.075-0.139-0.211-0.235-0.367-0.258   c-0.157-0.023-0.314,0.03-0.427,0.141c-0.731,0.729-1.821,0.787-2.492,0.527C10,14.773,10.916,14,12,14z M9.507,16.851   c0.887,0.268,2.019,0.158,2.913-0.464c0.316,0.311,0.737,0.517,1.214,0.587C13.75,16.992,13.867,17,13.982,17   c0.174,0,0.341-0.025,0.502-0.062c-0.079,1.449-1.157,2.604-2.484,2.604C10.646,19.543,9.546,18.342,9.507,16.851z M12.5,23h-1h-4   c0-0.326,0.285-0.704,0.599-0.793l2.539-0.726C10.852,21.419,11,21.223,11,21v-0.633c0.319,0.104,0.65,0.176,1,0.176   s0.681-0.072,1-0.176V21c0,0.223,0.148,0.419,0.362,0.481l2.538,0.726c0.313,0.089,0.6,0.468,0.6,0.793H12.5z" />
        <path d="M6.854,15.354c0.195-0.195,0.195-0.512,0-0.707l-2.5-2.5c-0.195-0.195-0.512-0.195-0.707,0s-0.195,0.512,0,0.707l2.5,2.5   C6.244,15.451,6.372,15.5,6.5,15.5S6.756,15.451,6.854,15.354z" />
        <path d="M19.646,12.146l-2.5,2.5c-0.195,0.195-0.195,0.512,0,0.707c0.098,0.098,0.226,0.146,0.354,0.146s0.256-0.049,0.354-0.146   l2.5-2.5c0.195-0.195,0.195-0.512,0-0.707S19.842,11.951,19.646,12.146z" />
    </g>
</svg>