<?xml version="1.0" encoding="utf-8"?>
<!-- Generator: Adobe Illustrator 16.0.0, SVG Export Plug-In . SVG Version: 6.00 Build 0)  -->
<!DOCTYPE svg PUBLIC "-//W3C//DTD SVG 1.1//EN" "http://www.w3.org/Graphics/SVG/1.1/DTD/svg11.dtd">
<svg version="1.1" id="Filled_Version" xmlns="http://www.w3.org/2000/svg" xmlns:xlink="http://www.w3.org/1999/xlink" x="0px"
	 y="0px" width="24px" height="24px" viewBox="0 0 24 24" enable-background="new 0 0 24 24" xml:space="preserve">
<g>
	<path d="M22.439,11.268c0.975-0.975,0.975-2.561,0-3.535l-5.172-5.172C16.797,2.09,16.169,1.831,15.5,1.831
		c-0.67,0-1.297,0.259-1.768,0.729L9.5,6.793l8.707,8.707L22.439,11.268z"/>
	<path d="M3.732,20.439C4.607,21.314,6.262,22,7.5,22h2c1.237,0,2.893-0.686,3.768-1.561l4.232-4.232L8.793,7.5l-7.232,7.232
		C1.09,15.203,0.83,15.831,0.83,16.5c0,0.67,0.26,1.297,0.73,1.768L3.732,20.439z"/>
	<path d="M23.5,23h-23C0.224,23,0,23.224,0,23.5S0.224,24,0.5,24h23c0.276,0,0.5-0.224,0.5-0.5S23.776,23,23.5,23z"/>
</g>
</svg>
