<?xml version="1.0" encoding="iso-8859-1"?>
<!-- Generator: Adobe Illustrator 17.1.0, SVG Export Plug-In . SVG Version: 6.00 Build 0)  -->
<!DOCTYPE svg PUBLIC "-//W3C//DTD SVG 1.0//EN" "http://www.w3.org/TR/2001/REC-SVG-20010904/DTD/svg10.dtd">
<svg version="1.0" id="Outline_Icons" xmlns="http://www.w3.org/2000/svg" xmlns:xlink="http://www.w3.org/1999/xlink" x="0px"
	 y="0px" width="24px" height="24px" viewBox="0 0 24 24" style="enable-background:new 0 0 24 24;" xml:space="preserve">
<g>
	<path style="fill:none;stroke:#000000;stroke-linecap:round;stroke-linejoin:round;stroke-miterlimit:10;" d="M16.9,11.993
		c0,2.5,4.601,4,6.101,0.5c-4.5,0-1-15.5-11-10.5c-10-5-6.5,10.5-11,10.5c1.5,3.5,6.11,2,6.11-0.5"/>
	<path style="fill:none;stroke:#000000;stroke-linecap:round;stroke-linejoin:round;stroke-miterlimit:10;" d="M12,16.493
		c1.5-0.5,4.5-2,5-5c1.5,0,1.5-3,0-3l-0.5-2c-4,0-4-1.5-4.5-2c-0.5,0.5-0.5,2-4.5,2l-0.5,2c-1.5,0-1.5,3,0,3
		C7.501,14.493,10.5,15.993,12,16.493z"/>
	<path style="fill:none;stroke:#000000;stroke-linecap:round;stroke-linejoin:round;stroke-miterlimit:10;" d="M14.471,15.238
		c4.5,2,9.029,3.255,9.029,6.755V23.5h-23v-1.507c0-3.5,4.528-4.755,9.028-6.755"/>
	<path style="fill:none;stroke:#000000;stroke-linecap:round;stroke-linejoin:round;stroke-miterlimit:10;" d="M5.501,16.993
		c0,3,6.5,3.5,6.5,6.5"/>
	<path style="fill:none;stroke:#000000;stroke-linecap:round;stroke-linejoin:round;stroke-miterlimit:10;" d="M18.5,16.993
		c0,3-6.5,3.5-6.5,6.5"/>
	<path style="fill:none;stroke:#000000;stroke-linecap:round;stroke-linejoin:round;stroke-miterlimit:10;" d="M9,8.995
		c0-0.553,0.447-0.5,1-0.5s1-0.053,1,0.5"/>
	<path style="fill:none;stroke:#000000;stroke-linecap:round;stroke-linejoin:round;stroke-miterlimit:10;" d="M13,8.995
		c0-0.553,0.447-0.5,1-0.5s1-0.053,1,0.5"/>
</g>
</svg>
