<svg viewBox="0 0 1440 936" fill="none" xmlns="http://www.w3.org/2000/svg">
    <g clip-path="url(#clip0)">
        <rect width="1440" height="936" fill="#C0B2D2"/>
        <path d="M-122 936H448.213C448.213 936 414.78 931.002 326.972 922.737C239.164 914.472 197.332 900 107.222 900C17.1124 900 -122 936 -122 936Z" fill="#9BD0B0"/>
        <path d="M182.998 936H757C757 936 686.907 886.457 516.412 867.403C345.916 848.348 182.998 936 182.998 936Z" fill="#6AB889"/>
        <path d="M422 936H1247.16C1247.16 936 1198.77 928.78 1071.71 916.842C944.64 904.904 884.104 884 753.707 884C623.309 884 422 936 422 936Z" fill="#9BD0B0"/>
        <path d="M863.362 936H1694C1694 936 1592.57 864.439 1345.84 836.915C1099.12 809.391 863.362 936 863.362 936Z" fill="#6AB889"/>
        <path d="M1093.27 778.684L1158.38 730.069C1165.36 724.858 1175.29 726.219 1180.57 733.108C1180.86 733.478 1181.12 733.861 1181.37 734.255L1204.99 771.571C1209.63 778.896 1207.37 788.545 1199.95 793.123C1199.55 793.369 1199.14 793.597 1198.72 793.807L1125.92 830.266C1111.64 837.419 1094.19 832.625 1085.7 819.217C1077.22 805.808 1080.5 788.222 1093.27 778.684Z" fill="#F1F1F1"/>
        <path d="M1200.29 763.721L1237.17 816.207C1247.21 830.488 1243.77 850.203 1229.49 860.24C1228.72 860.78 1227.93 861.285 1227.12 861.754L1218.54 866.708C1203.42 875.436 1184.1 870.257 1175.37 855.139C1174.9 854.327 1174.47 853.494 1174.08 852.643L1147.07 794.45C1140.35 779.959 1145.79 762.731 1159.63 754.743C1173.46 746.755 1191.1 750.65 1200.29 763.721Z" fill="#F1F1F1"/>
        <path d="M1223.2 817.77H1318C1344.18 817.77 1365.4 838.997 1365.4 865.18C1365.4 891.364 1344.18 912.59 1318 912.59H1223.2C1197.02 912.59 1175.8 891.364 1175.8 865.18C1175.8 838.997 1197.02 817.77 1223.2 817.77Z" fill="#F1F1F1"/>
        <rect x="1199.5" y="896.787" width="31.6" height="63.2131" fill="#F1F1F1"/>
        <rect x="1306.15" y="896.787" width="31.6" height="63.2131" fill="#F1F1F1"/>
        <path d="M1148.15 758.508C1159.06 758.508 1167.9 749.664 1167.9 738.754C1167.9 727.844 1159.06 719 1148.15 719C1137.24 719 1128.4 727.844 1128.4 738.754C1128.4 749.664 1137.24 758.508 1148.15 758.508Z" fill="white"/>
        <path d="M1179.75 758.508C1190.66 758.508 1199.5 749.664 1199.5 738.754C1199.5 727.844 1190.66 719 1179.75 719C1168.84 719 1160 727.844 1160 738.754C1160 749.664 1168.84 758.508 1179.75 758.508Z" fill="white"/>
        <path d="M1199.5 774.311C1208.23 774.311 1215.3 767.236 1215.3 758.508C1215.3 749.78 1208.23 742.705 1199.5 742.705C1190.77 742.705 1183.7 749.78 1183.7 758.508C1183.7 767.236 1190.77 774.311 1199.5 774.311Z" fill="white"/>
        <path d="M1152.1 837.525C1163.01 837.525 1171.85 828.68 1171.85 817.77C1171.85 806.861 1163.01 798.016 1152.1 798.016C1141.19 798.016 1132.35 806.861 1132.35 817.77C1132.35 828.68 1141.19 837.525 1152.1 837.525Z" fill="white"/>
        <path d="M1345.65 896.787C1356.56 896.787 1365.4 887.943 1365.4 877.033C1365.4 866.123 1356.56 857.279 1345.65 857.279C1334.74 857.279 1325.9 866.123 1325.9 877.033C1325.9 887.943 1334.74 896.787 1345.65 896.787Z" fill="white"/>
        <path d="M1325.9 912.59C1338.99 912.59 1349.6 901.977 1349.6 888.885C1349.6 875.793 1338.99 865.18 1325.9 865.18C1312.81 865.18 1302.2 875.793 1302.2 888.885C1302.2 901.977 1312.81 912.59 1325.9 912.59Z" fill="white"/>
        <path d="M1179.75 884.934C1190.66 884.934 1199.5 876.09 1199.5 865.18C1199.5 854.27 1190.66 845.426 1179.75 845.426C1168.84 845.426 1160 854.27 1160 865.18C1160 876.09 1168.84 884.934 1179.75 884.934Z" fill="white"/>
        <path d="M1191.6 920.492C1204.69 920.492 1215.3 909.879 1215.3 896.787C1215.3 883.695 1204.69 873.082 1191.6 873.082C1178.51 873.082 1167.9 883.695 1167.9 896.787C1167.9 909.879 1178.51 920.492 1191.6 920.492Z" fill="white"/>
        <path d="M1246.9 928.393C1259.99 928.393 1270.6 917.78 1270.6 904.689C1270.6 891.597 1259.99 880.984 1246.9 880.984C1233.81 880.984 1223.2 891.597 1223.2 904.689C1223.2 917.78 1233.81 928.393 1246.9 928.393Z" fill="white"/>
        <path d="M1290.35 920.492C1301.26 920.492 1310.1 911.648 1310.1 900.738C1310.1 889.828 1301.26 880.984 1290.35 880.984C1279.44 880.984 1270.6 889.828 1270.6 900.738C1270.6 911.648 1279.44 920.492 1290.35 920.492Z" fill="white"/>
        <path d="M1288.37 924.443C1300.37 924.443 1310.1 914.714 1310.1 902.713C1310.1 890.712 1300.37 880.984 1288.37 880.984C1276.38 880.984 1266.65 890.712 1266.65 902.713C1266.65 914.714 1276.38 924.443 1288.37 924.443Z" fill="white"/>
        <path d="M1377.25 873.082C1388.16 873.082 1397 864.238 1397 853.328C1397 842.418 1388.16 833.574 1377.25 833.574C1366.34 833.574 1357.5 842.418 1357.5 853.328C1357.5 864.238 1366.34 873.082 1377.25 873.082Z" fill="white"/>
        <path d="M1191.6 833.574C1213.42 833.574 1231.1 815.885 1231.1 794.066C1231.1 772.246 1213.42 754.557 1191.6 754.557C1169.78 754.557 1152.1 772.246 1152.1 794.066C1152.1 815.885 1169.78 833.574 1191.6 833.574Z" fill="white"/>
        <path d="M1227.15 908.639C1248.97 908.639 1266.65 890.951 1266.65 869.131C1266.65 847.311 1248.97 829.623 1227.15 829.623C1205.33 829.623 1187.65 847.311 1187.65 869.131C1187.65 890.951 1205.33 908.639 1227.15 908.639Z" fill="white"/>
        <path d="M1286.4 900.738C1308.22 900.738 1325.9 883.049 1325.9 861.23C1325.9 839.41 1308.22 821.721 1286.4 821.721C1264.58 821.721 1246.9 839.41 1246.9 861.23C1246.9 883.049 1264.58 900.738 1286.4 900.738Z" fill="white"/>
        <path d="M1337.75 869.131C1355.2 869.131 1369.35 854.98 1369.35 837.525C1369.35 820.069 1355.2 805.918 1337.75 805.918C1320.3 805.918 1306.15 820.069 1306.15 837.525C1306.15 854.98 1320.3 869.131 1337.75 869.131Z" fill="white"/>
        <path d="M1235.05 857.279C1252.5 857.279 1266.65 843.128 1266.65 825.672C1266.65 808.216 1252.5 794.066 1235.05 794.066C1217.6 794.066 1203.45 808.216 1203.45 825.672C1203.45 843.128 1217.6 857.279 1235.05 857.279Z" fill="white"/>
        <path d="M1191.6 873.082C1209.05 873.082 1223.2 858.931 1223.2 841.475C1223.2 824.02 1209.05 809.869 1191.6 809.869C1174.15 809.869 1160 824.02 1160 841.475C1160 858.931 1174.15 873.082 1191.6 873.082Z" fill="white"/>
        <path d="M1294.3 853.328C1313.93 853.328 1329.85 837.408 1329.85 817.77C1329.85 798.133 1313.93 782.213 1294.3 782.213C1274.67 782.213 1258.75 798.133 1258.75 817.77C1258.75 837.408 1274.67 853.328 1294.3 853.328Z" fill="white"/>
        <path d="M1128.4 770.361C1137.13 770.361 1144.2 763.285 1144.2 754.557C1144.2 745.829 1137.13 738.754 1128.4 738.754C1119.67 738.754 1112.6 745.829 1112.6 754.557C1112.6 763.285 1119.67 770.361 1128.4 770.361Z" fill="white"/>
        <path d="M1136.3 782.213C1140.66 782.213 1144.2 776.907 1144.2 770.361C1144.2 763.815 1140.66 758.508 1136.3 758.508C1131.94 758.508 1128.4 763.815 1128.4 770.361C1128.4 776.907 1131.94 782.213 1136.3 782.213Z" fill="#4F4F4F"/>
        <path d="M1092.61 802.604C1094.66 803.35 1097.23 801.462 1098.35 798.386C1099.47 795.311 1098.71 792.212 1096.66 791.466C1094.61 790.72 1092.05 792.608 1090.93 795.684C1089.81 798.759 1090.56 801.857 1092.61 802.604Z" fill="#4F4F4F"/>
        <path d="M761.907 880.116L777.327 868.618C778.98 867.386 781.333 867.707 782.583 869.337C782.65 869.424 782.714 869.515 782.773 869.608L788.367 878.434C789.465 880.166 788.93 882.448 787.173 883.531C787.079 883.589 786.982 883.643 786.882 883.693L769.64 892.316C766.257 894.008 762.124 892.874 760.114 889.703C758.104 886.531 758.882 882.372 761.907 880.116Z" fill="#F1F1F1"/>
        <path d="M787.253 876.577L795.988 888.991C798.365 892.369 797.551 897.031 794.169 899.405C793.987 899.533 793.8 899.653 793.607 899.763L791.576 900.935C787.996 902.999 783.418 901.774 781.352 898.199C781.241 898.007 781.138 897.81 781.045 897.608L774.649 883.845C773.056 880.418 774.347 876.343 777.623 874.454C780.899 872.564 785.077 873.486 787.253 876.577Z" fill="#F1F1F1"/>
        <path d="M792.68 889.361H815.133C821.333 889.361 826.359 894.381 826.359 900.574C826.359 906.767 821.333 911.787 815.133 911.787H792.68C786.479 911.787 781.453 906.767 781.453 900.574C781.453 894.381 786.479 889.361 792.68 889.361Z" fill="#F1F1F1"/>
        <rect x="787.066" y="908.049" width="7.48435" height="14.9508" fill="#F1F1F1"/>
        <rect x="812.326" y="908.049" width="7.48435" height="14.9508" fill="#F1F1F1"/>
        <path d="M774.904 875.344C777.488 875.344 779.582 873.252 779.582 870.672C779.582 868.092 777.488 866 774.904 866C772.321 866 770.227 868.092 770.227 870.672C770.227 873.252 772.321 875.344 774.904 875.344Z" fill="white"/>
        <path d="M782.389 875.344C784.972 875.344 787.066 873.252 787.066 870.672C787.066 868.092 784.972 866 782.389 866C779.805 866 777.711 868.092 777.711 870.672C777.711 873.252 779.805 875.344 782.389 875.344Z" fill="white"/>
        <path d="M787.066 879.082C789.133 879.082 790.809 877.409 790.809 875.344C790.809 873.28 789.133 871.607 787.066 871.607C785 871.607 783.324 873.28 783.324 875.344C783.324 877.409 785 879.082 787.066 879.082Z" fill="white"/>
        <path d="M775.84 894.033C778.423 894.033 780.518 891.941 780.518 889.361C780.518 886.78 778.423 884.689 775.84 884.689C773.256 884.689 771.162 886.78 771.162 889.361C771.162 891.941 773.256 894.033 775.84 894.033Z" fill="white"/>
        <path d="M821.681 908.049C824.265 908.049 826.359 905.957 826.359 903.377C826.359 900.797 824.265 898.705 821.681 898.705C819.098 898.705 817.004 900.797 817.004 903.377C817.004 905.957 819.098 908.049 821.681 908.049Z" fill="white"/>
        <path d="M817.004 911.787C820.104 911.787 822.617 909.277 822.617 906.18C822.617 903.084 820.104 900.574 817.004 900.574C813.904 900.574 811.39 903.084 811.39 906.18C811.39 909.277 813.904 911.787 817.004 911.787Z" fill="white"/>
        <path d="M782.389 905.246C784.972 905.246 787.066 903.154 787.066 900.574C787.066 897.993 784.972 895.902 782.389 895.902C779.805 895.902 777.711 897.993 777.711 900.574C777.711 903.154 779.805 905.246 782.389 905.246Z" fill="white"/>
        <path d="M785.195 913.656C788.295 913.656 790.809 911.146 790.809 908.049C790.809 904.953 788.295 902.443 785.195 902.443C782.095 902.443 779.582 904.953 779.582 908.049C779.582 911.146 782.095 913.656 785.195 913.656Z" fill="white"/>
        <path d="M798.293 915.525C801.393 915.525 803.906 913.014 803.906 909.918C803.906 906.822 801.393 904.311 798.293 904.311C795.193 904.311 792.68 906.822 792.68 909.918C792.68 913.014 795.193 915.525 798.293 915.525Z" fill="white"/>
        <path d="M808.584 913.656C811.167 913.656 813.261 911.564 813.261 908.984C813.261 906.403 811.167 904.311 808.584 904.311C806 904.311 803.906 906.403 803.906 908.984C803.906 911.564 806 913.656 808.584 913.656Z" fill="white"/>
        <path d="M808.116 914.59C810.958 914.59 813.261 912.289 813.261 909.451C813.261 906.612 810.958 904.311 808.116 904.311C805.274 904.311 802.97 906.612 802.97 909.451C802.97 912.289 805.274 914.59 808.116 914.59Z" fill="white"/>
        <path d="M829.166 902.443C831.749 902.443 833.843 900.351 833.843 897.77C833.843 895.19 831.749 893.098 829.166 893.098C826.582 893.098 824.488 895.19 824.488 897.77C824.488 900.351 826.582 902.443 829.166 902.443Z" fill="white"/>
        <path d="M785.195 893.098C790.362 893.098 794.551 888.915 794.551 883.754C794.551 878.593 790.362 874.41 785.195 874.41C780.028 874.41 775.84 878.593 775.84 883.754C775.84 888.915 780.028 893.098 785.195 893.098Z" fill="white"/>
        <path d="M793.615 910.852C798.782 910.852 802.971 906.669 802.971 901.508C802.971 896.348 798.782 892.164 793.615 892.164C788.448 892.164 784.26 896.348 784.26 901.508C784.26 906.669 788.448 910.852 793.615 910.852Z" fill="white"/>
        <path d="M807.648 908.984C812.815 908.984 817.004 904.8 817.004 899.639C817.004 894.479 812.815 890.295 807.648 890.295C802.481 890.295 798.293 894.479 798.293 899.639C798.293 904.8 802.481 908.984 807.648 908.984Z" fill="white"/>
        <path d="M819.81 901.508C823.944 901.508 827.295 898.161 827.295 894.033C827.295 889.904 823.944 886.557 819.81 886.557C815.677 886.557 812.326 889.904 812.326 894.033C812.326 898.161 815.677 901.508 819.81 901.508Z" fill="white"/>
        <path d="M795.486 898.705C799.62 898.705 802.971 895.358 802.971 891.23C802.971 887.101 799.62 883.754 795.486 883.754C791.353 883.754 788.002 887.101 788.002 891.23C788.002 895.358 791.353 898.705 795.486 898.705Z" fill="white"/>
        <path d="M785.195 902.443C789.329 902.443 792.68 899.096 792.68 894.967C792.68 890.839 789.329 887.492 785.195 887.492C781.062 887.492 777.711 890.839 777.711 894.967C777.711 899.096 781.062 902.443 785.195 902.443Z" fill="white"/>
        <path d="M809.519 897.77C814.169 897.77 817.939 894.005 817.939 889.361C817.939 884.716 814.169 880.951 809.519 880.951C804.869 880.951 801.099 884.716 801.099 889.361C801.099 894.005 804.869 897.77 809.519 897.77Z" fill="white"/>
        <path d="M770.227 878.148C772.293 878.148 773.969 876.474 773.969 874.41C773.969 872.346 772.293 870.672 770.227 870.672C768.16 870.672 766.484 872.346 766.484 874.41C766.484 876.474 768.16 878.148 770.227 878.148Z" fill="white"/>
        <path d="M772.098 880.951C773.131 880.951 773.969 879.696 773.969 878.148C773.969 876.599 773.131 875.344 772.098 875.344C771.064 875.344 770.227 876.599 770.227 878.148C770.227 879.696 771.064 880.951 772.098 880.951Z" fill="#4F4F4F"/>
        <path d="M761.75 885.773C762.236 885.95 762.844 885.503 763.109 884.776C763.374 884.049 763.196 883.316 762.71 883.139C762.225 882.963 761.616 883.409 761.351 884.137C761.086 884.864 761.265 885.597 761.75 885.773Z" fill="#4F4F4F"/>
        <path d="M705.385 880.925L696.728 874.47C695.801 873.778 694.479 873.959 693.778 874.873C693.74 874.922 693.704 874.973 693.671 875.026L690.531 879.98C689.914 880.953 690.214 882.234 691.201 882.842C691.254 882.875 691.308 882.905 691.364 882.933L701.044 887.774C702.943 888.724 705.264 888.087 706.392 886.307C707.521 884.526 707.084 882.191 705.385 880.925Z" fill="#F1F1F1"/>
        <path d="M691.156 878.938L686.252 885.907C684.918 887.803 685.375 890.421 687.273 891.754C687.375 891.826 687.481 891.893 687.589 891.955L688.729 892.613C690.739 893.772 693.309 893.084 694.469 891.077C694.531 890.969 694.589 890.858 694.641 890.745L698.232 883.018C699.126 881.094 698.402 878.807 696.562 877.746C694.723 876.685 692.377 877.203 691.156 878.938Z" fill="#F1F1F1"/>
        <path d="M688.11 886.115H675.504C672.023 886.115 669.202 888.933 669.202 892.41C669.202 895.887 672.023 898.705 675.504 898.705H688.11C691.59 898.705 694.412 895.887 694.412 892.41C694.412 888.933 691.59 886.115 688.11 886.115Z" fill="#F1F1F1"/>
        <rect width="4.20174" height="8.39344" transform="matrix(-1 0 0 1 691.261 896.607)" fill="#F1F1F1"/>
        <rect width="4.20174" height="8.39344" transform="matrix(-1 0 0 1 677.08 896.607)" fill="#F1F1F1"/>
        <path d="M698.089 878.246C696.638 878.246 695.462 877.072 695.462 875.623C695.462 874.174 696.638 873 698.089 873C699.539 873 700.715 874.174 700.715 875.623C700.715 877.072 699.539 878.246 698.089 878.246Z" fill="white"/>
        <path d="M693.887 878.246C692.437 878.246 691.261 877.072 691.261 875.623C691.261 874.174 692.437 873 693.887 873C695.337 873 696.513 874.174 696.513 875.623C696.513 877.072 695.337 878.246 693.887 878.246Z" fill="white"/>
        <path d="M691.261 880.344C690.101 880.344 689.16 879.405 689.16 878.246C689.16 877.087 690.101 876.148 691.261 876.148C692.421 876.148 693.362 877.087 693.362 878.246C693.362 879.405 692.421 880.344 691.261 880.344Z" fill="white"/>
        <path d="M697.563 888.738C696.113 888.738 694.937 887.563 694.937 886.115C694.937 884.666 696.113 883.492 697.563 883.492C699.014 883.492 700.189 884.666 700.189 886.115C700.189 887.563 699.014 888.738 697.563 888.738Z" fill="white"/>
        <path d="M671.828 896.607C670.377 896.607 669.202 895.432 669.202 893.984C669.202 892.535 670.377 891.361 671.828 891.361C673.278 891.361 674.454 892.535 674.454 893.984C674.454 895.432 673.278 896.607 671.828 896.607Z" fill="white"/>
        <path d="M674.454 898.705C672.714 898.705 671.303 897.296 671.303 895.557C671.303 893.819 672.714 892.41 674.454 892.41C676.194 892.41 677.605 893.819 677.605 895.557C677.605 897.296 676.194 898.705 674.454 898.705Z" fill="white"/>
        <path d="M693.887 895.033C692.437 895.033 691.261 893.858 691.261 892.41C691.261 890.961 692.437 889.787 693.887 889.787C695.337 889.787 696.513 890.961 696.513 892.41C696.513 893.858 695.337 895.033 693.887 895.033Z" fill="white"/>
        <path d="M692.311 899.754C690.571 899.754 689.16 898.345 689.16 896.607C689.16 894.868 690.571 893.459 692.311 893.459C694.052 893.459 695.463 894.868 695.463 896.607C695.463 898.345 694.052 899.754 692.311 899.754Z" fill="white"/>
        <path d="M684.958 900.803C683.218 900.803 681.807 899.394 681.807 897.656C681.807 895.917 683.218 894.508 684.958 894.508C686.699 894.508 688.11 895.917 688.11 897.656C688.11 899.394 686.699 900.803 684.958 900.803Z" fill="white"/>
        <path d="M679.181 899.754C677.73 899.754 676.555 898.58 676.555 897.131C676.555 895.683 677.73 894.508 679.181 894.508C680.631 894.508 681.807 895.683 681.807 897.131C681.807 898.58 680.631 899.754 679.181 899.754Z" fill="white"/>
        <path d="M679.443 900.279C677.848 900.279 676.555 898.987 676.555 897.393C676.555 895.8 677.848 894.508 679.443 894.508C681.039 894.508 682.332 895.8 682.332 897.393C682.332 898.987 681.039 900.279 679.443 900.279Z" fill="white"/>
        <path d="M667.626 893.459C666.176 893.459 665 892.285 665 890.836C665 889.387 666.176 888.213 667.626 888.213C669.076 888.213 670.252 889.387 670.252 890.836C670.252 892.285 669.076 893.459 667.626 893.459Z" fill="white"/>
        <path d="M692.311 888.213C689.411 888.213 687.059 885.864 687.059 882.967C687.059 880.07 689.411 877.721 692.311 877.721C695.212 877.721 697.563 880.07 697.563 882.967C697.563 885.864 695.212 888.213 692.311 888.213Z" fill="white"/>
        <path d="M687.584 898.18C684.684 898.18 682.332 895.832 682.332 892.934C682.332 890.037 684.684 887.689 687.584 887.689C690.485 887.689 692.836 890.037 692.836 892.934C692.836 895.832 690.485 898.18 687.584 898.18Z" fill="white"/>
        <path d="M679.706 897.131C676.805 897.131 674.454 894.782 674.454 891.885C674.454 888.988 676.805 886.639 679.706 886.639C682.607 886.639 684.958 888.988 684.958 891.885C684.958 894.782 682.607 897.131 679.706 897.131Z" fill="white"/>
        <path d="M672.878 892.934C670.558 892.934 668.677 891.055 668.677 888.738C668.677 886.42 670.558 884.541 672.878 884.541C675.199 884.541 677.08 886.42 677.08 888.738C677.08 891.055 675.199 892.934 672.878 892.934Z" fill="white"/>
        <path d="M686.534 891.361C684.213 891.361 682.332 889.482 682.332 887.164C682.332 884.846 684.213 882.967 686.534 882.967C688.854 882.967 690.736 884.846 690.736 887.164C690.736 889.482 688.854 891.361 686.534 891.361Z" fill="white"/>
        <path d="M692.311 893.459C689.991 893.459 688.109 891.58 688.109 889.262C688.109 886.945 689.991 885.066 692.311 885.066C694.632 885.066 696.513 886.945 696.513 889.262C696.513 891.58 694.632 893.459 692.311 893.459Z" fill="white"/>
        <path d="M678.656 890.836C676.045 890.836 673.929 888.722 673.929 886.115C673.929 883.507 676.045 881.393 678.656 881.393C681.266 881.393 683.383 883.507 683.383 886.115C683.383 888.722 681.266 890.836 678.656 890.836Z" fill="white"/>
        <path d="M700.715 879.82C699.555 879.82 698.614 878.88 698.614 877.721C698.614 876.562 699.555 875.623 700.715 875.623C701.875 875.623 702.816 876.562 702.816 877.721C702.816 878.88 701.875 879.82 700.715 879.82Z" fill="white"/>
        <path d="M699.664 881.393C699.084 881.393 698.614 880.689 698.614 879.82C698.614 878.951 699.084 878.246 699.664 878.246C700.244 878.246 700.715 878.951 700.715 879.82C700.715 880.689 700.244 881.393 699.664 881.393Z" fill="#4F4F4F"/>
        <path d="M705.473 884.101C705.201 884.2 704.859 883.949 704.71 883.541C704.562 883.133 704.662 882.721 704.934 882.622C705.207 882.523 705.549 882.774 705.697 883.182C705.846 883.59 705.746 884.002 705.473 884.101Z" fill="#4F4F4F"/>
        <path d="M430 844H433L434 866H429L430 844Z" fill="#4F4F4F"/>
        <path d="M433.539 801.557L442.952 842.606C443.197 843.672 442.481 844.724 441.355 844.955C441.21 844.985 441.061 845 440.912 845H422.087C420.934 845 420 844.116 420 843.025C420 842.884 420.016 842.744 420.047 842.606L429.46 801.557C429.705 800.491 430.816 799.814 431.942 800.045C432.742 800.209 433.366 800.8 433.539 801.557Z" fill="#117938"/>
        <path d="M467.609 873.333H471.391L472.652 901H466.348L467.609 873.333Z" fill="#4F4F4F"/>
        <path d="M472.072 819.958L483.94 871.58C484.248 872.921 483.346 874.244 481.926 874.534C481.742 874.572 481.555 874.591 481.368 874.591H457.632C456.178 874.591 455 873.479 455 872.107C455 871.93 455.02 871.754 455.06 871.58L466.928 819.958C467.236 818.617 468.637 817.766 470.058 818.057C471.066 818.263 471.853 819.006 472.072 819.958Z" fill="#117938"/>
        <path d="M64.9566 907H67.0436L67.7392 922H64.261L64.9566 907Z" fill="#4F4F4F"/>
        <path d="M67.4188 878.061L73.9667 906.05C74.1367 906.776 73.6393 907.493 72.8556 907.651C72.7545 907.672 72.6513 907.682 72.5478 907.682H59.4519C58.6501 907.682 58 907.079 58 906.335C58 906.239 58.0111 906.143 58.033 906.05L64.5809 878.061C64.751 877.335 65.5241 876.873 66.3077 877.031C66.8638 877.143 67.2981 877.546 67.4188 878.061Z" fill="#117938"/>
        <path d="M91.2173 894.333H92.7825L93.3043 906H90.6956L91.2173 894.333Z" fill="#4F4F4F"/>
        <path d="M93.0641 871.826L97.975 893.594C98.1025 894.159 97.7295 894.717 97.1417 894.84C97.0659 894.856 96.9884 894.864 96.9108 894.864H87.089C86.4875 894.864 86 894.395 86 893.816C86 893.742 86.0083 893.667 86.0248 893.594L90.9357 871.826C91.0632 871.26 91.6431 870.901 92.2308 871.024C92.6478 871.111 92.9736 871.424 93.0641 871.826Z" fill="#117938"/>
        <path d="M400.565 863.333H403.435L404.391 884H399.609L400.565 863.333Z" fill="#4F4F4F"/>
        <path d="M403.951 823.462L412.954 862.024C413.188 863.025 412.504 864.013 411.426 864.231C411.287 864.259 411.145 864.273 411.003 864.273H392.996C391.894 864.273 391 863.442 391 862.417C391 862.285 391.015 862.153 391.045 862.024L400.049 823.462C400.283 822.461 401.346 821.825 402.423 822.043C403.188 822.197 403.785 822.752 403.951 823.462Z" fill="#117938"/>
        <path d="M958.417 832.93C954.014 836.259 951.784 837.873 951.22 838.264C977.897 842.324 993.026 835.169 997.256 831.085C995.748 830.012 991.457 827.297 986.354 825.023C979.975 822.182 977.156 820.547 974.641 814.985C972.628 810.535 967.015 805.125 964.459 802.977L960.233 807.981C960.233 807.981 967.152 813.474 967.217 816.499C967.281 819.524 963.92 828.77 958.417 832.93Z" fill="#06893A"/>
        <ellipse cx="1007.78" cy="862.355" rx="24.3534" ry="40.8597" transform="rotate(-11.5272 1007.78 862.355)" fill="#FF9D13"/>
        <ellipse cx="954.219" cy="873.278" rx="24.3534" ry="40.8597" transform="rotate(-11.5272 954.219 873.278)" fill="#FF9D13"/>
        <ellipse cx="963.233" cy="871.44" rx="24.3534" ry="40.8597" transform="rotate(-11.5272 963.233 871.44)" fill="#FFAA33"/>
        <ellipse cx="997.701" cy="864.41" rx="24.3534" ry="40.8597" transform="rotate(-11.5272 997.701 864.41)" fill="#FFAA33"/>
        <ellipse cx="979.671" cy="868.087" rx="24.3534" ry="40.8597" transform="rotate(-11.5272 979.671 868.087)" fill="#FFB348"/>
        <path d="M961.788 852.913L974.738 862.199L960.222 868.772L961.788 852.913Z" fill="#4F4F4F"/>
        <path d="M991.341 846.908L998.846 860.966L982.92 860.437L991.341 846.908Z" fill="#4F4F4F"/>
        <path d="M959.223 876.768L950.267 872.151C952.213 888.201 961.558 894.089 965.987 895.027L968.15 889.369L973.191 888.341L977.878 895.057L986.729 895.093L987.855 888.419L994.754 887.012L997.608 892.874C999.052 892.273 1003.05 889.739 1007.49 884.414C1011.93 879.09 1010.53 869.065 1009.28 864.718L1000.82 874.729L1002.02 880.621L995.746 883.741L992.892 877.88L983.605 879.774L983.54 886.231L976.015 885.924L974.813 880.032L966.227 879.942L963.704 883.832L958.267 881.566L959.223 876.768Z" fill="#4F4F4F"/>
        <path d="M550.81 856.74C548.714 857.15 547.665 857.333 547.402 857.374C555.991 863.312 562.467 863.391 564.631 862.689C564.289 862.059 563.257 860.387 561.868 858.73C560.132 856.66 559.429 855.613 559.498 853.252C559.553 851.363 558.519 848.529 557.994 847.348L555.675 848.371C555.675 848.371 557.15 851.456 556.659 852.518C556.168 853.581 553.43 856.227 550.81 856.74Z" fill="#06893A"/>
        <ellipse cx="562.983" cy="875.349" rx="9.42408" ry="15.8115" transform="rotate(14.4819 562.983 875.349)" fill="#FF9D13"/>
        <ellipse cx="542.503" cy="870.059" rx="9.42408" ry="15.8115" transform="rotate(14.4819 542.503 870.059)" fill="#FF9D13"/>
        <ellipse cx="545.95" cy="870.95" rx="9.42408" ry="15.8115" transform="rotate(14.4819 545.95 870.95)" fill="#FFAA33"/>
        <ellipse cx="559.13" cy="874.354" rx="9.42408" ry="15.8115" transform="rotate(14.4819 559.13 874.354)" fill="#FFAA33"/>
        <ellipse cx="552.236" cy="872.573" rx="9.42408" ry="15.8115" transform="rotate(14.4819 552.236 872.573)" fill="#FFB348"/>
        <path d="M548.591 864.261L551.52 869.688L545.356 869.511L548.591 864.261Z" fill="#4F4F4F"/>
        <path d="M559.888 867.188L560.113 873.35L554.664 870.464L559.888 867.188Z" fill="#4F4F4F"/>
        <path d="M543.652 872.122L541.32 868.997C539.274 874.909 541.524 878.543 542.906 879.62L544.618 878.02L546.546 878.518L547.036 881.648L550.108 883.163L551.632 881.033L554.27 881.714L554.268 884.237C554.872 884.273 556.692 884.07 559.141 882.972C561.589 881.874 562.803 878.15 563.104 876.426L558.463 878.471L557.881 880.724L555.17 880.745L555.172 878.222L551.621 877.305L550.503 879.54L547.938 878.156L548.52 875.903L545.549 874.415L544.011 875.34L542.505 873.629L543.652 872.122Z" fill="#4F4F4F"/>
        <path d="M315.293 868.242C313.958 869.343 313.28 869.878 313.109 870.008C321.522 870.928 326.169 868.486 327.44 867.15C326.954 866.834 325.573 866.04 323.944 865.395C321.907 864.589 321.002 864.114 320.141 862.404C319.451 861.036 317.621 859.415 316.791 858.775L315.533 860.399C315.533 860.399 317.774 862.029 317.834 862.976C317.894 863.923 316.963 866.865 315.293 868.242Z" fill="#06893A"/>
        <ellipse cx="331.15" cy="876.811" rx="7.63847" ry="12.8157" transform="rotate(-13.9408 331.15 876.811)" fill="#FF9D13"/>
        <ellipse cx="314.511" cy="880.941" rx="7.63847" ry="12.8157" transform="rotate(-13.9408 314.511 880.941)" fill="#FF9D13"/>
        <ellipse cx="317.311" cy="880.246" rx="7.63847" ry="12.8157" transform="rotate(-13.9408 317.311 880.246)" fill="#FFAA33"/>
        <ellipse cx="328.02" cy="877.588" rx="7.63847" ry="12.8157" transform="rotate(-13.9408 328.02 877.588)" fill="#FFAA33"/>
        <ellipse cx="322.418" cy="878.978" rx="7.63847" ry="12.8157" transform="rotate(-13.9408 322.418 878.978)" fill="#FFB348"/>
        <path d="M316.614 874.459L320.795 877.198L316.332 879.449L316.614 874.459Z" fill="#4F4F4F"/>
        <path d="M325.795 872.187L328.333 876.493L323.335 876.538L325.795 872.187Z" fill="#4F4F4F"/>
        <path d="M316.125 881.969L313.257 880.64C314.079 885.644 317.086 887.366 318.486 887.601L319.089 885.8L320.655 885.411L322.213 887.453L324.987 887.348L325.252 885.241L327.395 884.709L328.367 886.509C328.811 886.301 330.03 885.454 331.352 883.727C332.673 882 332.102 878.877 331.652 877.531L329.133 880.78L329.587 882.611L327.662 883.671L326.691 881.872L323.805 882.588L323.87 884.613L321.508 884.616L321.054 882.786L318.362 882.871L317.623 884.123L315.889 883.485L316.125 881.969Z" fill="#4F4F4F"/>
        <path d="M513.989 863.991C511.843 865.163 510.761 865.726 510.488 865.861C521.917 869.374 529.014 867.221 531.133 865.705C530.542 865.137 528.837 863.668 526.748 862.34C524.137 860.68 523.008 859.781 522.267 857.179C521.674 855.098 519.565 852.362 518.584 851.254L516.406 853.173C516.406 853.173 519.083 856.03 518.914 857.36C518.746 858.69 516.672 862.525 513.989 863.991Z" fill="#06893A"/>
        <ellipse cx="533.712" cy="880.095" rx="10.7911" ry="18.1051" transform="rotate(-3.09495 533.712 880.095)" fill="#FF9D13"/>
        <ellipse cx="509.528" cy="881.403" rx="10.7911" ry="18.1051" transform="rotate(-3.09495 509.528 881.403)" fill="#FF9D13"/>
        <ellipse cx="513.598" cy="881.183" rx="10.7911" ry="18.1051" transform="rotate(-3.09495 513.598 881.183)" fill="#FFAA33"/>
        <ellipse cx="529.163" cy="880.341" rx="10.7911" ry="18.1051" transform="rotate(-3.09495 529.163 880.341)" fill="#FFAA33"/>
        <ellipse cx="521.021" cy="880.781" rx="10.7911" ry="18.1051" transform="rotate(-3.09495 521.021 880.781)" fill="#FFB348"/>
        <path d="M514.168 872.969L519.241 877.88L512.451 879.818L514.168 872.969Z" fill="#4F4F4F"/>
        <path d="M527.512 872.257L529.889 878.906L522.942 877.639L527.512 872.257Z" fill="#4F4F4F"/>
        <path d="M511.495 883.258L507.869 880.652C507.679 887.814 511.393 891.002 513.273 891.7L514.588 889.361L516.865 889.238L518.483 892.486L522.36 893.077L523.287 890.225L526.403 890.057L527.273 892.811C527.945 892.642 529.861 891.791 532.154 889.746C534.447 887.7 534.485 883.216 534.217 881.229L529.858 885.067L530.002 887.727L527.05 888.687L526.18 885.933L521.986 886.159L521.538 888.985L518.26 888.362L518.116 885.702L514.358 885.104L513 886.645L510.764 885.299L511.495 883.258Z" fill="#4F4F4F"/>
        <path d="M119.148 909.634C117.982 910.271 117.394 910.577 117.245 910.65C123.455 912.559 127.311 911.389 128.462 910.566C128.141 910.257 127.215 909.459 126.08 908.737C124.661 907.835 124.047 907.347 123.645 905.933C123.323 904.802 122.177 903.316 121.644 902.714L120.461 903.757C120.461 903.757 121.915 905.309 121.823 906.032C121.732 906.754 120.605 908.838 119.148 909.634Z" fill="#06893A"/>
        <ellipse cx="129.863" cy="918.384" rx="5.86307" ry="9.83693" transform="rotate(-3.09495 129.863 918.384)" fill="#FF9D13"/>
        <ellipse cx="116.723" cy="919.094" rx="5.86307" ry="9.83693" transform="rotate(-3.09495 116.723 919.094)" fill="#FF9D13"/>
        <ellipse cx="118.935" cy="918.975" rx="5.86307" ry="9.83693" transform="rotate(-3.09495 118.935 918.975)" fill="#FFAA33"/>
        <ellipse cx="127.391" cy="918.518" rx="5.86307" ry="9.83693" transform="rotate(-3.09495 127.391 918.518)" fill="#FFAA33"/>
        <ellipse cx="122.968" cy="918.757" rx="5.86307" ry="9.83693" transform="rotate(-3.09495 122.968 918.757)" fill="#FFB348"/>
        <path d="M119.245 914.512L122.001 917.18L118.312 918.233L119.245 914.512Z" fill="#4F4F4F"/>
        <path d="M126.495 914.125L127.786 917.738L124.012 917.05L126.495 914.125Z" fill="#4F4F4F"/>
        <path d="M117.792 920.102L115.822 918.686C115.719 922.577 117.737 924.31 118.758 924.689L119.473 923.418L120.71 923.351L121.589 925.116L123.696 925.437L124.199 923.888L125.892 923.796L126.365 925.293C126.73 925.201 127.771 924.738 129.017 923.627C130.263 922.516 130.283 920.079 130.138 919L127.769 921.085L127.848 922.531L126.244 923.052L125.771 921.556L123.492 921.679L123.249 923.214L121.468 922.876L121.39 921.43L119.348 921.105L118.61 921.943L117.395 921.211L117.792 920.102Z" fill="#4F4F4F"/>
        <path d="M151.293 897.331C150.007 897.665 149.362 897.818 149.2 897.853C154.757 901.218 158.782 901.024 160.099 900.506C159.863 900.128 159.16 899.128 158.235 898.152C157.079 896.931 156.603 896.308 156.557 894.839C156.52 893.663 155.771 891.942 155.402 891.229L154 891.951C154 891.951 155.031 893.811 154.767 894.49C154.502 895.168 152.901 896.914 151.293 897.331Z" fill="#06893A"/>
        <ellipse cx="159.552" cy="908.43" rx="5.86307" ry="9.83693" transform="rotate(11.0188 159.552 908.43)" fill="#FF9D13"/>
        <ellipse cx="146.635" cy="905.915" rx="5.86307" ry="9.83693" transform="rotate(11.0188 146.635 905.915)" fill="#FF9D13"/>
        <ellipse cx="148.809" cy="906.338" rx="5.86307" ry="9.83693" transform="rotate(11.0188 148.809 906.338)" fill="#FFAA33"/>
        <ellipse cx="157.122" cy="907.957" rx="5.86307" ry="9.83693" transform="rotate(11.0188 157.122 907.957)" fill="#FFAA33"/>
        <ellipse cx="152.774" cy="907.11" rx="5.86307" ry="9.83693" transform="rotate(11.0188 152.774 907.11)" fill="#FFB348"/>
        <path d="M150.198 902.086L152.22 905.346L148.386 905.467L150.198 902.086Z" fill="#4F4F4F"/>
        <path d="M157.323 903.478L157.695 907.297L154.202 905.709L157.323 903.478Z" fill="#4F4F4F"/>
        <path d="M147.426 907.153L145.861 905.299C144.812 909.048 146.346 911.22 147.244 911.837L148.248 910.779L149.463 911.016L149.885 912.941L151.85 913.766L152.717 912.386L154.381 912.71L154.474 914.277C154.85 914.277 155.973 914.082 157.452 913.309C158.931 912.535 159.546 910.176 159.668 909.094L156.862 910.539L156.586 911.96L154.903 912.075L154.809 910.508L152.57 910.072L151.959 911.501L150.314 910.739L150.591 909.318L148.69 908.505L147.77 909.137L146.77 908.131L147.426 907.153Z" fill="#4F4F4F"/>
        <circle cx="193.5" cy="186.5" r="72.5" fill="white"/>
        <circle cx="182" cy="165" r="9" fill="#E9E9E9"/>
        <circle cx="174" cy="148" r="4" fill="#E9E9E9"/>
        <circle cx="151" cy="152" r="3" fill="#E9E9E9"/>
        <circle cx="161" cy="133" r="3" fill="#E9E9E9"/>
        <circle cx="230" cy="213" r="3" fill="#E9E9E9"/>
        <circle cx="246" cy="204" r="3" fill="#E9E9E9"/>
        <circle cx="235" cy="149" r="3" fill="#E9E9E9"/>
        <circle cx="157" cy="200" r="3" fill="#E9E9E9"/>
        <circle cx="156" cy="223" r="3" fill="#E9E9E9"/>
        <circle cx="176" cy="245" r="3" fill="#E9E9E9"/>
        <circle cx="141.5" cy="210.5" r="3.5" fill="#E9E9E9"/>
        <circle cx="220" cy="236" r="9" fill="#E9E9E9"/>
        <circle cx="138" cy="177" r="9" fill="#E9E9E9"/>
        <circle cx="205.5" cy="137.5" r="11.5" fill="#E9E9E9"/>
        <circle cx="229" cy="177" r="12" fill="#E9E9E9"/>
        <circle cx="191" cy="218" r="18" fill="#E9E9E9"/>
        <path fill-rule="evenodd" clip-rule="evenodd" d="M1338.5 106.276C1349.05 101.033 1358.03 93.9415 1365.06 85.7184L1390.75 103.306L1360.21 108.818L1359.64 120.427L1345.72 119.666L1340.65 131.215L1340.78 131.536L1340.78 131.536L1340.65 131.215L1329 126.369L1319.46 136.538L1311.03 128.538L1285.81 145.21L1292.16 115.091C1302.74 116.122 1313.92 115.066 1324.96 111.676L1323.43 100.059L1328.03 106.348C1328.66 105.835 1329.38 105.408 1330.17 105.089C1330.97 104.77 1331.78 104.583 1332.59 104.517L1331.57 96.7932L1338.5 106.276Z" fill="#4F4F4F"/>
        <path fill-rule="evenodd" clip-rule="evenodd" d="M1400.16 215.192C1413.97 213.663 1426.79 209.448 1437.92 203.19L1459.25 233.104L1423.18 226.819L1417.84 239.451L1402.72 232.957L1392.41 243.695L1392.42 244.104L1392.42 244.104L1392.41 243.695L1381.47 233.6L1366.77 240.995L1360.68 228.709L1325.96 236.945L1345.23 206.15C1356.53 211.587 1369.34 214.954 1382.96 215.681L1385.98 202.185L1388.52 211.02C1389.43 210.708 1390.4 210.526 1391.41 210.496C1392.42 210.465 1393.4 210.588 1394.32 210.844L1396.32 201.872L1400.16 215.192Z" fill="#4F4F4F"/>
        <path fill-rule="evenodd" clip-rule="evenodd" d="M50.1875 459.192C64.0023 457.663 76.8238 453.448 87.9509 447.19L109.281 477.104L73.2097 470.819L67.8674 483.451L52.7474 476.957L42.4414 487.695L42.4537 488.104L42.4534 488.104L42.4411 487.695L31.5053 477.6L16.8051 484.995L10.7095 472.709L-24.0049 480.945L-4.74186 450.15C6.56413 455.587 19.3758 458.953 32.9937 459.681L36.0071 446.185L38.5487 455.02C39.4573 454.708 40.4273 454.526 41.4377 454.496C42.4477 454.465 43.4268 454.588 44.3522 454.844L46.3555 445.872L50.1875 459.192Z" fill="#4F4F4F"/>
        <path fill-rule="evenodd" clip-rule="evenodd" d="M126.547 238.512C139.514 233.509 150.836 226.162 159.998 217.272L188.255 240.753L151.774 243.88L149.832 257.457L133.555 255.036L126.33 268.048L126.446 268.44L126.446 268.44L126.33 268.048L113.18 261.077L100.853 271.979L91.8247 261.655L60.361 278.476L71.1287 243.785C83.4478 246.158 96.6943 246.143 110.047 243.372L109.517 229.554L114.229 237.448C115.028 236.915 115.919 236.491 116.888 236.204C117.857 235.916 118.835 235.786 119.795 235.797L119.443 226.611L126.547 238.512Z" fill="#4F4F4F"/>
        <path fill-rule="evenodd" clip-rule="evenodd" d="M228.066 480.385C235.178 475.198 240.898 468.849 245.044 461.909L266.177 471.638L244.376 479.532L245.414 488.154L235.062 489.342L232.776 498.485L232.912 498.706L232.911 498.706L232.776 498.486L223.59 496.378L217.838 505.066L210.623 500.232L194.137 515.679L195.035 492.696C202.959 492.127 211.059 489.946 218.772 486.062L216.182 477.697L220.358 481.753C220.759 481.296 221.235 480.891 221.78 480.556C222.326 480.222 222.903 479.981 223.492 479.831L221.77 474.27L228.066 480.385Z" fill="#4F4F4F"/>
        <path fill-rule="evenodd" clip-rule="evenodd" d="M292.125 366.529C300.596 364.138 308.166 360.172 314.466 355.106L330.9 371.574L307.715 371.398L305.691 379.844L295.572 377.36L290.25 385.139L290.301 385.393L290.3 385.393L290.25 385.139L282.37 379.97L273.956 386.117L268.871 379.077L248.044 387.831L256.874 366.592C264.502 368.813 272.855 369.584 281.437 368.622L281.916 359.879L284.422 365.133C284.957 364.844 285.544 364.63 286.171 364.506C286.799 364.381 287.424 364.357 288.028 364.42L288.347 358.608L292.125 366.529Z" fill="#4F4F4F"/>
        <path fill-rule="evenodd" clip-rule="evenodd" d="M157.886 389.974C166.641 390.877 175.14 389.985 182.865 387.601L192.062 408.971L170.578 400.252L165.581 407.355L157.092 401.312L149.276 406.578L149.229 406.833L149.229 406.833L149.276 406.578L143.859 398.866L133.771 401.475L131.643 393.055L109.055 393.505L125.099 377.025C131.369 381.903 138.848 385.702 147.179 387.975L150.851 380.026L151.241 385.834C151.845 385.763 152.47 385.78 153.099 385.896C153.728 386.012 154.318 386.22 154.856 386.502L157.297 381.217L157.886 389.974Z" fill="#4F4F4F"/>
        <path fill-rule="evenodd" clip-rule="evenodd" d="M1045.25 295.346C1053.75 294.405 1061.64 291.812 1068.48 287.962L1081.6 306.364L1059.41 302.498L1056.13 310.269L1046.83 306.274L1040.49 312.88L1040.49 313.131L1040.49 313.131L1040.49 312.88L1033.76 306.669L1024.72 311.218L1020.97 303.66L999.612 308.727L1011.46 289.783C1018.42 293.128 1026.3 295.199 1034.68 295.646L1036.53 287.344L1038.09 292.779C1038.65 292.587 1039.25 292.475 1039.87 292.456C1040.49 292.438 1041.09 292.514 1041.66 292.671L1042.9 287.152L1045.25 295.346Z" fill="#4F4F4F"/>
        <path fill-rule="evenodd" clip-rule="evenodd" d="M1248.28 293.588C1255.25 288.629 1260.87 282.524 1264.98 275.828L1285.4 285.514L1264.14 292.94L1265.05 301.328L1254.98 302.367L1252.66 311.223L1252.79 311.439L1252.79 311.439L1252.66 311.223L1243.76 309.074L1238.07 317.451L1231.12 312.674L1214.93 327.497L1216.06 305.181C1223.76 304.716 1231.66 302.688 1239.19 299L1236.77 290.846L1240.78 294.832C1241.17 294.392 1241.64 294.004 1242.17 293.685C1242.71 293.366 1243.27 293.139 1243.84 292.999L1242.23 287.578L1248.28 293.588Z" fill="#4F4F4F"/>
        <path fill-rule="evenodd" clip-rule="evenodd" d="M1199.54 214.656C1209.32 215.57 1218.79 214.485 1227.38 211.743L1237.87 235.481L1213.81 225.985L1208.31 233.961L1198.78 227.311L1190.12 233.268L1190.07 233.552L1190.07 233.552L1190.12 233.268L1183.99 224.723L1172.77 227.741L1170.31 218.372L1145.12 219.114L1162.84 200.561C1169.88 205.936 1178.26 210.093 1187.58 212.54L1191.59 203.635L1192.09 210.109C1192.76 210.023 1193.46 210.035 1194.16 210.158C1194.86 210.281 1195.52 210.506 1196.13 210.816L1198.79 204.895L1199.54 214.656Z" fill="#4F4F4F"/>
        <path fill-rule="evenodd" clip-rule="evenodd" d="M1152.06 65.0207C1159.16 64.3656 1165.78 62.3224 1171.55 59.2147L1182.22 74.7682L1163.77 71.2041L1160.9 77.6375L1153.21 74.1628L1147.81 79.5774L1147.82 79.7872L1147.82 79.7872L1147.81 79.5773L1142.3 74.2932L1134.68 77.951L1131.67 71.5878L1113.77 75.4898L1123.95 59.8648C1129.7 62.7613 1136.25 64.6092 1143.23 65.1104L1144.9 58.2118L1146.12 62.7704C1146.59 62.6188 1147.09 62.5343 1147.61 62.5281C1148.13 62.5219 1148.63 62.5943 1149.1 62.7343L1150.22 58.1482L1152.06 65.0207Z" fill="#4F4F4F"/>
        <path fill-rule="evenodd" clip-rule="evenodd" d="M1133.74 724.653C1134.64 719.033 1136.47 711.284 1139.56 705.95C1142.25 701.301 1146.1 699.035 1149.31 697.14C1152.29 695.383 1154.73 693.944 1155.21 691.222C1155.4 690.175 1155.61 689.149 1155.82 688.14C1156.75 683.693 1157.6 679.588 1155.75 675.597C1153.48 670.7 1147.35 659.726 1139.69 662.402C1138.54 662.804 1137.52 663.17 1136.62 663.496C1131.51 665.342 1129.92 665.917 1126.72 664.583C1122.96 663.014 1133.84 652.376 1142.4 647.166C1150.97 641.955 1163.47 642.386 1182.45 654.305C1199.27 664.86 1202.3 673.663 1206.75 686.541C1207.32 688.205 1207.92 689.937 1208.57 691.749C1211.78 700.644 1212.47 703 1213.57 705.145C1214.43 706.82 1215.54 708.367 1218.29 712.797C1221.96 718.696 1220.19 730.801 1217.71 740.355C1222.75 742.234 1227.54 744.267 1232.16 746.456C1261.33 760.273 1251.86 769.048 1233 772.457C1216.91 775.367 1191.12 767.523 1161.72 758.579C1156.67 757.042 1151.51 755.473 1146.28 753.921C1104.68 741.582 1072.29 725.345 1100.68 723.021C1112.65 723.383 1123.62 723.926 1133.74 724.653Z" fill="#523874"/>
        <path d="M1217.91 740.129C1190.44 747.09 1149.95 732.506 1133.53 724.639C1134.23 720.721 1134.93 716.803 1136.5 713.04C1147.19 719.616 1185.54 735.257 1220.09 727.939C1220.09 727.939 1219.4 736.801 1217.91 740.129Z" fill="#4F4F4F"/>
        <path fill-rule="evenodd" clip-rule="evenodd" d="M1170.05 724.003C1167.88 723.593 1165.79 725.02 1165.38 727.191L1163.96 734.725C1163.55 736.895 1164.97 738.987 1167.14 739.397L1184.62 742.698C1186.79 743.108 1188.89 741.68 1189.3 739.509L1190.72 731.976C1191.13 729.805 1189.7 727.713 1187.53 727.303L1170.05 724.003ZM1172.8 728.076C1171.17 727.769 1169.6 728.839 1169.3 730.467L1168.8 733.106C1168.49 734.734 1169.56 736.303 1171.19 736.61L1181.03 738.467C1182.65 738.775 1184.22 737.704 1184.53 736.076L1185.03 733.438C1185.34 731.81 1184.26 730.241 1182.64 729.933L1172.8 728.076Z" fill="#FFAA33"/>
    </g>
    <defs>
        <clipPath id="clip0">
            <rect width="1440" height="936" fill="white"/>
        </clipPath>
    </defs>
</svg>
