<svg viewBox="0 0 1440 936" fill="none" xmlns="http://www.w3.org/2000/svg">
    <g clip-path="url(#clip0)">
        <rect width="1440" height="936" fill="#005077"/>
        <path d="M-122 936H448.213C448.213 936 414.78 931.002 326.972 922.737C239.164 914.472 197.332 900 107.222 900C17.1124 900 -122 936 -122 936Z" fill="#99C4DD"/>
        <path d="M182.998 936H757C757 936 686.907 886.457 516.412 867.403C345.916 848.348 182.998 936 182.998 936Z" fill="#66A3C4"/>
        <path d="M421 936H1246.16C1246.16 936 1197.77 928.78 1070.71 916.842C943.64 904.904 883.104 884 752.707 884C622.309 884 421 936 421 936Z" fill="#99C4DD"/>
        <path d="M862.362 936H1693C1693 936 1591.57 864.439 1344.84 836.915C1098.12 809.391 862.362 936 862.362 936Z" fill="#66A3C4"/>
        <path d="M1093.27 778.684L1158.38 730.069C1165.36 724.858 1175.29 726.219 1180.57 733.108C1180.86 733.478 1181.12 733.861 1181.37 734.255L1204.99 771.571C1209.63 778.896 1207.37 788.545 1199.95 793.123C1199.55 793.369 1199.14 793.597 1198.72 793.807L1125.92 830.266C1111.64 837.419 1094.19 832.625 1085.7 819.217C1077.22 805.808 1080.5 788.222 1093.27 778.684Z" fill="#F1F1F1"/>
        <path d="M1200.29 763.721L1237.17 816.207C1247.21 830.488 1243.77 850.203 1229.49 860.24C1228.72 860.78 1227.93 861.285 1227.12 861.754L1218.54 866.708C1203.42 875.436 1184.1 870.257 1175.37 855.139C1174.9 854.327 1174.47 853.494 1174.08 852.643L1147.07 794.45C1140.35 779.959 1145.79 762.731 1159.63 754.743C1173.46 746.755 1191.1 750.65 1200.29 763.721Z" fill="#F1F1F1"/>
        <path d="M1223.2 817.77H1318C1344.18 817.77 1365.4 838.997 1365.4 865.18C1365.4 891.364 1344.18 912.59 1318 912.59H1223.2C1197.02 912.59 1175.8 891.364 1175.8 865.18C1175.8 838.997 1197.02 817.77 1223.2 817.77Z" fill="#F1F1F1"/>
        <rect x="1199.5" y="896.787" width="31.6" height="63.2131" fill="#F1F1F1"/>
        <rect x="1306.15" y="896.787" width="31.6" height="63.2131" fill="#F1F1F1"/>
        <path d="M1148.15 758.508C1159.06 758.508 1167.9 749.664 1167.9 738.754C1167.9 727.844 1159.06 719 1148.15 719C1137.24 719 1128.4 727.844 1128.4 738.754C1128.4 749.664 1137.24 758.508 1148.15 758.508Z" fill="white"/>
        <path d="M1179.75 758.508C1190.66 758.508 1199.5 749.664 1199.5 738.754C1199.5 727.844 1190.66 719 1179.75 719C1168.84 719 1160 727.844 1160 738.754C1160 749.664 1168.84 758.508 1179.75 758.508Z" fill="white"/>
        <path d="M1199.5 774.311C1208.23 774.311 1215.3 767.236 1215.3 758.508C1215.3 749.78 1208.23 742.705 1199.5 742.705C1190.77 742.705 1183.7 749.78 1183.7 758.508C1183.7 767.236 1190.77 774.311 1199.5 774.311Z" fill="white"/>
        <path d="M1152.1 837.525C1163.01 837.525 1171.85 828.68 1171.85 817.77C1171.85 806.861 1163.01 798.016 1152.1 798.016C1141.19 798.016 1132.35 806.861 1132.35 817.77C1132.35 828.68 1141.19 837.525 1152.1 837.525Z" fill="white"/>
        <path d="M1345.65 896.787C1356.56 896.787 1365.4 887.943 1365.4 877.033C1365.4 866.123 1356.56 857.279 1345.65 857.279C1334.74 857.279 1325.9 866.123 1325.9 877.033C1325.9 887.943 1334.74 896.787 1345.65 896.787Z" fill="white"/>
        <path d="M1325.9 912.59C1338.99 912.59 1349.6 901.977 1349.6 888.885C1349.6 875.793 1338.99 865.18 1325.9 865.18C1312.81 865.18 1302.2 875.793 1302.2 888.885C1302.2 901.977 1312.81 912.59 1325.9 912.59Z" fill="white"/>
        <path d="M1179.75 884.934C1190.66 884.934 1199.5 876.09 1199.5 865.18C1199.5 854.27 1190.66 845.426 1179.75 845.426C1168.84 845.426 1160 854.27 1160 865.18C1160 876.09 1168.84 884.934 1179.75 884.934Z" fill="white"/>
        <path d="M1191.6 920.492C1204.69 920.492 1215.3 909.879 1215.3 896.787C1215.3 883.695 1204.69 873.082 1191.6 873.082C1178.51 873.082 1167.9 883.695 1167.9 896.787C1167.9 909.879 1178.51 920.492 1191.6 920.492Z" fill="white"/>
        <path d="M1246.9 928.393C1259.99 928.393 1270.6 917.78 1270.6 904.689C1270.6 891.597 1259.99 880.984 1246.9 880.984C1233.81 880.984 1223.2 891.597 1223.2 904.689C1223.2 917.78 1233.81 928.393 1246.9 928.393Z" fill="white"/>
        <path d="M1290.35 920.492C1301.26 920.492 1310.1 911.648 1310.1 900.738C1310.1 889.828 1301.26 880.984 1290.35 880.984C1279.44 880.984 1270.6 889.828 1270.6 900.738C1270.6 911.648 1279.44 920.492 1290.35 920.492Z" fill="white"/>
        <path d="M1288.37 924.443C1300.37 924.443 1310.1 914.714 1310.1 902.713C1310.1 890.712 1300.37 880.984 1288.37 880.984C1276.38 880.984 1266.65 890.712 1266.65 902.713C1266.65 914.714 1276.38 924.443 1288.37 924.443Z" fill="white"/>
        <path d="M1377.25 873.082C1388.16 873.082 1397 864.238 1397 853.328C1397 842.418 1388.16 833.574 1377.25 833.574C1366.34 833.574 1357.5 842.418 1357.5 853.328C1357.5 864.238 1366.34 873.082 1377.25 873.082Z" fill="white"/>
        <path d="M1191.6 833.574C1213.42 833.574 1231.1 815.885 1231.1 794.066C1231.1 772.246 1213.42 754.557 1191.6 754.557C1169.78 754.557 1152.1 772.246 1152.1 794.066C1152.1 815.885 1169.78 833.574 1191.6 833.574Z" fill="white"/>
        <path d="M1227.15 908.639C1248.97 908.639 1266.65 890.951 1266.65 869.131C1266.65 847.311 1248.97 829.623 1227.15 829.623C1205.33 829.623 1187.65 847.311 1187.65 869.131C1187.65 890.951 1205.33 908.639 1227.15 908.639Z" fill="white"/>
        <path d="M1286.4 900.738C1308.22 900.738 1325.9 883.049 1325.9 861.23C1325.9 839.41 1308.22 821.721 1286.4 821.721C1264.58 821.721 1246.9 839.41 1246.9 861.23C1246.9 883.049 1264.58 900.738 1286.4 900.738Z" fill="white"/>
        <path d="M1337.75 869.131C1355.2 869.131 1369.35 854.98 1369.35 837.525C1369.35 820.069 1355.2 805.918 1337.75 805.918C1320.3 805.918 1306.15 820.069 1306.15 837.525C1306.15 854.98 1320.3 869.131 1337.75 869.131Z" fill="white"/>
        <path d="M1235.05 857.279C1252.5 857.279 1266.65 843.128 1266.65 825.672C1266.65 808.216 1252.5 794.066 1235.05 794.066C1217.6 794.066 1203.45 808.216 1203.45 825.672C1203.45 843.128 1217.6 857.279 1235.05 857.279Z" fill="white"/>
        <path d="M1191.6 873.082C1209.05 873.082 1223.2 858.931 1223.2 841.475C1223.2 824.02 1209.05 809.869 1191.6 809.869C1174.15 809.869 1160 824.02 1160 841.475C1160 858.931 1174.15 873.082 1191.6 873.082Z" fill="white"/>
        <path d="M1294.3 853.328C1313.93 853.328 1329.85 837.408 1329.85 817.77C1329.85 798.133 1313.93 782.213 1294.3 782.213C1274.67 782.213 1258.75 798.133 1258.75 817.77C1258.75 837.408 1274.67 853.328 1294.3 853.328Z" fill="white"/>
        <path d="M1128.4 770.361C1137.13 770.361 1144.2 763.285 1144.2 754.557C1144.2 745.829 1137.13 738.754 1128.4 738.754C1119.67 738.754 1112.6 745.829 1112.6 754.557C1112.6 763.285 1119.67 770.361 1128.4 770.361Z" fill="white"/>
        <path d="M1136.3 782.213C1140.66 782.213 1144.2 776.907 1144.2 770.361C1144.2 763.815 1140.66 758.508 1136.3 758.508C1131.94 758.508 1128.4 763.815 1128.4 770.361C1128.4 776.907 1131.94 782.213 1136.3 782.213Z" fill="#4F4F4F"/>
        <path d="M1092.61 802.604C1094.66 803.35 1097.23 801.462 1098.35 798.386C1099.47 795.311 1098.71 792.212 1096.66 791.466C1094.61 790.72 1092.05 792.608 1090.93 795.684C1089.81 798.759 1090.56 801.857 1092.61 802.604Z" fill="#4F4F4F"/>
        <path d="M761.907 880.116L777.327 868.618C778.98 867.386 781.333 867.707 782.583 869.337C782.65 869.424 782.714 869.515 782.773 869.608L788.367 878.434C789.465 880.166 788.93 882.448 787.173 883.531C787.079 883.589 786.982 883.643 786.882 883.693L769.64 892.316C766.257 894.008 762.124 892.874 760.114 889.703C758.104 886.531 758.882 882.372 761.907 880.116Z" fill="#F1F1F1"/>
        <path d="M787.253 876.577L795.988 888.991C798.365 892.369 797.551 897.031 794.169 899.405C793.987 899.533 793.8 899.652 793.607 899.763L791.576 900.935C787.996 902.999 783.418 901.774 781.352 898.199C781.241 898.007 781.138 897.81 781.045 897.608L774.649 883.845C773.056 880.418 774.347 876.343 777.623 874.454C780.899 872.564 785.077 873.486 787.253 876.577Z" fill="#F1F1F1"/>
        <path d="M792.68 889.361H815.133C821.333 889.361 826.359 894.381 826.359 900.574C826.359 906.767 821.333 911.787 815.133 911.787H792.68C786.479 911.787 781.453 906.767 781.453 900.574C781.453 894.381 786.479 889.361 792.68 889.361Z" fill="#F1F1F1"/>
        <rect x="787.066" y="908.049" width="7.48435" height="14.9508" fill="#F1F1F1"/>
        <rect x="812.326" y="908.049" width="7.48435" height="14.9508" fill="#F1F1F1"/>
        <path d="M774.904 875.344C777.488 875.344 779.582 873.252 779.582 870.672C779.582 868.092 777.488 866 774.904 866C772.321 866 770.227 868.092 770.227 870.672C770.227 873.252 772.321 875.344 774.904 875.344Z" fill="white"/>
        <path d="M782.389 875.344C784.972 875.344 787.066 873.252 787.066 870.672C787.066 868.092 784.972 866 782.389 866C779.805 866 777.711 868.092 777.711 870.672C777.711 873.252 779.805 875.344 782.389 875.344Z" fill="white"/>
        <path d="M787.066 879.082C789.133 879.082 790.808 877.409 790.808 875.344C790.808 873.28 789.133 871.607 787.066 871.607C785 871.607 783.324 873.28 783.324 875.344C783.324 877.409 785 879.082 787.066 879.082Z" fill="white"/>
        <path d="M775.84 894.033C778.423 894.033 780.518 891.941 780.518 889.361C780.518 886.78 778.423 884.689 775.84 884.689C773.256 884.689 771.162 886.78 771.162 889.361C771.162 891.941 773.256 894.033 775.84 894.033Z" fill="white"/>
        <path d="M821.681 908.049C824.265 908.049 826.359 905.957 826.359 903.377C826.359 900.797 824.265 898.705 821.681 898.705C819.098 898.705 817.004 900.797 817.004 903.377C817.004 905.957 819.098 908.049 821.681 908.049Z" fill="white"/>
        <path d="M817.004 911.787C820.104 911.787 822.617 909.277 822.617 906.18C822.617 903.084 820.104 900.574 817.004 900.574C813.904 900.574 811.39 903.084 811.39 906.18C811.39 909.277 813.904 911.787 817.004 911.787Z" fill="white"/>
        <path d="M782.389 905.246C784.972 905.246 787.066 903.154 787.066 900.574C787.066 897.993 784.972 895.902 782.389 895.902C779.805 895.902 777.711 897.993 777.711 900.574C777.711 903.154 779.805 905.246 782.389 905.246Z" fill="white"/>
        <path d="M785.195 913.656C788.295 913.656 790.808 911.146 790.808 908.049C790.808 904.953 788.295 902.443 785.195 902.443C782.095 902.443 779.582 904.953 779.582 908.049C779.582 911.146 782.095 913.656 785.195 913.656Z" fill="white"/>
        <path d="M798.293 915.525C801.393 915.525 803.906 913.014 803.906 909.918C803.906 906.822 801.393 904.311 798.293 904.311C795.193 904.311 792.68 906.822 792.68 909.918C792.68 913.014 795.193 915.525 798.293 915.525Z" fill="white"/>
        <path d="M808.584 913.656C811.167 913.656 813.262 911.564 813.262 908.984C813.262 906.403 811.167 904.311 808.584 904.311C806 904.311 803.906 906.403 803.906 908.984C803.906 911.564 806 913.656 808.584 913.656Z" fill="white"/>
        <path d="M808.116 914.59C810.958 914.59 813.262 912.289 813.262 909.451C813.262 906.612 810.958 904.311 808.116 904.311C805.274 904.311 802.971 906.612 802.971 909.451C802.971 912.289 805.274 914.59 808.116 914.59Z" fill="white"/>
        <path d="M829.166 902.443C831.749 902.443 833.843 900.351 833.843 897.77C833.843 895.19 831.749 893.098 829.166 893.098C826.582 893.098 824.488 895.19 824.488 897.77C824.488 900.351 826.582 902.443 829.166 902.443Z" fill="white"/>
        <path d="M785.195 893.098C790.362 893.098 794.551 888.915 794.551 883.754C794.551 878.593 790.362 874.41 785.195 874.41C780.028 874.41 775.84 878.593 775.84 883.754C775.84 888.915 780.028 893.098 785.195 893.098Z" fill="white"/>
        <path d="M793.615 910.852C798.782 910.852 802.971 906.669 802.971 901.508C802.971 896.348 798.782 892.164 793.615 892.164C788.448 892.164 784.26 896.348 784.26 901.508C784.26 906.669 788.448 910.852 793.615 910.852Z" fill="white"/>
        <path d="M807.648 908.984C812.815 908.984 817.004 904.8 817.004 899.639C817.004 894.479 812.815 890.295 807.648 890.295C802.481 890.295 798.293 894.479 798.293 899.639C798.293 904.8 802.481 908.984 807.648 908.984Z" fill="white"/>
        <path d="M819.81 901.508C823.944 901.508 827.295 898.161 827.295 894.033C827.295 889.904 823.944 886.557 819.81 886.557C815.677 886.557 812.326 889.904 812.326 894.033C812.326 898.161 815.677 901.508 819.81 901.508Z" fill="white"/>
        <path d="M795.486 898.705C799.62 898.705 802.971 895.358 802.971 891.23C802.971 887.101 799.62 883.754 795.486 883.754C791.353 883.754 788.002 887.101 788.002 891.23C788.002 895.358 791.353 898.705 795.486 898.705Z" fill="white"/>
        <path d="M785.195 902.443C789.329 902.443 792.68 899.096 792.68 894.967C792.68 890.839 789.329 887.492 785.195 887.492C781.062 887.492 777.711 890.839 777.711 894.967C777.711 899.096 781.062 902.443 785.195 902.443Z" fill="white"/>
        <path d="M809.519 897.77C814.17 897.77 817.939 894.005 817.939 889.361C817.939 884.716 814.17 880.951 809.519 880.951C804.869 880.951 801.099 884.716 801.099 889.361C801.099 894.005 804.869 897.77 809.519 897.77Z" fill="white"/>
        <path d="M770.227 878.148C772.293 878.148 773.969 876.474 773.969 874.41C773.969 872.346 772.293 870.672 770.227 870.672C768.16 870.672 766.484 872.346 766.484 874.41C766.484 876.474 768.16 878.148 770.227 878.148Z" fill="white"/>
        <path d="M772.098 880.951C773.131 880.951 773.969 879.696 773.969 878.148C773.969 876.599 773.131 875.344 772.098 875.344C771.064 875.344 770.227 876.599 770.227 878.148C770.227 879.696 771.064 880.951 772.098 880.951Z" fill="#4F4F4F"/>
        <path d="M761.75 885.773C762.236 885.95 762.844 885.503 763.109 884.776C763.374 884.049 763.196 883.316 762.71 883.139C762.225 882.963 761.616 883.409 761.351 884.137C761.086 884.864 761.265 885.597 761.75 885.773Z" fill="#4F4F4F"/>
        <path d="M705.385 880.925L696.728 874.47C695.801 873.778 694.479 873.959 693.778 874.873C693.74 874.922 693.704 874.973 693.671 875.026L690.531 879.98C689.914 880.953 690.214 882.234 691.201 882.842C691.254 882.875 691.308 882.905 691.364 882.933L701.044 887.774C702.943 888.724 705.264 888.087 706.392 886.307C707.521 884.526 707.084 882.191 705.385 880.925Z" fill="#F1F1F1"/>
        <path d="M691.156 878.938L686.252 885.907C684.918 887.803 685.375 890.421 687.273 891.754C687.375 891.826 687.481 891.893 687.589 891.955L688.729 892.613C690.739 893.772 693.309 893.084 694.469 891.077C694.531 890.969 694.589 890.858 694.641 890.745L698.232 883.018C699.126 881.094 698.402 878.807 696.562 877.746C694.723 876.685 692.377 877.203 691.156 878.938Z" fill="#F1F1F1"/>
        <path d="M688.11 886.115H675.504C672.023 886.115 669.202 888.933 669.202 892.41C669.202 895.887 672.023 898.705 675.504 898.705H688.11C691.59 898.705 694.412 895.887 694.412 892.41C694.412 888.933 691.59 886.115 688.11 886.115Z" fill="#F1F1F1"/>
        <rect width="4.20174" height="8.39344" transform="matrix(-1 0 0 1 691.261 896.607)" fill="#F1F1F1"/>
        <rect width="4.20174" height="8.39344" transform="matrix(-1 0 0 1 677.08 896.607)" fill="#F1F1F1"/>
        <path d="M698.089 878.246C696.638 878.246 695.463 877.072 695.463 875.623C695.463 874.174 696.638 873 698.089 873C699.539 873 700.715 874.174 700.715 875.623C700.715 877.072 699.539 878.246 698.089 878.246Z" fill="white"/>
        <path d="M693.887 878.246C692.437 878.246 691.261 877.072 691.261 875.623C691.261 874.174 692.437 873 693.887 873C695.337 873 696.513 874.174 696.513 875.623C696.513 877.072 695.337 878.246 693.887 878.246Z" fill="white"/>
        <path d="M691.261 880.344C690.101 880.344 689.16 879.405 689.16 878.246C689.16 877.087 690.101 876.148 691.261 876.148C692.421 876.148 693.362 877.087 693.362 878.246C693.362 879.405 692.421 880.344 691.261 880.344Z" fill="white"/>
        <path d="M697.563 888.738C696.113 888.738 694.937 887.563 694.937 886.115C694.937 884.666 696.113 883.492 697.563 883.492C699.014 883.492 700.189 884.666 700.189 886.115C700.189 887.563 699.014 888.738 697.563 888.738Z" fill="white"/>
        <path d="M671.828 896.607C670.377 896.607 669.202 895.432 669.202 893.984C669.202 892.535 670.377 891.361 671.828 891.361C673.278 891.361 674.454 892.535 674.454 893.984C674.454 895.432 673.278 896.607 671.828 896.607Z" fill="white"/>
        <path d="M674.454 898.705C672.714 898.705 671.303 897.296 671.303 895.557C671.303 893.819 672.714 892.41 674.454 892.41C676.194 892.41 677.605 893.819 677.605 895.557C677.605 897.296 676.194 898.705 674.454 898.705Z" fill="white"/>
        <path d="M693.887 895.033C692.437 895.033 691.261 893.858 691.261 892.41C691.261 890.961 692.437 889.787 693.887 889.787C695.337 889.787 696.513 890.961 696.513 892.41C696.513 893.858 695.337 895.033 693.887 895.033Z" fill="white"/>
        <path d="M692.311 899.754C690.571 899.754 689.16 898.345 689.16 896.607C689.16 894.868 690.571 893.459 692.311 893.459C694.052 893.459 695.463 894.868 695.463 896.607C695.463 898.345 694.052 899.754 692.311 899.754Z" fill="white"/>
        <path d="M684.958 900.803C683.218 900.803 681.807 899.394 681.807 897.656C681.807 895.917 683.218 894.508 684.958 894.508C686.699 894.508 688.109 895.917 688.109 897.656C688.109 899.394 686.699 900.803 684.958 900.803Z" fill="white"/>
        <path d="M679.181 899.754C677.73 899.754 676.555 898.58 676.555 897.131C676.555 895.683 677.73 894.508 679.181 894.508C680.631 894.508 681.807 895.683 681.807 897.131C681.807 898.58 680.631 899.754 679.181 899.754Z" fill="white"/>
        <path d="M679.443 900.279C677.848 900.279 676.555 898.987 676.555 897.393C676.555 895.8 677.848 894.508 679.443 894.508C681.039 894.508 682.332 895.8 682.332 897.393C682.332 898.987 681.039 900.279 679.443 900.279Z" fill="white"/>
        <path d="M667.626 893.459C666.176 893.459 665 892.285 665 890.836C665 889.387 666.176 888.213 667.626 888.213C669.076 888.213 670.252 889.387 670.252 890.836C670.252 892.285 669.076 893.459 667.626 893.459Z" fill="white"/>
        <path d="M692.311 888.213C689.411 888.213 687.059 885.864 687.059 882.967C687.059 880.07 689.411 877.721 692.311 877.721C695.212 877.721 697.563 880.07 697.563 882.967C697.563 885.864 695.212 888.213 692.311 888.213Z" fill="white"/>
        <path d="M687.584 898.18C684.684 898.18 682.332 895.832 682.332 892.934C682.332 890.037 684.684 887.689 687.584 887.689C690.485 887.689 692.836 890.037 692.836 892.934C692.836 895.832 690.485 898.18 687.584 898.18Z" fill="white"/>
        <path d="M679.706 897.131C676.805 897.131 674.454 894.782 674.454 891.885C674.454 888.988 676.805 886.639 679.706 886.639C682.607 886.639 684.958 888.988 684.958 891.885C684.958 894.782 682.607 897.131 679.706 897.131Z" fill="white"/>
        <path d="M672.878 892.934C670.558 892.934 668.676 891.055 668.676 888.738C668.676 886.42 670.558 884.541 672.878 884.541C675.199 884.541 677.08 886.42 677.08 888.738C677.08 891.055 675.199 892.934 672.878 892.934Z" fill="white"/>
        <path d="M686.534 891.361C684.213 891.361 682.332 889.482 682.332 887.164C682.332 884.846 684.213 882.967 686.534 882.967C688.854 882.967 690.736 884.846 690.736 887.164C690.736 889.482 688.854 891.361 686.534 891.361Z" fill="white"/>
        <path d="M692.311 893.459C689.991 893.459 688.11 891.58 688.11 889.262C688.11 886.945 689.991 885.066 692.311 885.066C694.632 885.066 696.513 886.945 696.513 889.262C696.513 891.58 694.632 893.459 692.311 893.459Z" fill="white"/>
        <path d="M678.656 890.836C676.045 890.836 673.929 888.722 673.929 886.115C673.929 883.507 676.045 881.393 678.656 881.393C681.266 881.393 683.383 883.507 683.383 886.115C683.383 888.722 681.266 890.836 678.656 890.836Z" fill="white"/>
        <path d="M700.715 879.82C699.554 879.82 698.614 878.88 698.614 877.721C698.614 876.562 699.554 875.623 700.715 875.623C701.875 875.623 702.816 876.562 702.816 877.721C702.816 878.88 701.875 879.82 700.715 879.82Z" fill="white"/>
        <path d="M699.664 881.393C699.084 881.393 698.614 880.689 698.614 879.82C698.614 878.951 699.084 878.246 699.664 878.246C700.244 878.246 700.715 878.951 700.715 879.82C700.715 880.689 700.244 881.393 699.664 881.393Z" fill="#4F4F4F"/>
        <path d="M705.473 884.101C705.201 884.2 704.859 883.949 704.71 883.541C704.562 883.133 704.662 882.721 704.934 882.622C705.207 882.523 705.549 882.774 705.697 883.182C705.846 883.59 705.746 884.002 705.473 884.101Z" fill="#4F4F4F"/>
        <path d="M430 844H433L434 866H429L430 844Z" fill="#4F4F4F"/>
        <path d="M433.539 801.557L442.952 842.606C443.197 843.672 442.481 844.724 441.355 844.955C441.21 844.985 441.061 845 440.912 845H422.087C420.934 845 420 844.116 420 843.025C420 842.884 420.016 842.744 420.047 842.606L429.46 801.557C429.705 800.491 430.816 799.814 431.942 800.045C432.742 800.209 433.366 800.8 433.539 801.557Z" fill="white"/>
        <path d="M467.609 873.333H471.391L472.652 901H466.348L467.609 873.333Z" fill="#4F4F4F"/>
        <path d="M472.072 819.958L483.94 871.58C484.248 872.921 483.346 874.244 481.926 874.534C481.742 874.572 481.555 874.591 481.368 874.591H457.632C456.178 874.591 455 873.479 455 872.107C455 871.93 455.02 871.754 455.06 871.58L466.928 819.958C467.236 818.617 468.637 817.766 470.058 818.057C471.066 818.263 471.853 819.006 472.072 819.958Z" fill="white"/>
        <path d="M64.9565 907H67.0435L67.7391 922H64.2609L64.9565 907Z" fill="#4F4F4F"/>
        <path d="M67.4188 878.061L73.9667 906.05C74.1367 906.776 73.6393 907.493 72.8556 907.651C72.7545 907.672 72.6513 907.682 72.5478 907.682H59.4519C58.6501 907.682 58 907.079 58 906.335C58 906.239 58.0111 906.143 58.033 906.05L64.5809 878.061C64.751 877.335 65.5241 876.873 66.3077 877.031C66.8638 877.143 67.2981 877.546 67.4188 878.061Z" fill="white"/>
        <path d="M91.2174 894.333H92.7826L93.3044 906H90.6957L91.2174 894.333Z" fill="#4F4F4F"/>
        <path d="M93.0641 871.826L97.975 893.594C98.1025 894.159 97.7295 894.717 97.1417 894.84C97.0659 894.856 96.9884 894.864 96.9108 894.864H87.089C86.4875 894.864 86 894.395 86 893.816C86 893.742 86.0083 893.667 86.0248 893.594L90.9357 871.826C91.0632 871.26 91.6431 870.901 92.2308 871.024C92.6478 871.111 92.9736 871.424 93.0641 871.826Z" fill="white"/>
        <path d="M400.565 863.333H403.435L404.391 884H399.609L400.565 863.333Z" fill="#4F4F4F"/>
        <path d="M403.951 823.462L412.954 862.024C413.188 863.025 412.504 864.013 411.426 864.231C411.287 864.259 411.145 864.273 411.003 864.273H392.996C391.894 864.273 391 863.442 391 862.417C391 862.285 391.015 862.153 391.045 862.024L400.049 823.462C400.283 822.461 401.346 821.825 402.423 822.043C403.188 822.197 403.785 822.752 403.951 823.462Z" fill="white"/>
        <path fill-rule="evenodd" clip-rule="evenodd" d="M1218.06 741.227L1178.12 727.002L1138.18 712.778C1146.03 690.718 1170.28 679.203 1192.35 687.059C1194.44 687.803 1196.43 688.695 1198.32 689.718C1199.9 689.849 1201.45 690.445 1202.75 691.526L1231.36 715.192C1234.57 717.847 1235.2 722.519 1232.82 725.934L1230.1 729.825C1227.88 733.014 1223.69 734.138 1220.17 732.502C1219.79 735.42 1219.09 738.342 1218.06 741.227Z" fill="#A13A28"/>
        <path d="M1137.27 709.98C1153.33 708.778 1158.12 709.163 1172 714.105C1185.88 719.048 1208.85 728.547 1220.54 739.635C1224.55 743.438 1225.96 749.159 1224.14 754.263L1222.38 759.209C1220.76 763.753 1215.68 766.093 1211.02 764.436C1209.92 764.045 1208.91 763.446 1208.04 762.674C1197.24 753.113 1175.34 744.603 1162.74 740.113C1150.13 735.624 1146.8 735.154 1132.39 735.736C1127.47 735.934 1123.26 732.178 1122.99 727.346C1122.92 726.203 1123.09 725.062 1123.47 723.987L1125.23 719.041C1127.05 713.936 1131.76 710.393 1137.27 709.98Z" fill="#F1D8D4"/>
        <path d="M1221.32 738.1C1228.67 740.718 1236.76 736.88 1239.38 729.527C1242 722.173 1238.16 714.089 1230.8 711.471C1223.45 708.852 1215.37 712.69 1212.75 720.044C1210.13 727.397 1213.97 735.481 1221.32 738.1Z" fill="#F1D8D4"/>
        <path fill-rule="evenodd" clip-rule="evenodd" d="M791.641 871.488L782.174 868.117L772.707 864.745C774.569 859.517 780.317 856.788 785.545 858.65C786.545 859.006 787.454 859.504 788.256 860.114C788.568 860.24 788.866 860.416 789.139 860.641L794.341 864.945C795.356 865.785 795.557 867.263 794.803 868.343C794.2 869.208 793.139 869.593 792.148 869.359C792.059 870.071 791.891 870.784 791.641 871.488Z" fill="#A13A28"/>
        <path d="M772.491 864.082C776.299 863.797 777.433 863.889 780.723 865.06C784.012 866.231 789.456 868.483 792.227 871.111C793.177 872.012 793.511 873.368 793.08 874.577L792.663 875.75C792.279 876.827 791.075 877.381 789.972 876.989C789.711 876.896 789.471 876.754 789.264 876.571C786.704 874.305 781.516 872.288 778.527 871.224C775.539 870.16 774.752 870.049 771.336 870.187C770.17 870.234 769.173 869.343 769.107 868.198C769.092 867.927 769.131 867.657 769.221 867.402L769.639 866.23C770.07 865.02 771.185 864.18 772.491 864.082Z" fill="#F1D8D4"/>
        <path d="M792.412 870.747C794.155 871.367 796.071 870.458 796.692 868.715C797.312 866.972 796.403 865.056 794.66 864.436C792.917 863.815 791.001 864.725 790.381 866.468C789.76 868.21 790.67 870.126 792.412 870.747Z" fill="#F1D8D4"/>
        <path fill-rule="evenodd" clip-rule="evenodd" d="M687.309 877.236L694.077 874.825L700.846 872.415C699.515 868.677 695.405 866.726 691.667 868.057C690.952 868.312 690.302 868.668 689.729 869.104C689.506 869.194 689.293 869.319 689.098 869.481L685.379 872.558C684.653 873.158 684.509 874.215 685.048 874.987C685.479 875.606 686.237 875.881 686.946 875.714C687.01 876.223 687.13 876.733 687.309 877.236Z" fill="#A13A28"/>
        <path d="M701 871.941C698.278 871.737 697.467 871.802 695.115 872.64C692.763 873.477 688.871 875.087 686.89 876.966C686.21 877.61 685.972 878.58 686.28 879.445L686.578 880.283C686.852 881.053 687.714 881.449 688.502 881.169C688.688 881.102 688.86 881.001 689.008 880.87C690.838 879.25 694.548 877.808 696.685 877.047C698.821 876.286 699.384 876.207 701.826 876.305C702.66 876.339 703.373 875.702 703.42 874.884C703.431 874.69 703.403 874.497 703.338 874.314L703.04 873.476C702.732 872.611 701.934 872.011 701 871.941Z" fill="#F1D8D4"/>
        <path d="M686.757 876.706C685.511 877.15 684.141 876.499 683.698 875.253C683.254 874.007 683.904 872.637 685.15 872.194C686.396 871.75 687.766 872.4 688.21 873.646C688.654 874.892 688.003 876.262 686.757 876.706Z" fill="#F1D8D4"/>
        <circle cx="222" cy="383" r="9" fill="white"/>
        <circle cx="347" cy="412" r="9" fill="white"/>
        <circle cx="121" cy="364" r="13" fill="white"/>
        <circle cx="484" cy="287" r="9" fill="white"/>
        <circle cx="321" cy="182" r="13" fill="white"/>
        <circle cx="748" cy="313" r="9" fill="white"/>
        <circle cx="705" cy="220" r="13" fill="white"/>
        <circle cx="1127" cy="447" r="9" fill="white"/>
        <circle cx="1256" cy="415" r="13" fill="white"/>
        <circle cx="1311" cy="313" r="9" fill="white"/>
        <circle cx="1172" cy="164" r="9" fill="white"/>
        <circle cx="1323" cy="24" r="13" fill="white"/>
        <circle cx="1388" cy="58" r="9" fill="white"/>
        <circle cx="963" cy="543" r="9" fill="white"/>
        <ellipse cx="1017.5" cy="554" rx="13.5" ry="13" fill="white"/>
        <circle cx="603" cy="659" r="9" fill="white"/>
        <circle cx="494" cy="723" r="13" fill="white"/>
        <circle cx="632" cy="421" r="9" fill="white"/>
        <circle cx="536" cy="377" r="13" fill="white"/>
        <circle cx="479" cy="182" r="9" fill="white"/>
        <ellipse cx="313.5" cy="29" rx="13.5" ry="13" fill="white"/>
        <circle cx="198" cy="125" r="9" fill="white"/>
        <circle cx="116" cy="229" r="9" fill="white"/>
        <circle cx="43" cy="58" r="9" fill="white"/>
        <circle cx="703" cy="67" r="9" fill="white"/>
        <circle cx="853" cy="28" r="9" fill="white"/>
        <circle cx="1003" cy="220" r="9" fill="white"/>
        <ellipse cx="1076" cy="84.5" rx="13" ry="13.5" fill="white"/>
        <circle cx="192" cy="650" r="9" fill="white"/>
        <circle cx="246" cy="730" r="9" fill="white"/>
        <circle cx="309" cy="659" r="9" fill="white"/>
        <circle cx="66" cy="723" r="13" fill="white"/>
        <circle cx="95" cy="477" r="9" fill="white"/>
        <circle cx="1337" cy="610" r="9" fill="white"/>
        <circle cx="1374" cy="700" r="9" fill="white"/>
        <circle cx="759" cy="721" r="9" fill="white"/>
        <circle cx="806" cy="691" r="9" fill="white"/>
        <circle cx="925" cy="730" r="9" fill="white"/>
        <circle cx="770" cy="619" r="9" fill="white"/>
        <circle cx="737" cy="665" r="13" fill="white"/>
        <circle cx="1056" cy="229" r="9" fill="white"/>
        <ellipse cx="1153" cy="97.5" rx="13" ry="13.5" fill="white"/>
        <circle cx="1135" cy="67" r="9" fill="white"/>
        <circle cx="514" cy="313" r="9" fill="white"/>
        <circle cx="364" cy="220" r="13" fill="white"/>
        <circle cx="240" cy="791" r="9" fill="white"/>
        <path d="M194.5 76L206.736 113.659H246.333L214.298 136.933L226.534 174.591L194.5 151.317L162.466 174.591L174.702 136.933L142.667 113.659H182.264L194.5 76Z" fill="#FFAA33"/>
    </g>
    <defs>
        <clipPath id="clip0">
            <rect width="1440" height="936" fill="white"/>
        </clipPath>
    </defs>
</svg>
