<svg width="24" height="24" viewBox="0 0 24 24" xmlns="http://www.w3.org/2000/svg" preserveAspectRatio="xMidYMid meet">

 <g>
  <title>Layer 1</title>
  <g id="svg_1" fill="#3e3832">
   <path stroke="null" id="svg_4" d="m16.8281,15.32447l-0.80283,0l0,-0.49632c0,-2.04236 -2.01739,-4.04705 -4.0727,-4.04705s-4.07269,2.00361 -4.07269,4.04705l0,0.49632l-0.80284,0c-0.29903,0 -0.54172,0.24117 -0.54172,0.53832l0,7.5364c0,0.29715 0.24269,0.53831 0.54172,0.53831l9.75106,0c0.29903,0 0.54173,-0.24116 0.54173,-0.53831l0,-7.5364c0,-0.29715 -0.2427,-0.53832 -0.54173,-0.53832zm-4.23737,4.04813c-0.02926,0.03014 -0.06393,0.05491 -0.09643,0.08074l0,1.91425c0,0.29715 -0.24269,0.53831 -0.54173,0.53831s-0.54172,-0.24116 -0.54172,-0.53831l0,-1.91748c-0.20369,-0.15718 -0.33912,-0.39835 -0.34346,-0.67074c-0.00433,-0.2347 0.08343,-0.45864 0.24811,-0.62767s0.38355,-0.26485 0.62082,-0.26916l0,0c0.49514,0 0.89168,0.38651 0.90143,0.86346c0.00434,0.23471 -0.08342,0.45649 -0.24702,0.6266zm2.35108,-3.91893l-5.97848,0l0,-0.62552c0,-1.44268 1.53634,-2.97042 2.98924,-2.97042s2.98924,1.52666 2.98924,2.97042l0,0.62552z" fill="#000000"/>
   <g stroke="null" id="svg_10">
    <g stroke="#000" transform="matrix(0.9871567806787827,0,0,0.9871567806787827,11.242656351462813,9.544193926873723) " id="svg_8" fill="none" stroke-miterlimit="10" stroke-linejoin="round">
     <path stroke="null" id="svg_9" d="m-10.81032,-2.02589l0,3c0,0.825 0.175,1.5 1,1.5l0,4.5l3,0l0,-4.5c0.824,0 0.999,-0.676 1,-1.5l0,-3l-5,0zm18,0l0,3c0,0.825 0.175,1.5 1,1.5l0,4.5l3,0l0,-4.5c0.824,0 0.999,-0.676 1,-1.5l0,-3l-5,0zm-14,-3.5c0,0.828 -0.672,1.5 -1.5,1.5s-1.5,-0.672 -1.5,-1.5s0.672,-1.5 1.5,-1.5s1.5,0.672 1.5,1.5zm18,0c0,0.828 -0.672,1.5 -1.5,1.5s-1.5,-0.672 -1.5,-1.5s0.672,-1.5 1.5,-1.5s1.5,0.672 1.5,1.5zm-8,-1c0,1.381 -1.119,2.5 -2.5,2.5s-2.5,-1.119 -2.5,-2.5s1.119,-2.5 2.5,-2.5s2.5,1.119 2.5,2.5z"/>
    </g>
   </g>
  </g>
  <path stroke-linejoin="round" fill="none" d="m8.59263,10.90999l-0.03013,-3.28499l6.6875,0l0,3.375" id="svg_2" stroke="#000000"/>
 </g>
</svg>