<svg xmlns:xlink="http://www.w3.org/1999/xlink" xmlns="http://www.w3.org/2000/svg" contentScriptType="text/ecmascript" zoomAndPan="magnify" contentStyleType="text/css" id="Outline_Version" enable-background="new 0 0 24 24" version="1.1" xml:space="preserve" width="24px" preserveAspectRatio="xMidYMid meet" viewBox="0 0 24 24" height="24px" x="0px" y="0px">
  <g stroke="null" id="svg_31">
   <path stroke="#000" id="svg_19" d="m2.339527,14.474988c0,-1.802146 1.463655,-3.261885 3.270637,-3.261885c1.806982,0 3.270637,1.459738 3.270637,3.261885c0,1.802146 -1.463655,3.261885 -3.270637,3.261885c-1.806982,0 -3.270637,-1.459738 -3.270637,-3.261885z" stroke-opacity="null" stroke-linecap="null" stroke-linejoin="null" stroke-width="0.8" fill-opacity="null" fill="none"/>
   <path stroke="#000" id="svg_18" d="m0.340813,21.565173c0,-1.312918 1.106253,-2.41621 2.422693,-2.41621l5.693315,0c1.31644,0 2.422693,1.103292 2.422693,2.41621c0,1.518041 0,0.637818 0,2.155861c-3.415751,-0.02413 -6.331222,0.008601 -10.5387,-0.042073l-0.000001,-2.113787z" stroke-opacity="null" stroke-linecap="null" stroke-linejoin="null" stroke-width="0.8" fill-opacity="null" fill="none"/>
   <path stroke="#000000" id="svg_16" d="m16.938077,1.122956c-1.311801,-1.114911 -3.262746,-0.914371 -4.466826,0.324685l-0.471578,0.48464l-0.471578,-0.48464c-1.201687,-1.239056 -3.155025,-1.439596 -4.466826,-0.324685c-1.503305,1.279643 -1.582301,3.576313 -0.236987,4.963387l4.631999,4.770009c0.299224,0.307974 0.785165,0.307974 1.08439,0l4.631999,-4.770009c1.347708,-1.387074 1.268713,-3.683744 -0.234593,-4.963387z" fill="none" stroke-width="0.8"/>
   <path stroke="#000" id="svg_15" d="m15.122875,14.474988c0,-1.802146 1.463655,-3.261885 3.270637,-3.261885c1.806982,0 3.270637,1.459738 3.270637,3.261885c0,1.802146 -1.463655,3.261885 -3.270637,3.261885c-1.806982,0 -3.270637,-1.459738 -3.270637,-3.261885z" stroke-opacity="null" stroke-linecap="null" stroke-linejoin="null" stroke-width="0.8" fill-opacity="null" fill="none"/>
   <path stroke="#000" id="svg_30" d="m13.124162,21.565173c0,-1.312918 1.106253,-2.41621 2.422693,-2.41621l5.693315,0c1.31644,0 2.422693,1.103292 2.422693,2.41621c0,1.518041 0,0.637818 0,2.155861c-3.415751,-0.02413 -6.331222,0.008601 -10.5387,-0.042073l-0.000001,-2.113787z" stroke-opacity="null" stroke-linecap="null" stroke-linejoin="null" stroke-width="0.8" fill-opacity="null" fill="none"/>
  </g>
</svg>