<svg width="1440" height="936" viewBox="0 0 1440 936" fill="none" xmlns="http://www.w3.org/2000/svg">
<g clip-path="url(#clip0_28_183)">
<rect width="1440" height="936" fill="#CCE4EE"/>
<path fill-rule="evenodd" clip-rule="evenodd" d="M1097.75 231.353C1104.89 231.353 1111.55 233.371 1117.19 236.863C1118.77 223.975 1129.83 213.993 1143.25 213.993C1156.31 213.993 1167.14 223.449 1169.16 235.836C1170.9 235.182 1172.78 234.824 1174.75 234.824C1183.45 234.824 1190.5 241.819 1190.5 250.441C1190.5 253.688 1189.5 256.704 1187.79 259.203C1206.9 260.496 1222 276.281 1222 295.559C1222 315.683 1205.54 332 1185.25 332C1172.04 332 1160.46 325.089 1153.98 314.716C1150.36 324.791 1140.65 332 1129.25 332C1114.75 332 1103 320.352 1103 305.974C1103 305.26 1103.03 304.553 1103.09 303.854C1101.34 304.105 1099.56 304.235 1097.75 304.235C1077.45 304.235 1061 287.922 1061 267.794C1061 247.666 1077.45 231.353 1097.75 231.353Z" fill="white"/>
<path fill-rule="evenodd" clip-rule="evenodd" d="M259.413 429.441C253.471 429.441 247.925 427.748 243.232 424.818C241.922 435.631 232.712 444.006 221.54 444.006C210.673 444.006 201.658 436.073 199.977 425.68C198.531 426.229 196.964 426.529 195.326 426.529C188.089 426.529 182.217 420.661 182.217 413.426C182.217 410.702 183.05 408.172 184.475 406.075C168.569 404.99 156 391.747 156 375.574C156 358.69 169.696 345 186.587 345C197.579 345 207.219 350.798 212.61 359.501C215.625 351.048 223.705 345 233.199 345C245.261 345 255.043 354.773 255.043 366.835C255.043 367.434 255.019 368.027 254.972 368.614C256.422 368.403 257.905 368.294 259.413 368.294C276.308 368.294 290 381.98 290 398.868C290 415.755 276.308 429.441 259.413 429.441Z" fill="white"/>
<path fill-rule="evenodd" clip-rule="evenodd" d="M-35.3913 371.912C-24.3941 371.912 -14.1301 375.041 -5.44385 380.457C-3.02026 360.47 14.026 344.989 34.7014 344.989C54.8138 344.989 71.4978 359.653 74.6097 378.864C77.2851 377.85 80.1865 377.294 83.2174 377.294C96.6118 377.294 107.478 388.143 107.478 401.515C107.478 406.55 105.937 411.228 103.301 415.103C132.739 417.109 156 441.588 156 471.485C156 502.694 130.652 528 99.3913 528C79.047 528 61.2071 517.282 51.2283 501.195C45.6484 516.82 30.6951 528 13.1248 528C-9.19856 528 -27.3044 509.936 -27.3044 487.638C-27.3044 486.531 -27.2597 485.434 -27.1722 484.35C-29.8554 484.74 -32.5998 484.941 -35.3913 484.941C-66.659 484.941 -92 459.642 -92 428.426C-92 397.211 -66.659 371.912 -35.3913 371.912Z" fill="white"/>
<path fill-rule="evenodd" clip-rule="evenodd" d="M1304.05 320.882C1316.69 320.882 1328.49 324.474 1338.47 330.688C1341.25 307.752 1360.84 289.987 1384.6 289.987C1407.72 289.987 1426.89 306.815 1430.47 328.86C1433.54 327.696 1436.88 327.059 1440.36 327.059C1455.75 327.059 1468.24 339.508 1468.24 354.853C1468.24 360.632 1466.47 365.999 1463.44 370.446C1497.27 372.747 1524 400.839 1524 435.147C1524 470.961 1494.87 500 1458.95 500C1435.57 500 1415.06 487.701 1403.6 469.24C1397.18 487.171 1380 500 1359.81 500C1334.15 500 1313.35 479.27 1313.35 453.683C1313.35 452.413 1313.4 451.154 1313.5 449.91C1310.42 450.357 1307.26 450.588 1304.05 450.588C1268.12 450.588 1239 421.557 1239 385.735C1239 349.914 1268.12 320.882 1304.05 320.882Z" fill="white"/>
<path fill-rule="evenodd" clip-rule="evenodd" d="M1294.43 215.769C1294.43 239.644 1313.75 259 1337.58 259C1355 259 1370 248.656 1376.81 233.764C1385.76 239.329 1396.23 242.529 1407.42 242.529C1440.32 242.529 1467 214.869 1467 180.76C1467 146.651 1440.32 119 1407.42 119C1390.7 119 1375.58 126.145 1364.76 137.651C1359.12 131.262 1350.87 127.235 1341.69 127.235C1324.67 127.235 1310.87 141.063 1310.87 158.118C1310.87 165.423 1313.4 172.134 1317.63 177.42C1303.84 184.638 1294.43 199.101 1294.43 215.769Z" fill="white"/>
<path d="M334.983 603L567 917H37L334.983 603Z" fill="#66A3C4"/>
<path d="M484.894 804.02L485.111 805.135L406.919 733.738L399.531 786.662L372.068 743.29L342.182 774.559L300.99 749.613L215.597 812.333L263.592 720.131L214.425 729.434L334.983 603L484.894 804.02Z" fill="white"/>
<path d="M569.674 735L694 903H410L569.674 735Z" fill="#66A3C4"/>
<path d="M650.003 842.552L650.12 843.149L608.22 804.949L604.262 833.265L589.546 810.059L573.532 826.79L551.459 813.443L505.701 847L531.419 797.669L505.073 802.646L569.674 735L650.003 842.552Z" fill="white"/>
<path d="M828.639 692L1009 936H597L828.639 692Z" fill="#66A3C4"/>
<path d="M945.174 848.207L945.343 849.073L884.56 793.593L878.817 834.719L857.468 801.015L834.236 825.314L802.215 805.928L735.834 854.667L773.143 783.019L734.923 790.248L828.64 692L945.174 848.207Z" fill="white"/>
<path d="M-122 936H448.213C448.213 936 414.78 931.002 326.972 922.737C239.164 914.472 197.332 900 107.222 900C17.1124 900 -122 936 -122 936Z" fill="#E1F2FA"/>
<path d="M182.998 936H757C757 936 686.908 886.457 516.412 867.403C345.916 848.348 182.998 936 182.998 936Z" fill="white"/>
<path d="M42.5001 926C26.5001 923.5 24.5002 915 45 911C54.5 909.146 44.4999 905.5 86.4999 904C128.5 902.5 116.5 914 98.9999 914C81.4999 914 85.4999 925 79.4999 926C73.4999 927 58.5001 928.5 42.5001 926Z" fill="#BCE8CD"/>
<path d="M338 894.5C346 889.5 361 881.5 382.5 876.5C389.5 874.71 434.5 860.5 461.5 871.5C488.5 882.5 509 880.5 520 887C531 893.5 531 901 497 907C463 913 459.5 909 445.5 904C431.5 899 439.5 889 416.5 889.5C393.5 890 388.5 898 366 901C343.5 904 330 899.5 338 894.5Z" fill="#BCE8CD"/>
<path d="M421 936H1246.16C1246.16 936 1197.77 928.78 1070.71 916.842C943.64 904.904 883.104 884 752.707 884C622.309 884 421 936 421 936Z" fill="#E1F2FA"/>
<path d="M862.362 936H1693C1693 936 1591.57 864.439 1344.85 836.915C1098.12 809.391 862.362 936 862.362 936Z" fill="white"/>
<path d="M1093.27 778.684L1158.38 730.069C1165.36 724.858 1175.29 726.219 1180.57 733.108C1180.86 733.478 1181.12 733.861 1181.37 734.255L1204.99 771.571C1209.63 778.896 1207.37 788.545 1199.95 793.123C1199.55 793.369 1199.14 793.597 1198.72 793.807L1125.92 830.266C1111.64 837.419 1094.19 832.625 1085.7 819.217C1077.22 805.808 1080.5 788.222 1093.27 778.684Z" fill="#F1F1F1"/>
<path d="M1200.29 763.721L1237.17 816.207C1247.21 830.488 1243.77 850.203 1229.49 860.24C1228.72 860.78 1227.93 861.285 1227.12 861.754L1218.54 866.708C1203.42 875.436 1184.1 870.257 1175.37 855.139C1174.9 854.327 1174.47 853.494 1174.08 852.643L1147.07 794.45C1140.35 779.959 1145.8 762.731 1159.63 754.743C1173.46 746.755 1191.1 750.65 1200.29 763.721Z" fill="#F1F1F1"/>
<path d="M1223.2 817.77H1318C1344.18 817.77 1365.4 838.997 1365.4 865.18C1365.4 891.364 1344.18 912.59 1318 912.59H1223.2C1197.02 912.59 1175.8 891.364 1175.8 865.18C1175.8 838.997 1197.02 817.77 1223.2 817.77Z" fill="#FFACD9"/>
<rect x="1199.5" y="896.787" width="31.6" height="63.2131" fill="#4F4F4F"/>
<rect x="1306.15" y="896.787" width="31.6" height="63.2131" fill="#4F4F4F"/>
<path d="M1148.15 758.508C1159.06 758.508 1167.9 749.664 1167.9 738.754C1167.9 727.844 1159.06 719 1148.15 719C1137.24 719 1128.4 727.844 1128.4 738.754C1128.4 749.664 1137.24 758.508 1148.15 758.508Z" fill="#FFACD9"/>
<path d="M1179.75 758.508C1190.66 758.508 1199.5 749.664 1199.5 738.754C1199.5 727.844 1190.66 719 1179.75 719C1168.84 719 1160 727.844 1160 738.754C1160 749.664 1168.84 758.508 1179.75 758.508Z" fill="#FFACD9"/>
<path d="M1199.5 774.311C1208.23 774.311 1215.3 767.236 1215.3 758.508C1215.3 749.78 1208.23 742.705 1199.5 742.705C1190.77 742.705 1183.7 749.78 1183.7 758.508C1183.7 767.236 1190.77 774.311 1199.5 774.311Z" fill="#FFACD9"/>
<path d="M1152.1 837.525C1163.01 837.525 1171.85 828.68 1171.85 817.77C1171.85 806.861 1163.01 798.016 1152.1 798.016C1141.19 798.016 1132.35 806.861 1132.35 817.77C1132.35 828.68 1141.19 837.525 1152.1 837.525Z" fill="#FFACD9"/>
<path d="M1345.65 896.787C1356.56 896.787 1365.4 887.943 1365.4 877.033C1365.4 866.123 1356.56 857.279 1345.65 857.279C1334.74 857.279 1325.9 866.123 1325.9 877.033C1325.9 887.943 1334.74 896.787 1345.65 896.787Z" fill="#FFACD9"/>
<path d="M1325.9 912.59C1338.99 912.59 1349.6 901.977 1349.6 888.885C1349.6 875.793 1338.99 865.18 1325.9 865.18C1312.81 865.18 1302.2 875.793 1302.2 888.885C1302.2 901.977 1312.81 912.59 1325.9 912.59Z" fill="#FFACD9"/>
<path d="M1179.75 884.934C1190.66 884.934 1199.5 876.09 1199.5 865.18C1199.5 854.27 1190.66 845.426 1179.75 845.426C1168.84 845.426 1160 854.27 1160 865.18C1160 876.09 1168.84 884.934 1179.75 884.934Z" fill="#FFACD9"/>
<path d="M1191.6 920.492C1204.69 920.492 1215.3 909.879 1215.3 896.787C1215.3 883.695 1204.69 873.082 1191.6 873.082C1178.51 873.082 1167.9 883.695 1167.9 896.787C1167.9 909.879 1178.51 920.492 1191.6 920.492Z" fill="#FFACD9"/>
<path d="M1246.9 928.393C1259.99 928.393 1270.6 917.78 1270.6 904.689C1270.6 891.597 1259.99 880.984 1246.9 880.984C1233.81 880.984 1223.2 891.597 1223.2 904.689C1223.2 917.78 1233.81 928.393 1246.9 928.393Z" fill="#FFACD9"/>
<path d="M1290.35 920.492C1301.26 920.492 1310.1 911.648 1310.1 900.738C1310.1 889.828 1301.26 880.984 1290.35 880.984C1279.44 880.984 1270.6 889.828 1270.6 900.738C1270.6 911.648 1279.44 920.492 1290.35 920.492Z" fill="#FFACD9"/>
<path d="M1288.37 924.443C1300.37 924.443 1310.1 914.714 1310.1 902.713C1310.1 890.712 1300.37 880.984 1288.37 880.984C1276.38 880.984 1266.65 890.712 1266.65 902.713C1266.65 914.714 1276.38 924.443 1288.37 924.443Z" fill="#FFACD9"/>
<path d="M1377.25 873.082C1388.16 873.082 1397 864.238 1397 853.328C1397 842.418 1388.16 833.574 1377.25 833.574C1366.34 833.574 1357.5 842.418 1357.5 853.328C1357.5 864.238 1366.34 873.082 1377.25 873.082Z" fill="#FFACD9"/>
<path d="M1191.6 833.574C1213.42 833.574 1231.1 815.885 1231.1 794.066C1231.1 772.246 1213.42 754.557 1191.6 754.557C1169.78 754.557 1152.1 772.246 1152.1 794.066C1152.1 815.885 1169.78 833.574 1191.6 833.574Z" fill="#FFACD9"/>
<path d="M1227.15 908.639C1248.97 908.639 1266.65 890.951 1266.65 869.131C1266.65 847.311 1248.97 829.623 1227.15 829.623C1205.33 829.623 1187.65 847.311 1187.65 869.131C1187.65 890.951 1205.33 908.639 1227.15 908.639Z" fill="#FFACD9"/>
<path d="M1286.4 900.738C1308.22 900.738 1325.9 883.049 1325.9 861.23C1325.9 839.41 1308.22 821.721 1286.4 821.721C1264.58 821.721 1246.9 839.41 1246.9 861.23C1246.9 883.049 1264.58 900.738 1286.4 900.738Z" fill="#FFACD9"/>
<path d="M1337.75 869.131C1355.2 869.131 1369.35 854.98 1369.35 837.525C1369.35 820.069 1355.2 805.918 1337.75 805.918C1320.3 805.918 1306.15 820.069 1306.15 837.525C1306.15 854.98 1320.3 869.131 1337.75 869.131Z" fill="#FFACD9"/>
<path d="M1235.05 857.279C1252.5 857.279 1266.65 843.128 1266.65 825.672C1266.65 808.216 1252.5 794.066 1235.05 794.066C1217.6 794.066 1203.45 808.216 1203.45 825.672C1203.45 843.128 1217.6 857.279 1235.05 857.279Z" fill="#FFACD9"/>
<path d="M1191.6 873.082C1209.05 873.082 1223.2 858.931 1223.2 841.475C1223.2 824.02 1209.05 809.869 1191.6 809.869C1174.15 809.869 1160 824.02 1160 841.475C1160 858.931 1174.15 873.082 1191.6 873.082Z" fill="#FFACD9"/>
<path d="M1294.3 853.328C1313.93 853.328 1329.85 837.408 1329.85 817.77C1329.85 798.133 1313.93 782.213 1294.3 782.213C1274.67 782.213 1258.75 798.133 1258.75 817.77C1258.75 837.408 1274.67 853.328 1294.3 853.328Z" fill="#FFACD9"/>
<path d="M1128.4 770.361C1137.13 770.361 1144.2 763.285 1144.2 754.557C1144.2 745.829 1137.13 738.754 1128.4 738.754C1119.67 738.754 1112.6 745.829 1112.6 754.557C1112.6 763.285 1119.67 770.361 1128.4 770.361Z" fill="#FFACD9"/>
<path d="M1136.3 782.213C1140.66 782.213 1144.2 776.907 1144.2 770.361C1144.2 763.815 1140.66 758.508 1136.3 758.508C1131.94 758.508 1128.4 763.815 1128.4 770.361C1128.4 776.907 1131.94 782.213 1136.3 782.213Z" fill="#4F4F4F"/>
<path d="M1092.61 802.604C1094.66 803.35 1097.23 801.462 1098.35 798.386C1099.47 795.311 1098.71 792.212 1096.66 791.466C1094.61 790.72 1092.05 792.608 1090.93 795.684C1089.81 798.759 1090.56 801.857 1092.61 802.604Z" fill="#4F4F4F"/>
<path d="M766.32 860.677L786.722 845.464C788.909 843.833 792.023 844.259 793.677 846.415C793.766 846.531 793.849 846.65 793.927 846.774L801.329 858.451C802.782 860.744 802.075 863.763 799.75 865.195C799.625 865.272 799.496 865.344 799.365 865.41L776.551 876.819C772.075 879.057 766.607 877.557 763.947 873.361C761.288 869.165 762.317 863.662 766.32 860.677Z" fill="#F1F1F1"/>
<path d="M799.855 855.995L811.413 872.419C814.558 876.888 813.48 883.058 809.006 886.199C808.765 886.368 808.517 886.526 808.263 886.673L805.574 888.223C800.838 890.954 794.782 889.333 792.047 884.603C791.9 884.348 791.765 884.088 791.641 883.821L783.179 865.611C781.071 861.076 782.779 855.685 787.113 853.185C791.448 850.685 796.976 851.904 799.855 855.995Z" fill="#F1F1F1"/>
<path d="M807.036 872.909H836.743C844.947 872.909 851.597 879.551 851.597 887.745C851.597 895.939 844.947 902.581 836.743 902.581H807.036C798.832 902.581 792.182 895.939 792.182 887.745C792.182 879.551 798.832 872.909 807.036 872.909Z" fill="#F1F1F1"/>
<rect x="799.608" y="897.635" width="9.90258" height="19.7815" fill="#4F4F4F"/>
<rect x="833.03" y="897.635" width="9.90259" height="19.7815" fill="#4F4F4F"/>
<path d="M783.517 854.363C786.935 854.363 789.706 851.596 789.706 848.182C789.706 844.768 786.935 842 783.517 842C780.099 842 777.328 844.768 777.328 848.182C777.328 851.596 780.099 854.363 783.517 854.363Z" fill="#FFC700"/>
<path d="M793.419 854.363C796.837 854.363 799.608 851.596 799.608 848.182C799.608 844.768 796.837 842 793.419 842C790.001 842 787.23 844.768 787.23 848.182C787.23 851.596 790.001 854.363 793.419 854.363Z" fill="#FFC700"/>
<path d="M799.609 859.309C802.343 859.309 804.56 857.095 804.56 854.363C804.56 851.632 802.343 849.418 799.609 849.418C796.874 849.418 794.657 851.632 794.657 854.363C794.657 857.095 796.874 859.309 799.609 859.309Z" fill="#FFC700"/>
<path d="M784.755 879.09C788.173 879.09 790.944 876.323 790.944 872.909C790.944 869.495 788.173 866.727 784.755 866.727C781.336 866.727 778.565 869.495 778.565 872.909C778.565 876.323 781.336 879.09 784.755 879.09Z" fill="#FFC700"/>
<path d="M845.408 897.636C848.826 897.636 851.597 894.868 851.597 891.454C851.597 888.04 848.826 885.272 845.408 885.272C841.99 885.272 839.219 888.04 839.219 891.454C839.219 894.868 841.99 897.636 845.408 897.636Z" fill="#FFC700"/>
<path d="M839.219 902.581C843.321 902.581 846.646 899.26 846.646 895.163C846.646 891.066 843.321 887.745 839.219 887.745C835.117 887.745 831.792 891.066 831.792 895.163C831.792 899.26 835.117 902.581 839.219 902.581Z" fill="#FFC700"/>
<path d="M793.419 893.926C796.837 893.926 799.608 891.159 799.608 887.745C799.608 884.331 796.837 881.563 793.419 881.563C790.001 881.563 787.23 884.331 787.23 887.745C787.23 891.159 790.001 893.926 793.419 893.926Z" fill="#FFC700"/>
<path d="M797.133 905.054C801.235 905.054 804.56 901.732 804.56 897.636C804.56 893.539 801.235 890.217 797.133 890.217C793.031 890.217 789.706 893.539 789.706 897.636C789.706 901.732 793.031 905.054 797.133 905.054Z" fill="#FFC700"/>
<path d="M814.463 907.526C818.564 907.526 821.89 904.205 821.89 900.108C821.89 896.011 818.564 892.69 814.463 892.69C810.361 892.69 807.036 896.011 807.036 900.108C807.036 904.205 810.361 907.526 814.463 907.526Z" fill="#FFC700"/>
<path d="M828.078 905.054C831.496 905.054 834.267 902.286 834.267 898.872C834.267 895.458 831.496 892.69 828.078 892.69C824.66 892.69 821.889 895.458 821.889 898.872C821.889 902.286 824.66 905.054 828.078 905.054Z" fill="#FFC700"/>
<path d="M827.459 906.29C831.219 906.29 834.267 903.245 834.267 899.49C834.267 895.735 831.219 892.69 827.459 892.69C823.699 892.69 820.651 895.735 820.651 899.49C820.651 903.245 823.699 906.29 827.459 906.29Z" fill="#FFC700"/>
<path d="M855.311 890.217C858.729 890.217 861.5 887.45 861.5 884.036C861.5 880.622 858.729 877.854 855.311 877.854C851.893 877.854 849.122 880.622 849.122 884.036C849.122 887.45 851.893 890.217 855.311 890.217Z" fill="#FFC700"/>
<path d="M797.133 877.854C803.969 877.854 809.511 872.319 809.511 865.491C809.511 858.662 803.969 853.127 797.133 853.127C790.296 853.127 784.754 858.662 784.754 865.491C784.754 872.319 790.296 877.854 797.133 877.854Z" fill="#FFC700"/>
<path d="M808.273 901.345C815.11 901.345 820.651 895.809 820.651 888.981C820.651 882.153 815.11 876.618 808.273 876.618C801.437 876.618 795.895 882.153 795.895 888.981C795.895 895.809 801.437 901.345 808.273 901.345Z" fill="#FFC700"/>
<path d="M826.841 898.872C833.677 898.872 839.219 893.337 839.219 886.508C839.219 879.68 833.677 874.145 826.841 874.145C820.004 874.145 814.462 879.68 814.462 886.508C814.462 893.337 820.004 898.872 826.841 898.872Z" fill="#FFC700"/>
<path d="M842.932 888.981C848.401 888.981 852.835 884.553 852.835 879.09C852.835 873.628 848.401 869.2 842.932 869.2C837.463 869.2 833.03 873.628 833.03 879.09C833.03 884.553 837.463 888.981 842.932 888.981Z" fill="#FFC700"/>
<path d="M810.749 885.272C816.218 885.272 820.651 880.844 820.651 875.381C820.651 869.919 816.218 865.491 810.749 865.491C805.28 865.491 800.846 869.919 800.846 875.381C800.846 880.844 805.28 885.272 810.749 885.272Z" fill="#FFC700"/>
<path d="M797.133 890.217C802.602 890.217 807.035 885.789 807.035 880.327C807.035 874.864 802.602 870.436 797.133 870.436C791.664 870.436 787.23 874.864 787.23 880.327C787.23 885.789 791.664 890.217 797.133 890.217Z" fill="#FFC700"/>
<path d="M829.316 884.036C835.469 884.036 840.457 879.054 840.457 872.909C840.457 866.763 835.469 861.782 829.316 861.782C823.164 861.782 818.176 866.763 818.176 872.909C818.176 879.054 823.164 884.036 829.316 884.036Z" fill="#FFC700"/>
<path d="M777.328 858.072C780.062 858.072 782.279 855.858 782.279 853.127C782.279 850.396 780.062 848.182 777.328 848.182C774.593 848.182 772.376 850.396 772.376 853.127C772.376 855.858 774.593 858.072 777.328 858.072Z" fill="#FFC700"/>
<path d="M779.803 861.782C781.171 861.782 782.279 860.121 782.279 858.072C782.279 856.024 781.171 854.363 779.803 854.363C778.436 854.363 777.328 856.024 777.328 858.072C777.328 860.121 778.436 861.782 779.803 861.782Z" fill="#4F4F4F"/>
<path d="M757 874.235C757.503 868.24 762.054 863.052 764.571 861.462L774.638 867.593L770.863 878.492C762.809 878.492 758.468 875.824 757 874.235Z" fill="#FF9100"/>
<path d="M764.853 867.803C765.495 868.037 766.301 867.446 766.651 866.484C767.002 865.521 766.766 864.552 766.123 864.318C765.481 864.085 764.676 864.675 764.325 865.638C763.974 866.6 764.211 867.57 764.853 867.803Z" fill="#4F4F4F"/>
<path d="M726.578 862.887L713.592 853.205C712.201 852.167 710.219 852.438 709.166 853.81C709.11 853.884 709.057 853.96 709.007 854.038L704.296 861.471C703.371 862.93 703.821 864.851 705.301 865.763C705.381 865.812 705.462 865.857 705.546 865.899L720.066 873.161C722.915 874.586 726.395 873.631 728.088 870.96C729.781 868.29 729.126 864.787 726.578 862.887Z" fill="#F1F1F1"/>
<path d="M705.235 859.907L697.878 870.361C695.877 873.205 696.562 877.132 699.41 879.131C699.563 879.238 699.721 879.339 699.883 879.432L701.594 880.419C704.609 882.157 708.463 881.126 710.204 878.115C710.297 877.953 710.384 877.787 710.462 877.618L715.848 866.027C717.189 863.141 716.103 859.71 713.344 858.119C710.585 856.528 707.066 857.304 705.235 859.907Z" fill="#F1F1F1"/>
<path d="M700.664 870.672H681.756C676.535 870.672 672.303 874.9 672.303 880.115C672.303 885.33 676.535 889.557 681.756 889.557H700.664C705.886 889.557 710.118 885.33 710.118 880.115C710.118 874.9 705.886 870.672 700.664 870.672Z" fill="#F1F1F1"/>
<rect width="6.30261" height="12.5902" transform="matrix(-1 0 0 1 705.391 886.41)" fill="#4F4F4F"/>
<rect width="6.30261" height="12.5902" transform="matrix(-1 0 0 1 684.12 886.41)" fill="#4F4F4F"/>
<path d="M715.633 858.869C713.457 858.869 711.694 857.107 711.694 854.934C711.694 852.762 713.457 851 715.633 851C717.808 851 719.572 852.762 719.572 854.934C719.572 857.107 717.808 858.869 715.633 858.869Z" fill="#FFC700"/>
<path d="M709.33 858.869C707.155 858.869 705.391 857.107 705.391 854.934C705.391 852.762 707.155 851 709.33 851C711.506 851 713.27 852.762 713.27 854.934C713.27 857.107 711.506 858.869 709.33 858.869Z" fill="#FFC700"/>
<path d="M705.391 862.016C703.65 862.016 702.239 860.607 702.239 858.869C702.239 857.131 703.65 855.721 705.391 855.721C707.131 855.721 708.542 857.131 708.542 858.869C708.542 860.607 707.131 862.016 705.391 862.016Z" fill="#FFC700"/>
<path d="M714.845 874.607C712.67 874.607 710.906 872.845 710.906 870.672C710.906 868.499 712.67 866.738 714.845 866.738C717.021 866.738 718.784 868.499 718.784 870.672C718.784 872.845 717.021 874.607 714.845 874.607Z" fill="#FFC700"/>
<path d="M676.242 886.41C674.067 886.41 672.303 884.648 672.303 882.475C672.303 880.302 674.067 878.541 676.242 878.541C678.418 878.541 680.181 880.302 680.181 882.475C680.181 884.648 678.418 886.41 676.242 886.41Z" fill="#FFC700"/>
<path d="M680.181 889.557C677.57 889.557 675.454 887.444 675.454 884.836C675.454 882.229 677.57 880.115 680.181 880.115C682.791 880.115 684.908 882.229 684.908 884.836C684.908 887.444 682.791 889.557 680.181 889.557Z" fill="#FFC700"/>
<path d="M709.33 884.049C707.155 884.049 705.391 882.288 705.391 880.115C705.391 877.942 707.155 876.18 709.33 876.18C711.506 876.18 713.27 877.942 713.27 880.115C713.27 882.288 711.506 884.049 709.33 884.049Z" fill="#FFC700"/>
<path d="M706.967 891.131C704.356 891.131 702.24 889.017 702.24 886.41C702.24 883.802 704.356 881.689 706.967 881.689C709.578 881.689 711.694 883.802 711.694 886.41C711.694 889.017 709.578 891.131 706.967 891.131Z" fill="#FFC700"/>
<path d="M695.937 892.705C693.326 892.705 691.21 890.591 691.21 887.984C691.21 885.376 693.326 883.262 695.937 883.262C698.548 883.262 700.664 885.376 700.664 887.984C700.664 890.591 698.548 892.705 695.937 892.705Z" fill="#FFC700"/>
<path d="M687.271 891.131C685.095 891.131 683.332 889.37 683.332 887.197C683.332 885.024 685.095 883.262 687.271 883.262C689.446 883.262 691.21 885.024 691.21 887.197C691.21 889.37 689.446 891.131 687.271 891.131Z" fill="#FFC700"/>
<path d="M687.665 891.918C685.271 891.918 683.331 889.98 683.331 887.59C683.331 885.2 685.271 883.262 687.665 883.262C690.058 883.262 691.998 885.2 691.998 887.59C691.998 889.98 690.058 891.918 687.665 891.918Z" fill="#FFC700"/>
<path d="M669.939 881.689C667.763 881.689 666 879.927 666 877.754C666 875.581 667.763 873.82 669.939 873.82C672.114 873.82 673.878 875.581 673.878 877.754C673.878 879.927 672.114 881.689 669.939 881.689Z" fill="#FFC700"/>
<path d="M706.966 873.82C702.615 873.82 699.088 870.297 699.088 865.951C699.088 861.605 702.615 858.082 706.966 858.082C711.318 858.082 714.845 861.605 714.845 865.951C714.845 870.297 711.318 873.82 706.966 873.82Z" fill="#FFC700"/>
<path d="M699.877 888.77C695.526 888.77 691.998 885.247 691.998 880.902C691.998 876.556 695.526 873.033 699.877 873.033C704.228 873.033 707.755 876.556 707.755 880.902C707.755 885.247 704.228 888.77 699.877 888.77Z" fill="#FFC700"/>
<path d="M688.059 887.197C683.708 887.197 680.18 883.674 680.18 879.328C680.18 874.982 683.708 871.459 688.059 871.459C692.41 871.459 695.937 874.982 695.937 879.328C695.937 883.674 692.41 887.197 688.059 887.197Z" fill="#FFC700"/>
<path d="M677.817 880.902C674.336 880.902 671.514 878.083 671.514 874.607C671.514 871.13 674.336 868.311 677.817 868.311C681.298 868.311 684.12 871.13 684.12 874.607C684.12 878.083 681.298 880.902 677.817 880.902Z" fill="#FFC700"/>
<path d="M698.301 878.541C694.82 878.541 691.998 875.723 691.998 872.246C691.998 868.769 694.82 865.951 698.301 865.951C701.782 865.951 704.604 868.769 704.604 872.246C704.604 875.723 701.782 878.541 698.301 878.541Z" fill="#FFC700"/>
<path d="M706.967 881.689C703.486 881.689 700.664 878.87 700.664 875.393C700.664 871.917 703.486 869.098 706.967 869.098C710.448 869.098 713.27 871.917 713.27 875.393C713.27 878.87 710.448 881.689 706.967 881.689Z" fill="#FFC700"/>
<path d="M686.483 877.754C682.567 877.754 679.393 874.583 679.393 870.672C679.393 866.761 682.567 863.59 686.483 863.59C690.399 863.59 693.574 866.761 693.574 870.672C693.574 874.583 690.399 877.754 686.483 877.754Z" fill="#FFC700"/>
<path d="M719.572 861.23C717.831 861.23 716.421 859.82 716.421 858.082C716.421 856.344 717.831 854.934 719.572 854.934C721.312 854.934 722.723 856.344 722.723 858.082C722.723 859.82 721.312 861.23 719.572 861.23Z" fill="#FFC700"/>
<path d="M717.996 863.59C717.126 863.59 716.42 862.533 716.42 861.23C716.42 859.926 717.126 858.869 717.996 858.869C718.866 858.869 719.572 859.926 719.572 861.23C719.572 862.533 718.866 863.59 717.996 863.59Z" fill="#4F4F4F"/>
<path d="M732.51 871.516C732.189 867.701 729.293 864.399 727.691 863.387L721.284 867.289L723.687 874.226C728.812 874.226 731.575 872.528 732.51 871.516Z" fill="#FF9100"/>
<path d="M727.511 867.423C727.103 867.572 726.59 867.195 726.367 866.583C726.144 865.97 726.294 865.353 726.703 865.205C727.112 865.056 727.624 865.432 727.848 866.045C728.071 866.657 727.92 867.274 727.511 867.423Z" fill="#4F4F4F"/>
<path d="M1057.46 926.644C1042.53 929.248 1028.32 919.259 1025.72 904.333C1023.11 889.406 1033.1 875.194 1048.03 872.59C1062.95 869.985 1093.63 877.1 1096.24 892.027C1098.84 906.954 1072.39 924.039 1057.46 926.644Z" fill="#FFC700"/>
<path d="M137 901.737C137 908.509 131.627 914 125 914C118.373 914 113 908.509 113 901.737C113 894.964 118.373 882 125 882C131.627 882 137 894.964 137 901.737Z" fill="#FFC700"/>
<path d="M157.063 907.529C154.801 913.914 147.904 917.295 141.657 915.081C135.41 912.868 132.179 905.899 134.441 899.514C136.703 893.13 146.096 882.705 152.343 884.919C158.59 887.132 159.325 901.145 157.063 907.529Z" fill="#C8A9EF"/>
<path d="M1004.15 885.848C1009.57 899.866 1002.68 915.586 988.772 920.959C974.862 926.333 959.196 919.326 953.78 905.308C948.365 891.29 949.276 860.103 963.186 854.73C977.096 849.356 998.737 871.83 1004.15 885.848Z" fill="#6AB889"/>
<path d="M1052.47 910.452C1052.21 928.123 1037.67 942.234 1020 941.969C1002.33 941.705 988.214 927.165 988.479 909.494C988.743 891.823 1003.57 858.214 1021.25 858.479C1038.92 858.743 1052.74 892.781 1052.47 910.452Z" fill="#C8A9EF"/>
<path d="M144.544 909.22C146.955 915.549 143.889 922.593 137.696 924.952C131.502 927.311 124.527 924.093 122.116 917.764C119.705 911.434 120.111 897.407 126.304 895.048C132.498 892.689 142.133 902.891 144.544 909.22Z" fill="#6AB889"/>
<path d="M1185.48 653.283C1164.31 681.366 1163 721.862 1164.99 738.599L1176.9 742.41C1190.56 721.058 1207.32 681.801 1206.91 660.143C1206.49 638.485 1211.94 618.179 1185.48 653.283Z" fill="#FFACD9"/>
<path d="M1176.27 723.5C1175.1 708.167 1177.17 673.6 1194.77 658C1196.6 669.833 1195.47 699.5 1176.27 723.5Z" fill="#FFDCEF"/>
<path d="M1114.2 671.957C1119.52 703.036 1145.16 728.777 1157.31 737.762L1167.11 732.332C1161.57 710.292 1146.24 675.22 1131.85 662.182C1117.45 649.145 1107.54 633.108 1114.2 671.957Z" fill="#FFACD9"/>
<path fill-rule="evenodd" clip-rule="evenodd" d="M480.382 839.513C480.428 840.038 480.039 840.5 479.514 840.545C476.305 840.822 471.11 843.879 466.89 852.9C462.683 861.893 459.526 876.68 460.362 900.012C460.381 900.539 459.97 900.981 459.443 900.999C458.917 901.018 458.475 900.607 458.456 900.081C457.614 876.577 460.782 861.457 465.163 852.092C469.531 842.755 475.186 839.004 479.351 838.645C479.875 838.6 480.337 838.989 480.382 839.513Z" fill="#117938"/>
<path d="M478.418 859.809C473.572 853.423 466.786 836.32 478.418 819C483.645 826.536 490.962 845.248 478.418 859.809Z" fill="#FFE927"/>
<path d="M461.836 847.953C465.461 840.802 477.878 827.224 498.541 830.116C494.047 838.111 480.415 852.871 461.836 847.953Z" fill="#FFE927"/>
<path d="M462.267 827.293C470.28 827.027 488.16 831.37 495.577 850.87C486.406 850.783 466.905 845.945 462.267 827.293Z" fill="#FFE927"/>
<ellipse cx="478.861" cy="838.833" rx="2.82686" ry="7.17586" fill="#FFC700"/>
<ellipse cx="478.86" cy="838.833" rx="2.82686" ry="7.17586" transform="rotate(-90 478.86 838.833)" fill="#FFC700"/>
<ellipse cx="478.86" cy="838.833" rx="2.82686" ry="7.17586" transform="rotate(-150 478.86 838.833)" fill="#FFC700"/>
<ellipse cx="478.861" cy="838.833" rx="2.82686" ry="7.17586" transform="rotate(-120 478.861 838.833)" fill="#FFC700"/>
<ellipse cx="478.86" cy="838.833" rx="2.82686" ry="7.17586" transform="rotate(-60 478.86 838.833)" fill="#FFC700"/>
<ellipse cx="478.86" cy="838.833" rx="2.82686" ry="7.17586" transform="rotate(-30 478.86 838.833)" fill="#FFC700"/>
<path d="M452.926 859.237C455.977 865.492 458.011 888.795 458.647 899.665C450.637 849.512 450.256 861.144 448.158 855.995C446.48 851.876 438.687 845.126 435 842.265C439.704 845.316 449.874 852.982 452.926 859.237Z" fill="#117938"/>
<path d="M470.66 867.584C464.253 873.839 460.236 892.438 459.028 900.956C469.326 869.872 468.372 873.877 473.33 867.584C477.297 862.55 485.853 861.8 489.539 862.054C485.916 861.291 477.068 861.329 470.66 867.584Z" fill="#117938"/>
<path fill-rule="evenodd" clip-rule="evenodd" d="M46.6683 859.013C46.6242 859.525 47.0033 859.976 47.5152 860.02C50.6462 860.29 55.7146 863.272 59.8316 872.073C63.9359 880.847 67.016 895.274 66.2004 918.036C66.182 918.55 66.5833 918.981 67.0967 918.999C67.6101 919.018 68.0412 918.617 68.0596 918.103C68.8812 895.173 65.7907 880.421 61.5168 871.285C57.2555 862.176 51.7378 858.516 47.675 858.166C47.1631 858.122 46.7124 858.501 46.6683 859.013Z" fill="#117938"/>
<path d="M48.5847 878.814C53.3131 872.583 59.9328 855.898 48.5847 839C43.4854 846.352 36.3464 864.608 48.5847 878.814Z" fill="#FFE927"/>
<path d="M64.7635 867.247C61.2261 860.27 49.1118 847.024 28.9537 849.845C33.3378 857.645 46.6373 872.045 64.7635 867.247Z" fill="#FFE927"/>
<path d="M64.3424 847.091C56.525 846.831 39.0812 851.068 31.8451 870.093C40.7921 870.007 59.8175 865.288 64.3424 847.091Z" fill="#FFE927"/>
<ellipse rx="2.75791" ry="7.00084" transform="matrix(-1 0 0 1 48.1527 858.349)" fill="#FFC700"/>
<ellipse rx="2.75791" ry="7.00084" transform="matrix(4.37114e-08 -1 -1 -4.37114e-08 48.153 858.349)" fill="#FFC700"/>
<ellipse rx="2.75791" ry="7.00084" transform="matrix(0.866025 -0.5 -0.5 -0.866025 48.1531 858.349)" fill="#FFC700"/>
<ellipse rx="2.75791" ry="7.00084" transform="matrix(0.5 -0.866025 -0.866025 -0.5 48.153 858.349)" fill="#FFC700"/>
<ellipse rx="2.75791" ry="7.00084" transform="matrix(-0.5 -0.866025 -0.866025 0.5 48.1529 858.349)" fill="#FFC700"/>
<ellipse rx="2.75791" ry="7.00084" transform="matrix(-0.866025 -0.5 -0.5 0.866025 48.1527 858.349)" fill="#FFC700"/>
<path d="M73.4555 878.256C70.4787 884.358 68.4942 907.093 67.8741 917.698C75.688 868.767 76.0601 880.116 78.1066 875.093C79.7438 871.074 87.3469 864.488 90.9438 861.698C86.3547 864.674 76.4322 872.153 73.4555 878.256Z" fill="#117938"/>
<path d="M56.1531 886.399C62.4043 892.501 66.3237 910.647 67.502 918.957C57.4554 888.632 58.3857 892.539 53.5485 886.399C49.6787 881.487 41.3314 880.756 37.7345 881.004C41.2694 880.259 49.9019 880.297 56.1531 886.399Z" fill="#117938"/>
<path fill-rule="evenodd" clip-rule="evenodd" d="M409.668 822.013C409.624 822.525 410.003 822.976 410.515 823.02C413.646 823.29 418.715 826.272 422.832 835.073C426.936 843.847 430.016 858.274 429.2 881.036C429.182 881.55 429.583 881.981 430.097 881.999C430.61 882.018 431.041 881.617 431.06 881.103C431.881 858.173 428.791 843.421 424.517 834.285C420.255 825.176 414.738 821.516 410.675 821.166C410.163 821.122 409.712 821.501 409.668 822.013Z" fill="#117938"/>
<path d="M411.585 841.814C416.313 835.583 422.933 818.898 411.585 802C406.485 809.352 399.346 827.608 411.585 841.814Z" fill="#FFE927"/>
<path d="M427.763 830.247C424.226 823.27 412.112 810.024 391.954 812.845C396.338 820.645 409.637 835.045 427.763 830.247Z" fill="#FFE927"/>
<path d="M427.342 810.091C419.525 809.831 402.081 814.068 394.845 833.093C403.792 833.007 422.817 828.288 427.342 810.091Z" fill="#FFE927"/>
<ellipse rx="2.75791" ry="7.00084" transform="matrix(-1 0 0 1 411.153 821.349)" fill="#FFC700"/>
<ellipse rx="2.75791" ry="7.00084" transform="matrix(4.37114e-08 -1 -1 -4.37114e-08 411.153 821.349)" fill="#FFC700"/>
<ellipse rx="2.75791" ry="7.00084" transform="matrix(0.866025 -0.5 -0.5 -0.866025 411.153 821.349)" fill="#FFC700"/>
<ellipse rx="2.75791" ry="7.00084" transform="matrix(0.5 -0.866025 -0.866025 -0.5 411.153 821.349)" fill="#FFC700"/>
<ellipse rx="2.75791" ry="7.00084" transform="matrix(-0.5 -0.866025 -0.866025 0.5 411.153 821.349)" fill="#FFC700"/>
<ellipse rx="2.75791" ry="7.00084" transform="matrix(-0.866025 -0.5 -0.5 0.866025 411.153 821.349)" fill="#FFC700"/>
<path d="M436.455 841.256C433.479 847.358 431.494 870.093 430.874 880.698C438.688 831.767 439.06 843.116 441.107 838.093C442.744 834.074 450.347 827.488 453.944 824.698C449.355 827.674 439.432 835.153 436.455 841.256Z" fill="#117938"/>
<path d="M419.153 849.399C425.404 855.501 429.324 873.647 430.502 881.957C420.455 851.632 421.386 855.539 416.548 849.399C412.679 844.487 404.331 843.756 400.735 844.004C404.269 843.26 412.902 843.297 419.153 849.399Z" fill="#117938"/>
<path fill-rule="evenodd" clip-rule="evenodd" d="M87.3521 851.045C91.5712 849.577 96.1476 850.885 99.0335 852.455C99.5493 852.736 99.7399 853.381 99.4593 853.897C99.1787 854.413 98.5331 854.603 98.0173 854.323C95.4088 852.904 91.4825 851.859 88.0505 853.053C84.7419 854.204 81.5021 857.584 80.4876 865.875C78.4098 882.855 78.4375 906.928 78.713 916.851C78.7293 917.438 78.2667 917.927 77.6798 917.943C77.0928 917.959 76.6038 917.497 76.5875 916.91C76.3113 906.96 76.2795 882.758 78.3771 865.617C79.4502 856.847 83.0098 852.555 87.3521 851.045Z" fill="#117938"/>
<path d="M95.6399 874.888C92.5267 867.209 89.5413 847.463 102.505 829.906C105.754 838.902 108.928 860.492 95.6399 874.888Z" fill="#FFE927"/>
<path d="M83.3068 859.632C87.6425 852.229 100.655 838.9 118.021 844.813C112.794 853.032 98.5324 867.503 83.3068 859.632Z" fill="#FFE927"/>
<path d="M87.1556 836.918C94.1237 837.681 108.842 844.825 111.97 867.297C104.061 865.992 88.0253 858.087 87.1556 836.918Z" fill="#FFE927"/>
<ellipse cx="110.015" cy="846.008" rx="1.90842" ry="1.54154" transform="rotate(-8.10385 110.015 846.008)" fill="#FFC700"/>
<ellipse cx="110.449" cy="849.061" rx="1.90842" ry="1.54154" transform="rotate(-8.10385 110.449 849.061)" fill="#FFC700"/>
<ellipse cx="110.885" cy="852.113" rx="1.90842" ry="1.54154" transform="rotate(-8.10385 110.885 852.113)" fill="#FFC700"/>
<ellipse cx="111.319" cy="855.165" rx="1.90842" ry="1.54154" transform="rotate(-8.10385 111.319 855.165)" fill="#FFC700"/>
<path d="M95.0367 852.813C94.3887 848.262 104.607 845.363 109.798 844.482L111.536 856.692C106.306 857.295 95.6847 857.363 95.0367 852.813Z" fill="#FFC700"/>
<path d="M88.3857 875.236C84.5722 881.31 78.9929 905.258 76.6799 916.473C92.0449 865.445 90.551 877.596 93.3075 872.537C95.5127 868.49 103.789 862.569 107.651 860.115C102.818 862.624 92.1991 869.162 88.3857 875.236Z" fill="#117938"/>
<path d="M67.9944 878.874C72.4343 885.596 76.2243 906.164 77.5644 915.607C68.9869 881.373 69.8583 885.798 66.3231 878.977C63.4949 873.521 58.0875 873.015 55.7969 873.44C58.0128 872.451 63.5545 872.153 67.9944 878.874Z" fill="#117938"/>
<path fill-rule="evenodd" clip-rule="evenodd" d="M439.842 837.806C442.814 836.773 446.039 837.694 448.072 838.8C448.436 838.998 448.57 839.453 448.372 839.816C448.175 840.18 447.72 840.314 447.356 840.116C445.518 839.116 442.752 838.381 440.334 839.222C438.002 840.032 435.72 842.414 435.005 848.256C433.541 860.22 433.56 877.183 433.754 884.174C433.766 884.587 433.44 884.932 433.026 884.943C432.613 884.955 432.268 884.629 432.257 884.215C432.062 877.205 432.04 860.152 433.518 848.074C434.274 841.895 436.782 838.871 439.842 837.806Z" fill="#117938"/>
<path d="M445.681 854.606C443.487 849.196 441.384 835.283 450.518 822.912C452.807 829.251 455.044 844.463 445.681 854.606Z" fill="#FFE927"/>
<path d="M436.991 843.857C440.046 838.641 449.215 829.249 461.451 833.415C457.768 839.207 447.719 849.403 436.991 843.857Z" fill="#FFE927"/>
<path d="M439.703 827.853C444.613 828.39 454.984 833.424 457.188 849.258C451.615 848.338 440.316 842.769 439.703 827.853Z" fill="#FFE927"/>
<ellipse cx="455.811" cy="834.258" rx="1.34469" ry="1.08618" transform="rotate(-8.10385 455.811 834.258)" fill="#FFC700"/>
<ellipse cx="456.116" cy="836.409" rx="1.34469" ry="1.08618" transform="rotate(-8.10385 456.116 836.409)" fill="#FFC700"/>
<ellipse cx="456.423" cy="838.559" rx="1.34469" ry="1.08618" transform="rotate(-8.10385 456.423 838.559)" fill="#FFC700"/>
<ellipse cx="456.729" cy="840.71" rx="1.34469" ry="1.08618" transform="rotate(-8.10385 456.729 840.71)" fill="#FFC700"/>
<path d="M445.257 839.052C444.8 835.846 452 833.803 455.657 833.183L456.882 841.785C453.197 842.21 445.713 842.259 445.257 839.052Z" fill="#FFC700"/>
<path d="M440.57 854.852C437.883 859.132 433.951 876.006 432.322 883.908C443.148 847.953 442.095 856.515 444.038 852.95C445.591 850.099 451.423 845.927 454.144 844.197C450.739 845.965 443.257 850.572 440.57 854.852Z" fill="#117938"/>
<path d="M426.202 857.416C429.33 862.152 432.001 876.644 432.945 883.298C426.901 859.176 427.515 862.294 425.024 857.488C423.032 853.644 419.221 853.287 417.607 853.587C419.169 852.889 423.073 852.679 426.202 857.416Z" fill="#117938"/>
<path fill-rule="evenodd" clip-rule="evenodd" d="M361.932 825.045C357.713 823.577 353.137 824.885 350.251 826.455C349.735 826.736 349.544 827.381 349.825 827.897C350.106 828.413 350.751 828.603 351.267 828.323C353.875 826.904 357.802 825.859 361.234 827.053C364.542 828.204 367.782 831.584 368.797 839.875C370.874 856.855 370.847 880.928 370.571 890.851C370.555 891.438 371.017 891.927 371.604 891.943C372.191 891.959 372.68 891.497 372.697 890.91C372.973 880.96 373.005 856.758 370.907 839.617C369.834 830.847 366.274 826.555 361.932 825.045Z" fill="#117938"/>
<path d="M353.644 848.888C356.757 841.209 359.743 821.463 346.779 803.907C343.531 812.902 340.356 834.492 353.644 848.888Z" fill="#FFE927"/>
<path d="M365.977 833.632C361.642 826.229 348.629 812.9 331.263 818.813C336.49 827.032 350.752 841.503 365.977 833.632Z" fill="#FFE927"/>
<path d="M362.129 810.918C355.16 811.681 340.442 818.825 337.314 841.297C345.223 839.992 361.259 832.087 362.129 810.918Z" fill="#FFE927"/>
<ellipse rx="1.90842" ry="1.54154" transform="matrix(-0.990014 -0.140968 -0.140968 0.990014 339.269 820.008)" fill="#FFC700"/>
<ellipse rx="1.90842" ry="1.54154" transform="matrix(-0.990014 -0.140968 -0.140968 0.990014 338.835 823.061)" fill="#FFC700"/>
<ellipse rx="1.90842" ry="1.54154" transform="matrix(-0.990014 -0.140968 -0.140968 0.990014 338.4 826.113)" fill="#FFC700"/>
<ellipse rx="1.90842" ry="1.54154" transform="matrix(-0.990014 -0.140968 -0.140968 0.990014 337.965 829.165)" fill="#FFC700"/>
<path d="M354.247 826.813C354.895 822.262 344.677 819.363 339.486 818.482L337.748 830.692C342.978 831.295 353.599 831.363 354.247 826.813Z" fill="#FFC700"/>
<path d="M360.899 849.236C364.712 855.31 370.291 879.258 372.604 890.473C357.239 839.445 358.733 851.596 355.977 846.537C353.772 842.49 345.496 836.569 341.633 834.115C346.466 836.624 357.085 843.162 360.899 849.236Z" fill="#117938"/>
<path d="M381.29 852.874C376.85 859.596 373.06 880.164 371.72 889.607C380.297 855.373 379.426 859.798 382.961 852.977C385.789 847.521 391.197 847.015 393.487 847.44C391.271 846.451 385.73 846.153 381.29 852.874Z" fill="#117938"/>
<path fill-rule="evenodd" clip-rule="evenodd" d="M389.102 839.362C386.068 838.306 382.777 839.247 380.701 840.376C380.33 840.578 380.193 841.042 380.395 841.413C380.597 841.784 381.061 841.921 381.432 841.719C383.308 840.699 386.132 839.948 388.6 840.806C390.98 841.634 393.31 844.065 394.039 850.028C395.534 862.24 395.514 879.553 395.316 886.689C395.304 887.112 395.637 887.463 396.059 887.475C396.481 887.487 396.833 887.154 396.844 886.732C397.043 879.576 397.066 862.17 395.557 849.842C394.786 843.535 392.225 840.448 389.102 839.362Z" fill="#117938"/>
<path d="M383.142 856.51C385.381 850.987 387.528 836.786 378.204 824.159C375.868 830.629 373.585 846.156 383.142 856.51Z" fill="#FFE927"/>
<path d="M392.012 845.538C388.894 840.213 379.535 830.627 367.045 834.88C370.805 840.791 381.062 851.199 392.012 845.538Z" fill="#FFE927"/>
<path d="M389.244 829.202C384.232 829.751 373.647 834.889 371.398 851.051C377.086 850.111 388.618 844.427 389.244 829.202Z" fill="#FFE927"/>
<ellipse rx="1.37254" ry="1.10868" transform="matrix(-0.990014 -0.140968 -0.140968 0.990014 372.803 835.74)" fill="#FFC700"/>
<ellipse rx="1.37254" ry="1.10868" transform="matrix(-0.990014 -0.140968 -0.140968 0.990014 372.491 837.935)" fill="#FFC700"/>
<ellipse rx="1.37254" ry="1.10868" transform="matrix(-0.990014 -0.140968 -0.140968 0.990014 372.178 840.13)" fill="#FFC700"/>
<ellipse rx="1.37254" ry="1.10868" transform="matrix(-0.990014 -0.140968 -0.140968 0.990014 371.865 842.325)" fill="#FFC700"/>
<path d="M383.576 840.633C384.042 837.36 376.692 835.275 372.959 834.642L371.709 843.423C375.47 843.857 383.11 843.906 383.576 840.633Z" fill="#FFC700"/>
<path d="M388.359 856.76C391.102 861.129 395.114 878.352 396.778 886.418C385.727 849.718 386.802 858.457 384.819 854.819C383.233 851.909 377.281 847.65 374.503 845.885C377.979 847.69 385.616 852.391 388.359 856.76Z" fill="#117938"/>
<path d="M403.025 859.377C399.831 864.211 397.106 879.003 396.142 885.795C402.311 861.174 401.684 864.356 404.226 859.451C406.261 855.527 410.15 855.163 411.797 855.469C410.203 854.757 406.218 854.543 403.025 859.377Z" fill="#117938"/>
</g>
<path d="M256.576 68.5754L283.517 151.493H370.702L300.168 202.74L327.11 285.657L256.576 234.411L186.041 285.657L212.983 202.74L142.449 151.493H229.634L256.576 68.5754Z" fill="#FFC700"/>
<path d="M142.627 226.203L212.916 174.62L185.578 91.8317L256.356 142.74L326.645 91.1573L300.1 174.203L370.878 225.111L283.694 225.528L257.149 308.574L229.811 225.786L142.627 226.203Z" fill="#FFC700"/>
<defs>
<clipPath id="clip0_28_183">
<rect width="1440" height="936" fill="white"/>
</clipPath>
</defs>
</svg>
