<svg width="1440" height="936" viewBox="0 0 1440 936" fill="none" xmlns="http://www.w3.org/2000/svg" role="img">
<g clip-path="url(#clip0_602_444)">
<rect width="1440" height="936" fill="#CCE4EE"/>
<path fill-rule="evenodd" clip-rule="evenodd" d="M1184.75 254.353C1191.89 254.353 1198.55 256.371 1204.19 259.863C1205.77 246.975 1216.83 236.993 1230.25 236.993C1243.31 236.993 1254.14 246.449 1256.16 258.836C1257.9 258.182 1259.78 257.824 1261.75 257.824C1270.45 257.824 1277.5 264.819 1277.5 273.441C1277.5 276.688 1276.5 279.704 1274.79 282.203C1293.9 283.496 1309 299.281 1309 318.559C1309 338.683 1292.54 355 1272.25 355C1259.04 355 1247.46 348.089 1240.98 337.716C1237.36 347.791 1227.65 355 1216.25 355C1201.75 355 1190 343.352 1190 328.974C1190 328.26 1190.03 327.553 1190.09 326.854C1188.34 327.105 1186.56 327.235 1184.75 327.235C1164.45 327.235 1148 310.922 1148 290.794C1148 270.666 1164.45 254.353 1184.75 254.353Z" fill="white"/>
<path fill-rule="evenodd" clip-rule="evenodd" d="M287.413 471.441C281.471 471.441 275.925 469.748 271.232 466.818C269.922 477.631 260.712 486.006 249.54 486.006C238.673 486.006 229.658 478.073 227.977 467.68C226.531 468.229 224.964 468.529 223.326 468.529C216.089 468.529 210.217 462.661 210.217 455.426C210.217 452.702 211.05 450.172 212.475 448.075C196.569 446.99 184 433.747 184 417.574C184 400.69 197.696 387 214.587 387C225.579 387 235.219 392.798 240.611 401.501C243.625 393.048 251.705 387 261.199 387C273.261 387 283.043 396.773 283.043 408.835C283.043 409.434 283.019 410.027 282.972 410.614C284.422 410.403 285.905 410.294 287.413 410.294C304.308 410.294 318 423.98 318 440.868C318 457.755 304.308 471.441 287.413 471.441Z" fill="white"/>
<path fill-rule="evenodd" clip-rule="evenodd" d="M-8.39131 433.912C2.60586 433.912 12.8699 437.041 21.5562 442.457C23.9798 422.47 41.026 406.989 61.7014 406.989C81.8138 406.989 98.4978 421.653 101.61 440.864C104.285 439.85 107.187 439.294 110.217 439.294C123.612 439.294 134.478 450.143 134.478 463.515C134.478 468.55 132.937 473.228 130.301 477.103C159.739 479.109 183 503.588 183 533.485C183 564.694 157.652 590 126.391 590C106.047 590 88.2071 579.282 78.2283 563.195C72.6484 578.82 57.6951 590 40.1248 590C17.8015 590 -0.30435 571.936 -0.304348 549.638C-0.304348 548.531 -0.259716 547.434 -0.172161 546.35C-2.85543 546.74 -5.59976 546.941 -8.39132 546.941C-39.659 546.941 -65 521.642 -65 490.426C-65 459.211 -39.659 433.912 -8.39131 433.912Z" fill="white"/>
<path fill-rule="evenodd" clip-rule="evenodd" d="M194.043 296.967C194.043 278.209 178.817 263 160.029 263C146.3 263 134.47 271.128 129.099 282.829C122.047 278.456 113.793 275.941 104.971 275.941C79.0335 275.941 58 297.674 58 324.474C58 351.274 79.0335 373 104.971 373C118.155 373 130.071 367.386 138.601 358.346C143.051 363.365 149.551 366.529 156.79 366.529C170.211 366.529 181.087 355.665 181.087 342.265C181.087 336.525 179.093 331.252 175.76 327.098C186.627 321.427 194.043 310.064 194.043 296.967Z" fill="white"/>
<path fill-rule="evenodd" clip-rule="evenodd" d="M1294.43 215.769C1294.43 239.644 1313.75 259 1337.58 259C1355 259 1370 248.656 1376.81 233.764C1385.76 239.329 1396.23 242.529 1407.42 242.529C1440.32 242.529 1467 214.869 1467 180.76C1467 146.651 1440.32 119 1407.42 119C1390.7 119 1375.58 126.145 1364.76 137.651C1359.12 131.262 1350.87 127.235 1341.69 127.235C1324.67 127.235 1310.87 141.063 1310.87 158.118C1310.87 165.423 1313.4 172.134 1317.63 177.42C1303.84 184.638 1294.43 199.101 1294.43 215.769Z" fill="white"/>
<rect y="751" width="1440" height="185" fill="#368DA8"/>
<path d="M690 802L698 801.369M791.5 794L698 801.369M690 807L791.5 799M690 812L791.5 804M690 817.5L791.5 809.5M690 823L791.5 815M690 828L791.5 820M690 833L698 832.369M791.5 825L698 832.369M698 801.369V832.369M706 800.739V831.739M713.5 800.148V831.148M720 799.635V830.635M726.5 799.084V830.084M733 798.571V829.571M739 798.138V829.138M745 797.665V828.665M750 797.271V828.271M755.202 797V828M760.5 796.325V827.325M765.5 795.813V826.813M770.5 795.3V826.3M775.5 794.828V825.828M786 794.434V825.434M781 794.828V825.828" stroke="white" stroke-linecap="round"/>
<path d="M-122 936H448.213C448.213 936 414.78 931.002 326.972 922.737C239.164 914.472 197.332 900 107.222 900C17.1124 900 -122 936 -122 936Z" fill="#FFC166"/>
<path d="M182.998 936H757C757 936 686.908 886.457 516.412 867.403C345.916 848.348 182.998 936 182.998 936Z" fill="#FFAA33"/>
<path d="M421 936H1246.16C1246.16 936 1197.77 928.78 1070.71 916.842C943.64 904.904 883.104 884 752.707 884C622.309 884 421 936 421 936Z" fill="#FFC166"/>
<path d="M862.362 936H1693C1693 936 1591.57 864.439 1344.85 836.915C1098.12 809.391 862.362 936 862.362 936Z" fill="#FFAA33"/>
<path d="M1093.27 778.684L1158.38 730.069C1165.36 724.858 1175.29 726.219 1180.57 733.108C1180.86 733.478 1181.12 733.861 1181.37 734.255L1204.99 771.571C1209.63 778.896 1207.37 788.545 1199.95 793.123C1199.55 793.369 1199.14 793.597 1198.72 793.807L1125.92 830.266C1111.64 837.419 1094.19 832.625 1085.7 819.216C1077.22 805.808 1080.5 788.222 1093.27 778.684Z" fill="#F1F1F1"/>
<path d="M1093.27 778.684L1158.38 730.069C1165.36 724.858 1175.29 726.219 1180.57 733.108C1180.86 733.478 1181.12 733.861 1181.37 734.255L1204.99 771.571C1209.63 778.896 1207.37 788.545 1199.95 793.123C1199.55 793.369 1199.14 793.597 1198.72 793.807L1125.92 830.266C1111.64 837.419 1094.19 832.625 1085.7 819.216C1077.22 805.808 1080.5 788.222 1093.27 778.684Z" fill="#F1F1F1"/>
<path d="M1200.29 763.721L1237.17 816.207C1247.21 830.488 1243.77 850.203 1229.49 860.24C1228.72 860.78 1227.93 861.285 1227.12 861.754L1218.54 866.708C1203.42 875.436 1184.1 870.257 1175.37 855.139C1174.9 854.327 1174.47 853.494 1174.08 852.643L1147.07 794.45C1140.35 779.959 1145.8 762.731 1159.63 754.743C1173.46 746.755 1191.1 750.65 1200.29 763.721Z" fill="#F1F1F1"/>
<path d="M1223.2 817.771H1318C1344.18 817.771 1365.4 838.997 1365.4 865.18C1365.4 891.364 1344.18 912.59 1318 912.59H1223.2C1197.02 912.59 1175.8 891.364 1175.8 865.18C1175.8 838.997 1197.02 817.771 1223.2 817.771Z" fill="#F1F1F1"/>
<rect x="1199.5" y="896.787" width="31.6" height="63.2131" fill="#F1F1F1"/>
<rect x="1306.15" y="896.787" width="31.6" height="63.2131" fill="#F1F1F1"/>
<path d="M1148.15 758.508C1159.06 758.508 1167.9 749.664 1167.9 738.754C1167.9 727.844 1159.06 719 1148.15 719C1137.24 719 1128.4 727.844 1128.4 738.754C1128.4 749.664 1137.24 758.508 1148.15 758.508Z" fill="white"/>
<path d="M1179.75 758.508C1190.66 758.508 1199.5 749.664 1199.5 738.754C1199.5 727.844 1190.66 719 1179.75 719C1168.84 719 1160 727.844 1160 738.754C1160 749.664 1168.84 758.508 1179.75 758.508Z" fill="white"/>
<path d="M1199.5 774.311C1208.23 774.311 1215.3 767.236 1215.3 758.508C1215.3 749.78 1208.23 742.705 1199.5 742.705C1190.77 742.705 1183.7 749.78 1183.7 758.508C1183.7 767.236 1190.77 774.311 1199.5 774.311Z" fill="white"/>
<path d="M1152.1 837.525C1163.01 837.525 1171.85 828.68 1171.85 817.77C1171.85 806.861 1163.01 798.016 1152.1 798.016C1141.19 798.016 1132.35 806.861 1132.35 817.77C1132.35 828.68 1141.19 837.525 1152.1 837.525Z" fill="white"/>
<path d="M1345.65 896.787C1356.56 896.787 1365.4 887.943 1365.4 877.033C1365.4 866.123 1356.56 857.279 1345.65 857.279C1334.74 857.279 1325.9 866.123 1325.9 877.033C1325.9 887.943 1334.74 896.787 1345.65 896.787Z" fill="white"/>
<path d="M1325.9 912.59C1338.99 912.59 1349.6 901.977 1349.6 888.885C1349.6 875.793 1338.99 865.18 1325.9 865.18C1312.81 865.18 1302.2 875.793 1302.2 888.885C1302.2 901.977 1312.81 912.59 1325.9 912.59Z" fill="white"/>
<path d="M1179.75 884.934C1190.66 884.934 1199.5 876.09 1199.5 865.18C1199.5 854.27 1190.66 845.426 1179.75 845.426C1168.84 845.426 1160 854.27 1160 865.18C1160 876.09 1168.84 884.934 1179.75 884.934Z" fill="white"/>
<path d="M1191.6 920.492C1204.69 920.492 1215.3 909.879 1215.3 896.787C1215.3 883.695 1204.69 873.082 1191.6 873.082C1178.51 873.082 1167.9 883.695 1167.9 896.787C1167.9 909.879 1178.51 920.492 1191.6 920.492Z" fill="white"/>
<path d="M1246.9 928.393C1259.99 928.393 1270.6 917.78 1270.6 904.689C1270.6 891.597 1259.99 880.984 1246.9 880.984C1233.81 880.984 1223.2 891.597 1223.2 904.689C1223.2 917.78 1233.81 928.393 1246.9 928.393Z" fill="white"/>
<path d="M1290.35 920.492C1301.26 920.492 1310.1 911.648 1310.1 900.738C1310.1 889.828 1301.26 880.984 1290.35 880.984C1279.44 880.984 1270.6 889.828 1270.6 900.738C1270.6 911.648 1279.44 920.492 1290.35 920.492Z" fill="white"/>
<path d="M1288.38 924.443C1300.37 924.443 1310.1 914.714 1310.1 902.713C1310.1 890.712 1300.37 880.984 1288.38 880.984C1276.38 880.984 1266.65 890.712 1266.65 902.713C1266.65 914.714 1276.38 924.443 1288.38 924.443Z" fill="white"/>
<path d="M1377.25 873.082C1388.16 873.082 1397 864.238 1397 853.328C1397 842.418 1388.16 833.574 1377.25 833.574C1366.34 833.574 1357.5 842.418 1357.5 853.328C1357.5 864.238 1366.34 873.082 1377.25 873.082Z" fill="white"/>
<path d="M1191.6 833.574C1213.41 833.574 1231.1 815.885 1231.1 794.066C1231.1 772.246 1213.41 754.557 1191.6 754.557C1169.78 754.557 1152.1 772.246 1152.1 794.066C1152.1 815.885 1169.78 833.574 1191.6 833.574Z" fill="white"/>
<path d="M1227.15 908.639C1248.97 908.639 1266.65 890.951 1266.65 869.131C1266.65 847.311 1248.97 829.623 1227.15 829.623C1205.34 829.623 1187.65 847.311 1187.65 869.131C1187.65 890.951 1205.34 908.639 1227.15 908.639Z" fill="white"/>
<path d="M1286.4 900.738C1308.22 900.738 1325.9 883.049 1325.9 861.23C1325.9 839.41 1308.22 821.721 1286.4 821.721C1264.59 821.721 1246.9 839.41 1246.9 861.23C1246.9 883.049 1264.59 900.738 1286.4 900.738Z" fill="white"/>
<path d="M1337.75 869.131C1355.2 869.131 1369.35 854.98 1369.35 837.525C1369.35 820.069 1355.2 805.918 1337.75 805.918C1320.3 805.918 1306.15 820.069 1306.15 837.525C1306.15 854.98 1320.3 869.131 1337.75 869.131Z" fill="white"/>
<path d="M1235.05 857.279C1252.5 857.279 1266.65 843.128 1266.65 825.672C1266.65 808.216 1252.5 794.066 1235.05 794.066C1217.6 794.066 1203.45 808.216 1203.45 825.672C1203.45 843.128 1217.6 857.279 1235.05 857.279Z" fill="white"/>
<path d="M1191.6 873.082C1209.05 873.082 1223.2 858.931 1223.2 841.475C1223.2 824.02 1209.05 809.869 1191.6 809.869C1174.15 809.869 1160 824.02 1160 841.475C1160 858.931 1174.15 873.082 1191.6 873.082Z" fill="white"/>
<path d="M1294.3 853.328C1313.93 853.328 1329.85 837.408 1329.85 817.771C1329.85 798.133 1313.93 782.213 1294.3 782.213C1274.67 782.213 1258.75 798.133 1258.75 817.771C1258.75 837.408 1274.67 853.328 1294.3 853.328Z" fill="white"/>
<path d="M1128.4 770.361C1137.13 770.361 1144.2 763.285 1144.2 754.557C1144.2 745.829 1137.13 738.754 1128.4 738.754C1119.67 738.754 1112.6 745.829 1112.6 754.557C1112.6 763.285 1119.67 770.361 1128.4 770.361Z" fill="white"/>
<path d="M1136.3 782.213C1140.66 782.213 1144.2 776.907 1144.2 770.361C1144.2 763.815 1140.66 758.508 1136.3 758.508C1131.94 758.508 1128.4 763.815 1128.4 770.361C1128.4 776.907 1131.94 782.213 1136.3 782.213Z" fill="#4F4F4F"/>
<path d="M1092.61 802.604C1094.66 803.35 1097.23 801.462 1098.35 798.386C1099.47 795.311 1098.71 792.212 1096.66 791.466C1094.61 790.72 1092.05 792.608 1090.93 795.684C1089.81 798.759 1090.56 801.857 1092.61 802.604Z" fill="#4F4F4F"/>
<path d="M1088.19 967.438L1072.68 903.881H1106.79L1088.19 967.438Z" fill="#FFC166"/>
<circle cx="1088.96" cy="889.543" r="22.0896" fill="#AB6800"/>
<path d="M1110.66 904.269C1108.49 902.409 1106.4 901.685 1105.24 901.556C1093.22 901.039 1068.65 900.859 1066.48 904.269C1063.77 908.532 1068.34 912.234 1070.75 911.632C1073.85 910.857 1075.78 908.919 1080.82 915.507C1083.19 918.601 1093.61 918.608 1096.32 915.507C1099.04 912.407 1100.59 910.857 1109.11 913.57C1117.25 916.157 1113.38 906.594 1110.66 904.269Z" fill="#AB6800"/>
<circle cx="1088.96" cy="860.09" r="22.0896" fill="#FF8DCB"/>
<path d="M1064.16 877.529C1065.09 874.119 1069.46 872.749 1071.52 872.491C1080.95 871.716 1101.13 870.631 1106.4 872.491C1112.99 874.816 1109.89 879.467 1105.24 880.629C1100.59 881.792 1101.36 884.117 1097.49 886.442C1093.61 888.767 1089.74 887.217 1087.02 885.28C1084.31 883.342 1077.72 881.792 1073.07 884.117C1068.42 886.442 1063 881.792 1064.16 877.529Z" fill="#FF8DCB"/>
<path d="M671.812 861.122L656.766 851.955C655.154 850.972 653.035 851.467 652.034 853.06C651.981 853.145 651.931 853.233 651.885 853.323L647.538 861.851C646.684 863.524 647.367 865.56 649.062 866.397C649.153 866.442 649.246 866.483 649.341 866.52L665.803 872.909C669.033 874.163 672.706 872.775 674.267 869.711C675.829 866.647 674.764 862.921 671.812 861.122Z" fill="#F1F1F1"/>
<path d="M648.395 860.062L641.49 872.13C639.611 875.414 640.752 879.596 644.039 881.472C644.216 881.573 644.397 881.666 644.582 881.751L646.535 882.646C649.976 884.222 654.046 882.713 655.625 879.276C655.71 879.091 655.787 878.903 655.855 878.711L660.511 865.612C661.67 862.351 660.145 858.745 656.995 857.302C653.846 855.859 650.114 857.057 648.395 860.062Z" fill="#F1F1F1"/>
<path d="M644.538 872.184L624.061 874.104C618.407 874.635 614.252 879.643 614.782 885.29C615.312 890.938 620.325 895.087 625.979 894.556L646.456 892.637C652.11 892.106 656.265 887.098 655.735 881.45C655.206 875.803 650.193 871.654 644.538 872.184Z" fill="#F1F1F1"/>
<rect width="6.85547" height="13.6946" transform="matrix(-0.995633 0.0933559 0.0933559 0.995633 651.255 888.748)" fill="#F1F1F1"/>
<rect width="6.85547" height="13.6946" transform="matrix(-0.995633 0.0933559 0.0933559 0.995633 628.22 890.908)" fill="#F1F1F1"/>
<path d="M659.551 857.882C657.195 858.103 655.106 856.374 654.885 854.021C654.665 851.668 656.396 849.581 658.752 849.36C661.108 849.139 663.196 850.868 663.417 853.221C663.638 855.574 661.907 857.661 659.551 857.882Z" fill="white"/>
<path d="M652.725 858.522C650.369 858.743 648.281 857.014 648.06 854.661C647.839 852.308 649.57 850.221 651.926 850C654.282 849.779 656.371 851.508 656.592 853.861C656.813 856.214 655.081 858.301 652.725 858.522Z" fill="white"/>
<path d="M648.779 862.33C646.894 862.507 645.223 861.124 645.047 859.242C644.87 857.359 646.255 855.69 648.14 855.513C650.025 855.336 651.696 856.719 651.872 858.602C652.049 860.484 650.664 862.154 648.779 862.33Z" fill="white"/>
<path d="M660.295 875.005C657.939 875.226 655.85 873.498 655.629 871.144C655.409 868.791 657.14 866.704 659.496 866.483C661.852 866.263 663.941 867.991 664.161 870.344C664.382 872.698 662.651 874.784 660.295 875.005Z" fill="white"/>
<path d="M619.687 891.708C617.331 891.929 615.243 890.2 615.022 887.847C614.801 885.494 616.532 883.407 618.888 883.186C621.244 882.965 623.333 884.694 623.554 887.047C623.774 889.4 622.043 891.487 619.687 891.708Z" fill="white"/>
<path d="M624.273 894.716C621.446 894.981 618.939 892.907 618.675 890.083C618.41 887.259 620.487 884.755 623.314 884.49C626.142 884.225 628.648 886.299 628.913 889.123C629.178 891.947 627.101 894.451 624.273 894.716Z" fill="white"/>
<path d="M655.283 885.791C652.927 886.012 650.838 884.283 650.618 881.93C650.397 879.577 652.128 877.49 654.484 877.269C656.84 877.048 658.929 878.777 659.15 881.13C659.37 883.483 657.639 885.57 655.283 885.791Z" fill="white"/>
<path d="M653.442 893.701C650.615 893.966 648.108 891.892 647.844 889.068C647.579 886.244 649.656 883.74 652.483 883.475C655.311 883.21 657.817 885.284 658.082 888.108C658.347 890.932 656.269 893.436 653.442 893.701Z" fill="white"/>
<path d="M641.656 896.525C638.829 896.79 636.322 894.716 636.058 891.892C635.793 889.068 637.87 886.564 640.697 886.299C643.524 886.034 646.031 888.108 646.296 890.932C646.561 893.756 644.483 896.26 641.656 896.525Z" fill="white"/>
<path d="M632.111 895.701C629.755 895.922 627.666 894.193 627.446 891.84C627.225 889.487 628.956 887.4 631.312 887.179C633.668 886.958 635.757 888.687 635.978 891.04C636.198 893.393 634.467 895.48 632.111 895.701Z" fill="white"/>
<path d="M632.618 896.513C630.026 896.756 627.729 894.855 627.486 892.266C627.243 889.678 629.147 887.382 631.739 887.139C634.331 886.896 636.628 888.798 636.871 891.386C637.114 893.975 635.21 896.27 632.618 896.513Z" fill="white"/>
<path d="M612.382 887.235C610.026 887.456 607.937 885.727 607.716 883.374C607.496 881.021 609.227 878.934 611.583 878.713C613.939 878.492 616.028 880.221 616.248 882.574C616.469 884.927 614.738 887.014 612.382 887.235Z" fill="white"/>
<path d="M651.683 874.953C646.971 875.395 642.794 871.938 642.352 867.231C641.911 862.525 645.373 858.351 650.085 857.91C654.797 857.468 658.975 860.925 659.416 865.631C659.858 870.338 656.395 874.511 651.683 874.953Z" fill="white"/>
<path d="M645.523 891.864C640.811 892.306 636.634 888.849 636.192 884.142C635.751 879.436 639.213 875.263 643.925 874.821C648.637 874.379 652.815 877.836 653.256 882.542C653.697 887.249 650.235 891.422 645.523 891.864Z" fill="white"/>
<path d="M632.565 891.36C627.853 891.802 623.676 888.345 623.234 883.638C622.793 878.932 626.255 874.758 630.967 874.317C635.679 873.875 639.857 877.332 640.298 882.038C640.739 886.745 637.277 890.918 632.565 891.36Z" fill="white"/>
<path d="M620.835 885.583C617.065 885.936 613.723 883.17 613.37 879.405C613.017 875.64 615.787 872.301 619.556 871.948C623.326 871.594 626.668 874.36 627.021 878.125C627.374 881.89 624.604 885.229 620.835 885.583Z" fill="white"/>
<path d="M642.779 880.946C639.009 881.299 635.667 878.534 635.314 874.769C634.961 871.003 637.731 867.665 641.501 867.311C645.27 866.958 648.612 869.723 648.965 873.489C649.318 877.254 646.549 880.592 642.779 880.946Z" fill="white"/>
<path d="M652.483 883.475C648.714 883.828 645.371 881.062 645.018 877.297C644.665 873.532 647.435 870.193 651.205 869.84C654.974 869.486 658.316 872.252 658.67 876.017C659.023 879.782 656.253 883.121 652.483 883.475Z" fill="white"/>
<path d="M629.9 881.294C625.659 881.691 621.899 878.58 621.502 874.344C621.105 870.109 624.221 866.352 628.462 865.955C632.703 865.557 636.463 868.669 636.86 872.904C637.257 877.14 634.141 880.896 629.9 881.294Z" fill="white"/>
<path d="M664.056 860.038C662.171 860.215 660.5 858.832 660.323 856.95C660.147 855.067 661.532 853.398 663.416 853.221C665.301 853.044 666.972 854.427 667.149 856.31C667.325 858.192 665.94 859.862 664.056 860.038Z" fill="white"/>
<path d="M662.589 862.755C661.647 862.843 660.776 861.77 660.643 860.358C660.511 858.946 661.168 857.73 662.11 857.642C663.052 857.553 663.924 858.626 664.056 860.038C664.189 861.45 663.532 862.666 662.589 862.755Z" fill="#4F4F4F"/>
<path d="M672.438 866.268C672.01 866.471 671.417 866.115 671.113 865.475C670.809 864.834 670.909 864.15 671.337 863.948C671.765 863.745 672.358 864.101 672.662 864.741C672.966 865.382 672.865 866.066 672.438 866.268Z" fill="#4F4F4F"/>
<path d="M226.873 758.619H225.339V719H226.873V758.619Z" fill="#4F4F4F"/>
<path d="M226.106 758.592L224.837 759.381L209.995 734.265L211.264 733.476L226.106 758.592Z" fill="#4F4F4F"/>
<path d="M145.199 750.238L145.55 750.381C145.525 750.442 145.475 750.56 145.401 750.731C145.278 751.016 145.131 751.345 144.961 751.717C144.474 752.776 143.896 753.957 143.228 755.228C141.321 758.861 139.078 762.493 136.514 765.884C131.903 771.982 126.774 776.615 121.159 779.19L121 778.847C126.55 776.302 131.634 771.71 136.21 765.657C138.761 762.284 140.993 758.669 142.892 755.053C143.556 753.788 144.132 752.614 144.616 751.56C144.785 751.191 144.931 750.864 145.053 750.582C145.126 750.413 145.174 750.297 145.199 750.238Z" fill="#4F4F4F"/>
<path d="M155.524 764.625L154.204 765.476L143.249 748.041L144.569 747.19L155.524 764.625Z" fill="#4F4F4F"/>
<path fill-rule="evenodd" clip-rule="evenodd" d="M256.027 758.619H219.201V773.095L256.027 765.857V758.619Z" fill="#4F4F4F"/>
<path fill-rule="evenodd" clip-rule="evenodd" d="M153.223 744.143H186.979L184.749 773.095H155.453L153.223 744.143Z" fill="#4F4F4F"/>
<path fill-rule="evenodd" clip-rule="evenodd" d="M144.783 775.381L254.492 774.619L264.465 755.571C264.465 755.571 233.076 767.608 197.029 767.608C160.982 767.608 141.714 762.951 141.714 762.951L144.783 775.381Z" fill="#F1F1F1"/>
<path fill-rule="evenodd" clip-rule="evenodd" d="M145.497 778.408L143.249 769.696C150.719 772.104 167.323 773.13 196.887 773.13C223.767 773.13 251.355 768.23 261.397 761.667L252.947 778.85C250.517 779.549 247.668 779.952 244.619 779.952C240.276 779.952 236.337 779.134 233.441 777.807C230.545 779.134 226.606 779.952 222.263 779.952C217.92 779.952 213.981 779.134 211.084 777.807C208.188 779.134 204.25 779.952 199.907 779.952C195.563 779.952 191.625 779.134 188.728 777.807C185.832 779.134 181.893 779.952 177.55 779.952C173.207 779.952 169.269 779.134 166.372 777.807C163.476 779.134 159.537 779.952 155.194 779.952C151.552 779.952 148.194 779.377 145.497 778.408Z" fill="#BA3A26"/>
<path d="M160.894 744.143H159.359V719H160.894V744.143Z" fill="#4F4F4F"/>
<path fill-rule="evenodd" clip-rule="evenodd" d="M183.142 747.19H177.005V756.333H182.504L183.142 747.19Z" fill="#97E6FF"/>
<path d="M324.576 68.5754L351.518 151.493H438.703L368.169 202.74L395.11 285.657L324.576 234.411L254.042 285.657L280.984 202.74L210.449 151.493H297.634L324.576 68.5754Z" fill="#FFC700"/>
<path d="M210.628 226.203L280.916 174.62L253.578 91.8317L324.357 142.74L394.645 91.1573L368.1 174.203L438.879 225.111L351.694 225.528L325.15 308.574L297.812 225.786L210.628 226.203Z" fill="#FFC700"/>
<path d="M841.713 604.195C809.958 598.307 786.982 614.631 779.463 623.529C813.797 600.527 838.182 610.433 846.082 618.261C848.966 593.739 887.866 585.157 906.956 583.932C869.693 579.754 847.935 595.7 841.713 604.195Z" fill="#4F4F4F"/>
<ellipse cx="844.294" cy="612.504" rx="6.58099" ry="7.52113" transform="rotate(-17.2539 844.294 612.504)" fill="#4F4F4F"/>
<path d="M1259.31 154.553C1228.16 130.023 1193.87 134.649 1180.61 140.027C1231.06 134.629 1251.91 159.316 1256.03 172.335C1273.16 147.329 1320.34 160.21 1341.79 169.776C1303.67 143.962 1270.92 148.871 1259.31 154.553Z" fill="#4F4F4F"/>
<ellipse cx="1257.37" cy="165.057" rx="8.07942" ry="9.23363" transform="rotate(10.4578 1257.37 165.057)" fill="#4F4F4F"/>
<path d="M910.899 535.77C889.805 526.434 871.144 533.983 864.45 538.924C892.107 528.611 907.415 539.521 911.612 546.266C917.666 529.702 946.114 530.163 959.582 532.464C934.379 523.407 916.625 530.894 910.899 535.77Z" fill="#4F4F4F"/>
<ellipse cx="911.32" cy="541.97" rx="4.70041" ry="5.3719" transform="rotate(-3.88452 911.32 541.97)" fill="#4F4F4F"/>
<path d="M1143.85 94.2242C1122.76 84.888 1104.1 92.4368 1097.4 97.3782C1125.06 87.0649 1140.37 97.9755 1144.56 104.72C1150.62 88.1561 1179.07 88.6174 1192.53 90.9185C1167.33 81.8613 1149.58 89.3485 1143.85 94.2242Z" fill="#4F4F4F"/>
<ellipse cx="1144.27" cy="100.424" rx="4.70041" ry="5.3719" transform="rotate(-3.88452 1144.27 100.424)" fill="#4F4F4F"/>
<path d="M336.851 440.224C315.757 430.888 297.096 438.437 290.402 443.378C318.059 433.065 333.367 443.976 337.564 450.72C343.618 434.156 372.067 434.617 385.534 436.919C360.331 427.861 342.578 435.349 336.851 440.224Z" fill="#4F4F4F"/>
<ellipse cx="337.272" cy="446.424" rx="4.70041" ry="5.3719" transform="rotate(-3.88452 337.272 446.424)" fill="#4F4F4F"/>
<path d="M392.26 506.814C382.616 490.713 366.668 486.978 359.9 487.123C383.125 493.24 388.184 507.674 387.811 514.126C399.605 505.954 418.302 519.605 426.176 527.451C413.669 509.608 398.354 506.258 392.26 506.814Z" fill="#4F4F4F"/>
<ellipse cx="389.632" cy="511.133" rx="3.82441" ry="4.37076" transform="rotate(31.3201 389.632 511.133)" fill="#4F4F4F"/>
<path d="M291.406 535.817C276.862 523.954 260.595 525.864 254.28 528.301C278.2 526.157 287.865 538.011 289.708 544.206C298.022 532.511 320.245 538.992 330.318 543.694C312.49 531.166 296.948 533.223 291.406 535.817Z" fill="#4F4F4F"/>
<ellipse cx="290.404" cy="540.773" rx="3.82441" ry="4.37076" transform="rotate(11.4443 290.404 540.773)" fill="#4F4F4F"/>
<path d="M991.902 582.542C973.861 568.167 953.896 570.743 946.169 573.827C975.536 570.856 987.582 585.288 989.933 592.876C999.986 578.386 1027.39 586.038 1039.83 591.675C1017.75 576.53 998.677 579.276 991.902 582.542Z" fill="#4F4F4F"/>
<ellipse cx="990.739" cy="588.646" rx="4.70041" ry="5.3719" transform="rotate(10.7884 990.739 588.646)" fill="#4F4F4F"/>
<path d="M1099.97 747.642C1090.84 743.509 1082.74 743.921 1079.84 744.644L1077.51 753.629C1077.51 753.629 1080 755.878 1078.83 764.295C1078.24 768.566 1078.42 779.675 1088.46 782.273C1098.49 784.87 1100.82 781.786 1105 775.493C1109.18 769.199 1110.37 760.658 1114.67 761.771C1118.97 762.885 1117.36 769.105 1117.54 774.314C1117.72 779.524 1115.7 789.324 1128.6 792.663C1141.51 796.003 1144.85 785.068 1146.75 779.663C1148.28 775.338 1150.93 773.37 1152.07 772.926L1154.39 763.941C1153.93 763.085 1150.25 760.655 1139.16 757.785C1125.3 754.198 1120.4 757.355 1116.28 755.551C1112.16 753.747 1111.38 752.808 1099.97 747.642Z" fill="black"/>
<path d="M1105.87 770.281C1109.93 762.482 1113.51 754.559 1098.39 749.909C1084.01 744.288 1084.89 750.84 1081.73 761.084C1078.57 771.328 1083.05 777.65 1090.7 779.629C1098.35 781.608 1101.81 778.08 1105.87 770.281Z" fill="url(#paint0_linear_602_444)"/>
<path d="M1119.42 773.789C1119.66 765.001 1120.37 756.336 1135.84 759.603C1151.15 761.665 1147.2 766.966 1144.99 777.457C1142.79 787.948 1135.8 791.302 1128.15 789.323C1120.51 787.344 1119.19 782.578 1119.42 773.789Z" fill="url(#paint1_linear_602_444)"/>
<path d="M1089 782.5L1111 765.5L1114.39 774.193L1102.63 790.281L1089 782.5Z" fill="#F1F1F1"/>
<path d="M1176 764L1153.41 764L1152 773L1172.12 771.941L1176 764Z" fill="black"/>
<path d="M344.412 882.34L351.977 880.625M347.341 884.137L353.953 882.458M349.811 886.429L356.405 884.273M351.787 888.261L358.381 886.106M355.191 890.041L361.786 887.885M357.644 891.856L364.238 889.7M358.703 894.677L365.298 892.521M361.65 896.95L368.244 894.795M363.662 899.735L371.208 897.544M367.542 901.496L373.661 899.359M368.584 903.841L376.113 901.174M371.989 905.62L379.041 902.971M373.983 907.93L381.017 904.804M376.471 910.697L383.011 907.113" stroke="#20CAAB" stroke-linecap="round"/>
<path d="M487.624 874.175L481.66 874.795M485.362 873.732L480.145 874.324M483.469 873.143L478.257 873.867M481.954 872.672L476.743 873.396M479.319 872.243L474.107 872.967M477.43 871.785L472.219 872.509M476.653 871.022L471.442 871.746M474.387 870.447L469.175 871.172M472.862 869.712L466.903 870.465M469.853 869.297L465.015 870.008M469.081 868.666L463.127 869.55M466.445 868.237L460.865 869.107M464.926 867.634L459.35 868.636M463.028 866.913L457.831 868.033" stroke="#20CAAB" stroke-linecap="round"/>
<path d="M457.814 867.586C457.814 867.586 361.185 876.147 350.53 880.203L382.553 907.607C382.553 907.607 461.829 877.13 484.8 875.154L457.814 867.586Z" fill="#20CAAB"/>
<path d="M486.319 774.067C486.478 773.254 485.948 772.466 485.135 772.307C484.322 772.147 483.534 772.677 483.375 773.49L486.319 774.067ZM463.647 889.788L486.319 774.067L483.375 773.49L460.703 889.212L463.647 889.788Z" fill="#4F4F4F"/>
<path fill-rule="evenodd" clip-rule="evenodd" d="M444.617 812.809L444.619 812.809C443.934 816.152 445.994 819.431 449.271 820.169C452.547 820.907 455.815 818.829 456.63 815.515L456.633 815.516C455.949 818.86 458.065 822.15 461.41 822.904C464.755 823.658 468.077 821.593 468.894 818.279L468.897 818.279C468.212 821.623 470.272 824.901 473.549 825.639C476.825 826.377 480.093 824.3 480.908 820.986L480.91 820.986C480.227 824.33 482.342 827.621 485.687 828.374C489.032 829.128 492.355 827.063 493.171 823.749L493.174 823.75C492.489 827.093 494.55 830.371 497.826 831.11C501.103 831.848 504.37 829.77 505.185 826.456L505.188 826.457C504.505 829.8 506.62 833.091 509.965 833.845C513.31 834.598 516.633 832.533 517.449 829.219L517.777 829.293C521.394 806.619 506.8 784.741 484.088 779.624C461.778 774.597 439.609 787.539 432.712 808.883C432.575 809.213 432.464 809.559 432.383 809.92C432.375 809.955 432.367 809.989 432.36 810.023L432.354 810.045L432.356 810.046C431.672 813.39 433.788 816.68 437.133 817.434C440.478 818.187 443.8 816.122 444.617 812.809Z" fill="#FF8DCB"/>
<circle cx="762" cy="789" r="15" fill="#FFE927"/>
<path fill-rule="evenodd" clip-rule="evenodd" d="M747.691 793.513C747.242 792.088 747 790.572 747 789C747 788.416 747.033 787.84 747.098 787.273C749.476 785.772 753.852 784 760 784C764.495 784 765.959 785.111 767.571 786.335C769.281 787.632 771.158 789.057 776.994 789.415C776.955 790.87 776.708 792.273 776.283 793.596C773.528 794.177 769.645 794.187 763.5 790.5C758.559 787.536 752.347 789.631 747.691 793.513Z" fill="#4FC0FF"/>
<path d="M689 925V799M791 891V790.5" stroke="#4F4F4F" stroke-width="4" stroke-linecap="round"/>
<path d="M787.597 845.708L812.044 832.312C814.665 830.876 817.977 831.812 819.443 834.402C819.522 834.542 819.594 834.684 819.66 834.83L825.911 848.624C827.139 851.332 825.912 854.499 823.172 855.699C823.024 855.764 822.874 855.821 822.721 855.873L796.237 864.776C791.042 866.522 785.338 864.062 783.092 859.106C780.846 854.15 782.8 848.337 787.597 845.708Z" fill="#F1F1F1"/>
<path d="M824.686 845.734L834.723 865.311C837.454 870.637 835.346 877.165 830.014 879.892C829.727 880.038 829.434 880.172 829.136 880.292L825.984 881.565C820.43 883.806 814.107 881.126 811.861 875.578C811.74 875.28 811.633 874.976 811.539 874.669L805.132 853.627C803.537 848.387 806.21 842.799 811.292 840.747C816.375 838.696 822.186 840.859 824.686 845.734Z" fill="#F1F1F1"/>
<path d="M829.9 865.175L862.125 869.698C871.024 870.947 877.226 879.164 875.979 888.052C874.732 896.941 866.506 903.133 857.608 901.884L825.382 897.362C816.484 896.113 810.281 887.895 811.528 879.007C812.776 870.119 821.001 863.926 829.9 865.175Z" fill="#F1F1F1"/>
<rect x="818.08" y="890.867" width="10.847" height="21.6682" transform="rotate(7.9892 818.08 890.867)" fill="#F1F1F1"/>
<rect x="854.333" y="895.955" width="10.847" height="21.6682" transform="rotate(7.9892 854.333 895.955)" fill="#F1F1F1"/>
<path d="M807.212 841.478C810.92 841.998 814.347 839.418 814.867 835.714C815.387 832.011 812.802 828.587 809.094 828.067C805.387 827.546 801.96 830.127 801.44 833.83C800.92 837.533 803.504 840.957 807.212 841.478Z" fill="white"/>
<path d="M817.953 842.985C821.661 843.506 825.088 840.925 825.608 837.222C826.128 833.519 823.543 830.095 819.836 829.574C816.128 829.054 812.701 831.634 812.181 835.338C811.661 839.041 814.246 842.465 817.953 842.985Z" fill="white"/>
<path d="M823.914 849.292C826.88 849.708 829.622 847.644 830.038 844.681C830.454 841.719 828.386 838.979 825.42 838.563C822.453 838.147 819.712 840.211 819.296 843.174C818.88 846.137 820.948 848.876 823.914 849.292Z" fill="white"/>
<path d="M804.79 868.488C808.498 869.009 811.925 866.428 812.445 862.725C812.965 859.022 810.38 855.598 806.673 855.077C802.965 854.557 799.538 857.137 799.018 860.841C798.498 864.544 801.083 867.968 804.79 868.488Z" fill="white"/>
<path d="M867.76 897.839C871.468 898.36 874.895 895.779 875.415 892.076C875.935 888.373 873.35 884.948 869.642 884.428C865.934 883.908 862.507 886.488 861.988 890.191C861.468 893.895 864.052 897.319 867.76 897.839Z" fill="white"/>
<path d="M860.294 902.261C864.743 902.886 868.856 899.79 869.479 895.345C870.103 890.901 867.002 886.793 862.552 886.168C858.103 885.544 853.99 888.64 853.367 893.084C852.743 897.528 855.844 901.637 860.294 902.261Z" fill="white"/>
<path d="M811.93 885.901C815.638 886.421 819.065 883.841 819.585 880.138C820.104 876.434 817.52 873.01 813.812 872.49C810.104 871.969 806.677 874.55 806.158 878.253C805.638 881.957 808.222 885.381 811.93 885.901Z" fill="white"/>
<path d="M814.264 898.536C818.714 899.161 822.826 896.064 823.45 891.62C824.074 887.176 820.972 883.067 816.523 882.443C812.074 881.818 807.961 884.915 807.337 889.359C806.714 893.803 809.815 897.912 814.264 898.536Z" fill="white"/>
<path d="M832.686 903.857C837.136 904.481 841.248 901.385 841.872 896.941C842.496 892.497 839.394 888.388 834.945 887.764C830.496 887.139 826.383 890.236 825.759 894.68C825.136 899.124 828.237 903.233 832.686 903.857Z" fill="white"/>
<path d="M847.833 903.248C851.541 903.768 854.968 901.188 855.488 897.484C856.008 893.781 853.423 890.357 849.716 889.837C846.008 889.316 842.581 891.897 842.061 895.6C841.541 899.303 844.125 902.727 847.833 903.248Z" fill="white"/>
<path d="M846.973 904.495C851.051 905.067 854.821 902.229 855.393 898.155C855.965 894.081 853.122 890.315 849.043 889.742C844.965 889.17 841.195 892.008 840.623 896.082C840.051 900.156 842.894 903.922 846.973 904.495Z" fill="white"/>
<path d="M879.631 891.3C883.339 891.821 886.766 889.24 887.286 885.537C887.806 881.833 885.221 878.409 881.513 877.889C877.806 877.369 874.378 879.949 873.859 883.652C873.339 887.356 875.923 890.78 879.631 891.3Z" fill="white"/>
<path d="M818.405 869.032C825.821 870.073 832.675 864.912 833.714 857.505C834.754 850.098 829.585 843.25 822.169 842.209C814.754 841.169 807.899 846.329 806.86 853.736C805.82 861.143 810.989 867.991 818.405 869.032Z" fill="white"/>
<path d="M826.914 896.209C834.329 897.25 841.184 892.089 842.223 884.682C843.263 877.276 838.094 870.427 830.678 869.387C823.263 868.346 816.408 873.507 815.369 880.913C814.329 888.32 819.498 895.168 826.914 896.209Z" fill="white"/>
<path d="M847.43 896.354C854.846 897.394 861.7 892.234 862.74 884.827C863.779 877.42 858.61 870.572 851.195 869.531C843.779 868.49 836.925 873.651 835.885 881.058C834.846 888.465 840.015 895.313 847.43 896.354Z" fill="white"/>
<path d="M866.392 888.075C872.325 888.907 877.808 884.779 878.64 878.853C879.471 872.928 875.336 867.449 869.404 866.617C863.471 865.784 857.988 869.913 857.156 875.838C856.325 881.763 860.46 887.242 866.392 888.075Z" fill="white"/>
<path d="M832.047 879.152C837.979 879.984 843.463 875.856 844.294 869.93C845.126 864.005 840.991 858.526 835.058 857.694C829.126 856.861 823.642 860.99 822.811 866.915C821.979 872.841 826.114 878.319 832.047 879.152Z" fill="white"/>
<path d="M816.523 882.443C822.456 883.276 827.939 879.147 828.771 873.222C829.602 867.296 825.467 861.818 819.535 860.985C813.602 860.153 808.119 864.281 807.287 870.206C806.456 876.132 810.591 881.61 816.523 882.443Z" fill="white"/>
<path d="M852.375 880.637C859.049 881.574 865.218 876.929 866.154 870.263C867.089 863.597 862.437 857.434 855.763 856.497C849.089 855.56 842.92 860.205 841.985 866.871C841.049 873.537 845.701 879.7 852.375 880.637Z" fill="white"/>
<path d="M799.933 844.559C802.9 844.975 805.641 842.911 806.057 839.948C806.473 836.985 804.405 834.246 801.439 833.83C798.473 833.414 795.731 835.478 795.315 838.441C794.9 841.403 796.967 844.142 799.933 844.559Z" fill="white"/>
<path d="M802.054 848.959C803.537 849.167 804.992 847.535 805.304 845.313C805.616 843.091 804.667 841.121 803.183 840.912C801.7 840.704 800.245 842.337 799.933 844.559C799.622 846.781 800.571 848.751 802.054 848.959Z" fill="#4F4F4F"/>
<path d="M786.231 853.796C786.893 854.147 787.856 853.629 788.383 852.638C788.91 851.648 788.801 850.56 788.14 850.209C787.478 849.858 786.515 850.376 785.988 851.367C785.461 852.358 785.57 853.445 786.231 853.796Z" fill="#4F4F4F"/>
</g>
<defs>
<linearGradient id="paint0_linear_602_444" x1="1098.56" y1="749.618" x2="1090.79" y2="779.652" gradientUnits="userSpaceOnUse">
<stop stop-color="#7D7D7D"/>
<stop offset="1" stop-color="#272626" stop-opacity="0"/>
</linearGradient>
<linearGradient id="paint1_linear_602_444" x1="1135.84" y1="759.267" x2="1128.07" y2="789.3" gradientUnits="userSpaceOnUse">
<stop stop-color="#7D7D7D"/>
<stop offset="1" stop-color="#272626" stop-opacity="0"/>
</linearGradient>
<clipPath id="clip0_602_444">
<rect width="1440" height="936" fill="white"/>
</clipPath>
</defs>
</svg>
