<svg width="1440" height="936" viewBox="0 0 1440 936" fill="none" xmlns="http://www.w3.org/2000/svg">
<g filter="url(#filter0_d_1308_668)">
<g clip-path="url(#clip0_1308_668)">
<rect width="1440" height="936" fill="#0C6B99"/>
<path fill-rule="evenodd" clip-rule="evenodd" d="M1420.1 379.825C1388.77 375.675 1358.35 380.711 1331.57 392.85C1332.2 335.04 1289.47 284.538 1230.57 276.737C1173.27 269.148 1120.21 304.597 1104.1 358.109C1096.86 354.211 1088.81 351.535 1080.17 350.392C1042.01 345.338 1006.96 372.118 1001.92 410.184C1000.02 424.518 1002.65 438.415 1008.7 450.442C924.079 445.042 848.58 505.948 837.308 591.054C825.541 679.894 888.213 761.494 977.273 773.289C1035.23 780.966 1090.1 757.189 1124.59 715.159C1134.6 761.744 1172.98 799.21 1223.04 805.84C1286.63 814.264 1345.03 769.673 1353.43 706.201C1353.85 703.049 1354.14 699.911 1354.3 696.791C1361.79 698.912 1369.54 700.522 1377.49 701.575C1466.57 713.374 1548.3 650.919 1560.07 562.06C1571.84 473.201 1509.18 391.623 1420.1 379.825Z" fill="url(#paint0_linear_1308_668)"/>
<path fill-rule="evenodd" clip-rule="evenodd" d="M153.517 216.612C131.916 213.751 110.941 217.223 92.4712 225.592C92.9064 185.733 63.4475 150.914 22.8358 145.535C-16.6701 140.302 -53.2539 164.744 -64.3604 201.639C-69.3518 198.952 -74.9066 197.107 -80.86 196.318C-107.17 192.834 -131.335 211.298 -134.811 237.544C-136.12 247.427 -134.309 257.009 -130.137 265.301C-188.482 261.578 -240.537 303.571 -248.309 362.25C-256.422 423.503 -213.211 479.764 -151.806 487.897C-111.845 493.19 -74.0165 476.796 -50.2336 447.818C-43.3349 479.937 -16.8691 505.769 17.6436 510.341C61.4923 516.148 101.753 485.404 107.549 441.641C107.837 439.468 108.034 437.305 108.144 435.153C113.313 436.616 118.652 437.726 124.135 438.452C185.553 446.587 241.905 403.526 250.02 342.259C258.135 280.993 214.935 224.746 153.517 216.612Z" fill="url(#paint1_linear_1308_668)"/>
<path fill-rule="evenodd" clip-rule="evenodd" d="M118.431 564.071C158.567 558.755 197.539 565.206 231.857 580.757C231.048 506.698 285.784 442.001 361.243 432.007C434.646 422.285 502.621 467.698 523.257 536.251C532.531 531.258 542.852 527.83 553.914 526.365C602.799 519.89 647.698 554.199 654.157 602.964C656.589 621.327 653.225 639.13 645.474 654.537C753.881 647.619 850.601 725.646 865.042 834.673C880.116 948.485 799.827 1053.02 685.735 1068.13C611.485 1077.97 541.198 1047.51 497.009 993.662C484.191 1053.34 435.016 1101.34 370.89 1109.83C289.417 1120.62 214.612 1063.5 203.842 982.186C203.307 978.149 202.94 974.128 202.736 970.131C193.131 972.849 183.213 974.911 173.024 976.26C58.9076 991.375 -45.7985 911.365 -60.8758 797.53C-75.9531 683.694 4.3141 579.186 118.431 564.071Z" fill="url(#paint2_linear_1308_668)"/>
<path d="M-118 936H452.213C452.213 936 418.78 931.002 330.972 922.737C243.164 914.472 201.332 900 111.222 900C21.1124 900 -118 936 -118 936Z" fill="#99C4DD"/>
<path d="M186.998 936H761C761 936 690.907 886.457 520.412 867.403C349.916 848.348 186.998 936 186.998 936Z" fill="#66A3C4"/>
<path d="M292.036 888L253 903.497C255.066 906.263 261.151 911.02 268.958 907.921C276.766 904.821 290.057 899.545 295.726 897.294" stroke="#2B2B2B" stroke-width="3"/>
<line x1="286.924" y1="890.029" x2="290.614" y2="899.323" stroke="#2B2B2B" stroke-width="3"/>
<line x1="268.336" y1="897.409" x2="272.026" y2="906.703" stroke="#2B2B2B" stroke-width="3"/>
<path d="M254.243 883.262L258.318 876.577C258.755 875.86 259.692 875.624 260.412 876.05C260.45 876.072 260.488 876.097 260.524 876.123L263.978 878.606C264.656 879.093 264.801 880.036 264.302 880.712C264.275 880.748 264.246 880.783 264.217 880.817L259.016 886.693C257.996 887.846 256.263 888.046 255.022 887.154C253.782 886.262 253.443 884.573 254.243 883.262Z" fill="#F1F1F1"/>
<path d="M263.275 878.074L268.46 881.434C269.871 882.348 270.272 884.232 269.356 885.642C269.307 885.718 269.254 885.792 269.198 885.863L268.609 886.614C267.571 887.938 265.657 888.171 264.333 887.135C264.262 887.079 264.193 887.02 264.127 886.958L259.621 882.733C258.499 881.681 258.366 879.947 259.316 878.736C260.266 877.524 261.984 877.237 263.275 878.074Z" fill="#F1F1F1"/>
<path d="M267.267 882.076L275.745 878.664C278.086 877.721 280.747 878.853 281.688 881.191C282.629 883.53 281.494 886.189 279.153 887.131L270.675 890.543C268.334 891.486 265.673 890.354 264.732 888.016C263.791 885.677 264.926 883.018 267.267 882.076Z" fill="#F1F1F1"/>
<rect x="267.987" y="889.985" width="3.04626" height="6.08524" transform="rotate(-21.9232 267.987 889.985)" fill="#F1F1F1"/>
<rect x="277.525" y="886.147" width="3.04626" height="6.08524" transform="rotate(-21.9232 277.525 886.147)" fill="#F1F1F1"/>
<path d="M258.425 879.485C259.401 879.092 259.874 877.984 259.481 877.01C259.089 876.036 257.981 875.564 257.005 875.957C256.03 876.349 255.557 877.457 255.949 878.432C256.341 879.406 257.45 879.877 258.425 879.485Z" fill="white"/>
<path d="M261.251 878.348C262.227 877.955 262.7 876.847 262.307 875.873C261.915 874.898 260.807 874.427 259.831 874.819C258.856 875.212 258.383 876.32 258.775 877.294C259.167 878.269 260.276 878.74 261.251 878.348Z" fill="white"/>
<path d="M263.585 879.048C264.365 878.734 264.744 877.847 264.43 877.068C264.116 876.288 263.229 875.911 262.449 876.225C261.669 876.539 261.29 877.426 261.604 878.205C261.918 878.985 262.805 879.362 263.585 879.048Z" fill="white"/>
<path d="M261.619 886.399C262.594 886.007 263.067 884.899 262.675 883.924C262.283 882.95 261.174 882.479 260.199 882.871C259.223 883.264 258.75 884.372 259.142 885.346C259.535 886.32 260.643 886.792 261.619 886.399Z" fill="white"/>
<path d="M281.058 884.725C282.033 884.333 282.506 883.224 282.114 882.25C281.722 881.276 280.613 880.804 279.638 881.197C278.662 881.589 278.189 882.698 278.581 883.672C278.973 884.646 280.082 885.118 281.058 884.725Z" fill="white"/>
<path d="M279.859 886.847C281.03 886.376 281.597 885.046 281.127 883.877C280.656 882.708 279.326 882.142 278.155 882.613C276.985 883.084 276.417 884.414 276.888 885.583C277.358 886.752 278.689 887.318 279.859 886.847Z" fill="white"/>
<path d="M265.795 889.638C266.771 889.246 267.244 888.138 266.852 887.163C266.459 886.189 265.351 885.717 264.375 886.11C263.4 886.503 262.927 887.611 263.319 888.585C263.711 889.559 264.82 890.031 265.795 889.638Z" fill="white"/>
<path d="M268.133 892.387C269.303 891.916 269.871 890.586 269.4 889.417C268.93 888.248 267.599 887.682 266.429 888.153C265.258 888.624 264.691 889.954 265.161 891.123C265.632 892.292 266.962 892.858 268.133 892.387Z" fill="white"/>
<path d="M273.362 891.102C274.533 890.631 275.1 889.301 274.63 888.132C274.159 886.963 272.829 886.397 271.658 886.868C270.488 887.339 269.92 888.669 270.391 889.838C270.861 891.007 272.192 891.573 273.362 891.102Z" fill="white"/>
<path d="M276.964 888.833C277.94 888.44 278.412 887.332 278.02 886.358C277.628 885.383 276.52 884.912 275.544 885.304C274.569 885.697 274.096 886.805 274.488 887.779C274.88 888.754 275.989 889.225 276.964 888.833Z" fill="white"/>
<path d="M276.93 889.256C278.003 888.825 278.523 887.606 278.092 886.534C277.66 885.462 276.441 884.943 275.368 885.375C274.295 885.807 273.774 887.026 274.206 888.098C274.637 889.169 275.857 889.688 276.93 889.256Z" fill="white"/>
<path d="M283.031 881.471C284.007 881.078 284.48 879.97 284.088 878.996C283.696 878.021 282.587 877.55 281.611 877.942C280.636 878.335 280.163 879.443 280.555 880.417C280.947 881.392 282.056 881.863 283.031 881.471Z" fill="white"/>
<path d="M265.009 884.625C266.96 883.839 267.905 881.623 267.121 879.675C266.337 877.726 264.12 876.783 262.169 877.568C260.218 878.353 259.272 880.569 260.056 882.518C260.84 884.467 263.058 885.41 265.009 884.625Z" fill="white"/>
<path d="M270.886 890.049C272.837 889.264 273.783 887.047 272.999 885.099C272.214 883.15 269.997 882.207 268.046 882.992C266.095 883.778 265.149 885.994 265.934 887.942C266.718 889.891 268.935 890.834 270.886 890.049Z" fill="white"/>
<path d="M275.901 887.21C277.851 886.425 278.797 884.209 278.013 882.261C277.229 880.312 275.011 879.369 273.061 880.154C271.11 880.939 270.164 883.155 270.948 885.104C271.732 887.053 273.95 887.996 275.901 887.21Z" fill="white"/>
<path d="M279.357 882.54C280.918 881.912 281.674 880.139 281.047 878.58C280.419 877.021 278.645 876.267 277.085 876.895C275.524 877.523 274.767 879.296 275.395 880.855C276.022 882.414 277.796 883.168 279.357 882.54Z" fill="white"/>
<path d="M269.747 885.178C271.307 884.55 272.064 882.777 271.437 881.218C270.809 879.659 269.035 878.904 267.475 879.533C265.914 880.161 265.157 881.934 265.785 883.493C266.412 885.051 268.186 885.806 269.747 885.178Z" fill="white"/>
<path d="M266.429 888.153C267.99 887.525 268.746 885.752 268.119 884.193C267.492 882.634 265.718 881.88 264.157 882.508C262.596 883.136 261.84 884.909 262.467 886.468C263.094 888.026 264.868 888.781 266.429 888.153Z" fill="white"/>
<path d="M274.903 882.692C276.659 881.986 277.51 879.991 276.804 878.237C276.099 876.484 274.103 875.635 272.347 876.342C270.591 877.048 269.74 879.043 270.446 880.797C271.152 882.55 273.147 883.399 274.903 882.692Z" fill="white"/>
<path d="M257.085 881.254C257.865 880.94 258.244 880.054 257.93 879.274C257.616 878.495 256.729 878.118 255.949 878.432C255.169 878.746 254.79 879.632 255.104 880.412C255.418 881.191 256.305 881.568 257.085 881.254Z" fill="white"/>
<path d="M258.218 882.028C258.608 881.871 258.733 881.27 258.498 880.686C258.263 880.101 257.756 879.754 257.366 879.911C256.975 880.068 256.85 880.67 257.085 881.254C257.32 881.839 257.827 882.185 258.218 882.028Z" fill="#4F4F4F"/>
<path d="M255.043 885.422C255.253 885.414 255.415 885.153 255.405 884.838C255.394 884.523 255.215 884.274 255.005 884.281C254.795 884.288 254.633 884.549 254.644 884.864C254.654 885.179 254.833 885.429 255.043 885.422Z" fill="#4F4F4F"/>
<path d="M259.101 875.586C261.21 875.002 262.919 874.528 262.919 874.528C262.334 872.419 260.151 871.184 258.042 871.769C255.934 872.353 254.699 874.536 255.283 876.645C255.283 876.645 256.992 876.171 259.101 875.586Z" fill="#FFAA33"/>
<path d="M255.208 876.702C256.372 875.747 256.758 875.519 258.085 875.151C259.411 874.784 261.678 874.276 263.167 874.495C263.678 874.571 264.093 874.932 264.228 875.42L264.359 875.893C264.48 876.327 264.217 876.779 263.772 876.902C263.667 876.932 263.558 876.94 263.449 876.928C262.11 876.778 259.979 877.303 258.774 877.637C257.569 877.971 257.29 878.114 256.219 878.933C255.854 879.212 255.33 879.151 255.049 878.797C254.983 878.713 254.934 878.617 254.906 878.514L254.775 878.041C254.639 877.553 254.809 877.03 255.208 876.702Z" fill="#2CBEBE"/>
<path d="M258.407 872.568C259.11 872.373 259.522 871.646 259.327 870.943C259.132 870.24 258.404 869.828 257.702 870.023C256.999 870.218 256.587 870.946 256.782 871.649C256.977 872.351 257.704 872.763 258.407 872.568Z" fill="#2CBEBE"/>
<path d="M265.287 877.085C263.022 879.56 261.928 885.063 261.385 887.366C261.481 887.607 262.398 888.164 263.637 888.246C267.152 883.884 268.244 880.269 268.475 879.041C268.475 879.041 267.321 878.143 265.287 877.085Z" fill="#2CBEBE"/>
<path d="M267.226 874.944C265.072 876.101 265.603 878.089 266.138 878.939C266.641 879.001 267.903 878.92 268.917 878.093C270.185 877.06 270.987 877.569 272.441 876.553C273.604 875.741 274.179 874.17 274.321 873.486C274.36 873.23 273.757 872.413 271.033 871.195C270.388 873.716 269.553 873.695 267.226 874.944Z" fill="#2CBEBE"/>
<line x1="0.35" y1="-0.35" x2="1.41419" y2="-0.35" transform="matrix(0.366954 -0.930239 -0.930239 -0.366954 270.86 871.641)" stroke="#2CBEBE" stroke-width="0.7" stroke-linecap="round"/>
<line x1="0.35" y1="-0.35" x2="1.28801" y2="-0.35" transform="matrix(0.455064 -0.890459 -0.890459 -0.455064 271.562 871.852)" stroke="#2CBEBE" stroke-width="0.7" stroke-linecap="round"/>
<line x1="0.35" y1="-0.35" x2="1.32045" y2="-0.35" transform="matrix(0.530205 -0.847869 -0.847869 -0.530205 272.221 872.204)" stroke="#2CBEBE" stroke-width="0.7" stroke-linecap="round"/>
<line x1="0.35" y1="-0.35" x2="1.36483" y2="-0.35" transform="matrix(0.598287 -0.801282 -0.801282 -0.598287 272.838 872.695)" stroke="#2CBEBE" stroke-width="0.7" stroke-linecap="round"/>
<line x1="0.35" y1="-0.35" x2="1.32366" y2="-0.35" transform="matrix(0.64229 -0.766462 -0.766462 -0.64229 273.455 873.188)" stroke="#2CBEBE" stroke-width="0.7" stroke-linecap="round"/>
<path d="M425 936H1250.16C1250.16 936 1201.77 928.78 1074.71 916.842C947.64 904.904 887.104 884 756.707 884C626.309 884 425 936 425 936Z" fill="#99C4DD"/>
<path d="M866.362 936H1697C1697 936 1595.57 864.439 1348.84 836.915C1102.12 809.391 866.362 936 866.362 936Z" fill="#66A3C4"/>
<path d="M1097.27 778.684L1162.38 730.069C1169.36 724.858 1179.29 726.219 1184.57 733.108C1184.86 733.478 1185.12 733.861 1185.37 734.255L1208.99 771.571C1213.63 778.897 1211.37 788.545 1203.95 793.123C1203.55 793.369 1203.14 793.597 1202.72 793.807L1129.92 830.267C1115.64 837.419 1098.19 832.625 1089.7 819.217C1081.22 805.808 1084.5 788.222 1097.27 778.684Z" fill="#F1F1F1"/>
<path d="M1204.29 763.72L1241.17 816.207C1251.21 830.488 1247.77 850.203 1233.49 860.24C1232.72 860.78 1231.93 861.285 1231.12 861.754L1222.54 866.708C1207.42 875.436 1188.1 870.256 1179.37 855.139C1178.9 854.327 1178.47 853.494 1178.08 852.642L1151.07 794.45C1144.35 779.959 1149.79 762.731 1163.63 754.743C1177.46 746.755 1195.1 750.65 1204.29 763.72Z" fill="#F1F1F1"/>
<path d="M1227.2 817.771H1322C1348.18 817.771 1369.4 838.997 1369.4 865.18C1369.4 891.364 1348.18 912.59 1322 912.59H1227.2C1201.02 912.59 1179.8 891.364 1179.8 865.18C1179.8 838.997 1201.02 817.771 1227.2 817.771Z" fill="#F1F1F1"/>
<rect x="1203.5" y="896.787" width="31.6" height="63.2131" fill="#F1F1F1"/>
<rect x="1310.15" y="896.787" width="31.6" height="63.2131" fill="#F1F1F1"/>
<path d="M1152.15 758.508C1163.06 758.508 1171.9 749.664 1171.9 738.754C1171.9 727.844 1163.06 719 1152.15 719C1141.24 719 1132.4 727.844 1132.4 738.754C1132.4 749.664 1141.24 758.508 1152.15 758.508Z" fill="white"/>
<path d="M1183.75 758.508C1194.66 758.508 1203.5 749.664 1203.5 738.754C1203.5 727.844 1194.66 719 1183.75 719C1172.84 719 1164 727.844 1164 738.754C1164 749.664 1172.84 758.508 1183.75 758.508Z" fill="white"/>
<path d="M1203.5 774.312C1212.23 774.312 1219.3 767.236 1219.3 758.508C1219.3 749.78 1212.23 742.705 1203.5 742.705C1194.77 742.705 1187.7 749.78 1187.7 758.508C1187.7 767.236 1194.77 774.312 1203.5 774.312Z" fill="white"/>
<path d="M1156.1 837.525C1167.01 837.525 1175.85 828.681 1175.85 817.771C1175.85 806.861 1167.01 798.017 1156.1 798.017C1145.19 798.017 1136.35 806.861 1136.35 817.771C1136.35 828.681 1145.19 837.525 1156.1 837.525Z" fill="white"/>
<path d="M1349.65 896.787C1360.56 896.787 1369.4 887.943 1369.4 877.033C1369.4 866.123 1360.56 857.279 1349.65 857.279C1338.74 857.279 1329.9 866.123 1329.9 877.033C1329.9 887.943 1338.74 896.787 1349.65 896.787Z" fill="white"/>
<path d="M1329.9 912.59C1342.99 912.59 1353.6 901.977 1353.6 888.885C1353.6 875.793 1342.99 865.18 1329.9 865.18C1316.81 865.18 1306.2 875.793 1306.2 888.885C1306.2 901.977 1316.81 912.59 1329.9 912.59Z" fill="white"/>
<path d="M1183.75 884.934C1194.66 884.934 1203.5 876.09 1203.5 865.18C1203.5 854.27 1194.66 845.426 1183.75 845.426C1172.84 845.426 1164 854.27 1164 865.18C1164 876.09 1172.84 884.934 1183.75 884.934Z" fill="white"/>
<path d="M1195.6 920.492C1208.69 920.492 1219.3 909.879 1219.3 896.787C1219.3 883.695 1208.69 873.082 1195.6 873.082C1182.51 873.082 1171.9 883.695 1171.9 896.787C1171.9 909.879 1182.51 920.492 1195.6 920.492Z" fill="white"/>
<path d="M1250.9 928.393C1263.99 928.393 1274.6 917.78 1274.6 904.688C1274.6 891.596 1263.99 880.983 1250.9 880.983C1237.81 880.983 1227.2 891.596 1227.2 904.688C1227.2 917.78 1237.81 928.393 1250.9 928.393Z" fill="white"/>
<path d="M1294.35 920.492C1305.26 920.492 1314.1 911.647 1314.1 900.738C1314.1 889.828 1305.26 880.983 1294.35 880.983C1283.44 880.983 1274.6 889.828 1274.6 900.738C1274.6 911.647 1283.44 920.492 1294.35 920.492Z" fill="white"/>
<path d="M1292.37 924.442C1304.37 924.442 1314.1 914.714 1314.1 902.713C1314.1 890.712 1304.37 880.983 1292.37 880.983C1280.38 880.983 1270.65 890.712 1270.65 902.713C1270.65 914.714 1280.38 924.442 1292.37 924.442Z" fill="white"/>
<path d="M1381.25 873.082C1392.16 873.082 1401 864.238 1401 853.328C1401 842.418 1392.16 833.574 1381.25 833.574C1370.34 833.574 1361.5 842.418 1361.5 853.328C1361.5 864.238 1370.34 873.082 1381.25 873.082Z" fill="white"/>
<path d="M1195.6 833.574C1217.42 833.574 1235.1 815.886 1235.1 794.066C1235.1 772.246 1217.42 754.558 1195.6 754.558C1173.78 754.558 1156.1 772.246 1156.1 794.066C1156.1 815.886 1173.78 833.574 1195.6 833.574Z" fill="white"/>
<path d="M1231.15 908.639C1252.97 908.639 1270.65 890.951 1270.65 869.131C1270.65 847.311 1252.97 829.623 1231.15 829.623C1209.33 829.623 1191.65 847.311 1191.65 869.131C1191.65 890.951 1209.33 908.639 1231.15 908.639Z" fill="white"/>
<path d="M1290.4 900.738C1312.22 900.738 1329.9 883.049 1329.9 861.229C1329.9 839.41 1312.22 821.721 1290.4 821.721C1268.58 821.721 1250.9 839.41 1250.9 861.229C1250.9 883.049 1268.58 900.738 1290.4 900.738Z" fill="white"/>
<path d="M1341.75 869.131C1359.2 869.131 1373.35 854.98 1373.35 837.525C1373.35 820.069 1359.2 805.918 1341.75 805.918C1324.3 805.918 1310.15 820.069 1310.15 837.525C1310.15 854.98 1324.3 869.131 1341.75 869.131Z" fill="white"/>
<path d="M1239.05 857.279C1256.5 857.279 1270.65 843.128 1270.65 825.672C1270.65 808.216 1256.5 794.065 1239.05 794.065C1221.6 794.065 1207.45 808.216 1207.45 825.672C1207.45 843.128 1221.6 857.279 1239.05 857.279Z" fill="white"/>
<path d="M1195.6 873.082C1213.05 873.082 1227.2 858.931 1227.2 841.475C1227.2 824.019 1213.05 809.869 1195.6 809.869C1178.15 809.869 1164 824.019 1164 841.475C1164 858.931 1178.15 873.082 1195.6 873.082Z" fill="white"/>
<path d="M1298.3 853.328C1317.93 853.328 1333.85 837.408 1333.85 817.77C1333.85 798.132 1317.93 782.213 1298.3 782.213C1278.67 782.213 1262.75 798.132 1262.75 817.77C1262.75 837.408 1278.67 853.328 1298.3 853.328Z" fill="white"/>
<path d="M1132.4 770.36C1141.13 770.36 1148.2 763.285 1148.2 754.557C1148.2 745.829 1141.13 738.754 1132.4 738.754C1123.67 738.754 1116.6 745.829 1116.6 754.557C1116.6 763.285 1123.67 770.36 1132.4 770.36Z" fill="white"/>
<path d="M1140.3 782.213C1144.66 782.213 1148.2 776.907 1148.2 770.361C1148.2 763.815 1144.66 758.508 1140.3 758.508C1135.94 758.508 1132.4 763.815 1132.4 770.361C1132.4 776.907 1135.94 782.213 1140.3 782.213Z" fill="#4F4F4F"/>
<path d="M1096.61 802.604C1098.66 803.35 1101.23 801.462 1102.35 798.386C1103.47 795.311 1102.71 792.212 1100.66 791.466C1098.61 790.72 1096.05 792.608 1094.93 795.684C1093.81 798.759 1094.56 801.857 1096.61 802.604Z" fill="#4F4F4F"/>
<path d="M1174 719.284C1194.99 721.648 1212.01 723.564 1212.01 723.564C1214.37 702.576 1199.27 683.645 1178.28 681.281C1157.3 678.916 1138.36 694.015 1136 715.003C1136 715.003 1153.01 716.92 1174 719.284Z" fill="#A553CC"/>
<path d="M1135.12 715.244C1148.98 710.885 1153.26 710.239 1166.47 711.726C1179.67 713.214 1201.8 716.834 1214.35 724.168C1218.65 726.683 1221.06 731.418 1220.52 736.275L1219.99 740.981C1219.5 745.303 1215.52 748.404 1211.09 747.905C1210.04 747.787 1209.03 747.47 1208.1 746.972C1196.65 740.796 1175.68 737.823 1163.68 736.471C1151.69 735.12 1148.67 735.391 1136.13 738.865C1131.85 740.05 1127.39 737.617 1126.15 733.43C1125.86 732.439 1125.77 731.404 1125.88 730.381L1126.41 725.675C1126.96 720.819 1130.36 716.739 1135.12 715.244Z" fill="#FFAA33"/>
<path d="M1178.67 689.762C1185.66 690.55 1191.97 685.518 1192.76 678.521C1193.55 671.525 1188.52 665.215 1181.52 664.427C1174.53 663.639 1168.21 668.672 1167.43 675.668C1166.64 682.664 1171.67 688.974 1178.67 689.762Z" fill="#FFAA33"/>
<path d="M781.907 880.116L797.327 868.618C798.98 867.385 801.333 867.707 802.583 869.337C802.65 869.424 802.714 869.515 802.773 869.608L808.367 878.434C809.465 880.166 808.93 882.448 807.173 883.531C807.079 883.589 806.982 883.643 806.882 883.693L789.64 892.316C786.257 894.008 782.124 892.874 780.114 889.702C778.104 886.531 778.882 882.372 781.907 880.116Z" fill="#F1F1F1"/>
<path d="M807.253 876.577L815.988 888.991C818.365 892.369 817.551 897.032 814.169 899.406C813.987 899.533 813.8 899.653 813.607 899.764L811.576 900.935C807.996 903 803.418 901.775 801.352 898.199C801.241 898.007 801.138 897.81 801.045 897.609L794.649 883.845C793.056 880.418 794.347 876.343 797.623 874.454C800.899 872.565 805.077 873.486 807.253 876.577Z" fill="#F1F1F1"/>
<path d="M812.68 889.361H835.133C841.333 889.361 846.359 894.381 846.359 900.574C846.359 906.767 841.333 911.787 835.133 911.787H812.68C806.479 911.787 801.453 906.767 801.453 900.574C801.453 894.381 806.479 889.361 812.68 889.361Z" fill="#F1F1F1"/>
<rect x="807.066" y="908.049" width="7.48435" height="14.9508" fill="#F1F1F1"/>
<rect x="832.326" y="908.049" width="7.48435" height="14.9508" fill="#F1F1F1"/>
<path d="M794.904 875.344C797.488 875.344 799.582 873.252 799.582 870.672C799.582 868.092 797.488 866 794.904 866C792.321 866 790.227 868.092 790.227 870.672C790.227 873.252 792.321 875.344 794.904 875.344Z" fill="white"/>
<path d="M802.389 875.344C804.972 875.344 807.066 873.252 807.066 870.672C807.066 868.092 804.972 866 802.389 866C799.805 866 797.711 868.092 797.711 870.672C797.711 873.252 799.805 875.344 802.389 875.344Z" fill="white"/>
<path d="M807.066 879.082C809.133 879.082 810.809 877.408 810.809 875.344C810.809 873.28 809.133 871.606 807.066 871.606C805 871.606 803.324 873.28 803.324 875.344C803.324 877.408 805 879.082 807.066 879.082Z" fill="white"/>
<path d="M795.84 894.033C798.423 894.033 800.518 891.941 800.518 889.361C800.518 886.78 798.423 884.688 795.84 884.688C793.256 884.688 791.162 886.78 791.162 889.361C791.162 891.941 793.256 894.033 795.84 894.033Z" fill="white"/>
<path d="M841.681 908.049C844.265 908.049 846.359 905.958 846.359 903.377C846.359 900.797 844.265 898.705 841.681 898.705C839.098 898.705 837.004 900.797 837.004 903.377C837.004 905.958 839.098 908.049 841.681 908.049Z" fill="white"/>
<path d="M837.004 911.787C840.104 911.787 842.617 909.277 842.617 906.18C842.617 903.084 840.104 900.574 837.004 900.574C833.904 900.574 831.39 903.084 831.39 906.18C831.39 909.277 833.904 911.787 837.004 911.787Z" fill="white"/>
<path d="M802.389 905.246C804.972 905.246 807.066 903.154 807.066 900.574C807.066 897.994 804.972 895.902 802.389 895.902C799.805 895.902 797.711 897.994 797.711 900.574C797.711 903.154 799.805 905.246 802.389 905.246Z" fill="white"/>
<path d="M805.195 913.655C808.295 913.655 810.809 911.145 810.809 908.049C810.809 904.953 808.295 902.442 805.195 902.442C802.095 902.442 799.582 904.953 799.582 908.049C799.582 911.145 802.095 913.655 805.195 913.655Z" fill="white"/>
<path d="M818.293 915.525C821.393 915.525 823.906 913.014 823.906 909.918C823.906 906.822 821.393 904.312 818.293 904.312C815.193 904.312 812.68 906.822 812.68 909.918C812.68 913.014 815.193 915.525 818.293 915.525Z" fill="white"/>
<path d="M828.584 913.656C831.167 913.656 833.261 911.564 833.261 908.984C833.261 906.403 831.167 904.312 828.584 904.312C826 904.312 823.906 906.403 823.906 908.984C823.906 911.564 826 913.656 828.584 913.656Z" fill="white"/>
<path d="M828.116 914.59C830.958 914.59 833.261 912.289 833.261 909.451C833.261 906.612 830.958 904.312 828.116 904.312C825.274 904.312 822.97 906.612 822.97 909.451C822.97 912.289 825.274 914.59 828.116 914.59Z" fill="white"/>
<path d="M849.166 902.442C851.749 902.442 853.843 900.351 853.843 897.77C853.843 895.19 851.749 893.098 849.166 893.098C846.582 893.098 844.488 895.19 844.488 897.77C844.488 900.351 846.582 902.442 849.166 902.442Z" fill="white"/>
<path d="M805.195 893.098C810.362 893.098 814.551 888.915 814.551 883.754C814.551 878.593 810.362 874.41 805.195 874.41C800.028 874.41 795.84 878.593 795.84 883.754C795.84 888.915 800.028 893.098 805.195 893.098Z" fill="white"/>
<path d="M813.615 910.853C818.782 910.853 822.971 906.669 822.971 901.508C822.971 896.348 818.782 892.164 813.615 892.164C808.448 892.164 804.26 896.348 804.26 901.508C804.26 906.669 808.448 910.853 813.615 910.853Z" fill="white"/>
<path d="M827.648 908.983C832.815 908.983 837.004 904.8 837.004 899.639C837.004 894.478 832.815 890.295 827.648 890.295C822.481 890.295 818.293 894.478 818.293 899.639C818.293 904.8 822.481 908.983 827.648 908.983Z" fill="white"/>
<path d="M839.81 901.508C843.944 901.508 847.295 898.162 847.295 894.033C847.295 889.904 843.944 886.558 839.81 886.558C835.677 886.558 832.326 889.904 832.326 894.033C832.326 898.162 835.677 901.508 839.81 901.508Z" fill="white"/>
<path d="M815.486 898.705C819.62 898.705 822.971 895.358 822.971 891.229C822.971 887.101 819.62 883.754 815.486 883.754C811.353 883.754 808.002 887.101 808.002 891.229C808.002 895.358 811.353 898.705 815.486 898.705Z" fill="white"/>
<path d="M805.195 902.443C809.329 902.443 812.68 899.096 812.68 894.967C812.68 890.839 809.329 887.492 805.195 887.492C801.062 887.492 797.711 890.839 797.711 894.967C797.711 899.096 801.062 902.443 805.195 902.443Z" fill="white"/>
<path d="M829.519 897.77C834.169 897.77 837.939 894.005 837.939 889.361C837.939 884.716 834.169 880.951 829.519 880.951C824.869 880.951 821.099 884.716 821.099 889.361C821.099 894.005 824.869 897.77 829.519 897.77Z" fill="white"/>
<path d="M790.227 878.148C792.293 878.148 793.969 876.474 793.969 874.41C793.969 872.346 792.293 870.672 790.227 870.672C788.16 870.672 786.484 872.346 786.484 874.41C786.484 876.474 788.16 878.148 790.227 878.148Z" fill="white"/>
<path d="M792.098 880.951C793.131 880.951 793.969 879.696 793.969 878.148C793.969 876.599 793.131 875.344 792.098 875.344C791.064 875.344 790.227 876.599 790.227 878.148C790.227 879.696 791.064 880.951 792.098 880.951Z" fill="#4F4F4F"/>
<path d="M781.75 885.774C782.236 885.95 782.844 885.504 783.109 884.776C783.374 884.049 783.196 883.316 782.71 883.139C782.225 882.963 781.616 883.41 781.351 884.137C781.086 884.864 781.265 885.597 781.75 885.774Z" fill="#4F4F4F"/>
<path d="M695.385 880.925L686.728 874.47C685.801 873.778 684.479 873.959 683.778 874.873C683.74 874.923 683.704 874.973 683.671 875.026L680.531 879.981C679.914 880.953 680.214 882.234 681.201 882.842C681.254 882.875 681.308 882.905 681.364 882.933L691.044 887.774C692.943 888.724 695.264 888.087 696.392 886.307C697.521 884.527 697.084 882.191 695.385 880.925Z" fill="#F1F1F1"/>
<path d="M681.156 878.938L676.252 885.907C674.918 887.803 675.375 890.421 677.273 891.754C677.375 891.826 677.481 891.893 677.589 891.955L678.729 892.613C680.739 893.772 683.309 893.084 684.469 891.077C684.531 890.969 684.589 890.858 684.641 890.745L688.232 883.018C689.126 881.094 688.402 878.807 686.562 877.746C684.723 876.685 682.377 877.203 681.156 878.938Z" fill="#F1F1F1"/>
<path d="M678.11 886.115H665.504C662.023 886.115 659.202 888.933 659.202 892.41C659.202 895.887 662.023 898.705 665.504 898.705H678.11C681.59 898.705 684.412 895.887 684.412 892.41C684.412 888.933 681.59 886.115 678.11 886.115Z" fill="#F1F1F1"/>
<rect width="4.20174" height="8.39344" transform="matrix(-1 0 0 1 681.261 896.606)" fill="#F1F1F1"/>
<rect width="4.20174" height="8.39344" transform="matrix(-1 0 0 1 667.08 896.606)" fill="#F1F1F1"/>
<path d="M688.089 878.246C686.638 878.246 685.462 877.072 685.462 875.623C685.462 874.174 686.638 873 688.089 873C689.539 873 690.715 874.174 690.715 875.623C690.715 877.072 689.539 878.246 688.089 878.246Z" fill="white"/>
<path d="M683.887 878.246C682.437 878.246 681.261 877.072 681.261 875.623C681.261 874.174 682.437 873 683.887 873C685.337 873 686.513 874.174 686.513 875.623C686.513 877.072 685.337 878.246 683.887 878.246Z" fill="white"/>
<path d="M681.261 880.344C680.101 880.344 679.16 879.405 679.16 878.246C679.16 877.087 680.101 876.147 681.261 876.147C682.421 876.147 683.362 877.087 683.362 878.246C683.362 879.405 682.421 880.344 681.261 880.344Z" fill="white"/>
<path d="M687.563 888.738C686.113 888.738 684.937 887.563 684.937 886.115C684.937 884.666 686.113 883.492 687.563 883.492C689.014 883.492 690.189 884.666 690.189 886.115C690.189 887.563 689.014 888.738 687.563 888.738Z" fill="white"/>
<path d="M661.828 896.607C660.377 896.607 659.202 895.432 659.202 893.984C659.202 892.535 660.377 891.361 661.828 891.361C663.278 891.361 664.454 892.535 664.454 893.984C664.454 895.432 663.278 896.607 661.828 896.607Z" fill="white"/>
<path d="M664.454 898.705C662.714 898.705 661.303 897.296 661.303 895.557C661.303 893.819 662.714 892.41 664.454 892.41C666.194 892.41 667.605 893.819 667.605 895.557C667.605 897.296 666.194 898.705 664.454 898.705Z" fill="white"/>
<path d="M683.887 895.033C682.437 895.033 681.261 893.859 681.261 892.41C681.261 890.961 682.437 889.787 683.887 889.787C685.337 889.787 686.513 890.961 686.513 892.41C686.513 893.859 685.337 895.033 683.887 895.033Z" fill="white"/>
<path d="M682.311 899.754C680.571 899.754 679.16 898.345 679.16 896.607C679.16 894.868 680.571 893.459 682.311 893.459C684.052 893.459 685.463 894.868 685.463 896.607C685.463 898.345 684.052 899.754 682.311 899.754Z" fill="white"/>
<path d="M674.958 900.803C673.218 900.803 671.807 899.394 671.807 897.656C671.807 895.918 673.218 894.508 674.958 894.508C676.699 894.508 678.11 895.918 678.11 897.656C678.11 899.394 676.699 900.803 674.958 900.803Z" fill="white"/>
<path d="M669.181 899.754C667.73 899.754 666.555 898.58 666.555 897.131C666.555 895.683 667.73 894.508 669.181 894.508C670.631 894.508 671.807 895.683 671.807 897.131C671.807 898.58 670.631 899.754 669.181 899.754Z" fill="white"/>
<path d="M669.443 900.279C667.848 900.279 666.555 898.987 666.555 897.394C666.555 895.8 667.848 894.508 669.443 894.508C671.039 894.508 672.332 895.8 672.332 897.394C672.332 898.987 671.039 900.279 669.443 900.279Z" fill="white"/>
<path d="M657.626 893.459C656.176 893.459 655 892.284 655 890.836C655 889.387 656.176 888.213 657.626 888.213C659.076 888.213 660.252 889.387 660.252 890.836C660.252 892.284 659.076 893.459 657.626 893.459Z" fill="white"/>
<path d="M682.311 888.213C679.411 888.213 677.059 885.864 677.059 882.967C677.059 880.07 679.411 877.721 682.311 877.721C685.212 877.721 687.563 880.07 687.563 882.967C687.563 885.864 685.212 888.213 682.311 888.213Z" fill="white"/>
<path d="M677.584 898.18C674.684 898.18 672.332 895.832 672.332 892.934C672.332 890.037 674.684 887.688 677.584 887.688C680.485 887.688 682.836 890.037 682.836 892.934C682.836 895.832 680.485 898.18 677.584 898.18Z" fill="white"/>
<path d="M669.706 897.131C666.805 897.131 664.454 894.782 664.454 891.885C664.454 888.988 666.805 886.639 669.706 886.639C672.607 886.639 674.958 888.988 674.958 891.885C674.958 894.782 672.607 897.131 669.706 897.131Z" fill="white"/>
<path d="M662.878 892.934C660.558 892.934 658.677 891.056 658.677 888.738C658.677 886.42 660.558 884.541 662.878 884.541C665.199 884.541 667.08 886.42 667.08 888.738C667.08 891.056 665.199 892.934 662.878 892.934Z" fill="white"/>
<path d="M676.534 891.361C674.213 891.361 672.332 889.482 672.332 887.164C672.332 884.846 674.213 882.967 676.534 882.967C678.854 882.967 680.736 884.846 680.736 887.164C680.736 889.482 678.854 891.361 676.534 891.361Z" fill="white"/>
<path d="M682.311 893.459C679.991 893.459 678.109 891.58 678.109 889.262C678.109 886.944 679.991 885.065 682.311 885.065C684.632 885.065 686.513 886.944 686.513 889.262C686.513 891.58 684.632 893.459 682.311 893.459Z" fill="white"/>
<path d="M668.656 890.836C666.045 890.836 663.929 888.722 663.929 886.115C663.929 883.507 666.045 881.394 668.656 881.394C671.266 881.394 673.383 883.507 673.383 886.115C673.383 888.722 671.266 890.836 668.656 890.836Z" fill="white"/>
<path d="M690.715 879.82C689.555 879.82 688.614 878.88 688.614 877.721C688.614 876.563 689.555 875.623 690.715 875.623C691.875 875.623 692.816 876.563 692.816 877.721C692.816 878.88 691.875 879.82 690.715 879.82Z" fill="white"/>
<path d="M689.664 881.394C689.084 881.394 688.614 880.689 688.614 879.82C688.614 878.951 689.084 878.246 689.664 878.246C690.244 878.246 690.715 878.951 690.715 879.82C690.715 880.689 690.244 881.394 689.664 881.394Z" fill="#4F4F4F"/>
<path d="M695.473 884.101C695.201 884.2 694.859 883.949 694.71 883.541C694.562 883.132 694.662 882.721 694.934 882.622C695.207 882.523 695.549 882.773 695.697 883.182C695.846 883.59 695.746 884.002 695.473 884.101Z" fill="#4F4F4F"/>
<path d="M434 844H437L438 866H433L434 844Z" fill="#4F4F4F"/>
<path d="M437.539 801.557L446.952 842.606C447.197 843.672 446.481 844.724 445.355 844.955C445.21 844.985 445.061 845 444.912 845H426.087C424.934 845 424 844.116 424 843.025C424 842.884 424.016 842.744 424.047 842.606L433.46 801.557C433.705 800.491 434.816 799.814 435.942 800.045C436.742 800.209 437.366 800.8 437.539 801.557Z" fill="white"/>
<path d="M471.609 873.333H475.391L476.652 901H470.348L471.609 873.333Z" fill="#4F4F4F"/>
<path d="M476.072 819.958L487.94 871.58C488.248 872.921 487.346 874.244 485.926 874.534C485.742 874.572 485.555 874.591 485.368 874.591H461.632C460.178 874.591 459 873.479 459 872.107C459 871.93 459.02 871.754 459.06 871.58L470.928 819.958C471.236 818.617 472.637 817.766 474.058 818.057C475.066 818.263 475.853 819.006 476.072 819.958Z" fill="white"/>
<path d="M68.9566 907H71.0436L71.7392 922H68.261L68.9566 907Z" fill="#4F4F4F"/>
<path d="M71.4188 878.061L77.9667 906.05C78.1367 906.776 77.6393 907.493 76.8556 907.651C76.7545 907.672 76.6513 907.682 76.5478 907.682H63.4519C62.6501 907.682 62 907.079 62 906.335C62 906.239 62.0111 906.143 62.033 906.05L68.5809 878.061C68.751 877.335 69.5241 876.873 70.3077 877.031C70.8638 877.143 71.2981 877.546 71.4188 878.061Z" fill="white"/>
<path d="M95.2173 894.333H96.7825L97.3043 906H94.6956L95.2173 894.333Z" fill="#4F4F4F"/>
<path d="M97.0641 871.826L101.975 893.594C102.103 894.159 101.729 894.717 101.142 894.84C101.066 894.856 100.988 894.864 100.911 894.864H91.089C90.4875 894.864 90 894.395 90 893.816C90 893.742 90.0083 893.667 90.0248 893.594L94.9357 871.826C95.0632 871.26 95.6431 870.901 96.2308 871.024C96.6478 871.111 96.9736 871.424 97.0641 871.826Z" fill="white"/>
<path d="M404.565 863.333H407.435L408.391 884H403.609L404.565 863.333Z" fill="#4F4F4F"/>
<path d="M407.951 823.462L416.954 862.024C417.188 863.025 416.504 864.013 415.426 864.231C415.287 864.259 415.145 864.273 415.003 864.273H396.996C395.894 864.273 395 863.442 395 862.417C395 862.285 395.015 862.153 395.045 862.024L404.049 823.462C404.283 822.461 405.346 821.825 406.423 822.043C407.188 822.197 407.785 822.752 407.951 823.462Z" fill="white"/>
<path d="M760.018 855.446C758.948 856.241 755.59 859.292 754.045 860.718L752.637 856.943C753.582 856.301 755.892 854.743 757.573 853.642C759.673 852.265 763.025 849.801 764.478 848.267C765.931 846.734 768.503 843.415 768.924 842.961C769.345 842.508 770.55 841.617 770.782 841.337C771.013 841.057 770.956 839.126 770.85 838.285C770.743 837.443 770.257 835.747 770.522 835.541C770.733 835.376 771.027 835.88 771.148 836.152C771.589 835.408 772.52 833.774 772.722 833.187C772.974 832.453 773.343 830.378 773.62 829.5C773.897 828.621 773.682 828.539 773.459 828.237C773.281 827.996 773.377 827.785 773.447 827.709L773.831 828.073C773.892 827.809 774.038 827.358 774.141 827.669C774.268 828.056 774.21 828.927 773.846 830.511C773.554 831.778 773.52 832.848 773.539 833.225C773.87 833.27 774.484 833.392 774.289 833.514C774.046 833.666 773.481 833.695 773.167 834.19C772.853 834.685 771.841 836.511 771.791 837.2C771.751 837.751 772.056 839.468 772.214 840.257C773.361 839.837 776.112 838.786 777.941 837.939C780.227 836.88 780.872 835.527 781.825 834.571C782.779 833.615 783.419 832.753 783.563 832.378C783.708 832.002 784.12 832.13 784.129 832.349C784.135 832.524 784.12 832.664 784.112 832.712C784.445 832.594 785.297 832.257 786.043 831.855C786.976 831.353 787.542 830.124 788.314 829.159C789.086 828.194 790.914 826.805 791.347 826.48C791.781 826.154 792.05 824.657 792.388 824.418C792.727 824.179 793.169 823.672 793.441 823.284C793.714 822.897 794.332 822.889 796.194 821.574C797.683 820.522 798.292 819.324 798.411 818.857C798.375 819.11 798.253 819.536 798.032 819.919C797.81 820.302 796.811 821.463 796.342 821.908C796.39 821.917 796.477 821.973 796.441 822.131C796.404 822.289 796.208 822.175 796.115 822.098C796.071 822.132 795.682 822.405 794.481 823.223C792.978 824.245 792.474 825.313 792.053 826.567C791.715 827.57 791.362 827.614 791.227 827.511C790.567 828.026 789.142 829.263 788.726 830.087C788.309 830.912 787.443 831.871 787.062 832.248L789.92 832.98L793.865 831.052C794.13 831.083 794.659 831.18 794.653 831.325C794.646 831.47 794.16 831.484 793.918 831.473L790.394 833.347C790.497 833.48 790.665 833.778 790.513 833.917C790.361 834.055 790.049 833.738 789.911 833.562L786.554 833.007C785.782 833.171 784.115 833.662 783.62 834.308C783.124 834.955 780.917 837.433 779.875 838.592C780.007 838.889 780.192 839.527 779.879 839.701C779.565 839.876 779.151 839.565 778.984 839.387C778.025 839.798 775.717 840.801 774.156 841.529C772.204 842.439 773.265 841.925 771.073 844.097C769.319 845.835 766.505 849.398 765.318 850.962C765.701 850.925 766.41 851.099 766.175 852.092C765.94 853.086 764.427 852.794 763.699 852.524C762.918 853.167 761.088 854.652 760.018 855.446Z" fill="#2B2B2B"/>
<circle cx="741" cy="862" r="19" fill="white"/>
<circle cx="741" cy="836" r="16" fill="white"/>
<circle cx="741" cy="892" r="25" fill="white"/>
<circle cx="741" cy="833" r="2" fill="#4F4F4F"/>
<circle cx="747" cy="854" r="2" fill="#4F4F4F"/>
<circle cx="748.5" cy="862.5" r="2.5" fill="#4F4F4F"/>
<circle cx="748" cy="872" r="2" fill="#4F4F4F"/>
<circle cx="748" cy="833" r="2" fill="#4F4F4F"/>
<path d="M762.988 838.5L744.988 841C741.388 839 743.488 836.167 744.988 835L762.988 838.5Z" fill="#FFAA33"/>
<rect x="724.975" y="810.86" width="15" height="16" transform="rotate(-17.5983 724.975 810.86)" fill="#2B2B2B"/>
<ellipse cx="732.124" cy="808.592" rx="7.5" ry="4" transform="rotate(-17.5983 732.124 808.592)" fill="#2B2B2B"/>
<ellipse cx="736.461" cy="822.263" rx="12.5" ry="5.65782" transform="rotate(-17.5983 736.461 822.263)" fill="#2B2B2B"/>
<path d="M685.216 873.605C682.217 873.943 679.786 874.217 679.786 874.217C679.448 871.218 681.606 868.512 684.605 868.175C687.604 867.837 690.309 869.994 690.647 872.993C690.647 872.993 688.216 873.267 685.216 873.605Z" fill="#2CBEBE"/>
<path d="M690.773 873.028C688.792 872.405 688.18 872.313 686.293 872.525C684.406 872.738 681.244 873.255 679.452 874.303C678.837 874.662 678.492 875.339 678.57 876.033L678.646 876.705C678.715 877.323 679.285 877.766 679.917 877.695C680.067 877.678 680.212 877.633 680.344 877.562C681.98 876.679 684.977 876.254 686.691 876.061C688.405 875.868 688.836 875.907 690.628 876.403C691.239 876.572 691.878 876.225 692.054 875.626C692.096 875.485 692.109 875.337 692.093 875.191L692.017 874.518C691.939 873.824 691.452 873.242 690.773 873.028Z" fill="#DA314F"/>
<path d="M684.55 869.386C683.55 869.499 682.649 868.78 682.536 867.78C682.423 866.78 683.143 865.879 684.142 865.766C685.142 865.653 686.044 866.372 686.156 867.372C686.269 868.372 685.55 869.274 684.55 869.386Z" fill="#DA314F"/>
<path d="M678.072 878.708C682.245 880.709 686.479 887.187 688.361 889.854C688.361 890.211 687.475 891.397 685.931 892.14C679.187 888.368 675.929 884.305 675 882.852C675 882.852 676.015 881.109 678.072 878.708Z" fill="#DA314F"/>
<path d="M689.575 890.14C689.575 886.768 686.813 886.115 685.431 886.21C685.027 886.782 684.303 888.368 684.645 890.14C685.074 892.355 683.931 892.998 684.217 895.427C684.445 897.37 685.979 899.094 686.717 899.714C687.003 899.928 688.389 899.728 691.647 897.213C689.004 894.784 689.575 893.784 689.575 890.14Z" fill="#DA314F"/>
<line x1="0.5" y1="-0.5" x2="1.93337" y2="-0.5" transform="matrix(0.645942 0.763386 0.763386 -0.645942 691.219 896.713)" stroke="#DA314F" stroke-linecap="round"/>
<line x1="0.5" y1="-0.5" x2="1.75932" y2="-0.5" transform="matrix(0.56921 0.822192 0.822192 -0.56921 690.504 897.427)" stroke="#DA314F" stroke-linecap="round"/>
<line x1="0.5" y1="-0.5" x2="1.80407" y2="-0.5" transform="matrix(0.496139 0.868243 0.868243 -0.496139 689.647 897.999)" stroke="#DA314F" stroke-linecap="round"/>
<line x1="0.5" y1="-0.5" x2="1.86529" y2="-0.5" transform="matrix(0.422885 0.906183 0.906183 -0.422885 688.646 898.428)" stroke="#DA314F" stroke-linecap="round"/>
<line x1="0.5" y1="-0.5" x2="1.80849" y2="-0.5" transform="matrix(0.371391 0.928477 0.928477 -0.371391 687.646 898.856)" stroke="#DA314F" stroke-linecap="round"/>
<path d="M719.432 855.821C720.747 856.41 725.004 858.848 726.969 859.993L727.574 855.678C726.427 855.221 723.624 854.116 721.592 853.345C719.053 852.382 714.939 850.563 713.047 849.283C711.155 848.003 707.664 845.099 707.114 844.718C706.563 844.338 705.083 843.679 704.773 843.437C704.464 843.195 704.073 841.144 703.989 840.23C703.905 839.317 704.022 837.413 703.695 837.257C703.433 837.132 703.24 837.733 703.176 838.048C702.537 837.366 701.172 835.858 700.822 835.285C700.385 834.569 699.511 832.465 699.014 831.602C698.516 830.739 698.723 830.602 698.888 830.232C699.02 829.936 698.869 829.735 698.777 829.671L698.457 830.144C698.332 829.88 698.071 829.439 698.036 829.79C697.992 830.229 698.257 831.135 699.011 832.722C699.614 833.992 699.901 835.114 699.969 835.516C699.63 835.641 699.01 835.913 699.244 835.996C699.536 836.101 700.14 835.999 700.587 836.448C701.034 836.897 702.528 838.59 702.742 839.305C702.913 839.878 702.991 841.761 703.009 842.632C701.7 842.456 698.55 841.988 696.421 841.521C693.76 840.937 692.764 839.659 691.534 838.872C690.304 838.085 689.427 837.324 689.187 836.962C688.946 836.599 688.541 836.831 688.583 837.064C688.617 837.25 688.666 837.394 688.686 837.443C688.307 837.396 687.328 837.24 686.447 836.989C685.345 836.676 684.46 835.511 683.42 834.672C682.379 833.834 680.125 832.794 679.591 832.552C679.058 832.309 678.424 830.791 678.011 830.618C677.598 830.444 677.013 830.012 676.635 829.667C676.256 829.321 675.601 829.457 673.329 828.504C671.511 827.741 670.588 826.618 670.354 826.153C670.451 826.411 670.679 826.833 671.002 827.185C671.325 827.538 672.651 828.531 673.251 828.891C673.202 828.911 673.123 828.991 673.198 829.15C673.274 829.308 673.454 829.142 673.535 829.038C673.589 829.064 674.063 829.262 675.523 829.845C677.348 830.573 678.129 831.583 678.867 832.808C679.457 833.789 679.841 833.753 679.959 833.613C680.777 834.002 682.57 834.975 683.202 835.749C683.834 836.522 684.973 837.333 685.463 837.641L682.616 839.082L678.001 837.967C677.728 838.061 677.192 838.287 677.233 838.439C677.274 838.591 677.79 838.492 678.043 838.424L682.201 839.58C682.123 839.744 682.015 840.099 682.208 840.209C682.401 840.32 682.657 839.912 682.761 839.694L686.176 838.324C687.029 838.318 688.904 838.446 689.578 839.013C690.252 839.58 693.161 841.682 694.531 842.662C694.461 843.006 694.415 843.723 694.787 843.834C695.159 843.945 695.523 843.52 695.658 843.294C696.766 843.503 699.437 844.023 701.256 844.428C703.529 844.933 702.289 844.637 705.11 846.419C707.368 847.845 711.17 850.949 712.789 852.323C712.376 852.374 711.668 852.724 712.148 853.718C712.628 854.711 714.158 854.05 714.863 853.595C715.838 854.092 718.117 855.232 719.432 855.821Z" fill="#2B2B2B"/>
<path d="M799.859 866.474C804.555 867.003 808.362 867.432 808.362 867.432C808.891 862.736 805.513 858.5 800.817 857.971C796.121 857.442 791.885 860.82 791.356 865.516C791.356 865.516 795.163 865.945 799.859 866.474Z" fill="#DAD331"/>
<path d="M791.159 865.57C794.261 864.595 795.219 864.45 798.173 864.783C801.128 865.116 806.079 865.926 808.886 867.567C809.849 868.13 810.389 869.189 810.266 870.275L810.148 871.328C810.039 872.296 809.147 872.989 808.157 872.878C807.923 872.851 807.696 872.78 807.489 872.669C804.927 871.287 800.234 870.622 797.55 870.32C794.866 870.017 794.191 870.078 791.386 870.855C790.429 871.12 789.429 870.576 789.152 869.639C789.087 869.417 789.067 869.186 789.092 868.957L789.211 867.904C789.333 866.817 790.095 865.905 791.159 865.57Z" fill="#00AC5A"/>
<path d="M800.903 859.868C802.468 860.045 803.88 858.919 804.056 857.353C804.233 855.788 803.107 854.376 801.541 854.2C799.976 854.023 798.564 855.149 798.388 856.715C798.211 858.28 799.338 859.692 800.903 859.868Z" fill="#00AC5A"/>
<path d="M811.046 876.031C804.513 879.164 797.882 889.307 794.936 893.483C794.936 894.043 796.323 895.9 798.74 897.063C809.301 891.156 814.402 884.795 815.856 882.52C815.856 882.52 814.268 879.79 811.046 876.031Z" fill="#00AC5A"/>
<path d="M793.034 893.931C793.034 888.65 797.36 887.629 799.523 887.778C800.157 888.673 801.291 891.156 800.754 893.931C800.082 897.399 801.872 898.406 801.425 902.209C801.067 905.252 798.665 907.952 797.509 908.922C797.062 909.257 794.891 908.944 789.79 905.006C793.929 901.202 793.034 899.636 793.034 893.931Z" fill="#00AC5A"/>
<line x1="790.52" y1="904.928" x2="788.705" y2="907.073" stroke="#00AC5A" stroke-linecap="round"/>
<line x1="791.706" y1="906.037" x2="790.262" y2="908.124" stroke="#00AC5A" stroke-linecap="round"/>
<line x1="793.108" y1="906.919" x2="791.815" y2="909.183" stroke="#00AC5A" stroke-linecap="round"/>
<line x1="794.73" y1="907.573" x2="793.587" y2="910.023" stroke="#00AC5A" stroke-linecap="round"/>
<line x1="796.333" y1="908.23" x2="795.362" y2="910.657" stroke="#00AC5A" stroke-linecap="round"/>
<path fill-rule="evenodd" clip-rule="evenodd" d="M322.223 186.264C313.786 188.371 304.814 188.938 295.672 187.688C257.193 182.428 230.265 146.97 235.526 108.491C237.381 94.9174 242.995 82.7813 251.173 72.9883C224.1 79.7507 202.536 102.374 198.525 131.71C193.265 170.189 220.193 205.647 258.672 210.908C283.577 214.313 307.217 204.233 322.223 186.264Z" fill="white"/>
</g>
<path d="M1224 762C1194.8 776 1165.17 821.333 1152 840C1152 842.5 1158.2 850.8 1169 856C1216.2 829.6 1239 801.167 1245.5 791C1245.5 791 1238.4 778.8 1224 762Z" fill="#FFAA33"/>
<path d="M1143.5 842C1143.5 818.4 1162.83 813.833 1172.5 814.5C1175.33 818.5 1180.4 829.6 1178 842C1175 857.5 1183 862 1181 879C1179.4 892.6 1168.67 904.667 1163.5 909C1161.5 910.5 1151.8 909.1 1129 891.5C1147.5 874.5 1143.5 867.5 1143.5 842Z" fill="#FFAA33"/>
<line x1="1132.29" y1="891.523" x2="1124.52" y2="900.706" stroke="#FFAA33" stroke-width="5" stroke-linecap="round"/>
<line x1="1137.63" y1="896.479" x2="1131.48" y2="905.368" stroke="#FFAA33" stroke-width="5" stroke-linecap="round"/>
<line x1="1143.93" y1="900.411" x2="1138.41" y2="910.07" stroke="#FFAA33" stroke-width="5" stroke-linecap="round"/>
<line x1="1151.21" y1="903.323" x2="1146.32" y2="913.792" stroke="#FFAA33" stroke-width="5" stroke-linecap="round"/>
<line x1="1158.39" y1="906.25" x2="1154.25" y2="916.607" stroke="#FFAA33" stroke-width="5" stroke-linecap="round"/>
</g>
<defs>
<filter id="filter0_d_1308_668" x="0" y="0" width="1448" height="944" filterUnits="userSpaceOnUse" color-interpolation-filters="sRGB">
<feFlood flood-opacity="0" result="BackgroundImageFix"/>
<feColorMatrix in="SourceAlpha" type="matrix" values="0 0 0 0 0 0 0 0 0 0 0 0 0 0 0 0 0 0 127 0" result="hardAlpha"/>
<feOffset dy="4"/>
<feGaussianBlur stdDeviation="2"/>
<feComposite in2="hardAlpha" operator="out"/>
<feColorMatrix type="matrix" values="0 0 0 0 0 0 0 0 0 0 0 0 0 0 0 0 0 0 0.25 0"/>
<feBlend mode="normal" in2="BackgroundImageFix" result="effect1_dropShadow_1308_668"/>
<feBlend mode="normal" in="SourceGraphic" in2="effect1_dropShadow_1308_668" result="shape"/>
</filter>
<linearGradient id="paint0_linear_1308_668" x1="1169.26" y1="798.718" x2="1238.26" y2="277.756" gradientUnits="userSpaceOnUse">
<stop offset="0.270833" stop-color="#FFACD9" stop-opacity="0"/>
<stop offset="1" stop-color="#FFACD9"/>
</linearGradient>
<linearGradient id="paint1_linear_1308_668" x1="-19.4322" y1="505.43" x2="28.142" y2="146.238" gradientUnits="userSpaceOnUse">
<stop offset="0.197917" stop-color="#FFACD9" stop-opacity="0"/>
<stop offset="1" stop-color="#FFACD9"/>
</linearGradient>
<linearGradient id="paint2_linear_1308_668" x1="439.778" y1="1100.71" x2="351.383" y2="433.313" gradientUnits="userSpaceOnUse">
<stop offset="0.302083" stop-color="#FFACD9" stop-opacity="0"/>
<stop offset="1" stop-color="#FFACD9"/>
</linearGradient>
<clipPath id="clip0_1308_668">
<rect width="1440" height="936" fill="white"/>
</clipPath>
</defs>
</svg>
