<svg xmlns:xlink="http://www.w3.org/1999/xlink" xmlns="http://www.w3.org/2000/svg" contentScriptType="text/ecmascript" zoomAndPan="magnify" contentStyleType="text/css" id="Outline_Version" enable-background="new 0 0 24 24" version="1.1" xml:space="preserve" width="24px" preserveAspectRatio="xMidYMid meet" viewBox="0 0 24 24" height="24px" x="0px" y="0px">
    <g fill="#3e3832">
        <g>
            <path d="M2.656,23.844c-0.667,0-1.294-0.26-1.766-0.732c-0.471-0.47-0.73-1.096-0.73-1.762c0-0.669,0.261-1.298,0.735-1.771    l9.576-9.569c-1.18-2.635-0.614-5.729,1.461-7.804c1.321-1.321,3.088-2.048,4.975-2.048c1.115,0,2.222,0.265,3.202,0.766    c0.142,0.072,0.24,0.208,0.266,0.364c0.026,0.157-0.024,0.316-0.135,0.43l-3.087,3.166v2.105h1.958l3.165-3.155    c0.113-0.113,0.273-0.166,0.431-0.14C22.864,3.719,23,3.817,23.073,3.959c1.389,2.715,0.874,5.989-1.282,8.146    c-1.32,1.32-3.076,2.047-4.943,2.047h0c-0.983,0-1.964-0.209-2.859-0.608l-9.566,9.567C3.951,23.583,3.323,23.844,2.656,23.844z     M16.907,1.157c-1.62,0-3.135,0.624-4.268,1.755c-1.854,1.854-2.304,4.657-1.119,6.972c0.099,0.193,0.062,0.428-0.092,0.582    l-9.827,9.819C1.317,20.57,1.16,20.947,1.16,21.349c0,0.399,0.155,0.773,0.437,1.055c0.568,0.568,1.552,0.567,2.119,0l9.816-9.817    c0.154-0.154,0.39-0.19,0.581-0.092c0.84,0.43,1.786,0.657,2.735,0.657c1.601,0,3.105-0.623,4.236-1.754    c1.682-1.683,2.199-4.157,1.381-6.343l-2.796,2.787c-0.094,0.094-0.221,0.146-0.353,0.146h-2.664c-0.276,0-0.5-0.224-0.5-0.5V4.68    c0-0.13,0.051-0.256,0.142-0.349l2.726-2.795C18.35,1.287,17.631,1.157,16.907,1.157z" />
        </g>
    </g>
</svg>