<svg xmlns="http://www.w3.org/2000/svg" width="24" height="24" viewBox="0 0 24 24"><g stroke="#2a2a2a" stroke-linejoin="round" stroke-miterlimit="10" fill="#2a2a2a"><path d="M.5 10.5v3c0 .825.175 1.5 1 1.5v4.5h3v-4.5c.824 0 .999-.676 1-1.5v-3h-5zM18.5 10.5v3c0 .825.175 1.5 1 1.5v4.5h3v-4.5c.824 0 .999-.676 1-1.5v-3h-5zM8.5 10.5h7v5c0 1.1-.9 2-2 2v6h-3v-6c-1.101 0-2-.9-2-2v-5zM4.5 7c0 .828-.672 1.5-1.5 1.5s-1.5-.672-1.5-1.5.672-1.5 1.5-1.5 1.5.672 1.5 1.5zM22.5 7c0 .828-.672 1.5-1.5 1.5s-1.5-.672-1.5-1.5.672-1.5 1.5-1.5 1.5.672 1.5 1.5zM14.5 6c0 1.381-1.119 2.5-2.5 2.5s-2.5-1.119-2.5-2.5 1.119-2.5 2.5-2.5 2.5 1.119 2.5 2.5z"/></g></svg>