<svg xmlns:xlink="http://www.w3.org/1999/xlink" xmlns="http://www.w3.org/2000/svg" contentScriptType="text/ecmascript" zoomAndPan="magnify" contentStyleType="text/css" id="Outline_Version" enable-background="new 0 0 24 24" version="1.1" xml:space="preserve" width="24px" preserveAspectRatio="xMidYMid meet" viewBox="0 0 24 24" height="24px" x="0px" y="0px">
    <g fill="#3e3832">
        <path d="M12,1C6.997,1,2.853,4.697,2.125,9.5l0,0l0,0C2.051,9.991,2,10.489,2,11v2.5c0,2.864,2.201,5.224,5,5.478V23.5   C7,23.776,7.224,24,7.5,24S8,23.776,8,23.5v-5C8,18.224,7.776,18,7.5,18C5.019,18,3,15.981,3,13.5V11   c0-0.34,0.023-0.675,0.06-1.005C5.002,9.966,6.941,8.577,6.941,5.5c0-0.276-0.224-0.5-0.5-0.5s-0.5,0.224-0.5,0.5   c0,2.438-1.356,3.382-2.705,3.48C4.157,4.988,7.733,2,12,2s7.843,2.988,8.763,6.98c-1.349-0.099-2.705-1.043-2.705-3.48   c0-0.276-0.224-0.5-0.5-0.5s-0.5,0.224-0.5,0.5c0,3.077,1.939,4.466,3.882,4.495C20.977,10.325,21,10.66,21,11v2.5   c0,2.481-2.019,4.5-4.5,4.5c-0.276,0-0.5,0.224-0.5,0.5v5c0,0.276,0.224,0.5,0.5,0.5s0.5-0.224,0.5-0.5v-4.522   c2.799-0.253,5-2.613,5-5.478V11C22,5.486,17.514,1,12,1z" />
        <path d="M10.5,18c-0.276,0-0.5,0.224-0.5,0.5v5c0,0.276,0.224,0.5,0.5,0.5s0.5-0.224,0.5-0.5v-5C11,18.224,10.776,18,10.5,18z" />
        <path d="M13.5,18c-0.276,0-0.5,0.224-0.5,0.5v5c0,0.276,0.224,0.5,0.5,0.5s0.5-0.224,0.5-0.5v-5C14,18.224,13.776,18,13.5,18z" />
        <path d="M20,13.5c0-1.93-1.57-3.5-3.5-3.5S13,11.57,13,13.5s1.57,3.5,3.5,3.5S20,15.43,20,13.5z M14,13.5   c0-1.378,1.122-2.5,2.5-2.5s2.5,1.122,2.5,2.5S17.878,16,16.5,16S14,14.878,14,13.5z" />
        <path d="M7.5,10C5.57,10,4,11.57,4,13.5S5.57,17,7.5,17s3.5-1.57,3.5-3.5S9.43,10,7.5,10z M7.5,16C6.122,16,5,14.878,5,13.5   S6.122,11,7.5,11s2.5,1.122,2.5,2.5S8.878,16,7.5,16z" />
        <path d="M12.892,16.166l-0.445-0.89c-0.17-0.339-0.725-0.339-0.895,0l-0.5,1c-0.078,0.155-0.069,0.339,0.022,0.486   S11.327,17,11.5,17h1c0.007-0.001,0.013,0,0.02,0c0.276,0,0.5-0.224,0.5-0.5C13.02,16.372,12.972,16.254,12.892,16.166z" />
    </g>
</svg>