<svg xmlns:xlink="http://www.w3.org/1999/xlink" xmlns="http://www.w3.org/2000/svg" contentScriptType="text/ecmascript" zoomAndPan="magnify" contentStyleType="text/css" id="Outline_Version" enable-background="new 0 0 24 24" version="1.1" xml:space="preserve" width="24px" preserveAspectRatio="xMidYMid meet" viewBox="0 0 24 24" height="24px" x="0px" y="0px">
 <g stroke="null" id="svg_31">
  <path stroke="#000" fill="none" fill-opacity="null" stroke-width="0.8" stroke-linejoin="null" stroke-linecap="null" stroke-opacity="null" d="m0.506729,11.85706c0,-1.334752 1.230246,-2.798093 2.743057,-3.186351c0.488852,-1.156227 1.19627,-2.581318 2.070529,-3.455579c0.874264,-0.87426 1.915367,-1.581679 3.071597,-2.07053c1.156225,-0.488852 2.427577,-0.75914 3.762327,-0.75914c1.33475,0 2.6061,0.270288 3.762326,0.75914c1.156228,0.488851 2.197333,1.19627 3.071596,2.07053c0.87426,0.874262 1.581678,2.043363 2.07053,3.391582c1.7048,0.516253 2.487066,1.915597 2.487066,3.250349c0,1.33475 -0.526277,2.798092 -2.487065,3.506339c-0.488852,1.156227 -1.196271,2.645313 -2.070531,3.519574c-1.748523,1.748523 -4.164423,2.82967 -6.833923,2.82967c-1.33475,0 -2.606101,-0.270288 -3.762327,-0.75914c-1.156228,-0.488852 -2.197333,-1.196269 -3.071596,-2.07053c-0.87426,-0.874262 -1.581678,-2.235354 -2.07053,-3.391581c-2.088785,-0.452257 -2.743055,-2.299582 -2.743055,-3.634332z" id="svg_17"/>
  <path stroke="#000" fill="none" stroke-width="0.8" stroke-opacity="null" fill-opacity="null" d="m6.554325,10.737108c0,2.688706 4.287819,2.779831 4.287819,0" stroke-linecap="round" id="svg_16"/>
  <path stroke="#000" fill="none" stroke-width="0.8" stroke-opacity="null" fill-opacity="null" d="m13.210342,10.737108c0,2.688706 4.287819,2.779831 4.287819,0" stroke-linecap="round" id="svg_15"/>
  <path stroke="#000" fill="none" stroke-width="0.8" stroke-opacity="null" fill-opacity="null" d="m9.53035,16.560854c0.831964,2.249293 4.095826,2.323356 4.991787,0" stroke-linecap="round" id="svg_14"/>
  <path stroke="#000" id="svg_13" d="m12.154236,2.513467c1.343941,0.757775 2.495892,1.111827 2.75188,2.760469c0.255988,1.648642 -1.215946,3.060715 -2.879875,2.6277c-1.663926,-0.433015 -1.919916,-2.194684 -1.535932,-2.681826" stroke-linecap="round" fill-opacity="null" stroke-opacity="null" stroke-width="0.8" fill="none"/>
 </g>
</svg>