<svg xmlns:xlink="http://www.w3.org/1999/xlink" xmlns="http://www.w3.org/2000/svg" contentScriptType="text/ecmascript" zoomAndPan="magnify" contentStyleType="text/css" id="Outline_Version" enable-background="new 0 0 24 24" version="1.1" xml:space="preserve" width="24px" preserveAspectRatio="xMidYMid meet" viewBox="0 0 24 24" height="24px" x="0px" y="0px">
    <g fill="#3e3832">
        <g>
            <path d="M21,19.012H3c-1.103,0-2-0.897-2-2v-11c0-1.103,0.897-2,2-2h18c1.103,0,2,0.897,2,2v11C23,18.115,22.103,19.012,21,19.012    z M3,5.012c-0.552,0-1,0.449-1,1v11c0,0.551,0.448,1,1,1h18c0.552,0,1-0.449,1-1v-11c0-0.551-0.448-1-1-1H3z" />
        </g>
        <g>
            <path d="M12,13.512c-0.11,0-0.221-0.037-0.313-0.109l-10-8c-0.216-0.173-0.25-0.487-0.078-0.703    C1.783,4.484,2.097,4.45,2.313,4.621L12,12.372l9.688-7.75c0.218-0.172,0.531-0.136,0.703,0.078    c0.172,0.216,0.138,0.53-0.078,0.703l-10,8C12.221,13.475,12.11,13.512,12,13.512z" />
        </g>
    </g>
</svg>