<?xml version="1.0" encoding="utf-8"?>
<!-- Generator: Adobe Illustrator 16.0.0, SVG Export Plug-In . SVG Version: 6.00 Build 0)  -->
<!DOCTYPE svg PUBLIC "-//W3C//DTD SVG 1.1//EN" "http://www.w3.org/Graphics/SVG/1.1/DTD/svg11.dtd">
<svg version="1.1" id="Filled_Version" xmlns="http://www.w3.org/2000/svg" xmlns:xlink="http://www.w3.org/1999/xlink" x="0px"
	 y="0px" width="24px" height="24px" viewBox="0 0 24 24" enable-background="new 0 0 24 24" xml:space="preserve">
<path d="M12,0C5.383,0,0,5.383,0,12c0,3.18,1.232,6.177,3.469,8.438l0,0.001C5.743,22.735,8.772,24,12,24
	c3.234,0,6.268-1.27,8.542-3.573C22.772,18.166,24,15.174,24,12C24,5.383,18.617,0,12,0z M20.095,19.428
	c-1.055-0.626-2.64-1.202-4.32-1.81c-0.418-0.151-0.846-0.307-1.275-0.465v-1.848c0.501-0.309,1.384-1.107,1.49-2.935
	c0.386-0.227,0.63-0.728,0.63-1.37c0-0.578-0.197-1.043-0.52-1.294c0.242-0.757,0.681-2.145,0.385-3.327
	C16.138,4.992,14.256,4.5,12.75,4.5c-1.342,0-2.982,0.391-3.569,1.456C8.477,5.922,8.085,6.229,7.891,6.487
	c-0.635,0.838-0.216,2.368,0.021,3.21C7.583,9.946,7.38,10.415,7.38,11c0,0.643,0.244,1.144,0.63,1.37
	c0.106,1.828,0.989,2.626,1.49,2.935v1.848c-0.385,0.144-0.78,0.287-1.176,0.431c-1.621,0.587-3.288,1.194-4.407,1.857
	C2.04,17.405,1,14.782,1,12C1,5.935,5.935,1,12,1c6.065,0,11,4.935,11,11C23,14.775,21.965,17.394,20.095,19.428z"/>
</svg>
