<svg width="3033" height="3033" viewBox="0 0 3033 3033" fill="none" xmlns="http://www.w3.org/2000/svg">
<circle cx="1516.5" cy="1516.5" r="1516.5" fill="#D4E5FD"/>
<mask id="mask0_2484_92" style="mask-type:alpha" maskUnits="userSpaceOnUse" x="0" y="0" width="3033" height="3033">
<circle cx="1516.5" cy="1516.5" r="1516.5" fill="#E4EEFF"/>
</mask>
<g mask="url(#mask0_2484_92)">
<path d="M641.686 1684.35C615.213 1707.93 612.871 1748.52 636.457 1774.99L1115.59 2312.77C1139.17 2339.25 1179.76 2341.59 1206.23 2318C1232.7 2294.42 1235.04 2253.83 1211.46 2227.36L732.328 1689.58C708.742 1663.1 668.16 1660.76 641.686 1684.35Z" fill="black"/>
<path d="M592.764 1712.54C615.518 1780.38 690.449 1816.43 760.127 1793.06C829.805 1769.7 867.845 1695.75 845.091 1627.91C822.337 1560.06 747.405 1524.01 677.727 1547.38C608.049 1570.75 570.01 1644.69 592.764 1712.54Z" fill="black"/>
<path d="M2615.32 2190.26C2987.92 2190.26 2992.35 2466.52 2947.99 2604.64L1704 3104L1091.5 2997C1087.61 2984.55 959.502 2693.5 1218.08 2485.58C977.621 2303.48 1109.91 2050.96 1218.08 1984.82C1393.17 1832.68 1773.24 1529.58 1892.77 1534.25C2042.18 1540.08 2177.59 1677.82 2209.1 1794.55C2302.49 1782.88 2657.34 1858.75 2615.32 2190.26Z" fill="white"/>
<path d="M1893.41 1517.92C1875.31 1517.21 1853.92 1522.27 1831.01 1530.68C1807.81 1539.2 1781.71 1551.65 1753.71 1566.94C1697.71 1597.53 1632.92 1640.16 1566.76 1687.43C1434.87 1781.68 1296.21 1895.34 1208.34 1971.63C1150.4 2007.69 1088.43 2091.04 1071.25 2188.89C1054.23 2285.82 1081.23 2396.43 1196.35 2489.34L1240.13 2481.78L1227.95 2472.55C1112.62 2385.22 1087.96 2282.69 1103.44 2194.54C1119.21 2104.76 1176.73 2029.26 1226.61 1998.76L1227.77 1998.05L1228.8 1997.15C1316.08 1921.31 1454.46 1807.85 1585.76 1714.03C1651.44 1667.09 1715.03 1625.31 1769.38 1595.63C1796.56 1580.78 1821.13 1569.13 1842.27 1561.37C1863.71 1553.5 1880.35 1550.12 1892.13 1550.58C1962.08 1553.31 2029.84 1587.05 2084.34 1635.07C2138.91 1683.15 2178.56 1744.14 2193.33 1798.81L2197.03 1812.53L2211.13 1810.77C2231.89 1808.17 2269.51 1810.35 2314.17 1820.75C2358.55 1831.09 2408.62 1849.25 2454.38 1877.6C2500.11 1905.94 2541.15 1944.2 2568.32 1994.68C2595.39 2044.99 2609.22 2108.43 2599.1 2188.2L2596.77 2206.6H2615.32C2797.11 2206.6 2884.62 2273.52 2923.33 2352.82C2962.94 2433.99 2954.28 2537.85 2932.83 2604.64H2964.34C2987.25 2533.31 2997.36 2429.98 2952.7 2338.48C2908.6 2248.14 2812.57 2178.53 2633.47 2174.14C2640.23 2096.36 2625.47 2031.92 2597.1 1979.19C2566.63 1922.57 2521 1880.43 2471.59 1849.82C2422.23 1819.23 2368.69 1799.89 2321.59 1788.92C2282.4 1779.8 2246.76 1776.26 2220.98 1777.25C2201.94 1719.07 2160.25 1658.39 2105.95 1610.55C2047.52 1559.07 1972.87 1521.02 1893.41 1517.92Z" fill="black"/>
<path d="M2583.33 1259.27C2615.93 1273.22 2631.05 1310.95 2617.11 1343.55L2333.85 2005.77C2319.91 2038.37 2282.18 2053.5 2249.58 2039.55C2216.98 2025.61 2201.85 1987.88 2215.8 1955.28L2499.05 1293.05C2513 1260.45 2550.73 1245.33 2583.33 1259.27Z" fill="black"/>
<path d="M781.585 1435.71C813.508 1356.8 879.952 1235.63 973.814 1180.05C1073.56 1122.46 1210.54 1126.98 1292.87 1140.54C1314.54 1144.11 1327.4 1165.82 1319.89 1186.46C1292.12 1262.8 1228.95 1381.06 1124.64 1441.29C1020.88 1501.19 887.767 1497.13 807.623 1483.19C785.479 1479.34 773.156 1456.55 781.585 1435.71Z" fill="white"/>
<path d="M965.644 1165.9C1070.43 1105.4 1212.17 1110.68 1295.53 1124.42C1327.18 1129.63 1346.29 1161.69 1335.25 1192.05C1306.98 1269.74 1242.07 1392.36 1132.81 1455.44C1024.13 1518.18 886.38 1513.47 804.824 1499.29C772.168 1493.61 754.2 1459.83 766.436 1429.58C782.741 1389.28 807.859 1338.16 840.999 1289.88C874.046 1241.74 915.729 1195.45 965.488 1165.99L965.644 1165.9ZM982.098 1194.14C938.012 1220.25 899.557 1262.33 867.946 1308.38C836.418 1354.31 812.352 1403.23 796.734 1441.84C792.113 1453.27 798.793 1465.07 810.424 1467.09C889.155 1480.78 1017.64 1484.19 1116.47 1427.13C1215.84 1369.76 1277.25 1255.87 1304.53 1180.88C1308.5 1169.96 1301.9 1158.59 1290.22 1156.67C1208.94 1143.28 1076.79 1139.53 982.098 1194.14Z" fill="black"/>
<path d="M2222.67 1435.71C2190.74 1356.8 2124.3 1235.63 2030.44 1180.05C1930.7 1122.46 1793.72 1126.98 1711.38 1140.54C1689.71 1144.11 1676.85 1165.82 1684.36 1186.46C1712.14 1262.8 1775.3 1381.06 1879.61 1441.29C1983.37 1501.19 2116.49 1497.13 2196.63 1483.19C2218.77 1479.34 2231.1 1456.55 2222.67 1435.71Z" fill="white"/>
<path d="M2038.61 1165.9C1933.82 1105.4 1792.08 1110.68 1708.72 1124.42C1677.07 1129.63 1657.96 1161.69 1669.01 1192.05C1697.27 1269.74 1762.18 1392.36 1871.44 1455.44C1980.12 1518.18 2117.87 1513.47 2199.43 1499.29C2232.08 1493.61 2250.05 1459.83 2237.82 1429.58C2221.51 1389.28 2196.39 1338.16 2163.25 1289.88C2130.21 1241.74 2088.52 1195.45 2038.76 1165.99L2038.61 1165.9ZM2022.15 1194.14C2066.24 1220.25 2104.7 1262.33 2136.31 1308.38C2167.83 1354.31 2191.9 1403.23 2207.52 1441.84C2212.14 1453.27 2205.46 1465.07 2193.83 1467.09C2115.1 1480.78 1986.61 1484.19 1887.78 1427.13C1788.41 1369.76 1727 1255.87 1699.72 1180.88C1695.75 1169.96 1702.35 1158.59 1714.04 1156.67C1795.31 1143.28 1927.46 1139.53 2022.15 1194.14Z" fill="black"/>
<path d="M1935.96 1593.59C1935.96 1932.69 1769.11 2086.37 1508.73 2086.37C1248.35 2086.37 1079.17 1932.69 1079.17 1593.59C1079.17 1254.49 1432.85 858.39 1508.73 858.39C1584.61 858.39 1935.96 1254.49 1935.96 1593.59Z" fill="#FCBA8E"/>
<path d="M1919.62 1593.59C1919.62 1428.96 1833.97 1248.5 1737.34 1108.09C1689.2 1038.15 1638.84 978.884 1596.1 937.293C1574.7 916.47 1555.5 900.359 1539.67 889.578C1531.76 884.185 1524.98 880.325 1519.42 877.864C1513.65 875.314 1510.24 874.732 1508.73 874.732C1507.22 874.732 1503.79 875.315 1498 877.871C1492.42 880.335 1485.62 884.198 1477.67 889.594C1461.78 900.38 1442.48 916.495 1420.97 937.32C1378.01 978.916 1327.36 1038.18 1278.93 1108.13C1181.72 1248.55 1095.52 1428.99 1095.52 1593.59C1095.52 1760.61 1137.18 1879.25 1208.3 1956.04C1279.25 2032.64 1381.77 2070.03 1508.73 2070.03C1635.69 2070.03 1737.59 2032.65 1807.95 1956.09C1878.51 1879.31 1919.62 1760.67 1919.62 1593.59ZM1952.3 1593.59C1952.3 1765.61 1909.98 1893.36 1832.02 1978.2C1753.86 2063.25 1642.15 2102.71 1508.73 2102.71C1375.31 2102.71 1263.05 2063.26 1184.32 1978.25C1105.76 1893.42 1062.83 1765.67 1062.83 1593.59C1062.83 1419.1 1153.47 1231.94 1252.06 1089.53C1301.54 1018.06 1353.54 957.109 1398.23 913.838C1420.55 892.23 1441.34 874.751 1459.31 862.551C1468.29 856.453 1476.87 851.475 1484.8 847.971C1492.53 844.559 1500.76 842.048 1508.73 842.048C1516.71 842.048 1524.93 844.562 1532.65 847.978C1540.57 851.485 1549.12 856.466 1558.07 862.566C1575.99 874.772 1596.68 892.258 1618.89 913.868C1663.37 957.143 1715.08 1018.1 1764.26 1089.56C1862.27 1231.98 1952.3 1419.13 1952.3 1593.59Z" fill="black"/>
<path d="M1417.95 767.342C1450.52 767.342 1479.01 784.778 1494.62 810.823C1507.07 800.929 1522.83 795.015 1539.97 795.015C1560.42 795.015 1578.91 803.436 1592.15 816.995C1614.29 789.77 1648.06 772.374 1685.88 772.373C1740.29 772.373 1786.29 808.353 1801.39 857.815C1816.37 848.318 1834.13 842.816 1853.18 842.816C1906.67 842.816 1950.04 886.18 1950.04 939.673C1950.04 943.196 1949.84 946.674 1949.48 950.099C1992.65 968.112 2023 1010.73 2023 1060.43C2023 1118.26 1981.93 1166.49 1927.36 1177.55C1927.39 1178.34 1927.4 1179.13 1927.4 1179.93C1927.4 1227.17 1889.1 1265.47 1841.86 1265.47C1817.78 1265.47 1796.02 1255.51 1780.48 1239.49C1769.99 1274.88 1737.25 1300.69 1698.46 1300.69C1662.69 1300.69 1632.05 1278.72 1619.28 1247.55C1592.69 1272.69 1556.81 1288.11 1517.33 1288.11C1475.95 1288.11 1438.53 1271.18 1411.61 1243.87C1394.98 1287.39 1352.85 1318.3 1303.48 1318.3C1251.75 1318.3 1207.95 1284.35 1193.13 1237.52C1178.82 1248.72 1160.8 1255.4 1141.22 1255.4C1094.67 1255.4 1056.94 1217.67 1056.94 1171.13C1056.94 1149.97 1064.74 1130.63 1077.61 1115.83C1036.96 1094.98 1009.14 1052.65 1009.14 1003.83C1009.14 934.355 1065.45 878.036 1134.93 878.035C1143.28 878.035 1151.45 878.853 1159.36 880.409C1174.71 839.347 1214.3 810.109 1260.72 810.109C1287.56 810.11 1312.11 819.892 1331.02 836.079C1340.31 796.672 1375.71 767.342 1417.95 767.342Z" fill="white"/>
<path d="M992.795 1003.83C992.795 925.33 1056.43 861.694 1134.93 861.693C1139.81 861.693 1144.64 861.942 1149.41 862.425C1169.87 821.727 1212.01 793.768 1260.72 793.768C1283.37 793.768 1304.63 799.84 1322.94 810.422C1340.08 775.245 1376.17 751 1417.95 751C1450.44 751 1479.48 765.67 1498.84 788.695C1511.15 782.296 1525.15 778.673 1539.97 778.673C1558.8 778.673 1576.29 784.52 1590.69 794.474C1615.33 770.691 1648.9 756.032 1685.88 756.032C1740.83 756.032 1788.19 788.348 1810.07 834.983C1823.36 829.5 1837.93 826.475 1853.18 826.474C1915.7 826.474 1966.38 877.154 1966.38 939.673C1966.38 939.782 1966.38 939.891 1966.38 939.999C2009.72 962.674 2039.34 1008.07 2039.34 1060.43C2039.34 1121.65 1998.86 1173.37 1943.21 1190.36C1937.99 1241.73 1894.61 1281.81 1841.86 1281.81C1821.62 1281.81 1802.76 1275.89 1786.91 1265.72C1769.35 1296.36 1736.34 1317.03 1698.46 1317.03C1663.57 1317.03 1632.81 1299.49 1614.46 1272.78C1587.23 1292.69 1553.64 1304.45 1517.33 1304.45C1479.52 1304.45 1444.67 1291.7 1416.87 1270.29C1393.82 1308.82 1351.69 1334.64 1303.48 1334.64C1251.74 1334.64 1206.97 1304.89 1185.31 1261.58C1171.99 1268.09 1157.02 1271.75 1141.22 1271.75C1085.64 1271.75 1040.59 1226.7 1040.59 1171.13C1040.59 1152.78 1045.52 1135.56 1054.1 1120.75C1017.08 1095.11 992.795 1052.32 992.795 1003.83ZM1025.5 1005.81C1026.24 1047.43 1050.21 1083.41 1085.07 1101.29L1103.64 1110.81L1089.94 1126.55C1079.55 1138.49 1073.28 1154.06 1073.28 1171.13L1073.3 1172.88C1074.23 1209.59 1104.28 1239.06 1141.22 1239.06C1157.02 1239.06 1171.52 1233.68 1183.06 1224.65L1201.6 1210.12L1208.71 1232.59C1221.44 1272.82 1259.08 1301.96 1303.48 1301.96C1345.85 1301.96 1382.06 1275.44 1396.35 1238.04L1405.42 1214.31L1423.25 1232.4C1447.23 1256.72 1480.5 1271.77 1517.33 1271.77L1518.97 1271.76C1553.46 1271.34 1584.74 1257.71 1608.05 1235.68L1625.37 1219.3L1634.4 1241.35C1644.75 1266.61 1669.55 1284.35 1698.46 1284.35L1699.93 1284.33C1730.63 1283.69 1756.45 1263.04 1764.81 1234.85L1772.75 1208.06L1792.21 1228.11C1804.8 1241.09 1822.38 1249.13 1841.86 1249.13L1843.65 1249.1C1881.04 1248.16 1911.06 1217.55 1911.06 1179.93C1911.06 1179.3 1911.05 1178.66 1911.03 1177.99L1910.65 1164.26L1924.12 1161.53C1971.21 1151.98 2006.66 1110.33 2006.66 1060.43C2006.66 1017.55 1980.49 980.744 1943.19 965.18L1931.93 960.486L1933.23 948.36C1933.54 945.484 1933.7 942.588 1933.7 939.673C1933.7 895.206 1897.65 859.158 1853.18 859.158C1837.32 859.158 1822.58 863.729 1810.14 871.618L1792.03 883.103L1785.76 862.587C1772.7 819.805 1732.9 788.716 1685.88 788.716C1653.18 788.716 1624 803.732 1604.83 827.307L1593.27 841.521L1580.46 828.415C1570.16 817.871 1555.84 811.357 1539.97 811.357C1526.65 811.357 1514.45 815.936 1504.78 823.618L1490.18 835.22L1480.6 819.222C1468.02 798.232 1445.27 784.131 1419.2 783.695L1417.95 783.684C1383.46 783.684 1354.52 807.634 1346.93 839.83L1340.77 865.939L1320.4 848.493C1304.84 835.172 1284.81 826.976 1262.85 826.477L1260.72 826.452C1221.34 826.452 1187.71 851.246 1174.67 886.131L1169.81 899.122L1156.2 896.443C1149.33 895.09 1142.22 894.377 1134.93 894.377C1074.48 894.378 1025.48 943.38 1025.48 1003.83L1025.5 1005.81Z" fill="black"/>
<path d="M1443.37 1498.06C1443.37 1543.19 1406.78 1579.77 1361.66 1579.77C1316.53 1579.77 1279.95 1543.19 1279.95 1498.06C1279.95 1452.93 1316.53 1416.35 1361.66 1416.35C1406.78 1416.35 1443.37 1452.93 1443.37 1498.06Z" fill="black"/>
<path d="M1396.4 1455.44C1411.82 1470.58 1418.6 1488.67 1411.56 1495.84C1404.52 1503.01 1386.31 1496.55 1370.89 1481.41C1355.48 1466.27 1348.69 1448.18 1355.73 1441.01C1362.78 1433.84 1380.98 1440.3 1396.4 1455.44Z" fill="white"/>
<path d="M1737.52 1498.06C1737.52 1543.19 1700.94 1579.77 1655.81 1579.77C1610.68 1579.77 1574.1 1543.19 1574.1 1498.06C1574.1 1452.93 1610.68 1416.35 1655.81 1416.35C1700.94 1416.35 1737.52 1452.93 1737.52 1498.06Z" fill="black"/>
<path d="M1690.55 1455.44C1705.97 1470.58 1712.76 1488.67 1705.72 1495.84C1698.67 1503.01 1680.47 1496.55 1665.05 1481.41C1649.63 1466.27 1642.84 1448.18 1649.89 1441.01C1656.93 1433.84 1675.14 1440.3 1690.55 1455.44Z" fill="white"/>
<path d="M1594.63 1814.38C1530.44 1831.76 1521.97 1914.34 1526.83 1968.46C1527.28 1973.47 1533.94 1973.79 1535.35 1968.96C1559.6 1886.06 1587.05 1875.68 1638.98 1862.8C1668.47 1855.48 1686.54 1789.5 1594.63 1814.38Z" fill="black"/>
<path d="M1422.51 1814.38C1486.7 1831.76 1495.17 1914.34 1490.31 1968.46C1489.86 1973.47 1483.19 1973.79 1481.78 1968.96C1457.53 1886.06 1430.09 1875.68 1378.16 1862.8C1348.67 1855.48 1330.6 1789.5 1422.51 1814.38Z" fill="black"/>
<path d="M1271.01 1367.88C1144.41 1352.69 1045.23 1374.21 1011.47 1386.87V1469.17C1011.47 1469.17 1049.64 1482.93 1062.11 1557.79C1068.44 1595.77 1106.42 1690.72 1239.36 1690.72C1372.3 1690.72 1391.29 1659.07 1422.94 1595.77C1454.59 1532.47 1441.93 1456.51 1498.9 1456.51C1555.87 1456.51 1555.87 1513.48 1574.86 1557.79C1593.85 1602.1 1600.18 1690.72 1771.1 1690.72C1942.02 1690.72 1948.35 1589.44 1954.68 1538.8C1959.74 1498.28 1986.33 1475.5 1998.99 1469.17V1386.87C1990.55 1380.54 1936.95 1367.88 1790.09 1367.88C1606.52 1367.88 1555.87 1405.86 1498.9 1399.53C1441.93 1393.2 1429.27 1386.87 1271.01 1367.88Z" fill="black"/>
<path d="M1416.98 1549.1C1442.3 1473.14 1461.29 1397.18 1258.72 1390.85C1062.11 1374.55 1094.13 1428.83 1087.8 1523.78C1081.47 1618.74 1157.44 1663.05 1258.72 1663.05C1360.01 1663.05 1391.66 1625.07 1416.98 1549.1Z" fill="url(#paint0_linear_2484_92)"/>
<path d="M1596.51 1549.1C1571.19 1473.14 1552.2 1397.18 1754.77 1390.85C1951.38 1374.55 1919.36 1428.83 1925.69 1523.78C1932.02 1618.74 1856.05 1663.05 1754.77 1663.05C1653.49 1663.05 1621.83 1625.07 1596.51 1549.1Z" fill="url(#paint1_linear_2484_92)"/>
<path d="M2638.67 1270.44C2638.67 1342 2579.09 1400.01 2505.6 1400.01C2432.11 1400.01 2372.53 1342 2372.53 1270.44C2372.53 1198.88 2432.11 1140.87 2505.6 1140.87C2579.09 1140.87 2638.67 1198.88 2638.67 1270.44Z" fill="black"/>
<path d="M1239.5 2481.5C1019 2673.5 1062.01 2898.56 1104.48 2991.96L1073.53 3006.04C1027.33 2904.44 989.035 2656.46 1204.55 2475L1239.5 2481.5Z" fill="black"/>
<path d="M1155.5 411C1104.7 468.2 1015.33 477.167 977 474.5L992.5 581C1107.3 586.6 1176.33 522 1196.5 489L1155.5 411Z" fill="#B65681"/>
<path d="M1470.14 406.517C1468.39 482.999 1406.03 547.638 1375.07 570.397L1455.77 641.597C1546.95 571.618 1557.82 477.7 1551.86 439.488L1470.14 406.517Z" fill="#00893C"/>
<path d="M2518.33 270.817C2471.04 330.949 2382.37 345.237 2343.94 344.865L2365.78 450.249C2480.71 448.982 2545.76 380.374 2563.92 346.229L2518.33 270.817Z" fill="#00893C"/>
<path d="M1846.31 692.08C1921.94 703.582 1978.09 773.685 1996.7 807.299L2077.63 736.349C2019.87 636.981 1928.11 614.207 1889.45 615.241L1846.31 692.08Z" fill="#00893C"/>
<path d="M2736.46 1502C2803.93 1465.93 2890.87 1488.47 2925.91 1504.25L2948.25 1398.97C2842.5 1353.96 2755.36 1390.65 2725.01 1414.63L2736.46 1502Z" fill="#00893C"/>
<path d="M1247.96 -39.7757C1287.89 25.4746 1270.46 113.581 1256.75 149.479L1363.15 165.651C1401.92 57.4519 1360.22 -27.3963 1334.52 -56.2955L1247.96 -39.7757Z" fill="#B65681"/>
<path d="M897.5 2520C846.7 2577.2 757.333 2586.17 719 2583.5L734.5 2690C849.3 2695.6 918.333 2631 938.5 2598L897.5 2520Z" fill="#B65681"/>
<path d="M683.485 2181.62C648.967 2113.35 673.484 2026.95 690.057 1992.28L585.317 1967.54C537.903 2072.24 572.599 2160.19 595.874 2191.08L683.485 2181.62Z" fill="#00893C"/>
<path d="M266.729 2047.56C295.898 1976.84 377.347 1938.99 414.426 1928.9L364.771 1833.42C254.513 1865.88 210.558 1949.58 202.363 1987.38L266.729 2047.56Z" fill="#00893C"/>
<path d="M68.9887 931.14C143.092 912.135 222.19 954.683 252.476 978.333L299.19 881.378C207.156 812.53 113.799 827.472 78.6249 843.55L68.9887 931.14Z" fill="#00893C"/>
<path d="M2180.33 186.698C2182.8 220.959 2174.5 262.609 2135.88 288.536C2101.29 311.76 2054.23 313.53 2002.13 304.369C1945.11 294.341 1924.36 303.055 1918.85 307.051C1916.59 308.688 1911.27 313.49 1912.82 334.598C1914.37 355.65 1922.39 381.669 1932.95 408.347C1938.06 421.275 1943.39 433.441 1948.27 444.524C1952.81 454.817 1957.78 465.935 1960.88 474.399L1870.74 507.471C1868.99 502.681 1865.7 495.218 1860.44 483.308C1855.54 472.188 1849.55 458.529 1843.69 443.716C1832.3 414.913 1819.74 377.783 1817.08 341.665C1814.43 305.602 1821.25 259.21 1862.49 229.275C1900.49 201.697 1954.59 198.46 2018.75 209.742C2063.6 217.629 2079.34 210.808 2082.41 208.747C2083.03 208.326 2083.18 208.221 2083.55 207.213C2084.18 205.52 2085.14 201.363 2084.58 193.605C2083.41 177.427 2076.42 154.988 2064.09 129.1C2052.11 103.94 2036.7 78.8231 2022.02 58.2096L2100.22 2.46848C2117.49 26.7447 2135.95 56.6745 2150.76 87.7688C2165.21 118.134 2177.91 153.157 2180.33 186.698Z" fill="#0063C1"/>
<path d="M782.759 742.378C810.62 762.471 837.242 795.557 832.344 841.816C827.956 883.251 799.116 920.479 758.658 954.556C714.373 991.858 707.742 1013.36 707.274 1020.15C707.082 1022.93 707.346 1030.1 724.532 1042.45C741.673 1054.77 766.776 1065.32 794.009 1074.34C807.206 1078.71 819.955 1082.44 831.591 1085.8C842.396 1088.93 854.11 1092.25 862.59 1095.31L830.116 1185.66C825.316 1183.93 817.48 1181.67 804.976 1178.05C793.301 1174.67 778.981 1170.5 763.86 1165.49C734.457 1155.75 697.925 1141.55 668.516 1120.41C639.153 1099.31 607.951 1064.31 611.458 1013.47C614.689 966.629 646.923 923.058 696.747 881.091C731.576 851.754 736.444 835.306 736.834 831.628C736.914 830.877 736.924 830.701 736.392 829.766C735.497 828.196 732.923 824.796 726.614 820.246C713.459 810.758 691.761 801.723 663.996 794.564C637.013 787.607 607.855 783.315 582.631 781.339L590.055 685.601C619.761 687.928 654.56 692.978 687.908 701.576C720.475 709.973 755.485 722.707 782.759 742.378Z" fill="#0063C1"/>
<path d="M3148.41 1859.63C3128.86 1887.88 3096.3 1915.14 3049.95 1911.14C3008.44 1907.56 2970.66 1879.45 2935.8 1839.67C2897.64 1796.12 2876.01 1789.91 2869.21 1789.57C2866.43 1789.44 2859.27 1789.84 2847.25 1807.26C2835.27 1824.64 2825.22 1849.94 2816.72 1877.35C2812.61 1890.63 2809.14 1903.45 2806 1915.15C2803.09 1926.01 2799.99 1937.79 2797.1 1946.33L2706.13 1915.62C2707.77 1910.79 2709.88 1902.91 2713.25 1890.34C2716.4 1878.6 2720.29 1864.2 2725 1848.98C2734.17 1819.4 2747.65 1782.59 2768.21 1752.78C2788.74 1723.01 2823.13 1691.13 2874.03 1693.65C2920.92 1695.96 2965.11 1727.34 3008.04 1776.34C3038.05 1810.59 3054.59 1815.13 3058.28 1815.45C3059.03 1815.52 3059.21 1815.52 3060.13 1814.97C3061.68 1814.05 3065.03 1811.41 3069.46 1805.01C3078.69 1791.67 3087.3 1769.81 3093.91 1741.91C3100.34 1714.79 3104.07 1685.56 3105.55 1660.3L3201.41 1665.85C3199.67 1695.6 3195.3 1730.49 3187.35 1764C3179.59 1796.72 3167.54 1831.98 3148.41 1859.63Z" fill="#0063C1"/>
<path d="M2391.08 671.232C2424.71 664.229 2467.09 666.905 2497.92 701.733C2525.54 732.931 2533.56 779.336 2531.41 832.189C2529.06 890.042 2540.46 909.448 2545.15 914.372C2547.07 916.391 2552.54 921.033 2573.26 916.683C2593.91 912.345 2618.63 900.933 2643.67 886.924C2655.8 880.135 2667.15 873.237 2677.49 866.92C2687.08 861.053 2697.44 854.653 2705.42 850.454L2750.19 935.386C2745.68 937.763 2738.72 942.019 2727.61 948.808C2717.24 955.146 2704.5 962.902 2690.6 970.681C2663.57 985.806 2628.44 1003.19 2593 1010.63C2557.61 1018.06 2510.72 1017.47 2475.57 980.579C2443.18 946.59 2432.77 893.401 2435.42 828.311C2437.27 782.81 2428.41 768.118 2425.96 765.349C2425.46 764.784 2425.34 764.657 2424.29 764.42C2422.53 764.02 2418.28 763.626 2410.66 765.212C2394.78 768.519 2373.48 778.436 2349.46 794.098C2326.12 809.318 2303.27 827.941 2284.79 845.225L2219.15 775.146C2240.91 754.791 2268.12 732.516 2296.96 713.705C2325.13 695.335 2358.16 678.089 2391.08 671.232Z" fill="#B65681"/>
<path d="M617.156 62.7161C650.785 55.7124 693.168 58.3887 724.003 93.2172C751.623 124.415 759.639 170.819 757.49 223.672C755.139 281.526 766.537 300.932 771.229 305.856C773.152 307.875 778.62 312.516 799.334 308.167C819.992 303.829 844.712 292.417 869.75 278.407C881.882 271.619 893.231 264.721 903.566 258.404C913.163 252.537 923.522 246.137 931.498 241.938L976.268 326.87C971.754 329.247 964.796 333.503 953.69 340.292C943.321 346.63 930.581 354.386 916.68 362.164C889.648 377.29 854.519 394.671 819.076 402.114C783.688 409.546 736.8 408.956 701.644 372.063C669.256 338.074 658.849 284.884 661.495 219.795C663.344 174.294 654.489 159.602 652.038 156.833C651.538 156.268 651.414 156.141 650.365 155.904C648.603 155.504 644.357 155.11 636.742 156.696C620.863 160.003 599.554 169.92 575.536 185.582C552.194 200.802 529.351 219.425 510.873 236.709L445.224 166.63C466.986 146.275 494.193 124 523.042 105.189C551.213 86.8192 584.235 69.5726 617.156 62.7161Z" fill="#0063C1"/>
<path d="M311.194 2253.15C341.769 2237.5 383.348 2228.86 422.303 2254.28C457.197 2277.05 477.211 2319.68 489.131 2371.22C502.178 2427.63 518.306 2443.32 524.135 2446.83C526.524 2448.27 533.026 2451.3 551.849 2441.62C570.622 2431.97 591.439 2414.42 611.875 2394.28C621.777 2384.52 630.896 2374.87 639.189 2366.04C646.891 2357.84 655.186 2348.93 661.766 2342.77L727.422 2412.82C723.698 2416.3 718.115 2422.25 709.203 2431.74C700.882 2440.59 690.649 2451.45 679.303 2462.63C657.24 2484.37 627.965 2510.43 595.756 2526.99C563.598 2543.52 518.227 2555.37 474.558 2529.1C434.329 2504.89 410.212 2456.36 395.533 2392.89C385.271 2348.52 372.843 2336.7 369.747 2334.68C369.114 2334.26 368.962 2334.17 367.888 2334.22C366.083 2334.3 361.883 2335.05 354.959 2338.59C340.522 2345.99 322.599 2361.19 303.584 2382.65C285.104 2403.51 268.006 2427.51 254.762 2449.07L172.904 2398.87C188.501 2373.48 208.841 2344.8 231.681 2319.02C253.984 2293.85 281.262 2268.48 311.194 2253.15Z" fill="#0063C1"/>
<path d="M486.251 1375.13C488.295 1409.42 479.49 1450.97 440.552 1476.42C405.673 1499.21 358.596 1500.4 306.616 1490.6C249.718 1479.87 228.862 1488.32 223.308 1492.25C221.032 1493.86 215.645 1498.6 216.939 1519.72C218.23 1540.79 225.93 1566.91 236.154 1593.72C241.108 1606.7 246.284 1618.94 251.033 1630.08C255.443 1640.43 260.27 1651.6 263.266 1660.11L172.731 1692.06C171.036 1687.25 167.835 1679.75 162.732 1667.78C157.967 1656.6 152.145 1642.86 146.468 1627.98C135.429 1599.04 123.336 1561.76 121.12 1525.61C118.909 1489.52 126.303 1443.21 167.913 1413.79C206.245 1386.68 260.383 1384.11 324.398 1396.18C369.147 1404.62 384.969 1398 388.065 1395.97C388.697 1395.56 388.84 1395.46 389.228 1394.45C389.879 1392.77 390.886 1388.62 390.423 1380.86C389.458 1364.67 382.741 1342.15 370.735 1316.11C359.067 1290.8 343.96 1265.5 329.544 1244.7L408.416 1189.93C425.393 1214.42 443.48 1244.57 457.901 1275.85C471.983 1306.39 484.25 1341.57 486.251 1375.13Z" fill="#B65681"/>
</g>
<defs>
<linearGradient id="paint0_linear_2484_92" x1="1259.86" y1="1387.98" x2="1259.86" y2="1663.05" gradientUnits="userSpaceOnUse">
<stop stop-color="#7D7D7D"/>
<stop offset="1" stop-color="#272626" stop-opacity="0"/>
</linearGradient>
<linearGradient id="paint1_linear_2484_92" x1="1753.63" y1="1387.98" x2="1753.63" y2="1663.05" gradientUnits="userSpaceOnUse">
<stop stop-color="#7D7D7D"/>
<stop offset="1" stop-color="#272626" stop-opacity="0"/>
</linearGradient>
</defs>
</svg>
